M48
; DRILL file {KiCad 9.0.2} date 2026-09-24T17:03:10-0400
; FORMAT={-:-/ absolute / metric / decimal}
; #@! TF.CreationDate,2026-09-24T17:03:10-04:00
; #@! TF.GenerationSoftware,Kicad,Pcbnew,9.0.2
; #@! TF.FileFunction,Plated,1,8,PTH
FMAT,2
METRIC
; #@! TA.AperFunction,Plated,PTH,ViaDrill
T1C0.300
; #@! TA.AperFunction,Plated,PTH,ComponentDrill
T2C1.200
%
G90
G05
T1
X126.53Y-85.8
X126.53Y-86.8
X126.53Y-87.8
X126.53Y-88.8
X126.53Y-89.8
X126.53Y-90.8
X126.53Y-91.8
X126.53Y-92.8
X126.54Y-93.83
X126.62Y-97.14
X126.62Y-98.14
X126.62Y-99.14
X126.62Y-100.14
X126.62Y-101.14
X126.62Y-102.14
X127.53Y-85.8
X127.53Y-86.8
X127.53Y-87.8
X127.53Y-88.8
X127.53Y-89.8
X127.53Y-90.8
X127.53Y-91.8
X127.53Y-92.8
X127.54Y-93.83
X127.62Y-102.14
X128.53Y-85.8
X128.53Y-86.8
X128.53Y-87.8
X128.53Y-88.8
X128.53Y-89.8
X128.53Y-90.8
X128.53Y-91.8
X128.53Y-92.8
X128.54Y-93.83
X128.62Y-97.14
X128.62Y-98.14
X128.62Y-99.14
X128.62Y-100.14
X128.62Y-101.14
X128.62Y-102.14
X128.96Y-79.57
X129.53Y-85.8
X129.53Y-86.8
X129.53Y-87.8
X129.53Y-88.8
X129.53Y-89.8
X129.53Y-90.8
X129.53Y-91.8
X129.53Y-92.8
X129.54Y-93.83
X129.62Y-97.14
X129.62Y-98.14
X129.62Y-99.14
X129.62Y-100.14
X129.62Y-101.14
X129.62Y-102.14
X130.53Y-85.8
X130.53Y-86.8
X130.53Y-87.8
X130.53Y-88.8
X130.53Y-89.8
X130.53Y-90.8
X130.53Y-91.8
X130.53Y-92.8
X130.54Y-93.83
X130.62Y-97.14
X130.62Y-98.14
X130.62Y-99.14
X130.62Y-100.14
X130.62Y-101.14
X130.62Y-102.14
X131.53Y-85.8
X131.53Y-86.8
X131.53Y-87.8
X131.53Y-88.8
X131.53Y-89.8
X131.53Y-90.8
X131.53Y-91.8
X131.53Y-92.8
X131.54Y-93.83
X131.62Y-97.14
X131.62Y-98.14
X131.62Y-99.14
X131.62Y-100.14
X131.62Y-101.14
X131.62Y-102.14
X132.53Y-85.8
X132.53Y-90.8
X132.53Y-91.8
X132.53Y-92.8
X132.54Y-93.83
X132.62Y-97.14
X132.62Y-102.14
X133.53Y-85.8
X133.53Y-86.8
X133.53Y-87.8
X133.53Y-88.8
X133.53Y-89.8
X133.53Y-90.8
X133.53Y-91.8
X133.53Y-92.8
X133.54Y-93.83
X133.62Y-97.14
X133.62Y-98.14
X133.62Y-99.14
X133.62Y-100.14
X133.62Y-101.14
X133.62Y-102.14
X134.53Y-85.8
X134.53Y-86.8
X134.53Y-87.8
X134.53Y-88.8
X134.53Y-89.8
X134.53Y-90.8
X134.53Y-91.8
X134.53Y-92.8
X134.62Y-97.14
X134.62Y-98.14
X134.62Y-99.14
X134.62Y-100.14
X134.62Y-101.14
X134.62Y-102.14
X135.53Y-85.8
X135.53Y-86.8
X135.53Y-87.8
X135.53Y-88.8
X135.53Y-89.8
X135.53Y-90.8
X135.53Y-91.8
X135.62Y-97.14
X135.62Y-98.14
X135.62Y-99.14
X135.62Y-100.14
X135.62Y-101.14
X135.62Y-102.14
X136.51Y-97.17
X136.51Y-98.17
X136.51Y-99.17
X136.51Y-100.17
X136.51Y-101.17
X136.51Y-102.17
X136.53Y-85.8
X136.53Y-86.8
X136.53Y-87.8
X136.53Y-88.8
X136.53Y-89.8
X136.53Y-90.8
X137.36Y-97.21
X137.36Y-98.21
X137.36Y-99.21
X137.36Y-100.21
X137.36Y-101.21
X137.36Y-102.21
X137.93Y-93.03
X137.93Y-94.03
X138.39Y-99.035
X138.71Y-102.23
X138.93Y-92.03
X138.93Y-93.03
X138.93Y-94.03
X139.75Y-98.08
X139.75Y-99.64
X139.76Y-97.31
X139.76Y-98.81
X139.82Y-100.95
X139.93Y-91.03
X139.93Y-92.03
X139.93Y-93.03
X139.93Y-94.03
X140.05Y-102.26
X140.5Y-97.33
X140.5Y-98.84
X140.52Y-98.09
X140.52Y-99.65
X140.84Y-101.26
X140.93Y-90.03
X140.93Y-91.03
X140.93Y-92.03
X140.93Y-93.03
X140.93Y-94.03
X141.24Y-102.3
X141.88Y-88.97
X141.89Y-87.92
X141.93Y-90.03
X141.93Y-91.03
X141.93Y-92.03
X141.93Y-93.03
X141.93Y-94.03
X141.98Y-101.28
X142.4Y-102.3
X142.74Y-95.2
X142.91Y-88.99
X142.92Y-87.94
X142.93Y-90.03
X142.93Y-91.03
X142.93Y-92.03
X142.93Y-93.03
X142.93Y-94.03
X143.01Y-101.27
X143.4Y-97.71
X143.4Y-98.58
X143.4Y-99.5
X143.62Y-102.3
X143.91Y-89.0
X143.92Y-87.95
X143.93Y-90.03
X143.93Y-91.03
X143.93Y-92.03
X143.93Y-93.03
X143.93Y-94.03
X144.02Y-101.28
X144.93Y-91.03
X144.93Y-92.03
X144.93Y-93.03
X144.93Y-94.03
X144.93Y-102.3
X144.95Y-97.1
X145.05Y-101.32
X145.93Y-92.03
X145.93Y-93.03
X145.93Y-94.03
X145.96Y-101.32
X145.96Y-102.33
X145.98Y-99.21
X145.99Y-97.09
X145.99Y-97.83
X146.0Y-100.23
X146.93Y-92.03
X146.93Y-93.03
X146.93Y-94.03
X148.32Y-80.41
X148.33Y-84.64
X148.33Y-87.56
X148.97Y-97.5
X149.3Y-86.74
T2
X131.19Y-82.32
X146.43Y-82.32
M30
