%TF.GenerationSoftware,KiCad,Pcbnew,9.0.2*%
%TF.CreationDate,2026-09-24T17:03:14-04:00*%
%TF.ProjectId,AntisparkBoard_V1,416e7469-7370-4617-926b-426f6172645f,rev?*%
%TF.SameCoordinates,Original*%
%TF.FileFunction,Copper,L2,Inr*%
%TF.FilePolarity,Positive*%
%FSLAX46Y46*%
G04 Gerber Fmt 4.6, Leading zero omitted, Abs format (unit mm)*
G04 Created by KiCad (PCBNEW 9.0.2) date 2026-09-24 17:03:14*
%MOMM*%
%LPD*%
G01*
G04 APERTURE LIST*
%TA.AperFunction,ComponentPad*%
%ADD10C,2.400000*%
%TD*%
%TA.AperFunction,ViaPad*%
%ADD11C,0.600000*%
%TD*%
G04 APERTURE END LIST*
D10*
%TO.N,Net-(Q3-D_1)*%
%TO.C,R3*%
X131190000Y-82320000D03*
%TO.N,Load-*%
X146430000Y-82320000D03*
%TD*%
D11*
%TO.N,Net-(D1-K)*%
X138390000Y-99035000D03*
%TO.N,Batt-*%
X140050000Y-102260000D03*
X137360000Y-100210000D03*
X139760000Y-97310000D03*
X128620000Y-97140000D03*
X145050000Y-101320000D03*
X126620000Y-98140000D03*
X130620000Y-101140000D03*
X148320000Y-80410000D03*
X137360000Y-102210000D03*
X131620000Y-100140000D03*
X136510000Y-97170000D03*
X136510000Y-101170000D03*
X137360000Y-97210000D03*
X140520000Y-99650000D03*
X130620000Y-100140000D03*
X129620000Y-101140000D03*
X139750000Y-98080000D03*
X133620000Y-99140000D03*
X130620000Y-99140000D03*
X129620000Y-99140000D03*
X138710000Y-102230000D03*
X129620000Y-102140000D03*
X141980000Y-101280000D03*
X135620000Y-98140000D03*
X129620000Y-97140000D03*
X133620000Y-100140000D03*
X133620000Y-98140000D03*
X143010000Y-101270000D03*
X135620000Y-100140000D03*
X133620000Y-97140000D03*
X135620000Y-101140000D03*
X128620000Y-99140000D03*
X139760000Y-98810000D03*
X136510000Y-98170000D03*
X126620000Y-102140000D03*
X136510000Y-102170000D03*
X145960000Y-102330000D03*
X128620000Y-100140000D03*
X141240000Y-102300000D03*
X131620000Y-98140000D03*
X139750000Y-99640000D03*
X144930000Y-102300000D03*
X145980000Y-99210000D03*
X137360000Y-101210000D03*
X136510000Y-100170000D03*
X130620000Y-98140000D03*
X145990000Y-97090000D03*
X129620000Y-100140000D03*
X134620000Y-101140000D03*
X144020000Y-101280000D03*
X140500000Y-98840000D03*
X136510000Y-99170000D03*
X134620000Y-97140000D03*
X142400000Y-102300000D03*
X128620000Y-101140000D03*
X126620000Y-99140000D03*
X140500000Y-97330000D03*
X129620000Y-98140000D03*
X143400000Y-99500000D03*
X128620000Y-98140000D03*
X145960000Y-101320000D03*
X126620000Y-97140000D03*
X127620000Y-102140000D03*
X131620000Y-101140000D03*
X132620000Y-102140000D03*
X130620000Y-97140000D03*
X140520000Y-98090000D03*
X134620000Y-100140000D03*
X135620000Y-97140000D03*
X137360000Y-99210000D03*
X137360000Y-98210000D03*
X128620000Y-102140000D03*
X132620000Y-97140000D03*
X133620000Y-101140000D03*
X131620000Y-102140000D03*
X144950000Y-97100000D03*
X130620000Y-102140000D03*
X133620000Y-102140000D03*
X134620000Y-102140000D03*
X143400000Y-98580000D03*
X131620000Y-97140000D03*
X146000000Y-100230000D03*
X126620000Y-100140000D03*
X143620000Y-102300000D03*
X140840000Y-101260000D03*
X135620000Y-99140000D03*
X139820000Y-100950000D03*
X145990000Y-97830000D03*
X134620000Y-98140000D03*
X135620000Y-102140000D03*
X131620000Y-99140000D03*
X143400000Y-97710000D03*
X134620000Y-99140000D03*
X126620000Y-101140000D03*
%TO.N,Load-*%
X127530000Y-90800000D03*
X145930000Y-92030000D03*
X136530000Y-86800000D03*
X127530000Y-86800000D03*
X133530000Y-90800000D03*
X140930000Y-94030000D03*
X134530000Y-86800000D03*
X128530000Y-86800000D03*
X129530000Y-88800000D03*
X130530000Y-91800000D03*
X134530000Y-85800000D03*
X133530000Y-91800000D03*
X138930000Y-92030000D03*
X135530000Y-91800000D03*
X132530000Y-91800000D03*
X127530000Y-89800000D03*
X133530000Y-86800000D03*
X142910000Y-88990000D03*
X138930000Y-94030000D03*
X129530000Y-92800000D03*
X131530000Y-87800000D03*
X134530000Y-88800000D03*
X136530000Y-89800000D03*
X143910000Y-89000000D03*
X133540000Y-93830000D03*
X127530000Y-92800000D03*
X135530000Y-88800000D03*
X141890000Y-87920000D03*
X132530000Y-85800000D03*
X128530000Y-88800000D03*
X129530000Y-90800000D03*
X140930000Y-92030000D03*
X131530000Y-92800000D03*
X127530000Y-85800000D03*
X135530000Y-85800000D03*
X129540000Y-93830000D03*
X126530000Y-90800000D03*
X130530000Y-85800000D03*
X131530000Y-88800000D03*
X126530000Y-87800000D03*
X131540000Y-93830000D03*
X141880000Y-88970000D03*
X128530000Y-87800000D03*
X130530000Y-88800000D03*
X133530000Y-89800000D03*
X128530000Y-92800000D03*
X135530000Y-87800000D03*
X129530000Y-86800000D03*
X136530000Y-90800000D03*
X145930000Y-93030000D03*
X140930000Y-90030000D03*
X128530000Y-90800000D03*
X134530000Y-89800000D03*
X133530000Y-85800000D03*
X130530000Y-92800000D03*
X146930000Y-93030000D03*
X136530000Y-85800000D03*
X143930000Y-90030000D03*
X142930000Y-92030000D03*
X133530000Y-88800000D03*
X143930000Y-94030000D03*
X135530000Y-89800000D03*
X138930000Y-93030000D03*
X133530000Y-92800000D03*
X143930000Y-93030000D03*
X139930000Y-94030000D03*
X144930000Y-94030000D03*
X127530000Y-88800000D03*
X131530000Y-86800000D03*
X126530000Y-91800000D03*
X131530000Y-89800000D03*
X126540000Y-93830000D03*
X141930000Y-91030000D03*
X139930000Y-91030000D03*
X143930000Y-92030000D03*
X126530000Y-85800000D03*
X127530000Y-87800000D03*
X129530000Y-89800000D03*
X141930000Y-93030000D03*
X136530000Y-87800000D03*
X126530000Y-89800000D03*
X142930000Y-94030000D03*
X145930000Y-94030000D03*
X130530000Y-86800000D03*
X134530000Y-92800000D03*
X134530000Y-91800000D03*
X143930000Y-91030000D03*
X128540000Y-93830000D03*
X128530000Y-91800000D03*
X134530000Y-90800000D03*
X127530000Y-91800000D03*
X142920000Y-87940000D03*
X130530000Y-89800000D03*
X128530000Y-85800000D03*
X141930000Y-94030000D03*
X130530000Y-90800000D03*
X134530000Y-87800000D03*
X130540000Y-93830000D03*
X137930000Y-94030000D03*
X140930000Y-93030000D03*
X137930000Y-93030000D03*
X132540000Y-93830000D03*
X130530000Y-87800000D03*
X142930000Y-90030000D03*
X136530000Y-88800000D03*
X142930000Y-93030000D03*
X140930000Y-91030000D03*
X143920000Y-87950000D03*
X144930000Y-91030000D03*
X139930000Y-93030000D03*
X126530000Y-92800000D03*
X132530000Y-92800000D03*
X142930000Y-91030000D03*
X127540000Y-93830000D03*
X132530000Y-90800000D03*
X129530000Y-91800000D03*
X129530000Y-87800000D03*
X135530000Y-90800000D03*
X126530000Y-86800000D03*
X126530000Y-88800000D03*
X131530000Y-85800000D03*
X144930000Y-93030000D03*
X146930000Y-92030000D03*
X141930000Y-92030000D03*
X129530000Y-85800000D03*
X131530000Y-91800000D03*
X139930000Y-92030000D03*
X131530000Y-90800000D03*
X141930000Y-90030000D03*
X144930000Y-92030000D03*
X135530000Y-86800000D03*
X146930000Y-94030000D03*
X133530000Y-87800000D03*
X128530000Y-89800000D03*
%TO.N,Batt+*%
X148970000Y-97500000D03*
X128960000Y-79570000D03*
X149300000Y-86740000D03*
%TO.N,Net-(D4-K)*%
X148330000Y-87560000D03*
X148330000Y-84640000D03*
X142740000Y-95200002D03*
%TD*%
%TA.AperFunction,Conductor*%
%TO.N,Batt-*%
G36*
X135700000Y-102629500D02*
G01*
X128470000Y-102629500D01*
X128470000Y-96760000D01*
X135700000Y-96760000D01*
X135700000Y-102629500D01*
G37*
%TD.AperFunction*%
%TD*%
%TA.AperFunction,Conductor*%
%TO.N,Batt-*%
G36*
X146463039Y-96779685D02*
G01*
X146508794Y-96832489D01*
X146520000Y-96884000D01*
X146520000Y-102505500D01*
X146500315Y-102572539D01*
X146447511Y-102618294D01*
X146396000Y-102629500D01*
X139290000Y-102629500D01*
X139290000Y-96760000D01*
X146396000Y-96760000D01*
X146463039Y-96779685D01*
G37*
%TD.AperFunction*%
%TD*%
%TA.AperFunction,Conductor*%
%TO.N,Load-*%
G36*
X147533039Y-85278691D02*
G01*
X147578794Y-85331495D01*
X147590000Y-85383006D01*
X147590000Y-87230046D01*
X147580562Y-87277497D01*
X147560262Y-87326506D01*
X147560260Y-87326511D01*
X147529500Y-87481153D01*
X147529500Y-87638846D01*
X147560261Y-87793489D01*
X147560263Y-87793497D01*
X147580561Y-87842500D01*
X147590000Y-87889953D01*
X147590000Y-94516000D01*
X147570315Y-94583039D01*
X147517511Y-94628794D01*
X147466000Y-94640000D01*
X143363439Y-94640000D01*
X143296400Y-94620315D01*
X143275758Y-94603681D01*
X143250292Y-94578215D01*
X143250288Y-94578212D01*
X143119185Y-94490611D01*
X143119172Y-94490604D01*
X142973501Y-94430266D01*
X142973489Y-94430263D01*
X142818845Y-94399502D01*
X142818842Y-94399502D01*
X142661158Y-94399502D01*
X142661155Y-94399502D01*
X142506510Y-94430263D01*
X142506498Y-94430266D01*
X142360827Y-94490604D01*
X142360814Y-94490611D01*
X142229711Y-94578212D01*
X142229707Y-94578215D01*
X142204242Y-94603681D01*
X142142919Y-94637166D01*
X142116561Y-94640000D01*
X126324500Y-94640000D01*
X126257461Y-94620315D01*
X126211706Y-94567511D01*
X126200500Y-94516000D01*
X126200500Y-85383006D01*
X126220185Y-85315967D01*
X126272989Y-85270212D01*
X126324500Y-85259006D01*
X147466000Y-85259006D01*
X147533039Y-85278691D01*
G37*
%TD.AperFunction*%
%TD*%
%TA.AperFunction,Conductor*%
%TO.N,Batt-*%
G36*
X146463039Y-96779685D02*
G01*
X146508794Y-96832489D01*
X146520000Y-96884000D01*
X146520000Y-102505500D01*
X146500315Y-102572539D01*
X146447511Y-102618294D01*
X146396000Y-102629500D01*
X126324500Y-102629500D01*
X126257461Y-102609815D01*
X126211706Y-102557011D01*
X126200500Y-102505500D01*
X126200500Y-98956153D01*
X137589500Y-98956153D01*
X137589500Y-99113846D01*
X137620261Y-99268489D01*
X137620264Y-99268501D01*
X137680602Y-99414172D01*
X137680609Y-99414185D01*
X137768210Y-99545288D01*
X137768213Y-99545292D01*
X137879707Y-99656786D01*
X137879711Y-99656789D01*
X138010814Y-99744390D01*
X138010827Y-99744397D01*
X138156498Y-99804735D01*
X138156503Y-99804737D01*
X138311153Y-99835499D01*
X138311156Y-99835500D01*
X138311158Y-99835500D01*
X138468844Y-99835500D01*
X138468845Y-99835499D01*
X138623497Y-99804737D01*
X138769179Y-99744394D01*
X138900289Y-99656789D01*
X139011789Y-99545289D01*
X139099394Y-99414179D01*
X139159737Y-99268497D01*
X139190500Y-99113842D01*
X139190500Y-98956158D01*
X139190500Y-98956155D01*
X139190499Y-98956153D01*
X139159738Y-98801510D01*
X139159737Y-98801503D01*
X139159735Y-98801498D01*
X139099397Y-98655827D01*
X139099390Y-98655814D01*
X139011789Y-98524711D01*
X139011786Y-98524707D01*
X138900292Y-98413213D01*
X138900288Y-98413210D01*
X138769185Y-98325609D01*
X138769172Y-98325602D01*
X138623501Y-98265264D01*
X138623489Y-98265261D01*
X138468845Y-98234500D01*
X138468842Y-98234500D01*
X138311158Y-98234500D01*
X138311155Y-98234500D01*
X138156510Y-98265261D01*
X138156498Y-98265264D01*
X138010827Y-98325602D01*
X138010814Y-98325609D01*
X137879711Y-98413210D01*
X137879707Y-98413213D01*
X137768213Y-98524707D01*
X137768210Y-98524711D01*
X137680609Y-98655814D01*
X137680602Y-98655827D01*
X137620264Y-98801498D01*
X137620261Y-98801510D01*
X137589500Y-98956153D01*
X126200500Y-98956153D01*
X126200500Y-96884000D01*
X126220185Y-96816961D01*
X126272989Y-96771206D01*
X126324500Y-96760000D01*
X146396000Y-96760000D01*
X146463039Y-96779685D01*
G37*
%TD.AperFunction*%
%TD*%
M02*
