%TF.GenerationSoftware,KiCad,Pcbnew,9.0.2*%
%TF.CreationDate,2026-09-24T17:03:14-04:00*%
%TF.ProjectId,AntisparkBoard_V1,416e7469-7370-4617-926b-426f6172645f,rev?*%
%TF.SameCoordinates,Original*%
%TF.FileFunction,Legend,Top*%
%TF.FilePolarity,Positive*%
%FSLAX46Y46*%
G04 Gerber Fmt 4.6, Leading zero omitted, Abs format (unit mm)*
G04 Created by KiCad (PCBNEW 9.0.2) date 2026-09-24 17:03:14*
%MOMM*%
%LPD*%
G01*
G04 APERTURE LIST*
%ADD10C,0.100000*%
%ADD11C,0.150000*%
%ADD12C,0.200000*%
%ADD13C,0.254000*%
%ADD14C,0.120000*%
G04 APERTURE END LIST*
D10*
X148319600Y-85470000D02*
X151090000Y-85470000D01*
X151090000Y-102790000D01*
X148319600Y-102790000D01*
X148319600Y-85470000D01*
D11*
X150347094Y-86540002D02*
X150347094Y-86306668D01*
X149980427Y-86306668D02*
X150680427Y-86306668D01*
X150680427Y-86306668D02*
X150680427Y-86640002D01*
X149980427Y-87006668D02*
X150013761Y-86940002D01*
X150013761Y-86940002D02*
X150047094Y-86906668D01*
X150047094Y-86906668D02*
X150113761Y-86873335D01*
X150113761Y-86873335D02*
X150313761Y-86873335D01*
X150313761Y-86873335D02*
X150380427Y-86906668D01*
X150380427Y-86906668D02*
X150413761Y-86940002D01*
X150413761Y-86940002D02*
X150447094Y-87006668D01*
X150447094Y-87006668D02*
X150447094Y-87106668D01*
X150447094Y-87106668D02*
X150413761Y-87173335D01*
X150413761Y-87173335D02*
X150380427Y-87206668D01*
X150380427Y-87206668D02*
X150313761Y-87240002D01*
X150313761Y-87240002D02*
X150113761Y-87240002D01*
X150113761Y-87240002D02*
X150047094Y-87206668D01*
X150047094Y-87206668D02*
X150013761Y-87173335D01*
X150013761Y-87173335D02*
X149980427Y-87106668D01*
X149980427Y-87106668D02*
X149980427Y-87006668D01*
X149980427Y-87540001D02*
X150447094Y-87540001D01*
X150313761Y-87540001D02*
X150380427Y-87573335D01*
X150380427Y-87573335D02*
X150413761Y-87606668D01*
X150413761Y-87606668D02*
X150447094Y-87673335D01*
X150447094Y-87673335D02*
X150447094Y-87740001D01*
X150447094Y-88406667D02*
X150447094Y-88673334D01*
X150680427Y-88506667D02*
X150080427Y-88506667D01*
X150080427Y-88506667D02*
X150013761Y-88540001D01*
X150013761Y-88540001D02*
X149980427Y-88606667D01*
X149980427Y-88606667D02*
X149980427Y-88673334D01*
X150013761Y-89173334D02*
X149980427Y-89106667D01*
X149980427Y-89106667D02*
X149980427Y-88973334D01*
X149980427Y-88973334D02*
X150013761Y-88906667D01*
X150013761Y-88906667D02*
X150080427Y-88873334D01*
X150080427Y-88873334D02*
X150347094Y-88873334D01*
X150347094Y-88873334D02*
X150413761Y-88906667D01*
X150413761Y-88906667D02*
X150447094Y-88973334D01*
X150447094Y-88973334D02*
X150447094Y-89106667D01*
X150447094Y-89106667D02*
X150413761Y-89173334D01*
X150413761Y-89173334D02*
X150347094Y-89206667D01*
X150347094Y-89206667D02*
X150280427Y-89206667D01*
X150280427Y-89206667D02*
X150213761Y-88873334D01*
X149980427Y-89506667D02*
X150447094Y-89506667D01*
X150380427Y-89506667D02*
X150413761Y-89540001D01*
X150413761Y-89540001D02*
X150447094Y-89606667D01*
X150447094Y-89606667D02*
X150447094Y-89706667D01*
X150447094Y-89706667D02*
X150413761Y-89773334D01*
X150413761Y-89773334D02*
X150347094Y-89806667D01*
X150347094Y-89806667D02*
X149980427Y-89806667D01*
X150347094Y-89806667D02*
X150413761Y-89840001D01*
X150413761Y-89840001D02*
X150447094Y-89906667D01*
X150447094Y-89906667D02*
X150447094Y-90006667D01*
X150447094Y-90006667D02*
X150413761Y-90073334D01*
X150413761Y-90073334D02*
X150347094Y-90106667D01*
X150347094Y-90106667D02*
X149980427Y-90106667D01*
X150447094Y-90440000D02*
X149747094Y-90440000D01*
X150413761Y-90440000D02*
X150447094Y-90506667D01*
X150447094Y-90506667D02*
X150447094Y-90640000D01*
X150447094Y-90640000D02*
X150413761Y-90706667D01*
X150413761Y-90706667D02*
X150380427Y-90740000D01*
X150380427Y-90740000D02*
X150313761Y-90773334D01*
X150313761Y-90773334D02*
X150113761Y-90773334D01*
X150113761Y-90773334D02*
X150047094Y-90740000D01*
X150047094Y-90740000D02*
X150013761Y-90706667D01*
X150013761Y-90706667D02*
X149980427Y-90640000D01*
X149980427Y-90640000D02*
X149980427Y-90506667D01*
X149980427Y-90506667D02*
X150013761Y-90440000D01*
X150013761Y-91340000D02*
X149980427Y-91273333D01*
X149980427Y-91273333D02*
X149980427Y-91140000D01*
X149980427Y-91140000D02*
X150013761Y-91073333D01*
X150013761Y-91073333D02*
X150080427Y-91040000D01*
X150080427Y-91040000D02*
X150347094Y-91040000D01*
X150347094Y-91040000D02*
X150413761Y-91073333D01*
X150413761Y-91073333D02*
X150447094Y-91140000D01*
X150447094Y-91140000D02*
X150447094Y-91273333D01*
X150447094Y-91273333D02*
X150413761Y-91340000D01*
X150413761Y-91340000D02*
X150347094Y-91373333D01*
X150347094Y-91373333D02*
X150280427Y-91373333D01*
X150280427Y-91373333D02*
X150213761Y-91040000D01*
X149980427Y-91673333D02*
X150447094Y-91673333D01*
X150313761Y-91673333D02*
X150380427Y-91706667D01*
X150380427Y-91706667D02*
X150413761Y-91740000D01*
X150413761Y-91740000D02*
X150447094Y-91806667D01*
X150447094Y-91806667D02*
X150447094Y-91873333D01*
X149980427Y-92406666D02*
X150347094Y-92406666D01*
X150347094Y-92406666D02*
X150413761Y-92373333D01*
X150413761Y-92373333D02*
X150447094Y-92306666D01*
X150447094Y-92306666D02*
X150447094Y-92173333D01*
X150447094Y-92173333D02*
X150413761Y-92106666D01*
X150013761Y-92406666D02*
X149980427Y-92340000D01*
X149980427Y-92340000D02*
X149980427Y-92173333D01*
X149980427Y-92173333D02*
X150013761Y-92106666D01*
X150013761Y-92106666D02*
X150080427Y-92073333D01*
X150080427Y-92073333D02*
X150147094Y-92073333D01*
X150147094Y-92073333D02*
X150213761Y-92106666D01*
X150213761Y-92106666D02*
X150247094Y-92173333D01*
X150247094Y-92173333D02*
X150247094Y-92340000D01*
X150247094Y-92340000D02*
X150280427Y-92406666D01*
X150447094Y-92639999D02*
X150447094Y-92906666D01*
X150680427Y-92739999D02*
X150080427Y-92739999D01*
X150080427Y-92739999D02*
X150013761Y-92773333D01*
X150013761Y-92773333D02*
X149980427Y-92839999D01*
X149980427Y-92839999D02*
X149980427Y-92906666D01*
X150447094Y-93439999D02*
X149980427Y-93439999D01*
X150447094Y-93139999D02*
X150080427Y-93139999D01*
X150080427Y-93139999D02*
X150013761Y-93173333D01*
X150013761Y-93173333D02*
X149980427Y-93239999D01*
X149980427Y-93239999D02*
X149980427Y-93339999D01*
X149980427Y-93339999D02*
X150013761Y-93406666D01*
X150013761Y-93406666D02*
X150047094Y-93439999D01*
X149980427Y-93773332D02*
X150447094Y-93773332D01*
X150313761Y-93773332D02*
X150380427Y-93806666D01*
X150380427Y-93806666D02*
X150413761Y-93839999D01*
X150413761Y-93839999D02*
X150447094Y-93906666D01*
X150447094Y-93906666D02*
X150447094Y-93973332D01*
X150013761Y-94473332D02*
X149980427Y-94406665D01*
X149980427Y-94406665D02*
X149980427Y-94273332D01*
X149980427Y-94273332D02*
X150013761Y-94206665D01*
X150013761Y-94206665D02*
X150080427Y-94173332D01*
X150080427Y-94173332D02*
X150347094Y-94173332D01*
X150347094Y-94173332D02*
X150413761Y-94206665D01*
X150413761Y-94206665D02*
X150447094Y-94273332D01*
X150447094Y-94273332D02*
X150447094Y-94406665D01*
X150447094Y-94406665D02*
X150413761Y-94473332D01*
X150413761Y-94473332D02*
X150347094Y-94506665D01*
X150347094Y-94506665D02*
X150280427Y-94506665D01*
X150280427Y-94506665D02*
X150213761Y-94173332D01*
X149980427Y-95339998D02*
X150447094Y-95339998D01*
X150313761Y-95339998D02*
X150380427Y-95373332D01*
X150380427Y-95373332D02*
X150413761Y-95406665D01*
X150413761Y-95406665D02*
X150447094Y-95473332D01*
X150447094Y-95473332D02*
X150447094Y-95539998D01*
X149980427Y-95773331D02*
X150447094Y-95773331D01*
X150680427Y-95773331D02*
X150647094Y-95739998D01*
X150647094Y-95739998D02*
X150613761Y-95773331D01*
X150613761Y-95773331D02*
X150647094Y-95806665D01*
X150647094Y-95806665D02*
X150680427Y-95773331D01*
X150680427Y-95773331D02*
X150613761Y-95773331D01*
X150013761Y-96073331D02*
X149980427Y-96139998D01*
X149980427Y-96139998D02*
X149980427Y-96273331D01*
X149980427Y-96273331D02*
X150013761Y-96339998D01*
X150013761Y-96339998D02*
X150080427Y-96373331D01*
X150080427Y-96373331D02*
X150113761Y-96373331D01*
X150113761Y-96373331D02*
X150180427Y-96339998D01*
X150180427Y-96339998D02*
X150213761Y-96273331D01*
X150213761Y-96273331D02*
X150213761Y-96173331D01*
X150213761Y-96173331D02*
X150247094Y-96106664D01*
X150247094Y-96106664D02*
X150313761Y-96073331D01*
X150313761Y-96073331D02*
X150347094Y-96073331D01*
X150347094Y-96073331D02*
X150413761Y-96106664D01*
X150413761Y-96106664D02*
X150447094Y-96173331D01*
X150447094Y-96173331D02*
X150447094Y-96273331D01*
X150447094Y-96273331D02*
X150413761Y-96339998D01*
X150013761Y-96939998D02*
X149980427Y-96873331D01*
X149980427Y-96873331D02*
X149980427Y-96739998D01*
X149980427Y-96739998D02*
X150013761Y-96673331D01*
X150013761Y-96673331D02*
X150080427Y-96639998D01*
X150080427Y-96639998D02*
X150347094Y-96639998D01*
X150347094Y-96639998D02*
X150413761Y-96673331D01*
X150413761Y-96673331D02*
X150447094Y-96739998D01*
X150447094Y-96739998D02*
X150447094Y-96873331D01*
X150447094Y-96873331D02*
X150413761Y-96939998D01*
X150413761Y-96939998D02*
X150347094Y-96973331D01*
X150347094Y-96973331D02*
X150280427Y-96973331D01*
X150280427Y-96973331D02*
X150213761Y-96639998D01*
X150013761Y-98339998D02*
X150013761Y-97806664D01*
X150147094Y-98339998D02*
X150347094Y-97806664D01*
X150347094Y-97806664D02*
X150547094Y-98339998D01*
X150613761Y-99173331D02*
X150647094Y-99206664D01*
X150647094Y-99206664D02*
X150680427Y-99273331D01*
X150680427Y-99273331D02*
X150680427Y-99439998D01*
X150680427Y-99439998D02*
X150647094Y-99506664D01*
X150647094Y-99506664D02*
X150613761Y-99539998D01*
X150613761Y-99539998D02*
X150547094Y-99573331D01*
X150547094Y-99573331D02*
X150480427Y-99573331D01*
X150480427Y-99573331D02*
X150380427Y-99539998D01*
X150380427Y-99539998D02*
X149980427Y-99139998D01*
X149980427Y-99139998D02*
X149980427Y-99573331D01*
X150680427Y-100006665D02*
X150680427Y-100073331D01*
X150680427Y-100073331D02*
X150647094Y-100139998D01*
X150647094Y-100139998D02*
X150613761Y-100173331D01*
X150613761Y-100173331D02*
X150547094Y-100206665D01*
X150547094Y-100206665D02*
X150413761Y-100239998D01*
X150413761Y-100239998D02*
X150247094Y-100239998D01*
X150247094Y-100239998D02*
X150113761Y-100206665D01*
X150113761Y-100206665D02*
X150047094Y-100173331D01*
X150047094Y-100173331D02*
X150013761Y-100139998D01*
X150013761Y-100139998D02*
X149980427Y-100073331D01*
X149980427Y-100073331D02*
X149980427Y-100006665D01*
X149980427Y-100006665D02*
X150013761Y-99939998D01*
X150013761Y-99939998D02*
X150047094Y-99906665D01*
X150047094Y-99906665D02*
X150113761Y-99873331D01*
X150113761Y-99873331D02*
X150247094Y-99839998D01*
X150247094Y-99839998D02*
X150413761Y-99839998D01*
X150413761Y-99839998D02*
X150547094Y-99873331D01*
X150547094Y-99873331D02*
X150613761Y-99906665D01*
X150613761Y-99906665D02*
X150647094Y-99939998D01*
X150647094Y-99939998D02*
X150680427Y-100006665D01*
X150680427Y-100639998D02*
X150647094Y-100573332D01*
X150647094Y-100573332D02*
X150580427Y-100539998D01*
X150580427Y-100539998D02*
X150513761Y-100573332D01*
X150513761Y-100573332D02*
X150480427Y-100639998D01*
X150480427Y-100639998D02*
X150513761Y-100706665D01*
X150513761Y-100706665D02*
X150580427Y-100739998D01*
X150580427Y-100739998D02*
X150647094Y-100706665D01*
X150647094Y-100706665D02*
X150680427Y-100639998D01*
X150047094Y-101473331D02*
X150013761Y-101439998D01*
X150013761Y-101439998D02*
X149980427Y-101339998D01*
X149980427Y-101339998D02*
X149980427Y-101273331D01*
X149980427Y-101273331D02*
X150013761Y-101173331D01*
X150013761Y-101173331D02*
X150080427Y-101106665D01*
X150080427Y-101106665D02*
X150147094Y-101073331D01*
X150147094Y-101073331D02*
X150280427Y-101039998D01*
X150280427Y-101039998D02*
X150380427Y-101039998D01*
X150380427Y-101039998D02*
X150513761Y-101073331D01*
X150513761Y-101073331D02*
X150580427Y-101106665D01*
X150580427Y-101106665D02*
X150647094Y-101173331D01*
X150647094Y-101173331D02*
X150680427Y-101273331D01*
X150680427Y-101273331D02*
X150680427Y-101339998D01*
X150680427Y-101339998D02*
X150647094Y-101439998D01*
X150647094Y-101439998D02*
X150613761Y-101473331D01*
X150013761Y-101806665D02*
X149980427Y-101806665D01*
X149980427Y-101806665D02*
X149913761Y-101773331D01*
X149913761Y-101773331D02*
X149880427Y-101739998D01*
X148853466Y-85823335D02*
X149553466Y-85823335D01*
X149120133Y-85890002D02*
X148853466Y-86090002D01*
X149320133Y-86090002D02*
X149053466Y-85823335D01*
X148886800Y-86656669D02*
X148853466Y-86590002D01*
X148853466Y-86590002D02*
X148853466Y-86456669D01*
X148853466Y-86456669D02*
X148886800Y-86390002D01*
X148886800Y-86390002D02*
X148953466Y-86356669D01*
X148953466Y-86356669D02*
X149220133Y-86356669D01*
X149220133Y-86356669D02*
X149286800Y-86390002D01*
X149286800Y-86390002D02*
X149320133Y-86456669D01*
X149320133Y-86456669D02*
X149320133Y-86590002D01*
X149320133Y-86590002D02*
X149286800Y-86656669D01*
X149286800Y-86656669D02*
X149220133Y-86690002D01*
X149220133Y-86690002D02*
X149153466Y-86690002D01*
X149153466Y-86690002D02*
X149086800Y-86356669D01*
X148886800Y-87256669D02*
X148853466Y-87190002D01*
X148853466Y-87190002D02*
X148853466Y-87056669D01*
X148853466Y-87056669D02*
X148886800Y-86990002D01*
X148886800Y-86990002D02*
X148953466Y-86956669D01*
X148953466Y-86956669D02*
X149220133Y-86956669D01*
X149220133Y-86956669D02*
X149286800Y-86990002D01*
X149286800Y-86990002D02*
X149320133Y-87056669D01*
X149320133Y-87056669D02*
X149320133Y-87190002D01*
X149320133Y-87190002D02*
X149286800Y-87256669D01*
X149286800Y-87256669D02*
X149220133Y-87290002D01*
X149220133Y-87290002D02*
X149153466Y-87290002D01*
X149153466Y-87290002D02*
X149086800Y-86956669D01*
X149320133Y-87590002D02*
X148620133Y-87590002D01*
X149286800Y-87590002D02*
X149320133Y-87656669D01*
X149320133Y-87656669D02*
X149320133Y-87790002D01*
X149320133Y-87790002D02*
X149286800Y-87856669D01*
X149286800Y-87856669D02*
X149253466Y-87890002D01*
X149253466Y-87890002D02*
X149186800Y-87923336D01*
X149186800Y-87923336D02*
X148986800Y-87923336D01*
X148986800Y-87923336D02*
X148920133Y-87890002D01*
X148920133Y-87890002D02*
X148886800Y-87856669D01*
X148886800Y-87856669D02*
X148853466Y-87790002D01*
X148853466Y-87790002D02*
X148853466Y-87656669D01*
X148853466Y-87656669D02*
X148886800Y-87590002D01*
X148886800Y-89056668D02*
X148853466Y-88990002D01*
X148853466Y-88990002D02*
X148853466Y-88856668D01*
X148853466Y-88856668D02*
X148886800Y-88790002D01*
X148886800Y-88790002D02*
X148920133Y-88756668D01*
X148920133Y-88756668D02*
X148986800Y-88723335D01*
X148986800Y-88723335D02*
X149186800Y-88723335D01*
X149186800Y-88723335D02*
X149253466Y-88756668D01*
X149253466Y-88756668D02*
X149286800Y-88790002D01*
X149286800Y-88790002D02*
X149320133Y-88856668D01*
X149320133Y-88856668D02*
X149320133Y-88990002D01*
X149320133Y-88990002D02*
X149286800Y-89056668D01*
X148853466Y-89456668D02*
X148886800Y-89390002D01*
X148886800Y-89390002D02*
X148920133Y-89356668D01*
X148920133Y-89356668D02*
X148986800Y-89323335D01*
X148986800Y-89323335D02*
X149186800Y-89323335D01*
X149186800Y-89323335D02*
X149253466Y-89356668D01*
X149253466Y-89356668D02*
X149286800Y-89390002D01*
X149286800Y-89390002D02*
X149320133Y-89456668D01*
X149320133Y-89456668D02*
X149320133Y-89556668D01*
X149320133Y-89556668D02*
X149286800Y-89623335D01*
X149286800Y-89623335D02*
X149253466Y-89656668D01*
X149253466Y-89656668D02*
X149186800Y-89690002D01*
X149186800Y-89690002D02*
X148986800Y-89690002D01*
X148986800Y-89690002D02*
X148920133Y-89656668D01*
X148920133Y-89656668D02*
X148886800Y-89623335D01*
X148886800Y-89623335D02*
X148853466Y-89556668D01*
X148853466Y-89556668D02*
X148853466Y-89456668D01*
X149320133Y-89990001D02*
X148853466Y-89990001D01*
X149253466Y-89990001D02*
X149286800Y-90023335D01*
X149286800Y-90023335D02*
X149320133Y-90090001D01*
X149320133Y-90090001D02*
X149320133Y-90190001D01*
X149320133Y-90190001D02*
X149286800Y-90256668D01*
X149286800Y-90256668D02*
X149220133Y-90290001D01*
X149220133Y-90290001D02*
X148853466Y-90290001D01*
X149320133Y-90523334D02*
X149320133Y-90790001D01*
X149553466Y-90623334D02*
X148953466Y-90623334D01*
X148953466Y-90623334D02*
X148886800Y-90656668D01*
X148886800Y-90656668D02*
X148853466Y-90723334D01*
X148853466Y-90723334D02*
X148853466Y-90790001D01*
X148853466Y-91023334D02*
X149320133Y-91023334D01*
X149553466Y-91023334D02*
X149520133Y-90990001D01*
X149520133Y-90990001D02*
X149486800Y-91023334D01*
X149486800Y-91023334D02*
X149520133Y-91056668D01*
X149520133Y-91056668D02*
X149553466Y-91023334D01*
X149553466Y-91023334D02*
X149486800Y-91023334D01*
X149320133Y-91356667D02*
X148853466Y-91356667D01*
X149253466Y-91356667D02*
X149286800Y-91390001D01*
X149286800Y-91390001D02*
X149320133Y-91456667D01*
X149320133Y-91456667D02*
X149320133Y-91556667D01*
X149320133Y-91556667D02*
X149286800Y-91623334D01*
X149286800Y-91623334D02*
X149220133Y-91656667D01*
X149220133Y-91656667D02*
X148853466Y-91656667D01*
X149320133Y-92290000D02*
X148853466Y-92290000D01*
X149320133Y-91990000D02*
X148953466Y-91990000D01*
X148953466Y-91990000D02*
X148886800Y-92023334D01*
X148886800Y-92023334D02*
X148853466Y-92090000D01*
X148853466Y-92090000D02*
X148853466Y-92190000D01*
X148853466Y-92190000D02*
X148886800Y-92256667D01*
X148886800Y-92256667D02*
X148920133Y-92290000D01*
X148853466Y-92723333D02*
X148886800Y-92656667D01*
X148886800Y-92656667D02*
X148920133Y-92623333D01*
X148920133Y-92623333D02*
X148986800Y-92590000D01*
X148986800Y-92590000D02*
X149186800Y-92590000D01*
X149186800Y-92590000D02*
X149253466Y-92623333D01*
X149253466Y-92623333D02*
X149286800Y-92656667D01*
X149286800Y-92656667D02*
X149320133Y-92723333D01*
X149320133Y-92723333D02*
X149320133Y-92823333D01*
X149320133Y-92823333D02*
X149286800Y-92890000D01*
X149286800Y-92890000D02*
X149253466Y-92923333D01*
X149253466Y-92923333D02*
X149186800Y-92956667D01*
X149186800Y-92956667D02*
X148986800Y-92956667D01*
X148986800Y-92956667D02*
X148920133Y-92923333D01*
X148920133Y-92923333D02*
X148886800Y-92890000D01*
X148886800Y-92890000D02*
X148853466Y-92823333D01*
X148853466Y-92823333D02*
X148853466Y-92723333D01*
X149320133Y-93556666D02*
X148853466Y-93556666D01*
X149320133Y-93256666D02*
X148953466Y-93256666D01*
X148953466Y-93256666D02*
X148886800Y-93290000D01*
X148886800Y-93290000D02*
X148853466Y-93356666D01*
X148853466Y-93356666D02*
X148853466Y-93456666D01*
X148853466Y-93456666D02*
X148886800Y-93523333D01*
X148886800Y-93523333D02*
X148920133Y-93556666D01*
X148886800Y-93856666D02*
X148853466Y-93923333D01*
X148853466Y-93923333D02*
X148853466Y-94056666D01*
X148853466Y-94056666D02*
X148886800Y-94123333D01*
X148886800Y-94123333D02*
X148953466Y-94156666D01*
X148953466Y-94156666D02*
X148986800Y-94156666D01*
X148986800Y-94156666D02*
X149053466Y-94123333D01*
X149053466Y-94123333D02*
X149086800Y-94056666D01*
X149086800Y-94056666D02*
X149086800Y-93956666D01*
X149086800Y-93956666D02*
X149120133Y-93889999D01*
X149120133Y-93889999D02*
X149186800Y-93856666D01*
X149186800Y-93856666D02*
X149220133Y-93856666D01*
X149220133Y-93856666D02*
X149286800Y-93889999D01*
X149286800Y-93889999D02*
X149320133Y-93956666D01*
X149320133Y-93956666D02*
X149320133Y-94056666D01*
X149320133Y-94056666D02*
X149286800Y-94123333D01*
X148886800Y-95289999D02*
X148853466Y-95223333D01*
X148853466Y-95223333D02*
X148853466Y-95089999D01*
X148853466Y-95089999D02*
X148886800Y-95023333D01*
X148886800Y-95023333D02*
X148920133Y-94989999D01*
X148920133Y-94989999D02*
X148986800Y-94956666D01*
X148986800Y-94956666D02*
X149186800Y-94956666D01*
X149186800Y-94956666D02*
X149253466Y-94989999D01*
X149253466Y-94989999D02*
X149286800Y-95023333D01*
X149286800Y-95023333D02*
X149320133Y-95089999D01*
X149320133Y-95089999D02*
X149320133Y-95223333D01*
X149320133Y-95223333D02*
X149286800Y-95289999D01*
X149320133Y-95889999D02*
X148853466Y-95889999D01*
X149320133Y-95589999D02*
X148953466Y-95589999D01*
X148953466Y-95589999D02*
X148886800Y-95623333D01*
X148886800Y-95623333D02*
X148853466Y-95689999D01*
X148853466Y-95689999D02*
X148853466Y-95789999D01*
X148853466Y-95789999D02*
X148886800Y-95856666D01*
X148886800Y-95856666D02*
X148920133Y-95889999D01*
X148853466Y-96223332D02*
X149320133Y-96223332D01*
X149186800Y-96223332D02*
X149253466Y-96256666D01*
X149253466Y-96256666D02*
X149286800Y-96289999D01*
X149286800Y-96289999D02*
X149320133Y-96356666D01*
X149320133Y-96356666D02*
X149320133Y-96423332D01*
X148853466Y-96656665D02*
X149320133Y-96656665D01*
X149186800Y-96656665D02*
X149253466Y-96689999D01*
X149253466Y-96689999D02*
X149286800Y-96723332D01*
X149286800Y-96723332D02*
X149320133Y-96789999D01*
X149320133Y-96789999D02*
X149320133Y-96856665D01*
X148886800Y-97356665D02*
X148853466Y-97289998D01*
X148853466Y-97289998D02*
X148853466Y-97156665D01*
X148853466Y-97156665D02*
X148886800Y-97089998D01*
X148886800Y-97089998D02*
X148953466Y-97056665D01*
X148953466Y-97056665D02*
X149220133Y-97056665D01*
X149220133Y-97056665D02*
X149286800Y-97089998D01*
X149286800Y-97089998D02*
X149320133Y-97156665D01*
X149320133Y-97156665D02*
X149320133Y-97289998D01*
X149320133Y-97289998D02*
X149286800Y-97356665D01*
X149286800Y-97356665D02*
X149220133Y-97389998D01*
X149220133Y-97389998D02*
X149153466Y-97389998D01*
X149153466Y-97389998D02*
X149086800Y-97056665D01*
X149320133Y-97689998D02*
X148853466Y-97689998D01*
X149253466Y-97689998D02*
X149286800Y-97723332D01*
X149286800Y-97723332D02*
X149320133Y-97789998D01*
X149320133Y-97789998D02*
X149320133Y-97889998D01*
X149320133Y-97889998D02*
X149286800Y-97956665D01*
X149286800Y-97956665D02*
X149220133Y-97989998D01*
X149220133Y-97989998D02*
X148853466Y-97989998D01*
X149320133Y-98223331D02*
X149320133Y-98489998D01*
X149553466Y-98323331D02*
X148953466Y-98323331D01*
X148953466Y-98323331D02*
X148886800Y-98356665D01*
X148886800Y-98356665D02*
X148853466Y-98423331D01*
X148853466Y-98423331D02*
X148853466Y-98489998D01*
X148886800Y-99789998D02*
X148886800Y-99256664D01*
X149020133Y-99789998D02*
X149220133Y-99256664D01*
X149220133Y-99256664D02*
X149420133Y-99789998D01*
X149553466Y-100956664D02*
X149553466Y-100823331D01*
X149553466Y-100823331D02*
X149520133Y-100756664D01*
X149520133Y-100756664D02*
X149486800Y-100723331D01*
X149486800Y-100723331D02*
X149386800Y-100656664D01*
X149386800Y-100656664D02*
X149253466Y-100623331D01*
X149253466Y-100623331D02*
X148986800Y-100623331D01*
X148986800Y-100623331D02*
X148920133Y-100656664D01*
X148920133Y-100656664D02*
X148886800Y-100689998D01*
X148886800Y-100689998D02*
X148853466Y-100756664D01*
X148853466Y-100756664D02*
X148853466Y-100889998D01*
X148853466Y-100889998D02*
X148886800Y-100956664D01*
X148886800Y-100956664D02*
X148920133Y-100989998D01*
X148920133Y-100989998D02*
X148986800Y-101023331D01*
X148986800Y-101023331D02*
X149153466Y-101023331D01*
X149153466Y-101023331D02*
X149220133Y-100989998D01*
X149220133Y-100989998D02*
X149253466Y-100956664D01*
X149253466Y-100956664D02*
X149286800Y-100889998D01*
X149286800Y-100889998D02*
X149286800Y-100756664D01*
X149286800Y-100756664D02*
X149253466Y-100689998D01*
X149253466Y-100689998D02*
X149220133Y-100656664D01*
X149220133Y-100656664D02*
X149153466Y-100623331D01*
X149553466Y-101456665D02*
X149553466Y-101523331D01*
X149553466Y-101523331D02*
X149520133Y-101589998D01*
X149520133Y-101589998D02*
X149486800Y-101623331D01*
X149486800Y-101623331D02*
X149420133Y-101656665D01*
X149420133Y-101656665D02*
X149286800Y-101689998D01*
X149286800Y-101689998D02*
X149120133Y-101689998D01*
X149120133Y-101689998D02*
X148986800Y-101656665D01*
X148986800Y-101656665D02*
X148920133Y-101623331D01*
X148920133Y-101623331D02*
X148886800Y-101589998D01*
X148886800Y-101589998D02*
X148853466Y-101523331D01*
X148853466Y-101523331D02*
X148853466Y-101456665D01*
X148853466Y-101456665D02*
X148886800Y-101389998D01*
X148886800Y-101389998D02*
X148920133Y-101356665D01*
X148920133Y-101356665D02*
X148986800Y-101323331D01*
X148986800Y-101323331D02*
X149120133Y-101289998D01*
X149120133Y-101289998D02*
X149286800Y-101289998D01*
X149286800Y-101289998D02*
X149420133Y-101323331D01*
X149420133Y-101323331D02*
X149486800Y-101356665D01*
X149486800Y-101356665D02*
X149520133Y-101389998D01*
X149520133Y-101389998D02*
X149553466Y-101456665D01*
X149053466Y-101956665D02*
X149053466Y-102289998D01*
X148853466Y-101889998D02*
X149553466Y-102123332D01*
X149553466Y-102123332D02*
X148853466Y-102356665D01*
D10*
X148846265Y-78184800D02*
X148941503Y-78232419D01*
X148941503Y-78232419D02*
X149131979Y-78232419D01*
X149131979Y-78232419D02*
X149227217Y-78184800D01*
X149227217Y-78184800D02*
X149274836Y-78089561D01*
X149274836Y-78089561D02*
X149274836Y-78041942D01*
X149274836Y-78041942D02*
X149227217Y-77946704D01*
X149227217Y-77946704D02*
X149131979Y-77899085D01*
X149131979Y-77899085D02*
X148989122Y-77899085D01*
X148989122Y-77899085D02*
X148893884Y-77851466D01*
X148893884Y-77851466D02*
X148846265Y-77756228D01*
X148846265Y-77756228D02*
X148846265Y-77708609D01*
X148846265Y-77708609D02*
X148893884Y-77613371D01*
X148893884Y-77613371D02*
X148989122Y-77565752D01*
X148989122Y-77565752D02*
X149131979Y-77565752D01*
X149131979Y-77565752D02*
X149227217Y-77613371D01*
X149608170Y-77565752D02*
X149798646Y-78232419D01*
X149798646Y-78232419D02*
X149989122Y-77756228D01*
X149989122Y-77756228D02*
X150179598Y-78232419D01*
X150179598Y-78232419D02*
X150370074Y-77565752D01*
X150751027Y-77851466D02*
X151512932Y-77851466D01*
D12*
X131932054Y-78541504D02*
X132408244Y-78541504D01*
X131836816Y-78827219D02*
X132170149Y-77827219D01*
X132170149Y-77827219D02*
X132503482Y-78827219D01*
X132836816Y-78160552D02*
X132836816Y-78827219D01*
X132836816Y-78255790D02*
X132884435Y-78208171D01*
X132884435Y-78208171D02*
X132979673Y-78160552D01*
X132979673Y-78160552D02*
X133122530Y-78160552D01*
X133122530Y-78160552D02*
X133217768Y-78208171D01*
X133217768Y-78208171D02*
X133265387Y-78303409D01*
X133265387Y-78303409D02*
X133265387Y-78827219D01*
X133598721Y-78160552D02*
X133979673Y-78160552D01*
X133741578Y-77827219D02*
X133741578Y-78684361D01*
X133741578Y-78684361D02*
X133789197Y-78779600D01*
X133789197Y-78779600D02*
X133884435Y-78827219D01*
X133884435Y-78827219D02*
X133979673Y-78827219D01*
X134313007Y-78827219D02*
X134313007Y-78160552D01*
X134313007Y-77827219D02*
X134265388Y-77874838D01*
X134265388Y-77874838D02*
X134313007Y-77922457D01*
X134313007Y-77922457D02*
X134360626Y-77874838D01*
X134360626Y-77874838D02*
X134313007Y-77827219D01*
X134313007Y-77827219D02*
X134313007Y-77922457D01*
X134741578Y-78779600D02*
X134836816Y-78827219D01*
X134836816Y-78827219D02*
X135027292Y-78827219D01*
X135027292Y-78827219D02*
X135122530Y-78779600D01*
X135122530Y-78779600D02*
X135170149Y-78684361D01*
X135170149Y-78684361D02*
X135170149Y-78636742D01*
X135170149Y-78636742D02*
X135122530Y-78541504D01*
X135122530Y-78541504D02*
X135027292Y-78493885D01*
X135027292Y-78493885D02*
X134884435Y-78493885D01*
X134884435Y-78493885D02*
X134789197Y-78446266D01*
X134789197Y-78446266D02*
X134741578Y-78351028D01*
X134741578Y-78351028D02*
X134741578Y-78303409D01*
X134741578Y-78303409D02*
X134789197Y-78208171D01*
X134789197Y-78208171D02*
X134884435Y-78160552D01*
X134884435Y-78160552D02*
X135027292Y-78160552D01*
X135027292Y-78160552D02*
X135122530Y-78208171D01*
X135598721Y-78160552D02*
X135598721Y-79160552D01*
X135598721Y-78208171D02*
X135693959Y-78160552D01*
X135693959Y-78160552D02*
X135884435Y-78160552D01*
X135884435Y-78160552D02*
X135979673Y-78208171D01*
X135979673Y-78208171D02*
X136027292Y-78255790D01*
X136027292Y-78255790D02*
X136074911Y-78351028D01*
X136074911Y-78351028D02*
X136074911Y-78636742D01*
X136074911Y-78636742D02*
X136027292Y-78731980D01*
X136027292Y-78731980D02*
X135979673Y-78779600D01*
X135979673Y-78779600D02*
X135884435Y-78827219D01*
X135884435Y-78827219D02*
X135693959Y-78827219D01*
X135693959Y-78827219D02*
X135598721Y-78779600D01*
X136932054Y-78827219D02*
X136932054Y-78303409D01*
X136932054Y-78303409D02*
X136884435Y-78208171D01*
X136884435Y-78208171D02*
X136789197Y-78160552D01*
X136789197Y-78160552D02*
X136598721Y-78160552D01*
X136598721Y-78160552D02*
X136503483Y-78208171D01*
X136932054Y-78779600D02*
X136836816Y-78827219D01*
X136836816Y-78827219D02*
X136598721Y-78827219D01*
X136598721Y-78827219D02*
X136503483Y-78779600D01*
X136503483Y-78779600D02*
X136455864Y-78684361D01*
X136455864Y-78684361D02*
X136455864Y-78589123D01*
X136455864Y-78589123D02*
X136503483Y-78493885D01*
X136503483Y-78493885D02*
X136598721Y-78446266D01*
X136598721Y-78446266D02*
X136836816Y-78446266D01*
X136836816Y-78446266D02*
X136932054Y-78398647D01*
X137408245Y-78827219D02*
X137408245Y-78160552D01*
X137408245Y-78351028D02*
X137455864Y-78255790D01*
X137455864Y-78255790D02*
X137503483Y-78208171D01*
X137503483Y-78208171D02*
X137598721Y-78160552D01*
X137598721Y-78160552D02*
X137693959Y-78160552D01*
X138027293Y-78827219D02*
X138027293Y-77827219D01*
X138122531Y-78446266D02*
X138408245Y-78827219D01*
X138408245Y-78160552D02*
X138027293Y-78541504D01*
X139932055Y-78303409D02*
X140074912Y-78351028D01*
X140074912Y-78351028D02*
X140122531Y-78398647D01*
X140122531Y-78398647D02*
X140170150Y-78493885D01*
X140170150Y-78493885D02*
X140170150Y-78636742D01*
X140170150Y-78636742D02*
X140122531Y-78731980D01*
X140122531Y-78731980D02*
X140074912Y-78779600D01*
X140074912Y-78779600D02*
X139979674Y-78827219D01*
X139979674Y-78827219D02*
X139598722Y-78827219D01*
X139598722Y-78827219D02*
X139598722Y-77827219D01*
X139598722Y-77827219D02*
X139932055Y-77827219D01*
X139932055Y-77827219D02*
X140027293Y-77874838D01*
X140027293Y-77874838D02*
X140074912Y-77922457D01*
X140074912Y-77922457D02*
X140122531Y-78017695D01*
X140122531Y-78017695D02*
X140122531Y-78112933D01*
X140122531Y-78112933D02*
X140074912Y-78208171D01*
X140074912Y-78208171D02*
X140027293Y-78255790D01*
X140027293Y-78255790D02*
X139932055Y-78303409D01*
X139932055Y-78303409D02*
X139598722Y-78303409D01*
X140741579Y-78827219D02*
X140646341Y-78779600D01*
X140646341Y-78779600D02*
X140598722Y-78731980D01*
X140598722Y-78731980D02*
X140551103Y-78636742D01*
X140551103Y-78636742D02*
X140551103Y-78351028D01*
X140551103Y-78351028D02*
X140598722Y-78255790D01*
X140598722Y-78255790D02*
X140646341Y-78208171D01*
X140646341Y-78208171D02*
X140741579Y-78160552D01*
X140741579Y-78160552D02*
X140884436Y-78160552D01*
X140884436Y-78160552D02*
X140979674Y-78208171D01*
X140979674Y-78208171D02*
X141027293Y-78255790D01*
X141027293Y-78255790D02*
X141074912Y-78351028D01*
X141074912Y-78351028D02*
X141074912Y-78636742D01*
X141074912Y-78636742D02*
X141027293Y-78731980D01*
X141027293Y-78731980D02*
X140979674Y-78779600D01*
X140979674Y-78779600D02*
X140884436Y-78827219D01*
X140884436Y-78827219D02*
X140741579Y-78827219D01*
X141932055Y-78827219D02*
X141932055Y-78303409D01*
X141932055Y-78303409D02*
X141884436Y-78208171D01*
X141884436Y-78208171D02*
X141789198Y-78160552D01*
X141789198Y-78160552D02*
X141598722Y-78160552D01*
X141598722Y-78160552D02*
X141503484Y-78208171D01*
X141932055Y-78779600D02*
X141836817Y-78827219D01*
X141836817Y-78827219D02*
X141598722Y-78827219D01*
X141598722Y-78827219D02*
X141503484Y-78779600D01*
X141503484Y-78779600D02*
X141455865Y-78684361D01*
X141455865Y-78684361D02*
X141455865Y-78589123D01*
X141455865Y-78589123D02*
X141503484Y-78493885D01*
X141503484Y-78493885D02*
X141598722Y-78446266D01*
X141598722Y-78446266D02*
X141836817Y-78446266D01*
X141836817Y-78446266D02*
X141932055Y-78398647D01*
X142408246Y-78827219D02*
X142408246Y-78160552D01*
X142408246Y-78351028D02*
X142455865Y-78255790D01*
X142455865Y-78255790D02*
X142503484Y-78208171D01*
X142503484Y-78208171D02*
X142598722Y-78160552D01*
X142598722Y-78160552D02*
X142693960Y-78160552D01*
X143455865Y-78827219D02*
X143455865Y-77827219D01*
X143455865Y-78779600D02*
X143360627Y-78827219D01*
X143360627Y-78827219D02*
X143170151Y-78827219D01*
X143170151Y-78827219D02*
X143074913Y-78779600D01*
X143074913Y-78779600D02*
X143027294Y-78731980D01*
X143027294Y-78731980D02*
X142979675Y-78636742D01*
X142979675Y-78636742D02*
X142979675Y-78351028D01*
X142979675Y-78351028D02*
X143027294Y-78255790D01*
X143027294Y-78255790D02*
X143074913Y-78208171D01*
X143074913Y-78208171D02*
X143170151Y-78160552D01*
X143170151Y-78160552D02*
X143360627Y-78160552D01*
X143360627Y-78160552D02*
X143455865Y-78208171D01*
X144551104Y-77827219D02*
X144884437Y-78827219D01*
X144884437Y-78827219D02*
X145217770Y-77827219D01*
X146074913Y-78827219D02*
X145503485Y-78827219D01*
X145789199Y-78827219D02*
X145789199Y-77827219D01*
X145789199Y-77827219D02*
X145693961Y-77970076D01*
X145693961Y-77970076D02*
X145598723Y-78065314D01*
X145598723Y-78065314D02*
X145503485Y-78112933D01*
D10*
X148876265Y-85054800D02*
X148971503Y-85102419D01*
X148971503Y-85102419D02*
X149161979Y-85102419D01*
X149161979Y-85102419D02*
X149257217Y-85054800D01*
X149257217Y-85054800D02*
X149304836Y-84959561D01*
X149304836Y-84959561D02*
X149304836Y-84911942D01*
X149304836Y-84911942D02*
X149257217Y-84816704D01*
X149257217Y-84816704D02*
X149161979Y-84769085D01*
X149161979Y-84769085D02*
X149019122Y-84769085D01*
X149019122Y-84769085D02*
X148923884Y-84721466D01*
X148923884Y-84721466D02*
X148876265Y-84626228D01*
X148876265Y-84626228D02*
X148876265Y-84578609D01*
X148876265Y-84578609D02*
X148923884Y-84483371D01*
X148923884Y-84483371D02*
X149019122Y-84435752D01*
X149019122Y-84435752D02*
X149161979Y-84435752D01*
X149161979Y-84435752D02*
X149257217Y-84483371D01*
X149638170Y-84435752D02*
X149828646Y-85102419D01*
X149828646Y-85102419D02*
X150019122Y-84626228D01*
X150019122Y-84626228D02*
X150209598Y-85102419D01*
X150209598Y-85102419D02*
X150400074Y-84435752D01*
X150781027Y-84721466D02*
X151542932Y-84721466D01*
X151161979Y-85102419D02*
X151161979Y-84340514D01*
X126293884Y-81142419D02*
X126293884Y-80142419D01*
X126293884Y-80523371D02*
X126389122Y-80475752D01*
X126389122Y-80475752D02*
X126579598Y-80475752D01*
X126579598Y-80475752D02*
X126674836Y-80523371D01*
X126674836Y-80523371D02*
X126722455Y-80570990D01*
X126722455Y-80570990D02*
X126770074Y-80666228D01*
X126770074Y-80666228D02*
X126770074Y-80951942D01*
X126770074Y-80951942D02*
X126722455Y-81047180D01*
X126722455Y-81047180D02*
X126674836Y-81094800D01*
X126674836Y-81094800D02*
X126579598Y-81142419D01*
X126579598Y-81142419D02*
X126389122Y-81142419D01*
X126389122Y-81142419D02*
X126293884Y-81094800D01*
X127627217Y-81142419D02*
X127627217Y-80618609D01*
X127627217Y-80618609D02*
X127579598Y-80523371D01*
X127579598Y-80523371D02*
X127484360Y-80475752D01*
X127484360Y-80475752D02*
X127293884Y-80475752D01*
X127293884Y-80475752D02*
X127198646Y-80523371D01*
X127627217Y-81094800D02*
X127531979Y-81142419D01*
X127531979Y-81142419D02*
X127293884Y-81142419D01*
X127293884Y-81142419D02*
X127198646Y-81094800D01*
X127198646Y-81094800D02*
X127151027Y-80999561D01*
X127151027Y-80999561D02*
X127151027Y-80904323D01*
X127151027Y-80904323D02*
X127198646Y-80809085D01*
X127198646Y-80809085D02*
X127293884Y-80761466D01*
X127293884Y-80761466D02*
X127531979Y-80761466D01*
X127531979Y-80761466D02*
X127627217Y-80713847D01*
X127960551Y-80475752D02*
X128341503Y-80475752D01*
X128103408Y-80142419D02*
X128103408Y-80999561D01*
X128103408Y-80999561D02*
X128151027Y-81094800D01*
X128151027Y-81094800D02*
X128246265Y-81142419D01*
X128246265Y-81142419D02*
X128341503Y-81142419D01*
X128531980Y-80475752D02*
X128912932Y-80475752D01*
X128674837Y-80142419D02*
X128674837Y-80999561D01*
X128674837Y-80999561D02*
X128722456Y-81094800D01*
X128722456Y-81094800D02*
X128817694Y-81142419D01*
X128817694Y-81142419D02*
X128912932Y-81142419D01*
X129246266Y-80761466D02*
X130008171Y-80761466D01*
X129627218Y-81142419D02*
X129627218Y-80380514D01*
D13*
X142059047Y-95545270D02*
X141938095Y-95484794D01*
X141938095Y-95484794D02*
X141817142Y-95363842D01*
X141817142Y-95363842D02*
X141635714Y-95182413D01*
X141635714Y-95182413D02*
X141514761Y-95121937D01*
X141514761Y-95121937D02*
X141393809Y-95121937D01*
X141454285Y-95424318D02*
X141333333Y-95363842D01*
X141333333Y-95363842D02*
X141212380Y-95242889D01*
X141212380Y-95242889D02*
X141151904Y-95000984D01*
X141151904Y-95000984D02*
X141151904Y-94577651D01*
X141151904Y-94577651D02*
X141212380Y-94335746D01*
X141212380Y-94335746D02*
X141333333Y-94214794D01*
X141333333Y-94214794D02*
X141454285Y-94154318D01*
X141454285Y-94154318D02*
X141696190Y-94154318D01*
X141696190Y-94154318D02*
X141817142Y-94214794D01*
X141817142Y-94214794D02*
X141938095Y-94335746D01*
X141938095Y-94335746D02*
X141998571Y-94577651D01*
X141998571Y-94577651D02*
X141998571Y-95000984D01*
X141998571Y-95000984D02*
X141938095Y-95242889D01*
X141938095Y-95242889D02*
X141817142Y-95363842D01*
X141817142Y-95363842D02*
X141696190Y-95424318D01*
X141696190Y-95424318D02*
X141454285Y-95424318D01*
X142482380Y-94275270D02*
X142542856Y-94214794D01*
X142542856Y-94214794D02*
X142663809Y-94154318D01*
X142663809Y-94154318D02*
X142966190Y-94154318D01*
X142966190Y-94154318D02*
X143087142Y-94214794D01*
X143087142Y-94214794D02*
X143147618Y-94275270D01*
X143147618Y-94275270D02*
X143208095Y-94396222D01*
X143208095Y-94396222D02*
X143208095Y-94517175D01*
X143208095Y-94517175D02*
X143147618Y-94698603D01*
X143147618Y-94698603D02*
X142421904Y-95424318D01*
X142421904Y-95424318D02*
X143208095Y-95424318D01*
X131289047Y-95585270D02*
X131168095Y-95524794D01*
X131168095Y-95524794D02*
X131047142Y-95403842D01*
X131047142Y-95403842D02*
X130865714Y-95222413D01*
X130865714Y-95222413D02*
X130744761Y-95161937D01*
X130744761Y-95161937D02*
X130623809Y-95161937D01*
X130684285Y-95464318D02*
X130563333Y-95403842D01*
X130563333Y-95403842D02*
X130442380Y-95282889D01*
X130442380Y-95282889D02*
X130381904Y-95040984D01*
X130381904Y-95040984D02*
X130381904Y-94617651D01*
X130381904Y-94617651D02*
X130442380Y-94375746D01*
X130442380Y-94375746D02*
X130563333Y-94254794D01*
X130563333Y-94254794D02*
X130684285Y-94194318D01*
X130684285Y-94194318D02*
X130926190Y-94194318D01*
X130926190Y-94194318D02*
X131047142Y-94254794D01*
X131047142Y-94254794D02*
X131168095Y-94375746D01*
X131168095Y-94375746D02*
X131228571Y-94617651D01*
X131228571Y-94617651D02*
X131228571Y-95040984D01*
X131228571Y-95040984D02*
X131168095Y-95282889D01*
X131168095Y-95282889D02*
X131047142Y-95403842D01*
X131047142Y-95403842D02*
X130926190Y-95464318D01*
X130926190Y-95464318D02*
X130684285Y-95464318D01*
X132438095Y-95464318D02*
X131712380Y-95464318D01*
X132075237Y-95464318D02*
X132075237Y-94194318D01*
X132075237Y-94194318D02*
X131954285Y-94375746D01*
X131954285Y-94375746D02*
X131833333Y-94496699D01*
X131833333Y-94496699D02*
X131712380Y-94557175D01*
D11*
X138663333Y-82784819D02*
X138330000Y-82308628D01*
X138091905Y-82784819D02*
X138091905Y-81784819D01*
X138091905Y-81784819D02*
X138472857Y-81784819D01*
X138472857Y-81784819D02*
X138568095Y-81832438D01*
X138568095Y-81832438D02*
X138615714Y-81880057D01*
X138615714Y-81880057D02*
X138663333Y-81975295D01*
X138663333Y-81975295D02*
X138663333Y-82118152D01*
X138663333Y-82118152D02*
X138615714Y-82213390D01*
X138615714Y-82213390D02*
X138568095Y-82261009D01*
X138568095Y-82261009D02*
X138472857Y-82308628D01*
X138472857Y-82308628D02*
X138091905Y-82308628D01*
X138996667Y-81784819D02*
X139615714Y-81784819D01*
X139615714Y-81784819D02*
X139282381Y-82165771D01*
X139282381Y-82165771D02*
X139425238Y-82165771D01*
X139425238Y-82165771D02*
X139520476Y-82213390D01*
X139520476Y-82213390D02*
X139568095Y-82261009D01*
X139568095Y-82261009D02*
X139615714Y-82356247D01*
X139615714Y-82356247D02*
X139615714Y-82594342D01*
X139615714Y-82594342D02*
X139568095Y-82689580D01*
X139568095Y-82689580D02*
X139520476Y-82737200D01*
X139520476Y-82737200D02*
X139425238Y-82784819D01*
X139425238Y-82784819D02*
X139139524Y-82784819D01*
X139139524Y-82784819D02*
X139044286Y-82737200D01*
X139044286Y-82737200D02*
X138996667Y-82689580D01*
D14*
%TO.C,Batt+1*%
X128700000Y-78900000D02*
G75*
G02*
X126300000Y-78900000I-1200000J0D01*
G01*
X126300000Y-78900000D02*
G75*
G02*
X128700000Y-78900000I1200000J0D01*
G01*
%TO.C,Sw-1*%
X151200000Y-79760000D02*
G75*
G02*
X148800000Y-79760000I-1200000J0D01*
G01*
X148800000Y-79760000D02*
G75*
G02*
X151200000Y-79760000I1200000J0D01*
G01*
D12*
%TO.C,Q2*%
X137153000Y-94950000D02*
X137153000Y-95880000D01*
X137153000Y-95880000D02*
X147248000Y-95880000D01*
D10*
X138390000Y-101650000D02*
X138390000Y-101650000D01*
X138390000Y-101750000D02*
X138390000Y-101750000D01*
D12*
X147248000Y-95880000D02*
X147248000Y-94950000D01*
D10*
X138390000Y-101650000D02*
G75*
G02*
X138390000Y-101750000I0J-50000D01*
G01*
X138390000Y-101750000D02*
G75*
G02*
X138390000Y-101650000I0J50000D01*
G01*
D12*
%TO.C,Q1*%
X126363000Y-94965000D02*
X126363000Y-95895000D01*
X126363000Y-95895000D02*
X136458000Y-95895000D01*
D10*
X127600000Y-101665000D02*
X127600000Y-101665000D01*
X127600000Y-101765000D02*
X127600000Y-101765000D01*
D12*
X136458000Y-95895000D02*
X136458000Y-94965000D01*
D10*
X127600000Y-101665000D02*
G75*
G02*
X127600000Y-101765000I0J-50000D01*
G01*
X127600000Y-101765000D02*
G75*
G02*
X127600000Y-101665000I0J50000D01*
G01*
D14*
%TO.C,Sw+1*%
X151200000Y-82890000D02*
G75*
G02*
X148800000Y-82890000I-1200000J0D01*
G01*
X148800000Y-82890000D02*
G75*
G02*
X151200000Y-82890000I1200000J0D01*
G01*
%TO.C,R3*%
X132630000Y-82320000D02*
X132740000Y-82320000D01*
X144990000Y-82320000D02*
X144880000Y-82320000D01*
X132740000Y-79950000D02*
X144880000Y-79950000D01*
X144880000Y-84690000D01*
X132740000Y-84690000D01*
X132740000Y-79950000D01*
%TD*%
M02*
