M48
; DRILL file {KiCad 9.0.2} date 2026-09-24T18:06:23-0400
; FORMAT={-:-/ absolute / metric / decimal}
; #@! TF.CreationDate,2026-09-24T18:06:23-04:00
; #@! TF.GenerationSoftware,Kicad,Pcbnew,9.0.2
; #@! TF.FileFunction,Plated,1,6,PTH
FMAT,2
METRIC
; #@! TA.AperFunction,Plated,PTH,ViaDrill
T1C0.300
; #@! TA.AperFunction,Plated,PTH,ComponentDrill
T2C1.000
; #@! TA.AperFunction,Plated,PTH,ComponentDrill
T3C3.200
%
G90
G05
T1
X75.42Y-96.23
X75.42Y-98.61
X75.44Y-101.19
X75.48Y-103.71
X77.78Y-96.24
X77.78Y-98.62
X77.8Y-101.2
X77.84Y-103.72
X77.89Y-94.04
X80.06Y-96.25
X80.06Y-98.63
X80.08Y-101.21
X80.12Y-103.73
X80.59Y-92.33
X82.7Y-103.07
X83.31Y-90.02
X83.44Y-93.17
X83.6Y-96.26
X85.63Y-103.12
X86.66Y-91.6
X86.85Y-97.33
X86.93Y-94.8
X87.84Y-103.17
X90.19Y-92.99
X90.5Y-96.27
X90.64Y-89.93
X94.18Y-94.37
X94.9Y-91.55
X95.07Y-103.29
X96.22Y-106.35
X96.91Y-96.21
X97.48Y-89.97
X98.81Y-93.83
X98.81Y-103.17
X99.4Y-108.39
X100.68Y-105.68
X101.16Y-91.48
X102.35Y-103.4
X103.32Y-96.21
X104.17Y-93.82
X104.19Y-89.97
X104.78Y-108.73
X105.91Y-103.12
X106.64Y-105.64
X107.45Y-91.44
X108.45Y-94.41
X110.26Y-97.09
X110.56Y-108.86
X110.77Y-106.02
X110.98Y-103.54
X111.43Y-92.12
X111.432Y-90.06
X112.68Y-97.09
X113.57Y-94.14
X115.03Y-108.57
X115.38Y-106.02
X115.41Y-97.06
X115.44Y-91.52
X117.13Y-103.51
X118.73Y-108.62
X120.06Y-95.85
X120.09Y-97.93
X120.11Y-100.26
X120.12Y-102.54
X120.19Y-105.93
X121.98Y-108.19
X122.33Y-95.87
X122.36Y-97.95
X122.38Y-100.28
X122.39Y-102.56
X123.07Y-105.88
X124.55Y-95.86
X124.58Y-97.94
X124.6Y-100.27
X124.61Y-102.55
T3
X78.0Y-86.25
X78.0Y-113.75
X122.0Y-86.25
X122.0Y-113.75
T2
G00X85.15Y-99.3
M15
G01X85.15Y-100.7
M16
G05
G00X87.85Y-99.3
M15
G01X87.85Y-100.7
M16
G05
G00X90.55Y-99.3
M15
G01X90.55Y-100.7
M16
G05
G00X93.25Y-99.3
M15
G01X93.25Y-100.7
M16
G05
G00X95.95Y-99.3
M15
G01X95.95Y-100.7
M16
G05
G00X98.65Y-99.3
M15
G01X98.65Y-100.7
M16
G05
G00X101.35Y-99.3
M15
G01X101.35Y-100.7
M16
G05
G00X104.05Y-99.3
M15
G01X104.05Y-100.7
M16
G05
G00X106.75Y-99.3
M15
G01X106.75Y-100.7
M16
G05
G00X109.45Y-99.3
M15
G01X109.45Y-100.7
M16
G05
G00X112.15Y-99.3
M15
G01X112.15Y-100.7
M16
G05
G00X114.85Y-99.3
M15
G01X114.85Y-100.7
M16
G05
M30
