%TF.GenerationSoftware,KiCad,Pcbnew,9.0.2*%
%TF.CreationDate,2026-09-24T18:06:26-04:00*%
%TF.ProjectId,BatteryBoard_10sNp_V1,42617474-6572-4794-926f-6172645f3130,rev?*%
%TF.SameCoordinates,Original*%
%TF.FileFunction,Legend,Top*%
%TF.FilePolarity,Positive*%
%FSLAX46Y46*%
G04 Gerber Fmt 4.6, Leading zero omitted, Abs format (unit mm)*
G04 Created by KiCad (PCBNEW 9.0.2) date 2026-09-24 18:06:26*
%MOMM*%
%LPD*%
G01*
G04 APERTURE LIST*
%ADD10C,0.100000*%
%ADD11C,0.150000*%
%ADD12C,0.300000*%
G04 APERTURE END LIST*
D10*
X85680000Y-102750000D02*
X114540000Y-102750000D01*
X114540000Y-110800000D01*
X85680000Y-110800000D01*
X85680000Y-102750000D01*
D11*
X87728573Y-107207644D02*
X87345240Y-107207644D01*
X87345240Y-107810025D02*
X87345240Y-106660025D01*
X87345240Y-106660025D02*
X87892859Y-106660025D01*
X88495240Y-107810025D02*
X88385716Y-107755264D01*
X88385716Y-107755264D02*
X88330954Y-107700502D01*
X88330954Y-107700502D02*
X88276192Y-107590978D01*
X88276192Y-107590978D02*
X88276192Y-107262406D01*
X88276192Y-107262406D02*
X88330954Y-107152883D01*
X88330954Y-107152883D02*
X88385716Y-107098121D01*
X88385716Y-107098121D02*
X88495240Y-107043359D01*
X88495240Y-107043359D02*
X88659525Y-107043359D01*
X88659525Y-107043359D02*
X88769049Y-107098121D01*
X88769049Y-107098121D02*
X88823811Y-107152883D01*
X88823811Y-107152883D02*
X88878573Y-107262406D01*
X88878573Y-107262406D02*
X88878573Y-107590978D01*
X88878573Y-107590978D02*
X88823811Y-107700502D01*
X88823811Y-107700502D02*
X88769049Y-107755264D01*
X88769049Y-107755264D02*
X88659525Y-107810025D01*
X88659525Y-107810025D02*
X88495240Y-107810025D01*
X89371430Y-107810025D02*
X89371430Y-107043359D01*
X89371430Y-107262406D02*
X89426192Y-107152883D01*
X89426192Y-107152883D02*
X89480954Y-107098121D01*
X89480954Y-107098121D02*
X89590478Y-107043359D01*
X89590478Y-107043359D02*
X89700001Y-107043359D01*
X90795239Y-107043359D02*
X91233335Y-107043359D01*
X90959525Y-106660025D02*
X90959525Y-107645740D01*
X90959525Y-107645740D02*
X91014287Y-107755264D01*
X91014287Y-107755264D02*
X91123811Y-107810025D01*
X91123811Y-107810025D02*
X91233335Y-107810025D01*
X92054763Y-107755264D02*
X91945239Y-107810025D01*
X91945239Y-107810025D02*
X91726192Y-107810025D01*
X91726192Y-107810025D02*
X91616668Y-107755264D01*
X91616668Y-107755264D02*
X91561906Y-107645740D01*
X91561906Y-107645740D02*
X91561906Y-107207644D01*
X91561906Y-107207644D02*
X91616668Y-107098121D01*
X91616668Y-107098121D02*
X91726192Y-107043359D01*
X91726192Y-107043359D02*
X91945239Y-107043359D01*
X91945239Y-107043359D02*
X92054763Y-107098121D01*
X92054763Y-107098121D02*
X92109525Y-107207644D01*
X92109525Y-107207644D02*
X92109525Y-107317168D01*
X92109525Y-107317168D02*
X91561906Y-107426692D01*
X92602382Y-107810025D02*
X92602382Y-107043359D01*
X92602382Y-107152883D02*
X92657144Y-107098121D01*
X92657144Y-107098121D02*
X92766668Y-107043359D01*
X92766668Y-107043359D02*
X92930953Y-107043359D01*
X92930953Y-107043359D02*
X93040477Y-107098121D01*
X93040477Y-107098121D02*
X93095239Y-107207644D01*
X93095239Y-107207644D02*
X93095239Y-107810025D01*
X93095239Y-107207644D02*
X93150001Y-107098121D01*
X93150001Y-107098121D02*
X93259525Y-107043359D01*
X93259525Y-107043359D02*
X93423811Y-107043359D01*
X93423811Y-107043359D02*
X93533334Y-107098121D01*
X93533334Y-107098121D02*
X93588096Y-107207644D01*
X93588096Y-107207644D02*
X93588096Y-107810025D01*
X94135715Y-107043359D02*
X94135715Y-108193359D01*
X94135715Y-107098121D02*
X94245239Y-107043359D01*
X94245239Y-107043359D02*
X94464286Y-107043359D01*
X94464286Y-107043359D02*
X94573810Y-107098121D01*
X94573810Y-107098121D02*
X94628572Y-107152883D01*
X94628572Y-107152883D02*
X94683334Y-107262406D01*
X94683334Y-107262406D02*
X94683334Y-107590978D01*
X94683334Y-107590978D02*
X94628572Y-107700502D01*
X94628572Y-107700502D02*
X94573810Y-107755264D01*
X94573810Y-107755264D02*
X94464286Y-107810025D01*
X94464286Y-107810025D02*
X94245239Y-107810025D01*
X94245239Y-107810025D02*
X94135715Y-107755264D01*
X95614286Y-107755264D02*
X95504762Y-107810025D01*
X95504762Y-107810025D02*
X95285715Y-107810025D01*
X95285715Y-107810025D02*
X95176191Y-107755264D01*
X95176191Y-107755264D02*
X95121429Y-107645740D01*
X95121429Y-107645740D02*
X95121429Y-107207644D01*
X95121429Y-107207644D02*
X95176191Y-107098121D01*
X95176191Y-107098121D02*
X95285715Y-107043359D01*
X95285715Y-107043359D02*
X95504762Y-107043359D01*
X95504762Y-107043359D02*
X95614286Y-107098121D01*
X95614286Y-107098121D02*
X95669048Y-107207644D01*
X95669048Y-107207644D02*
X95669048Y-107317168D01*
X95669048Y-107317168D02*
X95121429Y-107426692D01*
X96161905Y-107810025D02*
X96161905Y-107043359D01*
X96161905Y-107262406D02*
X96216667Y-107152883D01*
X96216667Y-107152883D02*
X96271429Y-107098121D01*
X96271429Y-107098121D02*
X96380953Y-107043359D01*
X96380953Y-107043359D02*
X96490476Y-107043359D01*
X97366667Y-107810025D02*
X97366667Y-107207644D01*
X97366667Y-107207644D02*
X97311905Y-107098121D01*
X97311905Y-107098121D02*
X97202381Y-107043359D01*
X97202381Y-107043359D02*
X96983334Y-107043359D01*
X96983334Y-107043359D02*
X96873810Y-107098121D01*
X97366667Y-107755264D02*
X97257143Y-107810025D01*
X97257143Y-107810025D02*
X96983334Y-107810025D01*
X96983334Y-107810025D02*
X96873810Y-107755264D01*
X96873810Y-107755264D02*
X96819048Y-107645740D01*
X96819048Y-107645740D02*
X96819048Y-107536216D01*
X96819048Y-107536216D02*
X96873810Y-107426692D01*
X96873810Y-107426692D02*
X96983334Y-107371930D01*
X96983334Y-107371930D02*
X97257143Y-107371930D01*
X97257143Y-107371930D02*
X97366667Y-107317168D01*
X97750000Y-107043359D02*
X98188096Y-107043359D01*
X97914286Y-106660025D02*
X97914286Y-107645740D01*
X97914286Y-107645740D02*
X97969048Y-107755264D01*
X97969048Y-107755264D02*
X98078572Y-107810025D01*
X98078572Y-107810025D02*
X98188096Y-107810025D01*
X99064286Y-107043359D02*
X99064286Y-107810025D01*
X98571429Y-107043359D02*
X98571429Y-107645740D01*
X98571429Y-107645740D02*
X98626191Y-107755264D01*
X98626191Y-107755264D02*
X98735715Y-107810025D01*
X98735715Y-107810025D02*
X98900000Y-107810025D01*
X98900000Y-107810025D02*
X99009524Y-107755264D01*
X99009524Y-107755264D02*
X99064286Y-107700502D01*
X99611905Y-107810025D02*
X99611905Y-107043359D01*
X99611905Y-107262406D02*
X99666667Y-107152883D01*
X99666667Y-107152883D02*
X99721429Y-107098121D01*
X99721429Y-107098121D02*
X99830953Y-107043359D01*
X99830953Y-107043359D02*
X99940476Y-107043359D01*
X100761905Y-107755264D02*
X100652381Y-107810025D01*
X100652381Y-107810025D02*
X100433334Y-107810025D01*
X100433334Y-107810025D02*
X100323810Y-107755264D01*
X100323810Y-107755264D02*
X100269048Y-107645740D01*
X100269048Y-107645740D02*
X100269048Y-107207644D01*
X100269048Y-107207644D02*
X100323810Y-107098121D01*
X100323810Y-107098121D02*
X100433334Y-107043359D01*
X100433334Y-107043359D02*
X100652381Y-107043359D01*
X100652381Y-107043359D02*
X100761905Y-107098121D01*
X100761905Y-107098121D02*
X100816667Y-107207644D01*
X100816667Y-107207644D02*
X100816667Y-107317168D01*
X100816667Y-107317168D02*
X100269048Y-107426692D01*
X102185714Y-107810025D02*
X102185714Y-107043359D01*
X102185714Y-107262406D02*
X102240476Y-107152883D01*
X102240476Y-107152883D02*
X102295238Y-107098121D01*
X102295238Y-107098121D02*
X102404762Y-107043359D01*
X102404762Y-107043359D02*
X102514285Y-107043359D01*
X102897619Y-107810025D02*
X102897619Y-107043359D01*
X102897619Y-106660025D02*
X102842857Y-106714787D01*
X102842857Y-106714787D02*
X102897619Y-106769549D01*
X102897619Y-106769549D02*
X102952381Y-106714787D01*
X102952381Y-106714787D02*
X102897619Y-106660025D01*
X102897619Y-106660025D02*
X102897619Y-106769549D01*
X103390476Y-107755264D02*
X103500000Y-107810025D01*
X103500000Y-107810025D02*
X103719048Y-107810025D01*
X103719048Y-107810025D02*
X103828571Y-107755264D01*
X103828571Y-107755264D02*
X103883333Y-107645740D01*
X103883333Y-107645740D02*
X103883333Y-107590978D01*
X103883333Y-107590978D02*
X103828571Y-107481454D01*
X103828571Y-107481454D02*
X103719048Y-107426692D01*
X103719048Y-107426692D02*
X103554762Y-107426692D01*
X103554762Y-107426692D02*
X103445238Y-107371930D01*
X103445238Y-107371930D02*
X103390476Y-107262406D01*
X103390476Y-107262406D02*
X103390476Y-107207644D01*
X103390476Y-107207644D02*
X103445238Y-107098121D01*
X103445238Y-107098121D02*
X103554762Y-107043359D01*
X103554762Y-107043359D02*
X103719048Y-107043359D01*
X103719048Y-107043359D02*
X103828571Y-107098121D01*
X104814285Y-107755264D02*
X104704761Y-107810025D01*
X104704761Y-107810025D02*
X104485714Y-107810025D01*
X104485714Y-107810025D02*
X104376190Y-107755264D01*
X104376190Y-107755264D02*
X104321428Y-107645740D01*
X104321428Y-107645740D02*
X104321428Y-107207644D01*
X104321428Y-107207644D02*
X104376190Y-107098121D01*
X104376190Y-107098121D02*
X104485714Y-107043359D01*
X104485714Y-107043359D02*
X104704761Y-107043359D01*
X104704761Y-107043359D02*
X104814285Y-107098121D01*
X104814285Y-107098121D02*
X104869047Y-107207644D01*
X104869047Y-107207644D02*
X104869047Y-107317168D01*
X104869047Y-107317168D02*
X104321428Y-107426692D01*
X107114285Y-107755264D02*
X106238094Y-107755264D01*
X107114285Y-107536216D02*
X106238094Y-107207644D01*
X106238094Y-107207644D02*
X107114285Y-106879073D01*
X108483332Y-106769549D02*
X108538094Y-106714787D01*
X108538094Y-106714787D02*
X108647618Y-106660025D01*
X108647618Y-106660025D02*
X108921427Y-106660025D01*
X108921427Y-106660025D02*
X109030951Y-106714787D01*
X109030951Y-106714787D02*
X109085713Y-106769549D01*
X109085713Y-106769549D02*
X109140475Y-106879073D01*
X109140475Y-106879073D02*
X109140475Y-106988597D01*
X109140475Y-106988597D02*
X109085713Y-107152883D01*
X109085713Y-107152883D02*
X108428570Y-107810025D01*
X108428570Y-107810025D02*
X109140475Y-107810025D01*
X109852380Y-106660025D02*
X109961903Y-106660025D01*
X109961903Y-106660025D02*
X110071427Y-106714787D01*
X110071427Y-106714787D02*
X110126189Y-106769549D01*
X110126189Y-106769549D02*
X110180951Y-106879073D01*
X110180951Y-106879073D02*
X110235713Y-107098121D01*
X110235713Y-107098121D02*
X110235713Y-107371930D01*
X110235713Y-107371930D02*
X110180951Y-107590978D01*
X110180951Y-107590978D02*
X110126189Y-107700502D01*
X110126189Y-107700502D02*
X110071427Y-107755264D01*
X110071427Y-107755264D02*
X109961903Y-107810025D01*
X109961903Y-107810025D02*
X109852380Y-107810025D01*
X109852380Y-107810025D02*
X109742856Y-107755264D01*
X109742856Y-107755264D02*
X109688094Y-107700502D01*
X109688094Y-107700502D02*
X109633332Y-107590978D01*
X109633332Y-107590978D02*
X109578570Y-107371930D01*
X109578570Y-107371930D02*
X109578570Y-107098121D01*
X109578570Y-107098121D02*
X109633332Y-106879073D01*
X109633332Y-106879073D02*
X109688094Y-106769549D01*
X109688094Y-106769549D02*
X109742856Y-106714787D01*
X109742856Y-106714787D02*
X109852380Y-106660025D01*
X110892856Y-106660025D02*
X110783332Y-106714787D01*
X110783332Y-106714787D02*
X110728570Y-106824311D01*
X110728570Y-106824311D02*
X110783332Y-106933835D01*
X110783332Y-106933835D02*
X110892856Y-106988597D01*
X110892856Y-106988597D02*
X111002380Y-106933835D01*
X111002380Y-106933835D02*
X111057141Y-106824311D01*
X111057141Y-106824311D02*
X111002380Y-106714787D01*
X111002380Y-106714787D02*
X110892856Y-106660025D01*
X112261903Y-107700502D02*
X112207141Y-107755264D01*
X112207141Y-107755264D02*
X112042855Y-107810025D01*
X112042855Y-107810025D02*
X111933331Y-107810025D01*
X111933331Y-107810025D02*
X111769046Y-107755264D01*
X111769046Y-107755264D02*
X111659522Y-107645740D01*
X111659522Y-107645740D02*
X111604760Y-107536216D01*
X111604760Y-107536216D02*
X111549998Y-107317168D01*
X111549998Y-107317168D02*
X111549998Y-107152883D01*
X111549998Y-107152883D02*
X111604760Y-106933835D01*
X111604760Y-106933835D02*
X111659522Y-106824311D01*
X111659522Y-106824311D02*
X111769046Y-106714787D01*
X111769046Y-106714787D02*
X111933331Y-106660025D01*
X111933331Y-106660025D02*
X112042855Y-106660025D01*
X112042855Y-106660025D02*
X112207141Y-106714787D01*
X112207141Y-106714787D02*
X112261903Y-106769549D01*
X112809522Y-107755264D02*
X112809522Y-107810025D01*
X112809522Y-107810025D02*
X112754760Y-107919549D01*
X112754760Y-107919549D02*
X112699998Y-107974311D01*
X86551193Y-109661461D02*
X86551193Y-108511461D01*
X86660717Y-109223366D02*
X86989288Y-109661461D01*
X86989288Y-108894795D02*
X86551193Y-109332890D01*
X87920240Y-109606700D02*
X87810716Y-109661461D01*
X87810716Y-109661461D02*
X87591669Y-109661461D01*
X87591669Y-109661461D02*
X87482145Y-109606700D01*
X87482145Y-109606700D02*
X87427383Y-109497176D01*
X87427383Y-109497176D02*
X87427383Y-109059080D01*
X87427383Y-109059080D02*
X87482145Y-108949557D01*
X87482145Y-108949557D02*
X87591669Y-108894795D01*
X87591669Y-108894795D02*
X87810716Y-108894795D01*
X87810716Y-108894795D02*
X87920240Y-108949557D01*
X87920240Y-108949557D02*
X87975002Y-109059080D01*
X87975002Y-109059080D02*
X87975002Y-109168604D01*
X87975002Y-109168604D02*
X87427383Y-109278128D01*
X88905954Y-109606700D02*
X88796430Y-109661461D01*
X88796430Y-109661461D02*
X88577383Y-109661461D01*
X88577383Y-109661461D02*
X88467859Y-109606700D01*
X88467859Y-109606700D02*
X88413097Y-109497176D01*
X88413097Y-109497176D02*
X88413097Y-109059080D01*
X88413097Y-109059080D02*
X88467859Y-108949557D01*
X88467859Y-108949557D02*
X88577383Y-108894795D01*
X88577383Y-108894795D02*
X88796430Y-108894795D01*
X88796430Y-108894795D02*
X88905954Y-108949557D01*
X88905954Y-108949557D02*
X88960716Y-109059080D01*
X88960716Y-109059080D02*
X88960716Y-109168604D01*
X88960716Y-109168604D02*
X88413097Y-109278128D01*
X89453573Y-108894795D02*
X89453573Y-110044795D01*
X89453573Y-108949557D02*
X89563097Y-108894795D01*
X89563097Y-108894795D02*
X89782144Y-108894795D01*
X89782144Y-108894795D02*
X89891668Y-108949557D01*
X89891668Y-108949557D02*
X89946430Y-109004319D01*
X89946430Y-109004319D02*
X90001192Y-109113842D01*
X90001192Y-109113842D02*
X90001192Y-109442414D01*
X90001192Y-109442414D02*
X89946430Y-109551938D01*
X89946430Y-109551938D02*
X89891668Y-109606700D01*
X89891668Y-109606700D02*
X89782144Y-109661461D01*
X89782144Y-109661461D02*
X89563097Y-109661461D01*
X89563097Y-109661461D02*
X89453573Y-109606700D01*
X91863096Y-109606700D02*
X91753572Y-109661461D01*
X91753572Y-109661461D02*
X91534525Y-109661461D01*
X91534525Y-109661461D02*
X91425001Y-109606700D01*
X91425001Y-109606700D02*
X91370239Y-109551938D01*
X91370239Y-109551938D02*
X91315477Y-109442414D01*
X91315477Y-109442414D02*
X91315477Y-109113842D01*
X91315477Y-109113842D02*
X91370239Y-109004319D01*
X91370239Y-109004319D02*
X91425001Y-108949557D01*
X91425001Y-108949557D02*
X91534525Y-108894795D01*
X91534525Y-108894795D02*
X91753572Y-108894795D01*
X91753572Y-108894795D02*
X91863096Y-108949557D01*
X92520239Y-109661461D02*
X92410715Y-109606700D01*
X92410715Y-109606700D02*
X92355953Y-109551938D01*
X92355953Y-109551938D02*
X92301191Y-109442414D01*
X92301191Y-109442414D02*
X92301191Y-109113842D01*
X92301191Y-109113842D02*
X92355953Y-109004319D01*
X92355953Y-109004319D02*
X92410715Y-108949557D01*
X92410715Y-108949557D02*
X92520239Y-108894795D01*
X92520239Y-108894795D02*
X92684524Y-108894795D01*
X92684524Y-108894795D02*
X92794048Y-108949557D01*
X92794048Y-108949557D02*
X92848810Y-109004319D01*
X92848810Y-109004319D02*
X92903572Y-109113842D01*
X92903572Y-109113842D02*
X92903572Y-109442414D01*
X92903572Y-109442414D02*
X92848810Y-109551938D01*
X92848810Y-109551938D02*
X92794048Y-109606700D01*
X92794048Y-109606700D02*
X92684524Y-109661461D01*
X92684524Y-109661461D02*
X92520239Y-109661461D01*
X93396429Y-108894795D02*
X93396429Y-109661461D01*
X93396429Y-109004319D02*
X93451191Y-108949557D01*
X93451191Y-108949557D02*
X93560715Y-108894795D01*
X93560715Y-108894795D02*
X93725000Y-108894795D01*
X93725000Y-108894795D02*
X93834524Y-108949557D01*
X93834524Y-108949557D02*
X93889286Y-109059080D01*
X93889286Y-109059080D02*
X93889286Y-109661461D01*
X94272619Y-108894795D02*
X94710715Y-108894795D01*
X94436905Y-108511461D02*
X94436905Y-109497176D01*
X94436905Y-109497176D02*
X94491667Y-109606700D01*
X94491667Y-109606700D02*
X94601191Y-109661461D01*
X94601191Y-109661461D02*
X94710715Y-109661461D01*
X95094048Y-109661461D02*
X95094048Y-108894795D01*
X95094048Y-108511461D02*
X95039286Y-108566223D01*
X95039286Y-108566223D02*
X95094048Y-108620985D01*
X95094048Y-108620985D02*
X95148810Y-108566223D01*
X95148810Y-108566223D02*
X95094048Y-108511461D01*
X95094048Y-108511461D02*
X95094048Y-108620985D01*
X95641667Y-108894795D02*
X95641667Y-109661461D01*
X95641667Y-109004319D02*
X95696429Y-108949557D01*
X95696429Y-108949557D02*
X95805953Y-108894795D01*
X95805953Y-108894795D02*
X95970238Y-108894795D01*
X95970238Y-108894795D02*
X96079762Y-108949557D01*
X96079762Y-108949557D02*
X96134524Y-109059080D01*
X96134524Y-109059080D02*
X96134524Y-109661461D01*
X97175000Y-108894795D02*
X97175000Y-109661461D01*
X96682143Y-108894795D02*
X96682143Y-109497176D01*
X96682143Y-109497176D02*
X96736905Y-109606700D01*
X96736905Y-109606700D02*
X96846429Y-109661461D01*
X96846429Y-109661461D02*
X97010714Y-109661461D01*
X97010714Y-109661461D02*
X97120238Y-109606700D01*
X97120238Y-109606700D02*
X97175000Y-109551938D01*
X97886905Y-109661461D02*
X97777381Y-109606700D01*
X97777381Y-109606700D02*
X97722619Y-109551938D01*
X97722619Y-109551938D02*
X97667857Y-109442414D01*
X97667857Y-109442414D02*
X97667857Y-109113842D01*
X97667857Y-109113842D02*
X97722619Y-109004319D01*
X97722619Y-109004319D02*
X97777381Y-108949557D01*
X97777381Y-108949557D02*
X97886905Y-108894795D01*
X97886905Y-108894795D02*
X98051190Y-108894795D01*
X98051190Y-108894795D02*
X98160714Y-108949557D01*
X98160714Y-108949557D02*
X98215476Y-109004319D01*
X98215476Y-109004319D02*
X98270238Y-109113842D01*
X98270238Y-109113842D02*
X98270238Y-109442414D01*
X98270238Y-109442414D02*
X98215476Y-109551938D01*
X98215476Y-109551938D02*
X98160714Y-109606700D01*
X98160714Y-109606700D02*
X98051190Y-109661461D01*
X98051190Y-109661461D02*
X97886905Y-109661461D01*
X99255952Y-108894795D02*
X99255952Y-109661461D01*
X98763095Y-108894795D02*
X98763095Y-109497176D01*
X98763095Y-109497176D02*
X98817857Y-109606700D01*
X98817857Y-109606700D02*
X98927381Y-109661461D01*
X98927381Y-109661461D02*
X99091666Y-109661461D01*
X99091666Y-109661461D02*
X99201190Y-109606700D01*
X99201190Y-109606700D02*
X99255952Y-109551938D01*
X99748809Y-109606700D02*
X99858333Y-109661461D01*
X99858333Y-109661461D02*
X100077381Y-109661461D01*
X100077381Y-109661461D02*
X100186904Y-109606700D01*
X100186904Y-109606700D02*
X100241666Y-109497176D01*
X100241666Y-109497176D02*
X100241666Y-109442414D01*
X100241666Y-109442414D02*
X100186904Y-109332890D01*
X100186904Y-109332890D02*
X100077381Y-109278128D01*
X100077381Y-109278128D02*
X99913095Y-109278128D01*
X99913095Y-109278128D02*
X99803571Y-109223366D01*
X99803571Y-109223366D02*
X99748809Y-109113842D01*
X99748809Y-109113842D02*
X99748809Y-109059080D01*
X99748809Y-109059080D02*
X99803571Y-108949557D01*
X99803571Y-108949557D02*
X99913095Y-108894795D01*
X99913095Y-108894795D02*
X100077381Y-108894795D01*
X100077381Y-108894795D02*
X100186904Y-108949557D01*
X102103570Y-109606700D02*
X101994046Y-109661461D01*
X101994046Y-109661461D02*
X101774999Y-109661461D01*
X101774999Y-109661461D02*
X101665475Y-109606700D01*
X101665475Y-109606700D02*
X101610713Y-109551938D01*
X101610713Y-109551938D02*
X101555951Y-109442414D01*
X101555951Y-109442414D02*
X101555951Y-109113842D01*
X101555951Y-109113842D02*
X101610713Y-109004319D01*
X101610713Y-109004319D02*
X101665475Y-108949557D01*
X101665475Y-108949557D02*
X101774999Y-108894795D01*
X101774999Y-108894795D02*
X101994046Y-108894795D01*
X101994046Y-108894795D02*
X102103570Y-108949557D01*
X103089284Y-108894795D02*
X103089284Y-109661461D01*
X102596427Y-108894795D02*
X102596427Y-109497176D01*
X102596427Y-109497176D02*
X102651189Y-109606700D01*
X102651189Y-109606700D02*
X102760713Y-109661461D01*
X102760713Y-109661461D02*
X102924998Y-109661461D01*
X102924998Y-109661461D02*
X103034522Y-109606700D01*
X103034522Y-109606700D02*
X103089284Y-109551938D01*
X103636903Y-109661461D02*
X103636903Y-108894795D01*
X103636903Y-109113842D02*
X103691665Y-109004319D01*
X103691665Y-109004319D02*
X103746427Y-108949557D01*
X103746427Y-108949557D02*
X103855951Y-108894795D01*
X103855951Y-108894795D02*
X103965474Y-108894795D01*
X104348808Y-109661461D02*
X104348808Y-108894795D01*
X104348808Y-109113842D02*
X104403570Y-109004319D01*
X104403570Y-109004319D02*
X104458332Y-108949557D01*
X104458332Y-108949557D02*
X104567856Y-108894795D01*
X104567856Y-108894795D02*
X104677379Y-108894795D01*
X105498808Y-109606700D02*
X105389284Y-109661461D01*
X105389284Y-109661461D02*
X105170237Y-109661461D01*
X105170237Y-109661461D02*
X105060713Y-109606700D01*
X105060713Y-109606700D02*
X105005951Y-109497176D01*
X105005951Y-109497176D02*
X105005951Y-109059080D01*
X105005951Y-109059080D02*
X105060713Y-108949557D01*
X105060713Y-108949557D02*
X105170237Y-108894795D01*
X105170237Y-108894795D02*
X105389284Y-108894795D01*
X105389284Y-108894795D02*
X105498808Y-108949557D01*
X105498808Y-108949557D02*
X105553570Y-109059080D01*
X105553570Y-109059080D02*
X105553570Y-109168604D01*
X105553570Y-109168604D02*
X105005951Y-109278128D01*
X106046427Y-108894795D02*
X106046427Y-109661461D01*
X106046427Y-109004319D02*
X106101189Y-108949557D01*
X106101189Y-108949557D02*
X106210713Y-108894795D01*
X106210713Y-108894795D02*
X106374998Y-108894795D01*
X106374998Y-108894795D02*
X106484522Y-108949557D01*
X106484522Y-108949557D02*
X106539284Y-109059080D01*
X106539284Y-109059080D02*
X106539284Y-109661461D01*
X106922617Y-108894795D02*
X107360713Y-108894795D01*
X107086903Y-108511461D02*
X107086903Y-109497176D01*
X107086903Y-109497176D02*
X107141665Y-109606700D01*
X107141665Y-109606700D02*
X107251189Y-109661461D01*
X107251189Y-109661461D02*
X107360713Y-109661461D01*
X109496427Y-109606700D02*
X108620236Y-109606700D01*
X109496427Y-109387652D02*
X108620236Y-109059080D01*
X108620236Y-109059080D02*
X109496427Y-108730509D01*
X111413093Y-108511461D02*
X111194046Y-108511461D01*
X111194046Y-108511461D02*
X111084522Y-108566223D01*
X111084522Y-108566223D02*
X111029760Y-108620985D01*
X111029760Y-108620985D02*
X110920236Y-108785271D01*
X110920236Y-108785271D02*
X110865474Y-109004319D01*
X110865474Y-109004319D02*
X110865474Y-109442414D01*
X110865474Y-109442414D02*
X110920236Y-109551938D01*
X110920236Y-109551938D02*
X110974998Y-109606700D01*
X110974998Y-109606700D02*
X111084522Y-109661461D01*
X111084522Y-109661461D02*
X111303569Y-109661461D01*
X111303569Y-109661461D02*
X111413093Y-109606700D01*
X111413093Y-109606700D02*
X111467855Y-109551938D01*
X111467855Y-109551938D02*
X111522617Y-109442414D01*
X111522617Y-109442414D02*
X111522617Y-109168604D01*
X111522617Y-109168604D02*
X111467855Y-109059080D01*
X111467855Y-109059080D02*
X111413093Y-109004319D01*
X111413093Y-109004319D02*
X111303569Y-108949557D01*
X111303569Y-108949557D02*
X111084522Y-108949557D01*
X111084522Y-108949557D02*
X110974998Y-109004319D01*
X110974998Y-109004319D02*
X110920236Y-109059080D01*
X110920236Y-109059080D02*
X110865474Y-109168604D01*
X112234522Y-108511461D02*
X112344045Y-108511461D01*
X112344045Y-108511461D02*
X112453569Y-108566223D01*
X112453569Y-108566223D02*
X112508331Y-108620985D01*
X112508331Y-108620985D02*
X112563093Y-108730509D01*
X112563093Y-108730509D02*
X112617855Y-108949557D01*
X112617855Y-108949557D02*
X112617855Y-109223366D01*
X112617855Y-109223366D02*
X112563093Y-109442414D01*
X112563093Y-109442414D02*
X112508331Y-109551938D01*
X112508331Y-109551938D02*
X112453569Y-109606700D01*
X112453569Y-109606700D02*
X112344045Y-109661461D01*
X112344045Y-109661461D02*
X112234522Y-109661461D01*
X112234522Y-109661461D02*
X112124998Y-109606700D01*
X112124998Y-109606700D02*
X112070236Y-109551938D01*
X112070236Y-109551938D02*
X112015474Y-109442414D01*
X112015474Y-109442414D02*
X111960712Y-109223366D01*
X111960712Y-109223366D02*
X111960712Y-108949557D01*
X111960712Y-108949557D02*
X112015474Y-108730509D01*
X112015474Y-108730509D02*
X112070236Y-108620985D01*
X112070236Y-108620985D02*
X112124998Y-108566223D01*
X112124998Y-108566223D02*
X112234522Y-108511461D01*
X113055950Y-109332890D02*
X113603569Y-109332890D01*
X112946426Y-109661461D02*
X113329760Y-108511461D01*
X113329760Y-108511461D02*
X113713093Y-109661461D01*
D12*
X87274510Y-104485114D02*
X87488796Y-104556542D01*
X87488796Y-104556542D02*
X87560225Y-104627971D01*
X87560225Y-104627971D02*
X87631653Y-104770828D01*
X87631653Y-104770828D02*
X87631653Y-104985114D01*
X87631653Y-104985114D02*
X87560225Y-105127971D01*
X87560225Y-105127971D02*
X87488796Y-105199400D01*
X87488796Y-105199400D02*
X87345939Y-105270828D01*
X87345939Y-105270828D02*
X86774510Y-105270828D01*
X86774510Y-105270828D02*
X86774510Y-103770828D01*
X86774510Y-103770828D02*
X87274510Y-103770828D01*
X87274510Y-103770828D02*
X87417368Y-103842257D01*
X87417368Y-103842257D02*
X87488796Y-103913685D01*
X87488796Y-103913685D02*
X87560225Y-104056542D01*
X87560225Y-104056542D02*
X87560225Y-104199400D01*
X87560225Y-104199400D02*
X87488796Y-104342257D01*
X87488796Y-104342257D02*
X87417368Y-104413685D01*
X87417368Y-104413685D02*
X87274510Y-104485114D01*
X87274510Y-104485114D02*
X86774510Y-104485114D01*
X88917368Y-105270828D02*
X88917368Y-104485114D01*
X88917368Y-104485114D02*
X88845939Y-104342257D01*
X88845939Y-104342257D02*
X88703082Y-104270828D01*
X88703082Y-104270828D02*
X88417368Y-104270828D01*
X88417368Y-104270828D02*
X88274510Y-104342257D01*
X88917368Y-105199400D02*
X88774510Y-105270828D01*
X88774510Y-105270828D02*
X88417368Y-105270828D01*
X88417368Y-105270828D02*
X88274510Y-105199400D01*
X88274510Y-105199400D02*
X88203082Y-105056542D01*
X88203082Y-105056542D02*
X88203082Y-104913685D01*
X88203082Y-104913685D02*
X88274510Y-104770828D01*
X88274510Y-104770828D02*
X88417368Y-104699400D01*
X88417368Y-104699400D02*
X88774510Y-104699400D01*
X88774510Y-104699400D02*
X88917368Y-104627971D01*
X89417368Y-104270828D02*
X89988796Y-104270828D01*
X89631653Y-103770828D02*
X89631653Y-105056542D01*
X89631653Y-105056542D02*
X89703082Y-105199400D01*
X89703082Y-105199400D02*
X89845939Y-105270828D01*
X89845939Y-105270828D02*
X89988796Y-105270828D01*
X90274511Y-104270828D02*
X90845939Y-104270828D01*
X90488796Y-103770828D02*
X90488796Y-105056542D01*
X90488796Y-105056542D02*
X90560225Y-105199400D01*
X90560225Y-105199400D02*
X90703082Y-105270828D01*
X90703082Y-105270828D02*
X90845939Y-105270828D01*
X91917368Y-105199400D02*
X91774511Y-105270828D01*
X91774511Y-105270828D02*
X91488797Y-105270828D01*
X91488797Y-105270828D02*
X91345939Y-105199400D01*
X91345939Y-105199400D02*
X91274511Y-105056542D01*
X91274511Y-105056542D02*
X91274511Y-104485114D01*
X91274511Y-104485114D02*
X91345939Y-104342257D01*
X91345939Y-104342257D02*
X91488797Y-104270828D01*
X91488797Y-104270828D02*
X91774511Y-104270828D01*
X91774511Y-104270828D02*
X91917368Y-104342257D01*
X91917368Y-104342257D02*
X91988797Y-104485114D01*
X91988797Y-104485114D02*
X91988797Y-104627971D01*
X91988797Y-104627971D02*
X91274511Y-104770828D01*
X92631653Y-105270828D02*
X92631653Y-104270828D01*
X92631653Y-104556542D02*
X92703082Y-104413685D01*
X92703082Y-104413685D02*
X92774511Y-104342257D01*
X92774511Y-104342257D02*
X92917368Y-104270828D01*
X92917368Y-104270828D02*
X93060225Y-104270828D01*
X93417367Y-104270828D02*
X93774510Y-105270828D01*
X94131653Y-104270828D02*
X93774510Y-105270828D01*
X93774510Y-105270828D02*
X93631653Y-105627971D01*
X93631653Y-105627971D02*
X93560224Y-105699400D01*
X93560224Y-105699400D02*
X93417367Y-105770828D01*
X96345938Y-104485114D02*
X96560224Y-104556542D01*
X96560224Y-104556542D02*
X96631653Y-104627971D01*
X96631653Y-104627971D02*
X96703081Y-104770828D01*
X96703081Y-104770828D02*
X96703081Y-104985114D01*
X96703081Y-104985114D02*
X96631653Y-105127971D01*
X96631653Y-105127971D02*
X96560224Y-105199400D01*
X96560224Y-105199400D02*
X96417367Y-105270828D01*
X96417367Y-105270828D02*
X95845938Y-105270828D01*
X95845938Y-105270828D02*
X95845938Y-103770828D01*
X95845938Y-103770828D02*
X96345938Y-103770828D01*
X96345938Y-103770828D02*
X96488796Y-103842257D01*
X96488796Y-103842257D02*
X96560224Y-103913685D01*
X96560224Y-103913685D02*
X96631653Y-104056542D01*
X96631653Y-104056542D02*
X96631653Y-104199400D01*
X96631653Y-104199400D02*
X96560224Y-104342257D01*
X96560224Y-104342257D02*
X96488796Y-104413685D01*
X96488796Y-104413685D02*
X96345938Y-104485114D01*
X96345938Y-104485114D02*
X95845938Y-104485114D01*
X97560224Y-105270828D02*
X97417367Y-105199400D01*
X97417367Y-105199400D02*
X97345938Y-105127971D01*
X97345938Y-105127971D02*
X97274510Y-104985114D01*
X97274510Y-104985114D02*
X97274510Y-104556542D01*
X97274510Y-104556542D02*
X97345938Y-104413685D01*
X97345938Y-104413685D02*
X97417367Y-104342257D01*
X97417367Y-104342257D02*
X97560224Y-104270828D01*
X97560224Y-104270828D02*
X97774510Y-104270828D01*
X97774510Y-104270828D02*
X97917367Y-104342257D01*
X97917367Y-104342257D02*
X97988796Y-104413685D01*
X97988796Y-104413685D02*
X98060224Y-104556542D01*
X98060224Y-104556542D02*
X98060224Y-104985114D01*
X98060224Y-104985114D02*
X97988796Y-105127971D01*
X97988796Y-105127971D02*
X97917367Y-105199400D01*
X97917367Y-105199400D02*
X97774510Y-105270828D01*
X97774510Y-105270828D02*
X97560224Y-105270828D01*
X99345939Y-105270828D02*
X99345939Y-104485114D01*
X99345939Y-104485114D02*
X99274510Y-104342257D01*
X99274510Y-104342257D02*
X99131653Y-104270828D01*
X99131653Y-104270828D02*
X98845939Y-104270828D01*
X98845939Y-104270828D02*
X98703081Y-104342257D01*
X99345939Y-105199400D02*
X99203081Y-105270828D01*
X99203081Y-105270828D02*
X98845939Y-105270828D01*
X98845939Y-105270828D02*
X98703081Y-105199400D01*
X98703081Y-105199400D02*
X98631653Y-105056542D01*
X98631653Y-105056542D02*
X98631653Y-104913685D01*
X98631653Y-104913685D02*
X98703081Y-104770828D01*
X98703081Y-104770828D02*
X98845939Y-104699400D01*
X98845939Y-104699400D02*
X99203081Y-104699400D01*
X99203081Y-104699400D02*
X99345939Y-104627971D01*
X100060224Y-105270828D02*
X100060224Y-104270828D01*
X100060224Y-104556542D02*
X100131653Y-104413685D01*
X100131653Y-104413685D02*
X100203082Y-104342257D01*
X100203082Y-104342257D02*
X100345939Y-104270828D01*
X100345939Y-104270828D02*
X100488796Y-104270828D01*
X101631653Y-105270828D02*
X101631653Y-103770828D01*
X101631653Y-105199400D02*
X101488795Y-105270828D01*
X101488795Y-105270828D02*
X101203081Y-105270828D01*
X101203081Y-105270828D02*
X101060224Y-105199400D01*
X101060224Y-105199400D02*
X100988795Y-105127971D01*
X100988795Y-105127971D02*
X100917367Y-104985114D01*
X100917367Y-104985114D02*
X100917367Y-104556542D01*
X100917367Y-104556542D02*
X100988795Y-104413685D01*
X100988795Y-104413685D02*
X101060224Y-104342257D01*
X101060224Y-104342257D02*
X101203081Y-104270828D01*
X101203081Y-104270828D02*
X101488795Y-104270828D01*
X101488795Y-104270828D02*
X101631653Y-104342257D01*
X104274510Y-105270828D02*
X103417367Y-105270828D01*
X103845938Y-105270828D02*
X103845938Y-103770828D01*
X103845938Y-103770828D02*
X103703081Y-103985114D01*
X103703081Y-103985114D02*
X103560224Y-104127971D01*
X103560224Y-104127971D02*
X103417367Y-104199400D01*
X105203081Y-103770828D02*
X105345938Y-103770828D01*
X105345938Y-103770828D02*
X105488795Y-103842257D01*
X105488795Y-103842257D02*
X105560224Y-103913685D01*
X105560224Y-103913685D02*
X105631652Y-104056542D01*
X105631652Y-104056542D02*
X105703081Y-104342257D01*
X105703081Y-104342257D02*
X105703081Y-104699400D01*
X105703081Y-104699400D02*
X105631652Y-104985114D01*
X105631652Y-104985114D02*
X105560224Y-105127971D01*
X105560224Y-105127971D02*
X105488795Y-105199400D01*
X105488795Y-105199400D02*
X105345938Y-105270828D01*
X105345938Y-105270828D02*
X105203081Y-105270828D01*
X105203081Y-105270828D02*
X105060224Y-105199400D01*
X105060224Y-105199400D02*
X104988795Y-105127971D01*
X104988795Y-105127971D02*
X104917366Y-104985114D01*
X104917366Y-104985114D02*
X104845938Y-104699400D01*
X104845938Y-104699400D02*
X104845938Y-104342257D01*
X104845938Y-104342257D02*
X104917366Y-104056542D01*
X104917366Y-104056542D02*
X104988795Y-103913685D01*
X104988795Y-103913685D02*
X105060224Y-103842257D01*
X105060224Y-103842257D02*
X105203081Y-103770828D01*
X106274509Y-105199400D02*
X106417366Y-105270828D01*
X106417366Y-105270828D02*
X106703080Y-105270828D01*
X106703080Y-105270828D02*
X106845937Y-105199400D01*
X106845937Y-105199400D02*
X106917366Y-105056542D01*
X106917366Y-105056542D02*
X106917366Y-104985114D01*
X106917366Y-104985114D02*
X106845937Y-104842257D01*
X106845937Y-104842257D02*
X106703080Y-104770828D01*
X106703080Y-104770828D02*
X106488795Y-104770828D01*
X106488795Y-104770828D02*
X106345937Y-104699400D01*
X106345937Y-104699400D02*
X106274509Y-104556542D01*
X106274509Y-104556542D02*
X106274509Y-104485114D01*
X106274509Y-104485114D02*
X106345937Y-104342257D01*
X106345937Y-104342257D02*
X106488795Y-104270828D01*
X106488795Y-104270828D02*
X106703080Y-104270828D01*
X106703080Y-104270828D02*
X106845937Y-104342257D01*
X107560223Y-105270828D02*
X107560223Y-103770828D01*
X107560223Y-103770828D02*
X108417366Y-105270828D01*
X108417366Y-105270828D02*
X108417366Y-103770828D01*
X109131652Y-104270828D02*
X109131652Y-105770828D01*
X109131652Y-104342257D02*
X109274510Y-104270828D01*
X109274510Y-104270828D02*
X109560224Y-104270828D01*
X109560224Y-104270828D02*
X109703081Y-104342257D01*
X109703081Y-104342257D02*
X109774510Y-104413685D01*
X109774510Y-104413685D02*
X109845938Y-104556542D01*
X109845938Y-104556542D02*
X109845938Y-104985114D01*
X109845938Y-104985114D02*
X109774510Y-105127971D01*
X109774510Y-105127971D02*
X109703081Y-105199400D01*
X109703081Y-105199400D02*
X109560224Y-105270828D01*
X109560224Y-105270828D02*
X109274510Y-105270828D01*
X109274510Y-105270828D02*
X109131652Y-105199400D01*
X111417367Y-103770828D02*
X111917367Y-105270828D01*
X111917367Y-105270828D02*
X112417367Y-103770828D01*
X113703081Y-105270828D02*
X112845938Y-105270828D01*
X113274509Y-105270828D02*
X113274509Y-103770828D01*
X113274509Y-103770828D02*
X113131652Y-103985114D01*
X113131652Y-103985114D02*
X112988795Y-104127971D01*
X112988795Y-104127971D02*
X112845938Y-104199400D01*
M02*
