%TF.GenerationSoftware,KiCad,Pcbnew,9.0.2*%
%TF.CreationDate,2026-09-24T15:54:22-04:00*%
%TF.ProjectId,BatteryBoard_6sNp_V1,42617474-6572-4794-926f-6172645f3673,rev?*%
%TF.SameCoordinates,Original*%
%TF.FileFunction,Legend,Top*%
%TF.FilePolarity,Positive*%
%FSLAX46Y46*%
G04 Gerber Fmt 4.6, Leading zero omitted, Abs format (unit mm)*
G04 Created by KiCad (PCBNEW 9.0.2) date 2026-09-24 15:54:22*
%MOMM*%
%LPD*%
G01*
G04 APERTURE LIST*
%ADD10C,0.100000*%
%ADD11C,0.150000*%
%ADD12C,0.300000*%
G04 APERTURE END LIST*
D10*
X85645000Y-102770000D02*
X114695000Y-102770000D01*
X114695000Y-110820000D01*
X85645000Y-110820000D01*
X85645000Y-102770000D01*
D11*
X87903573Y-107227644D02*
X87520240Y-107227644D01*
X87520240Y-107830025D02*
X87520240Y-106680025D01*
X87520240Y-106680025D02*
X88067859Y-106680025D01*
X88670240Y-107830025D02*
X88560716Y-107775264D01*
X88560716Y-107775264D02*
X88505954Y-107720502D01*
X88505954Y-107720502D02*
X88451192Y-107610978D01*
X88451192Y-107610978D02*
X88451192Y-107282406D01*
X88451192Y-107282406D02*
X88505954Y-107172883D01*
X88505954Y-107172883D02*
X88560716Y-107118121D01*
X88560716Y-107118121D02*
X88670240Y-107063359D01*
X88670240Y-107063359D02*
X88834525Y-107063359D01*
X88834525Y-107063359D02*
X88944049Y-107118121D01*
X88944049Y-107118121D02*
X88998811Y-107172883D01*
X88998811Y-107172883D02*
X89053573Y-107282406D01*
X89053573Y-107282406D02*
X89053573Y-107610978D01*
X89053573Y-107610978D02*
X88998811Y-107720502D01*
X88998811Y-107720502D02*
X88944049Y-107775264D01*
X88944049Y-107775264D02*
X88834525Y-107830025D01*
X88834525Y-107830025D02*
X88670240Y-107830025D01*
X89546430Y-107830025D02*
X89546430Y-107063359D01*
X89546430Y-107282406D02*
X89601192Y-107172883D01*
X89601192Y-107172883D02*
X89655954Y-107118121D01*
X89655954Y-107118121D02*
X89765478Y-107063359D01*
X89765478Y-107063359D02*
X89875001Y-107063359D01*
X90970239Y-107063359D02*
X91408335Y-107063359D01*
X91134525Y-106680025D02*
X91134525Y-107665740D01*
X91134525Y-107665740D02*
X91189287Y-107775264D01*
X91189287Y-107775264D02*
X91298811Y-107830025D01*
X91298811Y-107830025D02*
X91408335Y-107830025D01*
X92229763Y-107775264D02*
X92120239Y-107830025D01*
X92120239Y-107830025D02*
X91901192Y-107830025D01*
X91901192Y-107830025D02*
X91791668Y-107775264D01*
X91791668Y-107775264D02*
X91736906Y-107665740D01*
X91736906Y-107665740D02*
X91736906Y-107227644D01*
X91736906Y-107227644D02*
X91791668Y-107118121D01*
X91791668Y-107118121D02*
X91901192Y-107063359D01*
X91901192Y-107063359D02*
X92120239Y-107063359D01*
X92120239Y-107063359D02*
X92229763Y-107118121D01*
X92229763Y-107118121D02*
X92284525Y-107227644D01*
X92284525Y-107227644D02*
X92284525Y-107337168D01*
X92284525Y-107337168D02*
X91736906Y-107446692D01*
X92777382Y-107830025D02*
X92777382Y-107063359D01*
X92777382Y-107172883D02*
X92832144Y-107118121D01*
X92832144Y-107118121D02*
X92941668Y-107063359D01*
X92941668Y-107063359D02*
X93105953Y-107063359D01*
X93105953Y-107063359D02*
X93215477Y-107118121D01*
X93215477Y-107118121D02*
X93270239Y-107227644D01*
X93270239Y-107227644D02*
X93270239Y-107830025D01*
X93270239Y-107227644D02*
X93325001Y-107118121D01*
X93325001Y-107118121D02*
X93434525Y-107063359D01*
X93434525Y-107063359D02*
X93598811Y-107063359D01*
X93598811Y-107063359D02*
X93708334Y-107118121D01*
X93708334Y-107118121D02*
X93763096Y-107227644D01*
X93763096Y-107227644D02*
X93763096Y-107830025D01*
X94310715Y-107063359D02*
X94310715Y-108213359D01*
X94310715Y-107118121D02*
X94420239Y-107063359D01*
X94420239Y-107063359D02*
X94639286Y-107063359D01*
X94639286Y-107063359D02*
X94748810Y-107118121D01*
X94748810Y-107118121D02*
X94803572Y-107172883D01*
X94803572Y-107172883D02*
X94858334Y-107282406D01*
X94858334Y-107282406D02*
X94858334Y-107610978D01*
X94858334Y-107610978D02*
X94803572Y-107720502D01*
X94803572Y-107720502D02*
X94748810Y-107775264D01*
X94748810Y-107775264D02*
X94639286Y-107830025D01*
X94639286Y-107830025D02*
X94420239Y-107830025D01*
X94420239Y-107830025D02*
X94310715Y-107775264D01*
X95789286Y-107775264D02*
X95679762Y-107830025D01*
X95679762Y-107830025D02*
X95460715Y-107830025D01*
X95460715Y-107830025D02*
X95351191Y-107775264D01*
X95351191Y-107775264D02*
X95296429Y-107665740D01*
X95296429Y-107665740D02*
X95296429Y-107227644D01*
X95296429Y-107227644D02*
X95351191Y-107118121D01*
X95351191Y-107118121D02*
X95460715Y-107063359D01*
X95460715Y-107063359D02*
X95679762Y-107063359D01*
X95679762Y-107063359D02*
X95789286Y-107118121D01*
X95789286Y-107118121D02*
X95844048Y-107227644D01*
X95844048Y-107227644D02*
X95844048Y-107337168D01*
X95844048Y-107337168D02*
X95296429Y-107446692D01*
X96336905Y-107830025D02*
X96336905Y-107063359D01*
X96336905Y-107282406D02*
X96391667Y-107172883D01*
X96391667Y-107172883D02*
X96446429Y-107118121D01*
X96446429Y-107118121D02*
X96555953Y-107063359D01*
X96555953Y-107063359D02*
X96665476Y-107063359D01*
X97541667Y-107830025D02*
X97541667Y-107227644D01*
X97541667Y-107227644D02*
X97486905Y-107118121D01*
X97486905Y-107118121D02*
X97377381Y-107063359D01*
X97377381Y-107063359D02*
X97158334Y-107063359D01*
X97158334Y-107063359D02*
X97048810Y-107118121D01*
X97541667Y-107775264D02*
X97432143Y-107830025D01*
X97432143Y-107830025D02*
X97158334Y-107830025D01*
X97158334Y-107830025D02*
X97048810Y-107775264D01*
X97048810Y-107775264D02*
X96994048Y-107665740D01*
X96994048Y-107665740D02*
X96994048Y-107556216D01*
X96994048Y-107556216D02*
X97048810Y-107446692D01*
X97048810Y-107446692D02*
X97158334Y-107391930D01*
X97158334Y-107391930D02*
X97432143Y-107391930D01*
X97432143Y-107391930D02*
X97541667Y-107337168D01*
X97925000Y-107063359D02*
X98363096Y-107063359D01*
X98089286Y-106680025D02*
X98089286Y-107665740D01*
X98089286Y-107665740D02*
X98144048Y-107775264D01*
X98144048Y-107775264D02*
X98253572Y-107830025D01*
X98253572Y-107830025D02*
X98363096Y-107830025D01*
X99239286Y-107063359D02*
X99239286Y-107830025D01*
X98746429Y-107063359D02*
X98746429Y-107665740D01*
X98746429Y-107665740D02*
X98801191Y-107775264D01*
X98801191Y-107775264D02*
X98910715Y-107830025D01*
X98910715Y-107830025D02*
X99075000Y-107830025D01*
X99075000Y-107830025D02*
X99184524Y-107775264D01*
X99184524Y-107775264D02*
X99239286Y-107720502D01*
X99786905Y-107830025D02*
X99786905Y-107063359D01*
X99786905Y-107282406D02*
X99841667Y-107172883D01*
X99841667Y-107172883D02*
X99896429Y-107118121D01*
X99896429Y-107118121D02*
X100005953Y-107063359D01*
X100005953Y-107063359D02*
X100115476Y-107063359D01*
X100936905Y-107775264D02*
X100827381Y-107830025D01*
X100827381Y-107830025D02*
X100608334Y-107830025D01*
X100608334Y-107830025D02*
X100498810Y-107775264D01*
X100498810Y-107775264D02*
X100444048Y-107665740D01*
X100444048Y-107665740D02*
X100444048Y-107227644D01*
X100444048Y-107227644D02*
X100498810Y-107118121D01*
X100498810Y-107118121D02*
X100608334Y-107063359D01*
X100608334Y-107063359D02*
X100827381Y-107063359D01*
X100827381Y-107063359D02*
X100936905Y-107118121D01*
X100936905Y-107118121D02*
X100991667Y-107227644D01*
X100991667Y-107227644D02*
X100991667Y-107337168D01*
X100991667Y-107337168D02*
X100444048Y-107446692D01*
X102360714Y-107830025D02*
X102360714Y-107063359D01*
X102360714Y-107282406D02*
X102415476Y-107172883D01*
X102415476Y-107172883D02*
X102470238Y-107118121D01*
X102470238Y-107118121D02*
X102579762Y-107063359D01*
X102579762Y-107063359D02*
X102689285Y-107063359D01*
X103072619Y-107830025D02*
X103072619Y-107063359D01*
X103072619Y-106680025D02*
X103017857Y-106734787D01*
X103017857Y-106734787D02*
X103072619Y-106789549D01*
X103072619Y-106789549D02*
X103127381Y-106734787D01*
X103127381Y-106734787D02*
X103072619Y-106680025D01*
X103072619Y-106680025D02*
X103072619Y-106789549D01*
X103565476Y-107775264D02*
X103675000Y-107830025D01*
X103675000Y-107830025D02*
X103894048Y-107830025D01*
X103894048Y-107830025D02*
X104003571Y-107775264D01*
X104003571Y-107775264D02*
X104058333Y-107665740D01*
X104058333Y-107665740D02*
X104058333Y-107610978D01*
X104058333Y-107610978D02*
X104003571Y-107501454D01*
X104003571Y-107501454D02*
X103894048Y-107446692D01*
X103894048Y-107446692D02*
X103729762Y-107446692D01*
X103729762Y-107446692D02*
X103620238Y-107391930D01*
X103620238Y-107391930D02*
X103565476Y-107282406D01*
X103565476Y-107282406D02*
X103565476Y-107227644D01*
X103565476Y-107227644D02*
X103620238Y-107118121D01*
X103620238Y-107118121D02*
X103729762Y-107063359D01*
X103729762Y-107063359D02*
X103894048Y-107063359D01*
X103894048Y-107063359D02*
X104003571Y-107118121D01*
X104989285Y-107775264D02*
X104879761Y-107830025D01*
X104879761Y-107830025D02*
X104660714Y-107830025D01*
X104660714Y-107830025D02*
X104551190Y-107775264D01*
X104551190Y-107775264D02*
X104496428Y-107665740D01*
X104496428Y-107665740D02*
X104496428Y-107227644D01*
X104496428Y-107227644D02*
X104551190Y-107118121D01*
X104551190Y-107118121D02*
X104660714Y-107063359D01*
X104660714Y-107063359D02*
X104879761Y-107063359D01*
X104879761Y-107063359D02*
X104989285Y-107118121D01*
X104989285Y-107118121D02*
X105044047Y-107227644D01*
X105044047Y-107227644D02*
X105044047Y-107337168D01*
X105044047Y-107337168D02*
X104496428Y-107446692D01*
X107289285Y-107775264D02*
X106413094Y-107775264D01*
X107289285Y-107556216D02*
X106413094Y-107227644D01*
X106413094Y-107227644D02*
X107289285Y-106899073D01*
X108658332Y-106789549D02*
X108713094Y-106734787D01*
X108713094Y-106734787D02*
X108822618Y-106680025D01*
X108822618Y-106680025D02*
X109096427Y-106680025D01*
X109096427Y-106680025D02*
X109205951Y-106734787D01*
X109205951Y-106734787D02*
X109260713Y-106789549D01*
X109260713Y-106789549D02*
X109315475Y-106899073D01*
X109315475Y-106899073D02*
X109315475Y-107008597D01*
X109315475Y-107008597D02*
X109260713Y-107172883D01*
X109260713Y-107172883D02*
X108603570Y-107830025D01*
X108603570Y-107830025D02*
X109315475Y-107830025D01*
X110027380Y-106680025D02*
X110136903Y-106680025D01*
X110136903Y-106680025D02*
X110246427Y-106734787D01*
X110246427Y-106734787D02*
X110301189Y-106789549D01*
X110301189Y-106789549D02*
X110355951Y-106899073D01*
X110355951Y-106899073D02*
X110410713Y-107118121D01*
X110410713Y-107118121D02*
X110410713Y-107391930D01*
X110410713Y-107391930D02*
X110355951Y-107610978D01*
X110355951Y-107610978D02*
X110301189Y-107720502D01*
X110301189Y-107720502D02*
X110246427Y-107775264D01*
X110246427Y-107775264D02*
X110136903Y-107830025D01*
X110136903Y-107830025D02*
X110027380Y-107830025D01*
X110027380Y-107830025D02*
X109917856Y-107775264D01*
X109917856Y-107775264D02*
X109863094Y-107720502D01*
X109863094Y-107720502D02*
X109808332Y-107610978D01*
X109808332Y-107610978D02*
X109753570Y-107391930D01*
X109753570Y-107391930D02*
X109753570Y-107118121D01*
X109753570Y-107118121D02*
X109808332Y-106899073D01*
X109808332Y-106899073D02*
X109863094Y-106789549D01*
X109863094Y-106789549D02*
X109917856Y-106734787D01*
X109917856Y-106734787D02*
X110027380Y-106680025D01*
X111067856Y-106680025D02*
X110958332Y-106734787D01*
X110958332Y-106734787D02*
X110903570Y-106844311D01*
X110903570Y-106844311D02*
X110958332Y-106953835D01*
X110958332Y-106953835D02*
X111067856Y-107008597D01*
X111067856Y-107008597D02*
X111177380Y-106953835D01*
X111177380Y-106953835D02*
X111232141Y-106844311D01*
X111232141Y-106844311D02*
X111177380Y-106734787D01*
X111177380Y-106734787D02*
X111067856Y-106680025D01*
X112436903Y-107720502D02*
X112382141Y-107775264D01*
X112382141Y-107775264D02*
X112217855Y-107830025D01*
X112217855Y-107830025D02*
X112108331Y-107830025D01*
X112108331Y-107830025D02*
X111944046Y-107775264D01*
X111944046Y-107775264D02*
X111834522Y-107665740D01*
X111834522Y-107665740D02*
X111779760Y-107556216D01*
X111779760Y-107556216D02*
X111724998Y-107337168D01*
X111724998Y-107337168D02*
X111724998Y-107172883D01*
X111724998Y-107172883D02*
X111779760Y-106953835D01*
X111779760Y-106953835D02*
X111834522Y-106844311D01*
X111834522Y-106844311D02*
X111944046Y-106734787D01*
X111944046Y-106734787D02*
X112108331Y-106680025D01*
X112108331Y-106680025D02*
X112217855Y-106680025D01*
X112217855Y-106680025D02*
X112382141Y-106734787D01*
X112382141Y-106734787D02*
X112436903Y-106789549D01*
X112984522Y-107775264D02*
X112984522Y-107830025D01*
X112984522Y-107830025D02*
X112929760Y-107939549D01*
X112929760Y-107939549D02*
X112874998Y-107994311D01*
X86726193Y-109681461D02*
X86726193Y-108531461D01*
X86835717Y-109243366D02*
X87164288Y-109681461D01*
X87164288Y-108914795D02*
X86726193Y-109352890D01*
X88095240Y-109626700D02*
X87985716Y-109681461D01*
X87985716Y-109681461D02*
X87766669Y-109681461D01*
X87766669Y-109681461D02*
X87657145Y-109626700D01*
X87657145Y-109626700D02*
X87602383Y-109517176D01*
X87602383Y-109517176D02*
X87602383Y-109079080D01*
X87602383Y-109079080D02*
X87657145Y-108969557D01*
X87657145Y-108969557D02*
X87766669Y-108914795D01*
X87766669Y-108914795D02*
X87985716Y-108914795D01*
X87985716Y-108914795D02*
X88095240Y-108969557D01*
X88095240Y-108969557D02*
X88150002Y-109079080D01*
X88150002Y-109079080D02*
X88150002Y-109188604D01*
X88150002Y-109188604D02*
X87602383Y-109298128D01*
X89080954Y-109626700D02*
X88971430Y-109681461D01*
X88971430Y-109681461D02*
X88752383Y-109681461D01*
X88752383Y-109681461D02*
X88642859Y-109626700D01*
X88642859Y-109626700D02*
X88588097Y-109517176D01*
X88588097Y-109517176D02*
X88588097Y-109079080D01*
X88588097Y-109079080D02*
X88642859Y-108969557D01*
X88642859Y-108969557D02*
X88752383Y-108914795D01*
X88752383Y-108914795D02*
X88971430Y-108914795D01*
X88971430Y-108914795D02*
X89080954Y-108969557D01*
X89080954Y-108969557D02*
X89135716Y-109079080D01*
X89135716Y-109079080D02*
X89135716Y-109188604D01*
X89135716Y-109188604D02*
X88588097Y-109298128D01*
X89628573Y-108914795D02*
X89628573Y-110064795D01*
X89628573Y-108969557D02*
X89738097Y-108914795D01*
X89738097Y-108914795D02*
X89957144Y-108914795D01*
X89957144Y-108914795D02*
X90066668Y-108969557D01*
X90066668Y-108969557D02*
X90121430Y-109024319D01*
X90121430Y-109024319D02*
X90176192Y-109133842D01*
X90176192Y-109133842D02*
X90176192Y-109462414D01*
X90176192Y-109462414D02*
X90121430Y-109571938D01*
X90121430Y-109571938D02*
X90066668Y-109626700D01*
X90066668Y-109626700D02*
X89957144Y-109681461D01*
X89957144Y-109681461D02*
X89738097Y-109681461D01*
X89738097Y-109681461D02*
X89628573Y-109626700D01*
X92038096Y-109626700D02*
X91928572Y-109681461D01*
X91928572Y-109681461D02*
X91709525Y-109681461D01*
X91709525Y-109681461D02*
X91600001Y-109626700D01*
X91600001Y-109626700D02*
X91545239Y-109571938D01*
X91545239Y-109571938D02*
X91490477Y-109462414D01*
X91490477Y-109462414D02*
X91490477Y-109133842D01*
X91490477Y-109133842D02*
X91545239Y-109024319D01*
X91545239Y-109024319D02*
X91600001Y-108969557D01*
X91600001Y-108969557D02*
X91709525Y-108914795D01*
X91709525Y-108914795D02*
X91928572Y-108914795D01*
X91928572Y-108914795D02*
X92038096Y-108969557D01*
X92695239Y-109681461D02*
X92585715Y-109626700D01*
X92585715Y-109626700D02*
X92530953Y-109571938D01*
X92530953Y-109571938D02*
X92476191Y-109462414D01*
X92476191Y-109462414D02*
X92476191Y-109133842D01*
X92476191Y-109133842D02*
X92530953Y-109024319D01*
X92530953Y-109024319D02*
X92585715Y-108969557D01*
X92585715Y-108969557D02*
X92695239Y-108914795D01*
X92695239Y-108914795D02*
X92859524Y-108914795D01*
X92859524Y-108914795D02*
X92969048Y-108969557D01*
X92969048Y-108969557D02*
X93023810Y-109024319D01*
X93023810Y-109024319D02*
X93078572Y-109133842D01*
X93078572Y-109133842D02*
X93078572Y-109462414D01*
X93078572Y-109462414D02*
X93023810Y-109571938D01*
X93023810Y-109571938D02*
X92969048Y-109626700D01*
X92969048Y-109626700D02*
X92859524Y-109681461D01*
X92859524Y-109681461D02*
X92695239Y-109681461D01*
X93571429Y-108914795D02*
X93571429Y-109681461D01*
X93571429Y-109024319D02*
X93626191Y-108969557D01*
X93626191Y-108969557D02*
X93735715Y-108914795D01*
X93735715Y-108914795D02*
X93900000Y-108914795D01*
X93900000Y-108914795D02*
X94009524Y-108969557D01*
X94009524Y-108969557D02*
X94064286Y-109079080D01*
X94064286Y-109079080D02*
X94064286Y-109681461D01*
X94447619Y-108914795D02*
X94885715Y-108914795D01*
X94611905Y-108531461D02*
X94611905Y-109517176D01*
X94611905Y-109517176D02*
X94666667Y-109626700D01*
X94666667Y-109626700D02*
X94776191Y-109681461D01*
X94776191Y-109681461D02*
X94885715Y-109681461D01*
X95269048Y-109681461D02*
X95269048Y-108914795D01*
X95269048Y-108531461D02*
X95214286Y-108586223D01*
X95214286Y-108586223D02*
X95269048Y-108640985D01*
X95269048Y-108640985D02*
X95323810Y-108586223D01*
X95323810Y-108586223D02*
X95269048Y-108531461D01*
X95269048Y-108531461D02*
X95269048Y-108640985D01*
X95816667Y-108914795D02*
X95816667Y-109681461D01*
X95816667Y-109024319D02*
X95871429Y-108969557D01*
X95871429Y-108969557D02*
X95980953Y-108914795D01*
X95980953Y-108914795D02*
X96145238Y-108914795D01*
X96145238Y-108914795D02*
X96254762Y-108969557D01*
X96254762Y-108969557D02*
X96309524Y-109079080D01*
X96309524Y-109079080D02*
X96309524Y-109681461D01*
X97350000Y-108914795D02*
X97350000Y-109681461D01*
X96857143Y-108914795D02*
X96857143Y-109517176D01*
X96857143Y-109517176D02*
X96911905Y-109626700D01*
X96911905Y-109626700D02*
X97021429Y-109681461D01*
X97021429Y-109681461D02*
X97185714Y-109681461D01*
X97185714Y-109681461D02*
X97295238Y-109626700D01*
X97295238Y-109626700D02*
X97350000Y-109571938D01*
X98061905Y-109681461D02*
X97952381Y-109626700D01*
X97952381Y-109626700D02*
X97897619Y-109571938D01*
X97897619Y-109571938D02*
X97842857Y-109462414D01*
X97842857Y-109462414D02*
X97842857Y-109133842D01*
X97842857Y-109133842D02*
X97897619Y-109024319D01*
X97897619Y-109024319D02*
X97952381Y-108969557D01*
X97952381Y-108969557D02*
X98061905Y-108914795D01*
X98061905Y-108914795D02*
X98226190Y-108914795D01*
X98226190Y-108914795D02*
X98335714Y-108969557D01*
X98335714Y-108969557D02*
X98390476Y-109024319D01*
X98390476Y-109024319D02*
X98445238Y-109133842D01*
X98445238Y-109133842D02*
X98445238Y-109462414D01*
X98445238Y-109462414D02*
X98390476Y-109571938D01*
X98390476Y-109571938D02*
X98335714Y-109626700D01*
X98335714Y-109626700D02*
X98226190Y-109681461D01*
X98226190Y-109681461D02*
X98061905Y-109681461D01*
X99430952Y-108914795D02*
X99430952Y-109681461D01*
X98938095Y-108914795D02*
X98938095Y-109517176D01*
X98938095Y-109517176D02*
X98992857Y-109626700D01*
X98992857Y-109626700D02*
X99102381Y-109681461D01*
X99102381Y-109681461D02*
X99266666Y-109681461D01*
X99266666Y-109681461D02*
X99376190Y-109626700D01*
X99376190Y-109626700D02*
X99430952Y-109571938D01*
X99923809Y-109626700D02*
X100033333Y-109681461D01*
X100033333Y-109681461D02*
X100252381Y-109681461D01*
X100252381Y-109681461D02*
X100361904Y-109626700D01*
X100361904Y-109626700D02*
X100416666Y-109517176D01*
X100416666Y-109517176D02*
X100416666Y-109462414D01*
X100416666Y-109462414D02*
X100361904Y-109352890D01*
X100361904Y-109352890D02*
X100252381Y-109298128D01*
X100252381Y-109298128D02*
X100088095Y-109298128D01*
X100088095Y-109298128D02*
X99978571Y-109243366D01*
X99978571Y-109243366D02*
X99923809Y-109133842D01*
X99923809Y-109133842D02*
X99923809Y-109079080D01*
X99923809Y-109079080D02*
X99978571Y-108969557D01*
X99978571Y-108969557D02*
X100088095Y-108914795D01*
X100088095Y-108914795D02*
X100252381Y-108914795D01*
X100252381Y-108914795D02*
X100361904Y-108969557D01*
X102278570Y-109626700D02*
X102169046Y-109681461D01*
X102169046Y-109681461D02*
X101949999Y-109681461D01*
X101949999Y-109681461D02*
X101840475Y-109626700D01*
X101840475Y-109626700D02*
X101785713Y-109571938D01*
X101785713Y-109571938D02*
X101730951Y-109462414D01*
X101730951Y-109462414D02*
X101730951Y-109133842D01*
X101730951Y-109133842D02*
X101785713Y-109024319D01*
X101785713Y-109024319D02*
X101840475Y-108969557D01*
X101840475Y-108969557D02*
X101949999Y-108914795D01*
X101949999Y-108914795D02*
X102169046Y-108914795D01*
X102169046Y-108914795D02*
X102278570Y-108969557D01*
X103264284Y-108914795D02*
X103264284Y-109681461D01*
X102771427Y-108914795D02*
X102771427Y-109517176D01*
X102771427Y-109517176D02*
X102826189Y-109626700D01*
X102826189Y-109626700D02*
X102935713Y-109681461D01*
X102935713Y-109681461D02*
X103099998Y-109681461D01*
X103099998Y-109681461D02*
X103209522Y-109626700D01*
X103209522Y-109626700D02*
X103264284Y-109571938D01*
X103811903Y-109681461D02*
X103811903Y-108914795D01*
X103811903Y-109133842D02*
X103866665Y-109024319D01*
X103866665Y-109024319D02*
X103921427Y-108969557D01*
X103921427Y-108969557D02*
X104030951Y-108914795D01*
X104030951Y-108914795D02*
X104140474Y-108914795D01*
X104523808Y-109681461D02*
X104523808Y-108914795D01*
X104523808Y-109133842D02*
X104578570Y-109024319D01*
X104578570Y-109024319D02*
X104633332Y-108969557D01*
X104633332Y-108969557D02*
X104742856Y-108914795D01*
X104742856Y-108914795D02*
X104852379Y-108914795D01*
X105673808Y-109626700D02*
X105564284Y-109681461D01*
X105564284Y-109681461D02*
X105345237Y-109681461D01*
X105345237Y-109681461D02*
X105235713Y-109626700D01*
X105235713Y-109626700D02*
X105180951Y-109517176D01*
X105180951Y-109517176D02*
X105180951Y-109079080D01*
X105180951Y-109079080D02*
X105235713Y-108969557D01*
X105235713Y-108969557D02*
X105345237Y-108914795D01*
X105345237Y-108914795D02*
X105564284Y-108914795D01*
X105564284Y-108914795D02*
X105673808Y-108969557D01*
X105673808Y-108969557D02*
X105728570Y-109079080D01*
X105728570Y-109079080D02*
X105728570Y-109188604D01*
X105728570Y-109188604D02*
X105180951Y-109298128D01*
X106221427Y-108914795D02*
X106221427Y-109681461D01*
X106221427Y-109024319D02*
X106276189Y-108969557D01*
X106276189Y-108969557D02*
X106385713Y-108914795D01*
X106385713Y-108914795D02*
X106549998Y-108914795D01*
X106549998Y-108914795D02*
X106659522Y-108969557D01*
X106659522Y-108969557D02*
X106714284Y-109079080D01*
X106714284Y-109079080D02*
X106714284Y-109681461D01*
X107097617Y-108914795D02*
X107535713Y-108914795D01*
X107261903Y-108531461D02*
X107261903Y-109517176D01*
X107261903Y-109517176D02*
X107316665Y-109626700D01*
X107316665Y-109626700D02*
X107426189Y-109681461D01*
X107426189Y-109681461D02*
X107535713Y-109681461D01*
X109671427Y-109626700D02*
X108795236Y-109626700D01*
X109671427Y-109407652D02*
X108795236Y-109079080D01*
X108795236Y-109079080D02*
X109671427Y-108750509D01*
X111588093Y-108531461D02*
X111369046Y-108531461D01*
X111369046Y-108531461D02*
X111259522Y-108586223D01*
X111259522Y-108586223D02*
X111204760Y-108640985D01*
X111204760Y-108640985D02*
X111095236Y-108805271D01*
X111095236Y-108805271D02*
X111040474Y-109024319D01*
X111040474Y-109024319D02*
X111040474Y-109462414D01*
X111040474Y-109462414D02*
X111095236Y-109571938D01*
X111095236Y-109571938D02*
X111149998Y-109626700D01*
X111149998Y-109626700D02*
X111259522Y-109681461D01*
X111259522Y-109681461D02*
X111478569Y-109681461D01*
X111478569Y-109681461D02*
X111588093Y-109626700D01*
X111588093Y-109626700D02*
X111642855Y-109571938D01*
X111642855Y-109571938D02*
X111697617Y-109462414D01*
X111697617Y-109462414D02*
X111697617Y-109188604D01*
X111697617Y-109188604D02*
X111642855Y-109079080D01*
X111642855Y-109079080D02*
X111588093Y-109024319D01*
X111588093Y-109024319D02*
X111478569Y-108969557D01*
X111478569Y-108969557D02*
X111259522Y-108969557D01*
X111259522Y-108969557D02*
X111149998Y-109024319D01*
X111149998Y-109024319D02*
X111095236Y-109079080D01*
X111095236Y-109079080D02*
X111040474Y-109188604D01*
X112409522Y-108531461D02*
X112519045Y-108531461D01*
X112519045Y-108531461D02*
X112628569Y-108586223D01*
X112628569Y-108586223D02*
X112683331Y-108640985D01*
X112683331Y-108640985D02*
X112738093Y-108750509D01*
X112738093Y-108750509D02*
X112792855Y-108969557D01*
X112792855Y-108969557D02*
X112792855Y-109243366D01*
X112792855Y-109243366D02*
X112738093Y-109462414D01*
X112738093Y-109462414D02*
X112683331Y-109571938D01*
X112683331Y-109571938D02*
X112628569Y-109626700D01*
X112628569Y-109626700D02*
X112519045Y-109681461D01*
X112519045Y-109681461D02*
X112409522Y-109681461D01*
X112409522Y-109681461D02*
X112299998Y-109626700D01*
X112299998Y-109626700D02*
X112245236Y-109571938D01*
X112245236Y-109571938D02*
X112190474Y-109462414D01*
X112190474Y-109462414D02*
X112135712Y-109243366D01*
X112135712Y-109243366D02*
X112135712Y-108969557D01*
X112135712Y-108969557D02*
X112190474Y-108750509D01*
X112190474Y-108750509D02*
X112245236Y-108640985D01*
X112245236Y-108640985D02*
X112299998Y-108586223D01*
X112299998Y-108586223D02*
X112409522Y-108531461D01*
X113230950Y-109352890D02*
X113778569Y-109352890D01*
X113121426Y-109681461D02*
X113504760Y-108531461D01*
X113504760Y-108531461D02*
X113888093Y-109681461D01*
D12*
X87919510Y-104595114D02*
X88133796Y-104666542D01*
X88133796Y-104666542D02*
X88205225Y-104737971D01*
X88205225Y-104737971D02*
X88276653Y-104880828D01*
X88276653Y-104880828D02*
X88276653Y-105095114D01*
X88276653Y-105095114D02*
X88205225Y-105237971D01*
X88205225Y-105237971D02*
X88133796Y-105309400D01*
X88133796Y-105309400D02*
X87990939Y-105380828D01*
X87990939Y-105380828D02*
X87419510Y-105380828D01*
X87419510Y-105380828D02*
X87419510Y-103880828D01*
X87419510Y-103880828D02*
X87919510Y-103880828D01*
X87919510Y-103880828D02*
X88062368Y-103952257D01*
X88062368Y-103952257D02*
X88133796Y-104023685D01*
X88133796Y-104023685D02*
X88205225Y-104166542D01*
X88205225Y-104166542D02*
X88205225Y-104309400D01*
X88205225Y-104309400D02*
X88133796Y-104452257D01*
X88133796Y-104452257D02*
X88062368Y-104523685D01*
X88062368Y-104523685D02*
X87919510Y-104595114D01*
X87919510Y-104595114D02*
X87419510Y-104595114D01*
X89562368Y-105380828D02*
X89562368Y-104595114D01*
X89562368Y-104595114D02*
X89490939Y-104452257D01*
X89490939Y-104452257D02*
X89348082Y-104380828D01*
X89348082Y-104380828D02*
X89062368Y-104380828D01*
X89062368Y-104380828D02*
X88919510Y-104452257D01*
X89562368Y-105309400D02*
X89419510Y-105380828D01*
X89419510Y-105380828D02*
X89062368Y-105380828D01*
X89062368Y-105380828D02*
X88919510Y-105309400D01*
X88919510Y-105309400D02*
X88848082Y-105166542D01*
X88848082Y-105166542D02*
X88848082Y-105023685D01*
X88848082Y-105023685D02*
X88919510Y-104880828D01*
X88919510Y-104880828D02*
X89062368Y-104809400D01*
X89062368Y-104809400D02*
X89419510Y-104809400D01*
X89419510Y-104809400D02*
X89562368Y-104737971D01*
X90062368Y-104380828D02*
X90633796Y-104380828D01*
X90276653Y-103880828D02*
X90276653Y-105166542D01*
X90276653Y-105166542D02*
X90348082Y-105309400D01*
X90348082Y-105309400D02*
X90490939Y-105380828D01*
X90490939Y-105380828D02*
X90633796Y-105380828D01*
X90919511Y-104380828D02*
X91490939Y-104380828D01*
X91133796Y-103880828D02*
X91133796Y-105166542D01*
X91133796Y-105166542D02*
X91205225Y-105309400D01*
X91205225Y-105309400D02*
X91348082Y-105380828D01*
X91348082Y-105380828D02*
X91490939Y-105380828D01*
X92562368Y-105309400D02*
X92419511Y-105380828D01*
X92419511Y-105380828D02*
X92133797Y-105380828D01*
X92133797Y-105380828D02*
X91990939Y-105309400D01*
X91990939Y-105309400D02*
X91919511Y-105166542D01*
X91919511Y-105166542D02*
X91919511Y-104595114D01*
X91919511Y-104595114D02*
X91990939Y-104452257D01*
X91990939Y-104452257D02*
X92133797Y-104380828D01*
X92133797Y-104380828D02*
X92419511Y-104380828D01*
X92419511Y-104380828D02*
X92562368Y-104452257D01*
X92562368Y-104452257D02*
X92633797Y-104595114D01*
X92633797Y-104595114D02*
X92633797Y-104737971D01*
X92633797Y-104737971D02*
X91919511Y-104880828D01*
X93276653Y-105380828D02*
X93276653Y-104380828D01*
X93276653Y-104666542D02*
X93348082Y-104523685D01*
X93348082Y-104523685D02*
X93419511Y-104452257D01*
X93419511Y-104452257D02*
X93562368Y-104380828D01*
X93562368Y-104380828D02*
X93705225Y-104380828D01*
X94062367Y-104380828D02*
X94419510Y-105380828D01*
X94776653Y-104380828D02*
X94419510Y-105380828D01*
X94419510Y-105380828D02*
X94276653Y-105737971D01*
X94276653Y-105737971D02*
X94205224Y-105809400D01*
X94205224Y-105809400D02*
X94062367Y-105880828D01*
X96990938Y-104595114D02*
X97205224Y-104666542D01*
X97205224Y-104666542D02*
X97276653Y-104737971D01*
X97276653Y-104737971D02*
X97348081Y-104880828D01*
X97348081Y-104880828D02*
X97348081Y-105095114D01*
X97348081Y-105095114D02*
X97276653Y-105237971D01*
X97276653Y-105237971D02*
X97205224Y-105309400D01*
X97205224Y-105309400D02*
X97062367Y-105380828D01*
X97062367Y-105380828D02*
X96490938Y-105380828D01*
X96490938Y-105380828D02*
X96490938Y-103880828D01*
X96490938Y-103880828D02*
X96990938Y-103880828D01*
X96990938Y-103880828D02*
X97133796Y-103952257D01*
X97133796Y-103952257D02*
X97205224Y-104023685D01*
X97205224Y-104023685D02*
X97276653Y-104166542D01*
X97276653Y-104166542D02*
X97276653Y-104309400D01*
X97276653Y-104309400D02*
X97205224Y-104452257D01*
X97205224Y-104452257D02*
X97133796Y-104523685D01*
X97133796Y-104523685D02*
X96990938Y-104595114D01*
X96990938Y-104595114D02*
X96490938Y-104595114D01*
X98205224Y-105380828D02*
X98062367Y-105309400D01*
X98062367Y-105309400D02*
X97990938Y-105237971D01*
X97990938Y-105237971D02*
X97919510Y-105095114D01*
X97919510Y-105095114D02*
X97919510Y-104666542D01*
X97919510Y-104666542D02*
X97990938Y-104523685D01*
X97990938Y-104523685D02*
X98062367Y-104452257D01*
X98062367Y-104452257D02*
X98205224Y-104380828D01*
X98205224Y-104380828D02*
X98419510Y-104380828D01*
X98419510Y-104380828D02*
X98562367Y-104452257D01*
X98562367Y-104452257D02*
X98633796Y-104523685D01*
X98633796Y-104523685D02*
X98705224Y-104666542D01*
X98705224Y-104666542D02*
X98705224Y-105095114D01*
X98705224Y-105095114D02*
X98633796Y-105237971D01*
X98633796Y-105237971D02*
X98562367Y-105309400D01*
X98562367Y-105309400D02*
X98419510Y-105380828D01*
X98419510Y-105380828D02*
X98205224Y-105380828D01*
X99990939Y-105380828D02*
X99990939Y-104595114D01*
X99990939Y-104595114D02*
X99919510Y-104452257D01*
X99919510Y-104452257D02*
X99776653Y-104380828D01*
X99776653Y-104380828D02*
X99490939Y-104380828D01*
X99490939Y-104380828D02*
X99348081Y-104452257D01*
X99990939Y-105309400D02*
X99848081Y-105380828D01*
X99848081Y-105380828D02*
X99490939Y-105380828D01*
X99490939Y-105380828D02*
X99348081Y-105309400D01*
X99348081Y-105309400D02*
X99276653Y-105166542D01*
X99276653Y-105166542D02*
X99276653Y-105023685D01*
X99276653Y-105023685D02*
X99348081Y-104880828D01*
X99348081Y-104880828D02*
X99490939Y-104809400D01*
X99490939Y-104809400D02*
X99848081Y-104809400D01*
X99848081Y-104809400D02*
X99990939Y-104737971D01*
X100705224Y-105380828D02*
X100705224Y-104380828D01*
X100705224Y-104666542D02*
X100776653Y-104523685D01*
X100776653Y-104523685D02*
X100848082Y-104452257D01*
X100848082Y-104452257D02*
X100990939Y-104380828D01*
X100990939Y-104380828D02*
X101133796Y-104380828D01*
X102276653Y-105380828D02*
X102276653Y-103880828D01*
X102276653Y-105309400D02*
X102133795Y-105380828D01*
X102133795Y-105380828D02*
X101848081Y-105380828D01*
X101848081Y-105380828D02*
X101705224Y-105309400D01*
X101705224Y-105309400D02*
X101633795Y-105237971D01*
X101633795Y-105237971D02*
X101562367Y-105095114D01*
X101562367Y-105095114D02*
X101562367Y-104666542D01*
X101562367Y-104666542D02*
X101633795Y-104523685D01*
X101633795Y-104523685D02*
X101705224Y-104452257D01*
X101705224Y-104452257D02*
X101848081Y-104380828D01*
X101848081Y-104380828D02*
X102133795Y-104380828D01*
X102133795Y-104380828D02*
X102276653Y-104452257D01*
X104776653Y-103880828D02*
X104490938Y-103880828D01*
X104490938Y-103880828D02*
X104348081Y-103952257D01*
X104348081Y-103952257D02*
X104276653Y-104023685D01*
X104276653Y-104023685D02*
X104133795Y-104237971D01*
X104133795Y-104237971D02*
X104062367Y-104523685D01*
X104062367Y-104523685D02*
X104062367Y-105095114D01*
X104062367Y-105095114D02*
X104133795Y-105237971D01*
X104133795Y-105237971D02*
X104205224Y-105309400D01*
X104205224Y-105309400D02*
X104348081Y-105380828D01*
X104348081Y-105380828D02*
X104633795Y-105380828D01*
X104633795Y-105380828D02*
X104776653Y-105309400D01*
X104776653Y-105309400D02*
X104848081Y-105237971D01*
X104848081Y-105237971D02*
X104919510Y-105095114D01*
X104919510Y-105095114D02*
X104919510Y-104737971D01*
X104919510Y-104737971D02*
X104848081Y-104595114D01*
X104848081Y-104595114D02*
X104776653Y-104523685D01*
X104776653Y-104523685D02*
X104633795Y-104452257D01*
X104633795Y-104452257D02*
X104348081Y-104452257D01*
X104348081Y-104452257D02*
X104205224Y-104523685D01*
X104205224Y-104523685D02*
X104133795Y-104595114D01*
X104133795Y-104595114D02*
X104062367Y-104737971D01*
X105490938Y-105309400D02*
X105633795Y-105380828D01*
X105633795Y-105380828D02*
X105919509Y-105380828D01*
X105919509Y-105380828D02*
X106062366Y-105309400D01*
X106062366Y-105309400D02*
X106133795Y-105166542D01*
X106133795Y-105166542D02*
X106133795Y-105095114D01*
X106133795Y-105095114D02*
X106062366Y-104952257D01*
X106062366Y-104952257D02*
X105919509Y-104880828D01*
X105919509Y-104880828D02*
X105705224Y-104880828D01*
X105705224Y-104880828D02*
X105562366Y-104809400D01*
X105562366Y-104809400D02*
X105490938Y-104666542D01*
X105490938Y-104666542D02*
X105490938Y-104595114D01*
X105490938Y-104595114D02*
X105562366Y-104452257D01*
X105562366Y-104452257D02*
X105705224Y-104380828D01*
X105705224Y-104380828D02*
X105919509Y-104380828D01*
X105919509Y-104380828D02*
X106062366Y-104452257D01*
X106776652Y-105380828D02*
X106776652Y-103880828D01*
X106776652Y-103880828D02*
X107633795Y-105380828D01*
X107633795Y-105380828D02*
X107633795Y-103880828D01*
X108348081Y-104380828D02*
X108348081Y-105880828D01*
X108348081Y-104452257D02*
X108490939Y-104380828D01*
X108490939Y-104380828D02*
X108776653Y-104380828D01*
X108776653Y-104380828D02*
X108919510Y-104452257D01*
X108919510Y-104452257D02*
X108990939Y-104523685D01*
X108990939Y-104523685D02*
X109062367Y-104666542D01*
X109062367Y-104666542D02*
X109062367Y-105095114D01*
X109062367Y-105095114D02*
X108990939Y-105237971D01*
X108990939Y-105237971D02*
X108919510Y-105309400D01*
X108919510Y-105309400D02*
X108776653Y-105380828D01*
X108776653Y-105380828D02*
X108490939Y-105380828D01*
X108490939Y-105380828D02*
X108348081Y-105309400D01*
X110633796Y-103880828D02*
X111133796Y-105380828D01*
X111133796Y-105380828D02*
X111633796Y-103880828D01*
X112919510Y-105380828D02*
X112062367Y-105380828D01*
X112490938Y-105380828D02*
X112490938Y-103880828D01*
X112490938Y-103880828D02*
X112348081Y-104095114D01*
X112348081Y-104095114D02*
X112205224Y-104237971D01*
X112205224Y-104237971D02*
X112062367Y-104309400D01*
M02*
