%TF.GenerationSoftware,KiCad,Pcbnew,9.0.2*%
%TF.CreationDate,2026-09-24T16:32:54-04:00*%
%TF.ProjectId,ChargingStationBoard_6sNp_V1,43686172-6769-46e6-9753-746174696f6e,rev?*%
%TF.SameCoordinates,Original*%
%TF.FileFunction,Legend,Bot*%
%TF.FilePolarity,Positive*%
%FSLAX46Y46*%
G04 Gerber Fmt 4.6, Leading zero omitted, Abs format (unit mm)*
G04 Created by KiCad (PCBNEW 9.0.2) date 2026-09-24 16:32:54*
%MOMM*%
%LPD*%
G01*
G04 APERTURE LIST*
%ADD10C,0.100000*%
%ADD11C,0.375000*%
G04 APERTURE END LIST*
D10*
X133090000Y-93310000D02*
X171090000Y-93310000D01*
X171090000Y-96510000D01*
X133090000Y-96510000D01*
X133090000Y-93310000D01*
D11*
X169369004Y-95504071D02*
X169440432Y-95575500D01*
X169440432Y-95575500D02*
X169654718Y-95646928D01*
X169654718Y-95646928D02*
X169797575Y-95646928D01*
X169797575Y-95646928D02*
X170011861Y-95575500D01*
X170011861Y-95575500D02*
X170154718Y-95432642D01*
X170154718Y-95432642D02*
X170226147Y-95289785D01*
X170226147Y-95289785D02*
X170297575Y-95004071D01*
X170297575Y-95004071D02*
X170297575Y-94789785D01*
X170297575Y-94789785D02*
X170226147Y-94504071D01*
X170226147Y-94504071D02*
X170154718Y-94361214D01*
X170154718Y-94361214D02*
X170011861Y-94218357D01*
X170011861Y-94218357D02*
X169797575Y-94146928D01*
X169797575Y-94146928D02*
X169654718Y-94146928D01*
X169654718Y-94146928D02*
X169440432Y-94218357D01*
X169440432Y-94218357D02*
X169369004Y-94289785D01*
X168726147Y-95646928D02*
X168726147Y-94146928D01*
X168083290Y-95646928D02*
X168083290Y-94861214D01*
X168083290Y-94861214D02*
X168154718Y-94718357D01*
X168154718Y-94718357D02*
X168297575Y-94646928D01*
X168297575Y-94646928D02*
X168511861Y-94646928D01*
X168511861Y-94646928D02*
X168654718Y-94718357D01*
X168654718Y-94718357D02*
X168726147Y-94789785D01*
X166726147Y-95646928D02*
X166726147Y-94861214D01*
X166726147Y-94861214D02*
X166797575Y-94718357D01*
X166797575Y-94718357D02*
X166940432Y-94646928D01*
X166940432Y-94646928D02*
X167226147Y-94646928D01*
X167226147Y-94646928D02*
X167369004Y-94718357D01*
X166726147Y-95575500D02*
X166869004Y-95646928D01*
X166869004Y-95646928D02*
X167226147Y-95646928D01*
X167226147Y-95646928D02*
X167369004Y-95575500D01*
X167369004Y-95575500D02*
X167440432Y-95432642D01*
X167440432Y-95432642D02*
X167440432Y-95289785D01*
X167440432Y-95289785D02*
X167369004Y-95146928D01*
X167369004Y-95146928D02*
X167226147Y-95075500D01*
X167226147Y-95075500D02*
X166869004Y-95075500D01*
X166869004Y-95075500D02*
X166726147Y-95004071D01*
X166011861Y-95646928D02*
X166011861Y-94646928D01*
X166011861Y-94932642D02*
X165940432Y-94789785D01*
X165940432Y-94789785D02*
X165869004Y-94718357D01*
X165869004Y-94718357D02*
X165726146Y-94646928D01*
X165726146Y-94646928D02*
X165583289Y-94646928D01*
X164440433Y-94646928D02*
X164440433Y-95861214D01*
X164440433Y-95861214D02*
X164511861Y-96004071D01*
X164511861Y-96004071D02*
X164583290Y-96075500D01*
X164583290Y-96075500D02*
X164726147Y-96146928D01*
X164726147Y-96146928D02*
X164940433Y-96146928D01*
X164940433Y-96146928D02*
X165083290Y-96075500D01*
X164440433Y-95575500D02*
X164583290Y-95646928D01*
X164583290Y-95646928D02*
X164869004Y-95646928D01*
X164869004Y-95646928D02*
X165011861Y-95575500D01*
X165011861Y-95575500D02*
X165083290Y-95504071D01*
X165083290Y-95504071D02*
X165154718Y-95361214D01*
X165154718Y-95361214D02*
X165154718Y-94932642D01*
X165154718Y-94932642D02*
X165083290Y-94789785D01*
X165083290Y-94789785D02*
X165011861Y-94718357D01*
X165011861Y-94718357D02*
X164869004Y-94646928D01*
X164869004Y-94646928D02*
X164583290Y-94646928D01*
X164583290Y-94646928D02*
X164440433Y-94718357D01*
X163726147Y-95646928D02*
X163726147Y-94646928D01*
X163726147Y-94146928D02*
X163797575Y-94218357D01*
X163797575Y-94218357D02*
X163726147Y-94289785D01*
X163726147Y-94289785D02*
X163654718Y-94218357D01*
X163654718Y-94218357D02*
X163726147Y-94146928D01*
X163726147Y-94146928D02*
X163726147Y-94289785D01*
X163011861Y-94646928D02*
X163011861Y-95646928D01*
X163011861Y-94789785D02*
X162940432Y-94718357D01*
X162940432Y-94718357D02*
X162797575Y-94646928D01*
X162797575Y-94646928D02*
X162583289Y-94646928D01*
X162583289Y-94646928D02*
X162440432Y-94718357D01*
X162440432Y-94718357D02*
X162369004Y-94861214D01*
X162369004Y-94861214D02*
X162369004Y-95646928D01*
X161011861Y-94646928D02*
X161011861Y-95861214D01*
X161011861Y-95861214D02*
X161083289Y-96004071D01*
X161083289Y-96004071D02*
X161154718Y-96075500D01*
X161154718Y-96075500D02*
X161297575Y-96146928D01*
X161297575Y-96146928D02*
X161511861Y-96146928D01*
X161511861Y-96146928D02*
X161654718Y-96075500D01*
X161011861Y-95575500D02*
X161154718Y-95646928D01*
X161154718Y-95646928D02*
X161440432Y-95646928D01*
X161440432Y-95646928D02*
X161583289Y-95575500D01*
X161583289Y-95575500D02*
X161654718Y-95504071D01*
X161654718Y-95504071D02*
X161726146Y-95361214D01*
X161726146Y-95361214D02*
X161726146Y-94932642D01*
X161726146Y-94932642D02*
X161654718Y-94789785D01*
X161654718Y-94789785D02*
X161583289Y-94718357D01*
X161583289Y-94718357D02*
X161440432Y-94646928D01*
X161440432Y-94646928D02*
X161154718Y-94646928D01*
X161154718Y-94646928D02*
X161011861Y-94718357D01*
X159226146Y-95575500D02*
X159011861Y-95646928D01*
X159011861Y-95646928D02*
X158654718Y-95646928D01*
X158654718Y-95646928D02*
X158511861Y-95575500D01*
X158511861Y-95575500D02*
X158440432Y-95504071D01*
X158440432Y-95504071D02*
X158369003Y-95361214D01*
X158369003Y-95361214D02*
X158369003Y-95218357D01*
X158369003Y-95218357D02*
X158440432Y-95075500D01*
X158440432Y-95075500D02*
X158511861Y-95004071D01*
X158511861Y-95004071D02*
X158654718Y-94932642D01*
X158654718Y-94932642D02*
X158940432Y-94861214D01*
X158940432Y-94861214D02*
X159083289Y-94789785D01*
X159083289Y-94789785D02*
X159154718Y-94718357D01*
X159154718Y-94718357D02*
X159226146Y-94575500D01*
X159226146Y-94575500D02*
X159226146Y-94432642D01*
X159226146Y-94432642D02*
X159154718Y-94289785D01*
X159154718Y-94289785D02*
X159083289Y-94218357D01*
X159083289Y-94218357D02*
X158940432Y-94146928D01*
X158940432Y-94146928D02*
X158583289Y-94146928D01*
X158583289Y-94146928D02*
X158369003Y-94218357D01*
X157940432Y-94646928D02*
X157369004Y-94646928D01*
X157726147Y-94146928D02*
X157726147Y-95432642D01*
X157726147Y-95432642D02*
X157654718Y-95575500D01*
X157654718Y-95575500D02*
X157511861Y-95646928D01*
X157511861Y-95646928D02*
X157369004Y-95646928D01*
X156226147Y-95646928D02*
X156226147Y-94861214D01*
X156226147Y-94861214D02*
X156297575Y-94718357D01*
X156297575Y-94718357D02*
X156440432Y-94646928D01*
X156440432Y-94646928D02*
X156726147Y-94646928D01*
X156726147Y-94646928D02*
X156869004Y-94718357D01*
X156226147Y-95575500D02*
X156369004Y-95646928D01*
X156369004Y-95646928D02*
X156726147Y-95646928D01*
X156726147Y-95646928D02*
X156869004Y-95575500D01*
X156869004Y-95575500D02*
X156940432Y-95432642D01*
X156940432Y-95432642D02*
X156940432Y-95289785D01*
X156940432Y-95289785D02*
X156869004Y-95146928D01*
X156869004Y-95146928D02*
X156726147Y-95075500D01*
X156726147Y-95075500D02*
X156369004Y-95075500D01*
X156369004Y-95075500D02*
X156226147Y-95004071D01*
X155726146Y-94646928D02*
X155154718Y-94646928D01*
X155511861Y-94146928D02*
X155511861Y-95432642D01*
X155511861Y-95432642D02*
X155440432Y-95575500D01*
X155440432Y-95575500D02*
X155297575Y-95646928D01*
X155297575Y-95646928D02*
X155154718Y-95646928D01*
X154654718Y-95646928D02*
X154654718Y-94646928D01*
X154654718Y-94146928D02*
X154726146Y-94218357D01*
X154726146Y-94218357D02*
X154654718Y-94289785D01*
X154654718Y-94289785D02*
X154583289Y-94218357D01*
X154583289Y-94218357D02*
X154654718Y-94146928D01*
X154654718Y-94146928D02*
X154654718Y-94289785D01*
X153726146Y-95646928D02*
X153869003Y-95575500D01*
X153869003Y-95575500D02*
X153940432Y-95504071D01*
X153940432Y-95504071D02*
X154011860Y-95361214D01*
X154011860Y-95361214D02*
X154011860Y-94932642D01*
X154011860Y-94932642D02*
X153940432Y-94789785D01*
X153940432Y-94789785D02*
X153869003Y-94718357D01*
X153869003Y-94718357D02*
X153726146Y-94646928D01*
X153726146Y-94646928D02*
X153511860Y-94646928D01*
X153511860Y-94646928D02*
X153369003Y-94718357D01*
X153369003Y-94718357D02*
X153297575Y-94789785D01*
X153297575Y-94789785D02*
X153226146Y-94932642D01*
X153226146Y-94932642D02*
X153226146Y-95361214D01*
X153226146Y-95361214D02*
X153297575Y-95504071D01*
X153297575Y-95504071D02*
X153369003Y-95575500D01*
X153369003Y-95575500D02*
X153511860Y-95646928D01*
X153511860Y-95646928D02*
X153726146Y-95646928D01*
X152583289Y-94646928D02*
X152583289Y-95646928D01*
X152583289Y-94789785D02*
X152511860Y-94718357D01*
X152511860Y-94718357D02*
X152369003Y-94646928D01*
X152369003Y-94646928D02*
X152154717Y-94646928D01*
X152154717Y-94646928D02*
X152011860Y-94718357D01*
X152011860Y-94718357D02*
X151940432Y-94861214D01*
X151940432Y-94861214D02*
X151940432Y-95646928D01*
X149583289Y-94861214D02*
X149369003Y-94932642D01*
X149369003Y-94932642D02*
X149297574Y-95004071D01*
X149297574Y-95004071D02*
X149226146Y-95146928D01*
X149226146Y-95146928D02*
X149226146Y-95361214D01*
X149226146Y-95361214D02*
X149297574Y-95504071D01*
X149297574Y-95504071D02*
X149369003Y-95575500D01*
X149369003Y-95575500D02*
X149511860Y-95646928D01*
X149511860Y-95646928D02*
X150083289Y-95646928D01*
X150083289Y-95646928D02*
X150083289Y-94146928D01*
X150083289Y-94146928D02*
X149583289Y-94146928D01*
X149583289Y-94146928D02*
X149440432Y-94218357D01*
X149440432Y-94218357D02*
X149369003Y-94289785D01*
X149369003Y-94289785D02*
X149297574Y-94432642D01*
X149297574Y-94432642D02*
X149297574Y-94575500D01*
X149297574Y-94575500D02*
X149369003Y-94718357D01*
X149369003Y-94718357D02*
X149440432Y-94789785D01*
X149440432Y-94789785D02*
X149583289Y-94861214D01*
X149583289Y-94861214D02*
X150083289Y-94861214D01*
X148369003Y-95646928D02*
X148511860Y-95575500D01*
X148511860Y-95575500D02*
X148583289Y-95504071D01*
X148583289Y-95504071D02*
X148654717Y-95361214D01*
X148654717Y-95361214D02*
X148654717Y-94932642D01*
X148654717Y-94932642D02*
X148583289Y-94789785D01*
X148583289Y-94789785D02*
X148511860Y-94718357D01*
X148511860Y-94718357D02*
X148369003Y-94646928D01*
X148369003Y-94646928D02*
X148154717Y-94646928D01*
X148154717Y-94646928D02*
X148011860Y-94718357D01*
X148011860Y-94718357D02*
X147940432Y-94789785D01*
X147940432Y-94789785D02*
X147869003Y-94932642D01*
X147869003Y-94932642D02*
X147869003Y-95361214D01*
X147869003Y-95361214D02*
X147940432Y-95504071D01*
X147940432Y-95504071D02*
X148011860Y-95575500D01*
X148011860Y-95575500D02*
X148154717Y-95646928D01*
X148154717Y-95646928D02*
X148369003Y-95646928D01*
X146583289Y-95646928D02*
X146583289Y-94861214D01*
X146583289Y-94861214D02*
X146654717Y-94718357D01*
X146654717Y-94718357D02*
X146797574Y-94646928D01*
X146797574Y-94646928D02*
X147083289Y-94646928D01*
X147083289Y-94646928D02*
X147226146Y-94718357D01*
X146583289Y-95575500D02*
X146726146Y-95646928D01*
X146726146Y-95646928D02*
X147083289Y-95646928D01*
X147083289Y-95646928D02*
X147226146Y-95575500D01*
X147226146Y-95575500D02*
X147297574Y-95432642D01*
X147297574Y-95432642D02*
X147297574Y-95289785D01*
X147297574Y-95289785D02*
X147226146Y-95146928D01*
X147226146Y-95146928D02*
X147083289Y-95075500D01*
X147083289Y-95075500D02*
X146726146Y-95075500D01*
X146726146Y-95075500D02*
X146583289Y-95004071D01*
X145869003Y-95646928D02*
X145869003Y-94646928D01*
X145869003Y-94932642D02*
X145797574Y-94789785D01*
X145797574Y-94789785D02*
X145726146Y-94718357D01*
X145726146Y-94718357D02*
X145583288Y-94646928D01*
X145583288Y-94646928D02*
X145440431Y-94646928D01*
X144297575Y-95646928D02*
X144297575Y-94146928D01*
X144297575Y-95575500D02*
X144440432Y-95646928D01*
X144440432Y-95646928D02*
X144726146Y-95646928D01*
X144726146Y-95646928D02*
X144869003Y-95575500D01*
X144869003Y-95575500D02*
X144940432Y-95504071D01*
X144940432Y-95504071D02*
X145011860Y-95361214D01*
X145011860Y-95361214D02*
X145011860Y-94932642D01*
X145011860Y-94932642D02*
X144940432Y-94789785D01*
X144940432Y-94789785D02*
X144869003Y-94718357D01*
X144869003Y-94718357D02*
X144726146Y-94646928D01*
X144726146Y-94646928D02*
X144440432Y-94646928D01*
X144440432Y-94646928D02*
X144297575Y-94718357D01*
X141797575Y-94146928D02*
X142083289Y-94146928D01*
X142083289Y-94146928D02*
X142226146Y-94218357D01*
X142226146Y-94218357D02*
X142297575Y-94289785D01*
X142297575Y-94289785D02*
X142440432Y-94504071D01*
X142440432Y-94504071D02*
X142511860Y-94789785D01*
X142511860Y-94789785D02*
X142511860Y-95361214D01*
X142511860Y-95361214D02*
X142440432Y-95504071D01*
X142440432Y-95504071D02*
X142369003Y-95575500D01*
X142369003Y-95575500D02*
X142226146Y-95646928D01*
X142226146Y-95646928D02*
X141940432Y-95646928D01*
X141940432Y-95646928D02*
X141797575Y-95575500D01*
X141797575Y-95575500D02*
X141726146Y-95504071D01*
X141726146Y-95504071D02*
X141654717Y-95361214D01*
X141654717Y-95361214D02*
X141654717Y-95004071D01*
X141654717Y-95004071D02*
X141726146Y-94861214D01*
X141726146Y-94861214D02*
X141797575Y-94789785D01*
X141797575Y-94789785D02*
X141940432Y-94718357D01*
X141940432Y-94718357D02*
X142226146Y-94718357D01*
X142226146Y-94718357D02*
X142369003Y-94789785D01*
X142369003Y-94789785D02*
X142440432Y-94861214D01*
X142440432Y-94861214D02*
X142511860Y-95004071D01*
X141083289Y-95575500D02*
X140940432Y-95646928D01*
X140940432Y-95646928D02*
X140654718Y-95646928D01*
X140654718Y-95646928D02*
X140511861Y-95575500D01*
X140511861Y-95575500D02*
X140440432Y-95432642D01*
X140440432Y-95432642D02*
X140440432Y-95361214D01*
X140440432Y-95361214D02*
X140511861Y-95218357D01*
X140511861Y-95218357D02*
X140654718Y-95146928D01*
X140654718Y-95146928D02*
X140869004Y-95146928D01*
X140869004Y-95146928D02*
X141011861Y-95075500D01*
X141011861Y-95075500D02*
X141083289Y-94932642D01*
X141083289Y-94932642D02*
X141083289Y-94861214D01*
X141083289Y-94861214D02*
X141011861Y-94718357D01*
X141011861Y-94718357D02*
X140869004Y-94646928D01*
X140869004Y-94646928D02*
X140654718Y-94646928D01*
X140654718Y-94646928D02*
X140511861Y-94718357D01*
X139797575Y-95646928D02*
X139797575Y-94146928D01*
X139797575Y-94146928D02*
X138940432Y-95646928D01*
X138940432Y-95646928D02*
X138940432Y-94146928D01*
X138226146Y-94646928D02*
X138226146Y-96146928D01*
X138226146Y-94718357D02*
X138083289Y-94646928D01*
X138083289Y-94646928D02*
X137797574Y-94646928D01*
X137797574Y-94646928D02*
X137654717Y-94718357D01*
X137654717Y-94718357D02*
X137583289Y-94789785D01*
X137583289Y-94789785D02*
X137511860Y-94932642D01*
X137511860Y-94932642D02*
X137511860Y-95361214D01*
X137511860Y-95361214D02*
X137583289Y-95504071D01*
X137583289Y-95504071D02*
X137654717Y-95575500D01*
X137654717Y-95575500D02*
X137797574Y-95646928D01*
X137797574Y-95646928D02*
X138083289Y-95646928D01*
X138083289Y-95646928D02*
X138226146Y-95575500D01*
X135940431Y-94146928D02*
X135440431Y-95646928D01*
X135440431Y-95646928D02*
X134940431Y-94146928D01*
X133654717Y-95646928D02*
X134511860Y-95646928D01*
X134083289Y-95646928D02*
X134083289Y-94146928D01*
X134083289Y-94146928D02*
X134226146Y-94361214D01*
X134226146Y-94361214D02*
X134369003Y-94504071D01*
X134369003Y-94504071D02*
X134511860Y-94575500D01*
D10*
X163402306Y-65250038D02*
X163497544Y-65202419D01*
X163497544Y-65202419D02*
X163640401Y-65202419D01*
X163640401Y-65202419D02*
X163783258Y-65250038D01*
X163783258Y-65250038D02*
X163878496Y-65345276D01*
X163878496Y-65345276D02*
X163926115Y-65440514D01*
X163926115Y-65440514D02*
X163973734Y-65630990D01*
X163973734Y-65630990D02*
X163973734Y-65773847D01*
X163973734Y-65773847D02*
X163926115Y-65964323D01*
X163926115Y-65964323D02*
X163878496Y-66059561D01*
X163878496Y-66059561D02*
X163783258Y-66154800D01*
X163783258Y-66154800D02*
X163640401Y-66202419D01*
X163640401Y-66202419D02*
X163545163Y-66202419D01*
X163545163Y-66202419D02*
X163402306Y-66154800D01*
X163402306Y-66154800D02*
X163354687Y-66107180D01*
X163354687Y-66107180D02*
X163354687Y-65773847D01*
X163354687Y-65773847D02*
X163545163Y-65773847D01*
X162926115Y-66202419D02*
X162926115Y-65202419D01*
X162926115Y-65202419D02*
X162354687Y-66202419D01*
X162354687Y-66202419D02*
X162354687Y-65202419D01*
X161878496Y-66202419D02*
X161878496Y-65202419D01*
X161878496Y-65202419D02*
X161640401Y-65202419D01*
X161640401Y-65202419D02*
X161497544Y-65250038D01*
X161497544Y-65250038D02*
X161402306Y-65345276D01*
X161402306Y-65345276D02*
X161354687Y-65440514D01*
X161354687Y-65440514D02*
X161307068Y-65630990D01*
X161307068Y-65630990D02*
X161307068Y-65773847D01*
X161307068Y-65773847D02*
X161354687Y-65964323D01*
X161354687Y-65964323D02*
X161402306Y-66059561D01*
X161402306Y-66059561D02*
X161497544Y-66154800D01*
X161497544Y-66154800D02*
X161640401Y-66202419D01*
X161640401Y-66202419D02*
X161878496Y-66202419D01*
X177307068Y-68175514D02*
X177092782Y-68246942D01*
X177092782Y-68246942D02*
X177021353Y-68318371D01*
X177021353Y-68318371D02*
X176949925Y-68461228D01*
X176949925Y-68461228D02*
X176949925Y-68675514D01*
X176949925Y-68675514D02*
X177021353Y-68818371D01*
X177021353Y-68818371D02*
X177092782Y-68889800D01*
X177092782Y-68889800D02*
X177235639Y-68961228D01*
X177235639Y-68961228D02*
X177807068Y-68961228D01*
X177807068Y-68961228D02*
X177807068Y-67461228D01*
X177807068Y-67461228D02*
X177307068Y-67461228D01*
X177307068Y-67461228D02*
X177164211Y-67532657D01*
X177164211Y-67532657D02*
X177092782Y-67604085D01*
X177092782Y-67604085D02*
X177021353Y-67746942D01*
X177021353Y-67746942D02*
X177021353Y-67889800D01*
X177021353Y-67889800D02*
X177092782Y-68032657D01*
X177092782Y-68032657D02*
X177164211Y-68104085D01*
X177164211Y-68104085D02*
X177307068Y-68175514D01*
X177307068Y-68175514D02*
X177807068Y-68175514D01*
X175664211Y-68961228D02*
X175664211Y-68175514D01*
X175664211Y-68175514D02*
X175735639Y-68032657D01*
X175735639Y-68032657D02*
X175878496Y-67961228D01*
X175878496Y-67961228D02*
X176164211Y-67961228D01*
X176164211Y-67961228D02*
X176307068Y-68032657D01*
X175664211Y-68889800D02*
X175807068Y-68961228D01*
X175807068Y-68961228D02*
X176164211Y-68961228D01*
X176164211Y-68961228D02*
X176307068Y-68889800D01*
X176307068Y-68889800D02*
X176378496Y-68746942D01*
X176378496Y-68746942D02*
X176378496Y-68604085D01*
X176378496Y-68604085D02*
X176307068Y-68461228D01*
X176307068Y-68461228D02*
X176164211Y-68389800D01*
X176164211Y-68389800D02*
X175807068Y-68389800D01*
X175807068Y-68389800D02*
X175664211Y-68318371D01*
X174735639Y-68961228D02*
X174878496Y-68889800D01*
X174878496Y-68889800D02*
X174949925Y-68746942D01*
X174949925Y-68746942D02*
X174949925Y-67461228D01*
X173521354Y-68961228D02*
X173521354Y-68175514D01*
X173521354Y-68175514D02*
X173592782Y-68032657D01*
X173592782Y-68032657D02*
X173735639Y-67961228D01*
X173735639Y-67961228D02*
X174021354Y-67961228D01*
X174021354Y-67961228D02*
X174164211Y-68032657D01*
X173521354Y-68889800D02*
X173664211Y-68961228D01*
X173664211Y-68961228D02*
X174021354Y-68961228D01*
X174021354Y-68961228D02*
X174164211Y-68889800D01*
X174164211Y-68889800D02*
X174235639Y-68746942D01*
X174235639Y-68746942D02*
X174235639Y-68604085D01*
X174235639Y-68604085D02*
X174164211Y-68461228D01*
X174164211Y-68461228D02*
X174021354Y-68389800D01*
X174021354Y-68389800D02*
X173664211Y-68389800D01*
X173664211Y-68389800D02*
X173521354Y-68318371D01*
X172807068Y-67961228D02*
X172807068Y-68961228D01*
X172807068Y-68104085D02*
X172735639Y-68032657D01*
X172735639Y-68032657D02*
X172592782Y-67961228D01*
X172592782Y-67961228D02*
X172378496Y-67961228D01*
X172378496Y-67961228D02*
X172235639Y-68032657D01*
X172235639Y-68032657D02*
X172164211Y-68175514D01*
X172164211Y-68175514D02*
X172164211Y-68961228D01*
X170807068Y-68889800D02*
X170949925Y-68961228D01*
X170949925Y-68961228D02*
X171235639Y-68961228D01*
X171235639Y-68961228D02*
X171378496Y-68889800D01*
X171378496Y-68889800D02*
X171449925Y-68818371D01*
X171449925Y-68818371D02*
X171521353Y-68675514D01*
X171521353Y-68675514D02*
X171521353Y-68246942D01*
X171521353Y-68246942D02*
X171449925Y-68104085D01*
X171449925Y-68104085D02*
X171378496Y-68032657D01*
X171378496Y-68032657D02*
X171235639Y-67961228D01*
X171235639Y-67961228D02*
X170949925Y-67961228D01*
X170949925Y-67961228D02*
X170807068Y-68032657D01*
X169592782Y-68889800D02*
X169735639Y-68961228D01*
X169735639Y-68961228D02*
X170021354Y-68961228D01*
X170021354Y-68961228D02*
X170164211Y-68889800D01*
X170164211Y-68889800D02*
X170235639Y-68746942D01*
X170235639Y-68746942D02*
X170235639Y-68175514D01*
X170235639Y-68175514D02*
X170164211Y-68032657D01*
X170164211Y-68032657D02*
X170021354Y-67961228D01*
X170021354Y-67961228D02*
X169735639Y-67961228D01*
X169735639Y-67961228D02*
X169592782Y-68032657D01*
X169592782Y-68032657D02*
X169521354Y-68175514D01*
X169521354Y-68175514D02*
X169521354Y-68318371D01*
X169521354Y-68318371D02*
X170235639Y-68461228D01*
X167878497Y-67461228D02*
X167521354Y-68961228D01*
X167521354Y-68961228D02*
X167235640Y-67889800D01*
X167235640Y-67889800D02*
X166949925Y-68961228D01*
X166949925Y-68961228D02*
X166592783Y-67461228D01*
X166021354Y-68961228D02*
X166021354Y-67961228D01*
X166021354Y-67461228D02*
X166092782Y-67532657D01*
X166092782Y-67532657D02*
X166021354Y-67604085D01*
X166021354Y-67604085D02*
X165949925Y-67532657D01*
X165949925Y-67532657D02*
X166021354Y-67461228D01*
X166021354Y-67461228D02*
X166021354Y-67604085D01*
X165307068Y-68961228D02*
X165307068Y-67961228D01*
X165307068Y-68246942D02*
X165235639Y-68104085D01*
X165235639Y-68104085D02*
X165164211Y-68032657D01*
X165164211Y-68032657D02*
X165021353Y-67961228D01*
X165021353Y-67961228D02*
X164878496Y-67961228D01*
X163807068Y-68889800D02*
X163949925Y-68961228D01*
X163949925Y-68961228D02*
X164235640Y-68961228D01*
X164235640Y-68961228D02*
X164378497Y-68889800D01*
X164378497Y-68889800D02*
X164449925Y-68746942D01*
X164449925Y-68746942D02*
X164449925Y-68175514D01*
X164449925Y-68175514D02*
X164378497Y-68032657D01*
X164378497Y-68032657D02*
X164235640Y-67961228D01*
X164235640Y-67961228D02*
X163949925Y-67961228D01*
X163949925Y-67961228D02*
X163807068Y-68032657D01*
X163807068Y-68032657D02*
X163735640Y-68175514D01*
X163735640Y-68175514D02*
X163735640Y-68318371D01*
X163735640Y-68318371D02*
X164449925Y-68461228D01*
X163164211Y-68889800D02*
X163021354Y-68961228D01*
X163021354Y-68961228D02*
X162735640Y-68961228D01*
X162735640Y-68961228D02*
X162592783Y-68889800D01*
X162592783Y-68889800D02*
X162521354Y-68746942D01*
X162521354Y-68746942D02*
X162521354Y-68675514D01*
X162521354Y-68675514D02*
X162592783Y-68532657D01*
X162592783Y-68532657D02*
X162735640Y-68461228D01*
X162735640Y-68461228D02*
X162949926Y-68461228D01*
X162949926Y-68461228D02*
X163092783Y-68389800D01*
X163092783Y-68389800D02*
X163164211Y-68246942D01*
X163164211Y-68246942D02*
X163164211Y-68175514D01*
X163164211Y-68175514D02*
X163092783Y-68032657D01*
X163092783Y-68032657D02*
X162949926Y-67961228D01*
X162949926Y-67961228D02*
X162735640Y-67961228D01*
X162735640Y-67961228D02*
X162592783Y-68032657D01*
X141498972Y-71522419D02*
X141165639Y-72522419D01*
X141165639Y-72522419D02*
X140832306Y-71522419D01*
X140498972Y-72522419D02*
X140498972Y-71522419D01*
X140498972Y-71903371D02*
X140403734Y-71855752D01*
X140403734Y-71855752D02*
X140213258Y-71855752D01*
X140213258Y-71855752D02*
X140118020Y-71903371D01*
X140118020Y-71903371D02*
X140070401Y-71950990D01*
X140070401Y-71950990D02*
X140022782Y-72046228D01*
X140022782Y-72046228D02*
X140022782Y-72331942D01*
X140022782Y-72331942D02*
X140070401Y-72427180D01*
X140070401Y-72427180D02*
X140118020Y-72474800D01*
X140118020Y-72474800D02*
X140213258Y-72522419D01*
X140213258Y-72522419D02*
X140403734Y-72522419D01*
X140403734Y-72522419D02*
X140498972Y-72474800D01*
X139165639Y-72522419D02*
X139165639Y-71998609D01*
X139165639Y-71998609D02*
X139213258Y-71903371D01*
X139213258Y-71903371D02*
X139308496Y-71855752D01*
X139308496Y-71855752D02*
X139498972Y-71855752D01*
X139498972Y-71855752D02*
X139594210Y-71903371D01*
X139165639Y-72474800D02*
X139260877Y-72522419D01*
X139260877Y-72522419D02*
X139498972Y-72522419D01*
X139498972Y-72522419D02*
X139594210Y-72474800D01*
X139594210Y-72474800D02*
X139641829Y-72379561D01*
X139641829Y-72379561D02*
X139641829Y-72284323D01*
X139641829Y-72284323D02*
X139594210Y-72189085D01*
X139594210Y-72189085D02*
X139498972Y-72141466D01*
X139498972Y-72141466D02*
X139260877Y-72141466D01*
X139260877Y-72141466D02*
X139165639Y-72093847D01*
X138832305Y-71855752D02*
X138451353Y-71855752D01*
X138689448Y-71522419D02*
X138689448Y-72379561D01*
X138689448Y-72379561D02*
X138641829Y-72474800D01*
X138641829Y-72474800D02*
X138546591Y-72522419D01*
X138546591Y-72522419D02*
X138451353Y-72522419D01*
X138260876Y-71855752D02*
X137879924Y-71855752D01*
X138118019Y-71522419D02*
X138118019Y-72379561D01*
X138118019Y-72379561D02*
X138070400Y-72474800D01*
X138070400Y-72474800D02*
X137975162Y-72522419D01*
X137975162Y-72522419D02*
X137879924Y-72522419D01*
X130682306Y-71390038D02*
X130777544Y-71342419D01*
X130777544Y-71342419D02*
X130920401Y-71342419D01*
X130920401Y-71342419D02*
X131063258Y-71390038D01*
X131063258Y-71390038D02*
X131158496Y-71485276D01*
X131158496Y-71485276D02*
X131206115Y-71580514D01*
X131206115Y-71580514D02*
X131253734Y-71770990D01*
X131253734Y-71770990D02*
X131253734Y-71913847D01*
X131253734Y-71913847D02*
X131206115Y-72104323D01*
X131206115Y-72104323D02*
X131158496Y-72199561D01*
X131158496Y-72199561D02*
X131063258Y-72294800D01*
X131063258Y-72294800D02*
X130920401Y-72342419D01*
X130920401Y-72342419D02*
X130825163Y-72342419D01*
X130825163Y-72342419D02*
X130682306Y-72294800D01*
X130682306Y-72294800D02*
X130634687Y-72247180D01*
X130634687Y-72247180D02*
X130634687Y-71913847D01*
X130634687Y-71913847D02*
X130825163Y-71913847D01*
X130206115Y-72342419D02*
X130206115Y-71342419D01*
X130206115Y-71342419D02*
X129634687Y-72342419D01*
X129634687Y-72342419D02*
X129634687Y-71342419D01*
X129158496Y-72342419D02*
X129158496Y-71342419D01*
X129158496Y-71342419D02*
X128920401Y-71342419D01*
X128920401Y-71342419D02*
X128777544Y-71390038D01*
X128777544Y-71390038D02*
X128682306Y-71485276D01*
X128682306Y-71485276D02*
X128634687Y-71580514D01*
X128634687Y-71580514D02*
X128587068Y-71770990D01*
X128587068Y-71770990D02*
X128587068Y-71913847D01*
X128587068Y-71913847D02*
X128634687Y-72104323D01*
X128634687Y-72104323D02*
X128682306Y-72199561D01*
X128682306Y-72199561D02*
X128777544Y-72294800D01*
X128777544Y-72294800D02*
X128920401Y-72342419D01*
X128920401Y-72342419D02*
X129158496Y-72342419D01*
X179388972Y-65202419D02*
X179055639Y-66202419D01*
X179055639Y-66202419D02*
X178722306Y-65202419D01*
X178388972Y-66202419D02*
X178388972Y-65202419D01*
X178388972Y-65583371D02*
X178293734Y-65535752D01*
X178293734Y-65535752D02*
X178103258Y-65535752D01*
X178103258Y-65535752D02*
X178008020Y-65583371D01*
X178008020Y-65583371D02*
X177960401Y-65630990D01*
X177960401Y-65630990D02*
X177912782Y-65726228D01*
X177912782Y-65726228D02*
X177912782Y-66011942D01*
X177912782Y-66011942D02*
X177960401Y-66107180D01*
X177960401Y-66107180D02*
X178008020Y-66154800D01*
X178008020Y-66154800D02*
X178103258Y-66202419D01*
X178103258Y-66202419D02*
X178293734Y-66202419D01*
X178293734Y-66202419D02*
X178388972Y-66154800D01*
X177055639Y-66202419D02*
X177055639Y-65678609D01*
X177055639Y-65678609D02*
X177103258Y-65583371D01*
X177103258Y-65583371D02*
X177198496Y-65535752D01*
X177198496Y-65535752D02*
X177388972Y-65535752D01*
X177388972Y-65535752D02*
X177484210Y-65583371D01*
X177055639Y-66154800D02*
X177150877Y-66202419D01*
X177150877Y-66202419D02*
X177388972Y-66202419D01*
X177388972Y-66202419D02*
X177484210Y-66154800D01*
X177484210Y-66154800D02*
X177531829Y-66059561D01*
X177531829Y-66059561D02*
X177531829Y-65964323D01*
X177531829Y-65964323D02*
X177484210Y-65869085D01*
X177484210Y-65869085D02*
X177388972Y-65821466D01*
X177388972Y-65821466D02*
X177150877Y-65821466D01*
X177150877Y-65821466D02*
X177055639Y-65773847D01*
X176722305Y-65535752D02*
X176341353Y-65535752D01*
X176579448Y-65202419D02*
X176579448Y-66059561D01*
X176579448Y-66059561D02*
X176531829Y-66154800D01*
X176531829Y-66154800D02*
X176436591Y-66202419D01*
X176436591Y-66202419D02*
X176341353Y-66202419D01*
X176150876Y-65535752D02*
X175769924Y-65535752D01*
X176008019Y-65202419D02*
X176008019Y-66059561D01*
X176008019Y-66059561D02*
X175960400Y-66154800D01*
X175960400Y-66154800D02*
X175865162Y-66202419D01*
X175865162Y-66202419D02*
X175769924Y-66202419D01*
X141317068Y-75251228D02*
X141317068Y-73751228D01*
X141317068Y-73751228D02*
X140745639Y-73751228D01*
X140745639Y-73751228D02*
X140602782Y-73822657D01*
X140602782Y-73822657D02*
X140531353Y-73894085D01*
X140531353Y-73894085D02*
X140459925Y-74036942D01*
X140459925Y-74036942D02*
X140459925Y-74251228D01*
X140459925Y-74251228D02*
X140531353Y-74394085D01*
X140531353Y-74394085D02*
X140602782Y-74465514D01*
X140602782Y-74465514D02*
X140745639Y-74536942D01*
X140745639Y-74536942D02*
X141317068Y-74536942D01*
X139602782Y-75251228D02*
X139745639Y-75179800D01*
X139745639Y-75179800D02*
X139817068Y-75108371D01*
X139817068Y-75108371D02*
X139888496Y-74965514D01*
X139888496Y-74965514D02*
X139888496Y-74536942D01*
X139888496Y-74536942D02*
X139817068Y-74394085D01*
X139817068Y-74394085D02*
X139745639Y-74322657D01*
X139745639Y-74322657D02*
X139602782Y-74251228D01*
X139602782Y-74251228D02*
X139388496Y-74251228D01*
X139388496Y-74251228D02*
X139245639Y-74322657D01*
X139245639Y-74322657D02*
X139174211Y-74394085D01*
X139174211Y-74394085D02*
X139102782Y-74536942D01*
X139102782Y-74536942D02*
X139102782Y-74965514D01*
X139102782Y-74965514D02*
X139174211Y-75108371D01*
X139174211Y-75108371D02*
X139245639Y-75179800D01*
X139245639Y-75179800D02*
X139388496Y-75251228D01*
X139388496Y-75251228D02*
X139602782Y-75251228D01*
X138602782Y-74251228D02*
X138317068Y-75251228D01*
X138317068Y-75251228D02*
X138031353Y-74536942D01*
X138031353Y-74536942D02*
X137745639Y-75251228D01*
X137745639Y-75251228D02*
X137459925Y-74251228D01*
X136317067Y-75179800D02*
X136459924Y-75251228D01*
X136459924Y-75251228D02*
X136745639Y-75251228D01*
X136745639Y-75251228D02*
X136888496Y-75179800D01*
X136888496Y-75179800D02*
X136959924Y-75036942D01*
X136959924Y-75036942D02*
X136959924Y-74465514D01*
X136959924Y-74465514D02*
X136888496Y-74322657D01*
X136888496Y-74322657D02*
X136745639Y-74251228D01*
X136745639Y-74251228D02*
X136459924Y-74251228D01*
X136459924Y-74251228D02*
X136317067Y-74322657D01*
X136317067Y-74322657D02*
X136245639Y-74465514D01*
X136245639Y-74465514D02*
X136245639Y-74608371D01*
X136245639Y-74608371D02*
X136959924Y-74751228D01*
X135602782Y-75251228D02*
X135602782Y-74251228D01*
X135602782Y-74536942D02*
X135531353Y-74394085D01*
X135531353Y-74394085D02*
X135459925Y-74322657D01*
X135459925Y-74322657D02*
X135317067Y-74251228D01*
X135317067Y-74251228D02*
X135174210Y-74251228D01*
X133674211Y-73751228D02*
X133317068Y-75251228D01*
X133317068Y-75251228D02*
X133031354Y-74179800D01*
X133031354Y-74179800D02*
X132745639Y-75251228D01*
X132745639Y-75251228D02*
X132388497Y-73751228D01*
X131817068Y-75251228D02*
X131817068Y-74251228D01*
X131817068Y-73751228D02*
X131888496Y-73822657D01*
X131888496Y-73822657D02*
X131817068Y-73894085D01*
X131817068Y-73894085D02*
X131745639Y-73822657D01*
X131745639Y-73822657D02*
X131817068Y-73751228D01*
X131817068Y-73751228D02*
X131817068Y-73894085D01*
X131102782Y-75251228D02*
X131102782Y-74251228D01*
X131102782Y-74536942D02*
X131031353Y-74394085D01*
X131031353Y-74394085D02*
X130959925Y-74322657D01*
X130959925Y-74322657D02*
X130817067Y-74251228D01*
X130817067Y-74251228D02*
X130674210Y-74251228D01*
X129602782Y-75179800D02*
X129745639Y-75251228D01*
X129745639Y-75251228D02*
X130031354Y-75251228D01*
X130031354Y-75251228D02*
X130174211Y-75179800D01*
X130174211Y-75179800D02*
X130245639Y-75036942D01*
X130245639Y-75036942D02*
X130245639Y-74465514D01*
X130245639Y-74465514D02*
X130174211Y-74322657D01*
X130174211Y-74322657D02*
X130031354Y-74251228D01*
X130031354Y-74251228D02*
X129745639Y-74251228D01*
X129745639Y-74251228D02*
X129602782Y-74322657D01*
X129602782Y-74322657D02*
X129531354Y-74465514D01*
X129531354Y-74465514D02*
X129531354Y-74608371D01*
X129531354Y-74608371D02*
X130245639Y-74751228D01*
X128959925Y-75179800D02*
X128817068Y-75251228D01*
X128817068Y-75251228D02*
X128531354Y-75251228D01*
X128531354Y-75251228D02*
X128388497Y-75179800D01*
X128388497Y-75179800D02*
X128317068Y-75036942D01*
X128317068Y-75036942D02*
X128317068Y-74965514D01*
X128317068Y-74965514D02*
X128388497Y-74822657D01*
X128388497Y-74822657D02*
X128531354Y-74751228D01*
X128531354Y-74751228D02*
X128745640Y-74751228D01*
X128745640Y-74751228D02*
X128888497Y-74679800D01*
X128888497Y-74679800D02*
X128959925Y-74536942D01*
X128959925Y-74536942D02*
X128959925Y-74465514D01*
X128959925Y-74465514D02*
X128888497Y-74322657D01*
X128888497Y-74322657D02*
X128745640Y-74251228D01*
X128745640Y-74251228D02*
X128531354Y-74251228D01*
X128531354Y-74251228D02*
X128388497Y-74322657D01*
M02*
