M48
; DRILL file {KiCad 9.0.2} date 2026-09-24T16:32:51-0400
; FORMAT={-:-/ absolute / metric / decimal}
; #@! TF.CreationDate,2026-09-24T16:32:51-04:00
; #@! TF.GenerationSoftware,Kicad,Pcbnew,9.0.2
; #@! TF.FileFunction,Plated,1,4,PTH
FMAT,2
METRIC
; #@! TA.AperFunction,Plated,PTH,ViaDrill
T1C0.300
; #@! TA.AperFunction,Plated,PTH,ComponentDrill
T2C0.950
; #@! TA.AperFunction,Plated,PTH,ComponentDrill
T3C1.000
; #@! TA.AperFunction,Plated,PTH,ComponentDrill
T4C3.200
%
G90
G05
T1
X120.73Y-86.63
X120.74Y-81.13
X120.83Y-92.33
X120.85Y-98.08
X121.63Y-76.22
X123.02Y-101.31
X124.96Y-74.23
X125.27Y-84.81
X125.47Y-93.36
X125.89Y-78.04
X126.45Y-98.35
X126.52Y-104.67
X126.53Y-71.16
X127.66Y-64.63
X127.66Y-66.13
X127.66Y-67.63
X127.66Y-69.13
X129.09Y-81.55
X129.16Y-64.63
X129.16Y-66.13
X129.16Y-67.63
X129.16Y-69.13
X129.19Y-84.89
X129.22Y-87.64
X129.28Y-74.35
X129.3Y-101.69
X129.67Y-91.45
X130.17Y-78.25
X130.4Y-108.01
X130.66Y-64.63
X130.66Y-66.13
X130.66Y-67.63
X130.66Y-69.13
X132.07Y-93.89
X132.16Y-64.63
X132.16Y-66.13
X132.16Y-67.63
X132.16Y-69.13
X132.29Y-104.88
X132.33Y-71.47
X132.39Y-76.03
X134.22Y-86.3
X134.25Y-79.38
X134.39Y-82.53
X134.45Y-73.92
X134.46Y-89.46
X134.63Y-110.24
X134.89Y-96.02
X136.11Y-76.83
X136.11Y-92.14
X136.3Y-72.06
X136.88Y-105.65
X137.38Y-107.94
X137.79Y-64.71
X137.79Y-66.21
X137.79Y-67.71
X137.79Y-69.21
X137.98Y-96.26
X138.7Y-74.52
X139.29Y-64.71
X139.29Y-66.21
X139.29Y-67.71
X139.29Y-69.21
X139.76Y-105.62
X140.11Y-110.12
X140.46Y-93.2
X140.79Y-64.71
X140.79Y-66.21
X140.79Y-67.71
X140.79Y-69.21
X140.85Y-72.14
X141.86Y-96.37
X142.29Y-64.71
X142.29Y-66.21
X142.29Y-67.71
X142.29Y-69.21
X142.34Y-105.59
X142.6Y-107.53
X145.3Y-96.33
X145.3Y-98.56
X145.92Y-93.3
X146.63Y-110.16
X147.98Y-98.67
X148.01Y-96.3
X149.69Y-107.58
X150.76Y-96.23
X150.82Y-93.3
X150.83Y-98.56
X153.26Y-110.19
X153.48Y-96.09
X153.51Y-98.6
X154.63Y-94.28
X156.02Y-96.12
X156.12Y-98.53
X156.15Y-107.51
X158.8Y-98.46
X159.1Y-110.19
X161.99Y-105.96
X162.68Y-69.35
X163.06Y-109.33
X164.5Y-106.03
X165.18Y-69.35
X167.01Y-106.07
X167.68Y-69.38
X170.18Y-69.33
T2
X144.59Y-88.81
X144.59Y-114.83
X147.09Y-88.81
X147.09Y-114.83
X149.59Y-88.81
X149.59Y-114.83
X152.09Y-88.81
X152.09Y-114.83
X154.59Y-88.81
X154.59Y-114.83
X157.09Y-88.81
X157.09Y-114.83
X159.59Y-88.81
X159.59Y-114.83
T4
X122.0Y-68.0
X122.0Y-119.0
X182.0Y-68.0
X182.0Y-119.0
T3
G00X137.22Y-102.52
M15
G01X137.22Y-101.12
M16
G05
G00X139.92Y-102.52
M15
G01X139.92Y-101.12
M16
G05
G00X142.62Y-102.52
M15
G01X142.62Y-101.12
M16
G05
G00X145.32Y-102.52
M15
G01X145.32Y-101.12
M16
G05
G00X148.02Y-102.52
M15
G01X148.02Y-101.12
M16
G05
G00X150.72Y-102.52
M15
G01X150.72Y-101.12
M16
G05
G00X153.42Y-102.52
M15
G01X153.42Y-101.12
M16
G05
G00X156.12Y-102.52
M15
G01X156.12Y-101.12
M16
G05
G00X158.82Y-102.52
M15
G01X158.82Y-101.12
M16
G05
G00X161.52Y-102.52
M15
G01X161.52Y-101.12
M16
G05
G00X164.22Y-102.52
M15
G01X164.22Y-101.12
M16
G05
G00X166.92Y-102.52
M15
G01X166.92Y-101.12
M16
G05
M30
