%TF.GenerationSoftware,KiCad,Pcbnew,9.0.2*%
%TF.CreationDate,2026-09-24T19:48:09-04:00*%
%TF.ProjectId,BatteryChargingStationBoard_12sNp_12PinMistaConn_4Layer,42617474-6572-4794-9368-617267696e67,rev?*%
%TF.SameCoordinates,Original*%
%TF.FileFunction,Legend,Top*%
%TF.FilePolarity,Positive*%
%FSLAX46Y46*%
G04 Gerber Fmt 4.6, Leading zero omitted, Abs format (unit mm)*
G04 Created by KiCad (PCBNEW 9.0.2) date 2026-09-24 19:48:09*
%MOMM*%
%LPD*%
G01*
G04 APERTURE LIST*
%ADD10C,0.100000*%
%ADD11C,0.150000*%
%ADD12C,0.120000*%
G04 APERTURE END LIST*
D10*
X178140000Y-73080000D02*
G75*
G02*
X174140000Y-73080000I-2000000J0D01*
G01*
X174140000Y-73080000D02*
G75*
G02*
X178140000Y-73080000I2000000J0D01*
G01*
X154150012Y-73061364D02*
X150150012Y-73061364D01*
X178150000Y-113920000D02*
G75*
G02*
X174150000Y-113920000I-2000000J0D01*
G01*
X174150000Y-113920000D02*
G75*
G02*
X178150000Y-113920000I2000000J0D01*
G01*
X128160024Y-75061364D02*
X128160024Y-71061364D01*
X176140000Y-75080000D02*
X176140000Y-71080000D01*
X130140000Y-113910000D02*
X126140000Y-113910000D01*
X178160000Y-93480000D02*
G75*
G02*
X174160000Y-93480000I-2000000J0D01*
G01*
X174160000Y-93480000D02*
G75*
G02*
X178160000Y-93480000I2000000J0D01*
G01*
X128140000Y-115910000D02*
X128140000Y-111910000D01*
X130140000Y-113910000D02*
G75*
G02*
X126140000Y-113910000I-2000000J0D01*
G01*
X126140000Y-113910000D02*
G75*
G02*
X130140000Y-113910000I2000000J0D01*
G01*
X178140000Y-73080000D02*
X174140000Y-73080000D01*
X154150012Y-73061364D02*
G75*
G02*
X150150012Y-73061364I-2000000J0D01*
G01*
X150150012Y-73061364D02*
G75*
G02*
X154150012Y-73061364I2000000J0D01*
G01*
X130160024Y-73061364D02*
X126160024Y-73061364D01*
X130168371Y-93480019D02*
X126168371Y-93480019D01*
X178160000Y-93480000D02*
X174160000Y-93480000D01*
X176150000Y-115920000D02*
X176150000Y-111920000D01*
X130160024Y-73061364D02*
G75*
G02*
X126160024Y-73061364I-2000000J0D01*
G01*
X126160024Y-73061364D02*
G75*
G02*
X130160024Y-73061364I2000000J0D01*
G01*
X152150012Y-75061364D02*
X152150012Y-71061364D01*
X178150000Y-113920000D02*
X174150000Y-113920000D01*
X176160000Y-95480000D02*
X176160000Y-91480000D01*
X130168371Y-93480019D02*
G75*
G02*
X126168371Y-93480019I-2000000J0D01*
G01*
X126168371Y-93480019D02*
G75*
G02*
X130168371Y-93480019I2000000J0D01*
G01*
X128168371Y-95480019D02*
X128168371Y-91480019D01*
X123188771Y-92090113D02*
X123093533Y-92042494D01*
X123093533Y-92042494D02*
X122950676Y-92042494D01*
X122950676Y-92042494D02*
X122807819Y-92090113D01*
X122807819Y-92090113D02*
X122712581Y-92185351D01*
X122712581Y-92185351D02*
X122664962Y-92280589D01*
X122664962Y-92280589D02*
X122617343Y-92471065D01*
X122617343Y-92471065D02*
X122617343Y-92613922D01*
X122617343Y-92613922D02*
X122664962Y-92804398D01*
X122664962Y-92804398D02*
X122712581Y-92899636D01*
X122712581Y-92899636D02*
X122807819Y-92994875D01*
X122807819Y-92994875D02*
X122950676Y-93042494D01*
X122950676Y-93042494D02*
X123045914Y-93042494D01*
X123045914Y-93042494D02*
X123188771Y-92994875D01*
X123188771Y-92994875D02*
X123236390Y-92947255D01*
X123236390Y-92947255D02*
X123236390Y-92613922D01*
X123236390Y-92613922D02*
X123045914Y-92613922D01*
X123807819Y-93042494D02*
X123712581Y-92994875D01*
X123712581Y-92994875D02*
X123664962Y-92899636D01*
X123664962Y-92899636D02*
X123664962Y-92042494D01*
X124617343Y-92375827D02*
X124617343Y-93042494D01*
X124188772Y-92375827D02*
X124188772Y-92899636D01*
X124188772Y-92899636D02*
X124236391Y-92994875D01*
X124236391Y-92994875D02*
X124331629Y-93042494D01*
X124331629Y-93042494D02*
X124474486Y-93042494D01*
X124474486Y-93042494D02*
X124569724Y-92994875D01*
X124569724Y-92994875D02*
X124617343Y-92947255D01*
X125474486Y-92994875D02*
X125379248Y-93042494D01*
X125379248Y-93042494D02*
X125188772Y-93042494D01*
X125188772Y-93042494D02*
X125093534Y-92994875D01*
X125093534Y-92994875D02*
X125045915Y-92899636D01*
X125045915Y-92899636D02*
X125045915Y-92518684D01*
X125045915Y-92518684D02*
X125093534Y-92423446D01*
X125093534Y-92423446D02*
X125188772Y-92375827D01*
X125188772Y-92375827D02*
X125379248Y-92375827D01*
X125379248Y-92375827D02*
X125474486Y-92423446D01*
X125474486Y-92423446D02*
X125522105Y-92518684D01*
X125522105Y-92518684D02*
X125522105Y-92613922D01*
X125522105Y-92613922D02*
X125045915Y-92709160D01*
X122093534Y-94652438D02*
X122093534Y-93652438D01*
X122093534Y-93652438D02*
X122474486Y-93652438D01*
X122474486Y-93652438D02*
X122569724Y-93700057D01*
X122569724Y-93700057D02*
X122617343Y-93747676D01*
X122617343Y-93747676D02*
X122664962Y-93842914D01*
X122664962Y-93842914D02*
X122664962Y-93985771D01*
X122664962Y-93985771D02*
X122617343Y-94081009D01*
X122617343Y-94081009D02*
X122569724Y-94128628D01*
X122569724Y-94128628D02*
X122474486Y-94176247D01*
X122474486Y-94176247D02*
X122093534Y-94176247D01*
X123236391Y-94652438D02*
X123141153Y-94604819D01*
X123141153Y-94604819D02*
X123093534Y-94557199D01*
X123093534Y-94557199D02*
X123045915Y-94461961D01*
X123045915Y-94461961D02*
X123045915Y-94176247D01*
X123045915Y-94176247D02*
X123093534Y-94081009D01*
X123093534Y-94081009D02*
X123141153Y-94033390D01*
X123141153Y-94033390D02*
X123236391Y-93985771D01*
X123236391Y-93985771D02*
X123379248Y-93985771D01*
X123379248Y-93985771D02*
X123474486Y-94033390D01*
X123474486Y-94033390D02*
X123522105Y-94081009D01*
X123522105Y-94081009D02*
X123569724Y-94176247D01*
X123569724Y-94176247D02*
X123569724Y-94461961D01*
X123569724Y-94461961D02*
X123522105Y-94557199D01*
X123522105Y-94557199D02*
X123474486Y-94604819D01*
X123474486Y-94604819D02*
X123379248Y-94652438D01*
X123379248Y-94652438D02*
X123236391Y-94652438D01*
X123998296Y-94652438D02*
X123998296Y-93985771D01*
X123998296Y-93652438D02*
X123950677Y-93700057D01*
X123950677Y-93700057D02*
X123998296Y-93747676D01*
X123998296Y-93747676D02*
X124045915Y-93700057D01*
X124045915Y-93700057D02*
X123998296Y-93652438D01*
X123998296Y-93652438D02*
X123998296Y-93747676D01*
X124474486Y-93985771D02*
X124474486Y-94652438D01*
X124474486Y-94081009D02*
X124522105Y-94033390D01*
X124522105Y-94033390D02*
X124617343Y-93985771D01*
X124617343Y-93985771D02*
X124760200Y-93985771D01*
X124760200Y-93985771D02*
X124855438Y-94033390D01*
X124855438Y-94033390D02*
X124903057Y-94128628D01*
X124903057Y-94128628D02*
X124903057Y-94652438D01*
X125236391Y-93985771D02*
X125617343Y-93985771D01*
X125379248Y-93652438D02*
X125379248Y-94509580D01*
X125379248Y-94509580D02*
X125426867Y-94604819D01*
X125426867Y-94604819D02*
X125522105Y-94652438D01*
X125522105Y-94652438D02*
X125617343Y-94652438D01*
X179337693Y-112640094D02*
X179242455Y-112592475D01*
X179242455Y-112592475D02*
X179099598Y-112592475D01*
X179099598Y-112592475D02*
X178956741Y-112640094D01*
X178956741Y-112640094D02*
X178861503Y-112735332D01*
X178861503Y-112735332D02*
X178813884Y-112830570D01*
X178813884Y-112830570D02*
X178766265Y-113021046D01*
X178766265Y-113021046D02*
X178766265Y-113163903D01*
X178766265Y-113163903D02*
X178813884Y-113354379D01*
X178813884Y-113354379D02*
X178861503Y-113449617D01*
X178861503Y-113449617D02*
X178956741Y-113544856D01*
X178956741Y-113544856D02*
X179099598Y-113592475D01*
X179099598Y-113592475D02*
X179194836Y-113592475D01*
X179194836Y-113592475D02*
X179337693Y-113544856D01*
X179337693Y-113544856D02*
X179385312Y-113497236D01*
X179385312Y-113497236D02*
X179385312Y-113163903D01*
X179385312Y-113163903D02*
X179194836Y-113163903D01*
X179956741Y-113592475D02*
X179861503Y-113544856D01*
X179861503Y-113544856D02*
X179813884Y-113449617D01*
X179813884Y-113449617D02*
X179813884Y-112592475D01*
X180766265Y-112925808D02*
X180766265Y-113592475D01*
X180337694Y-112925808D02*
X180337694Y-113449617D01*
X180337694Y-113449617D02*
X180385313Y-113544856D01*
X180385313Y-113544856D02*
X180480551Y-113592475D01*
X180480551Y-113592475D02*
X180623408Y-113592475D01*
X180623408Y-113592475D02*
X180718646Y-113544856D01*
X180718646Y-113544856D02*
X180766265Y-113497236D01*
X181623408Y-113544856D02*
X181528170Y-113592475D01*
X181528170Y-113592475D02*
X181337694Y-113592475D01*
X181337694Y-113592475D02*
X181242456Y-113544856D01*
X181242456Y-113544856D02*
X181194837Y-113449617D01*
X181194837Y-113449617D02*
X181194837Y-113068665D01*
X181194837Y-113068665D02*
X181242456Y-112973427D01*
X181242456Y-112973427D02*
X181337694Y-112925808D01*
X181337694Y-112925808D02*
X181528170Y-112925808D01*
X181528170Y-112925808D02*
X181623408Y-112973427D01*
X181623408Y-112973427D02*
X181671027Y-113068665D01*
X181671027Y-113068665D02*
X181671027Y-113163903D01*
X181671027Y-113163903D02*
X181194837Y-113259141D01*
X178813884Y-115202419D02*
X178813884Y-114202419D01*
X178813884Y-114202419D02*
X179194836Y-114202419D01*
X179194836Y-114202419D02*
X179290074Y-114250038D01*
X179290074Y-114250038D02*
X179337693Y-114297657D01*
X179337693Y-114297657D02*
X179385312Y-114392895D01*
X179385312Y-114392895D02*
X179385312Y-114535752D01*
X179385312Y-114535752D02*
X179337693Y-114630990D01*
X179337693Y-114630990D02*
X179290074Y-114678609D01*
X179290074Y-114678609D02*
X179194836Y-114726228D01*
X179194836Y-114726228D02*
X178813884Y-114726228D01*
X179956741Y-115202419D02*
X179861503Y-115154800D01*
X179861503Y-115154800D02*
X179813884Y-115107180D01*
X179813884Y-115107180D02*
X179766265Y-115011942D01*
X179766265Y-115011942D02*
X179766265Y-114726228D01*
X179766265Y-114726228D02*
X179813884Y-114630990D01*
X179813884Y-114630990D02*
X179861503Y-114583371D01*
X179861503Y-114583371D02*
X179956741Y-114535752D01*
X179956741Y-114535752D02*
X180099598Y-114535752D01*
X180099598Y-114535752D02*
X180194836Y-114583371D01*
X180194836Y-114583371D02*
X180242455Y-114630990D01*
X180242455Y-114630990D02*
X180290074Y-114726228D01*
X180290074Y-114726228D02*
X180290074Y-115011942D01*
X180290074Y-115011942D02*
X180242455Y-115107180D01*
X180242455Y-115107180D02*
X180194836Y-115154800D01*
X180194836Y-115154800D02*
X180099598Y-115202419D01*
X180099598Y-115202419D02*
X179956741Y-115202419D01*
X180718646Y-115202419D02*
X180718646Y-114535752D01*
X180718646Y-114202419D02*
X180671027Y-114250038D01*
X180671027Y-114250038D02*
X180718646Y-114297657D01*
X180718646Y-114297657D02*
X180766265Y-114250038D01*
X180766265Y-114250038D02*
X180718646Y-114202419D01*
X180718646Y-114202419D02*
X180718646Y-114297657D01*
X181194836Y-114535752D02*
X181194836Y-115202419D01*
X181194836Y-114630990D02*
X181242455Y-114583371D01*
X181242455Y-114583371D02*
X181337693Y-114535752D01*
X181337693Y-114535752D02*
X181480550Y-114535752D01*
X181480550Y-114535752D02*
X181575788Y-114583371D01*
X181575788Y-114583371D02*
X181623407Y-114678609D01*
X181623407Y-114678609D02*
X181623407Y-115202419D01*
X181956741Y-114535752D02*
X182337693Y-114535752D01*
X182099598Y-114202419D02*
X182099598Y-115059561D01*
X182099598Y-115059561D02*
X182147217Y-115154800D01*
X182147217Y-115154800D02*
X182242455Y-115202419D01*
X182242455Y-115202419D02*
X182337693Y-115202419D01*
X179347693Y-92200094D02*
X179252455Y-92152475D01*
X179252455Y-92152475D02*
X179109598Y-92152475D01*
X179109598Y-92152475D02*
X178966741Y-92200094D01*
X178966741Y-92200094D02*
X178871503Y-92295332D01*
X178871503Y-92295332D02*
X178823884Y-92390570D01*
X178823884Y-92390570D02*
X178776265Y-92581046D01*
X178776265Y-92581046D02*
X178776265Y-92723903D01*
X178776265Y-92723903D02*
X178823884Y-92914379D01*
X178823884Y-92914379D02*
X178871503Y-93009617D01*
X178871503Y-93009617D02*
X178966741Y-93104856D01*
X178966741Y-93104856D02*
X179109598Y-93152475D01*
X179109598Y-93152475D02*
X179204836Y-93152475D01*
X179204836Y-93152475D02*
X179347693Y-93104856D01*
X179347693Y-93104856D02*
X179395312Y-93057236D01*
X179395312Y-93057236D02*
X179395312Y-92723903D01*
X179395312Y-92723903D02*
X179204836Y-92723903D01*
X179966741Y-93152475D02*
X179871503Y-93104856D01*
X179871503Y-93104856D02*
X179823884Y-93009617D01*
X179823884Y-93009617D02*
X179823884Y-92152475D01*
X180776265Y-92485808D02*
X180776265Y-93152475D01*
X180347694Y-92485808D02*
X180347694Y-93009617D01*
X180347694Y-93009617D02*
X180395313Y-93104856D01*
X180395313Y-93104856D02*
X180490551Y-93152475D01*
X180490551Y-93152475D02*
X180633408Y-93152475D01*
X180633408Y-93152475D02*
X180728646Y-93104856D01*
X180728646Y-93104856D02*
X180776265Y-93057236D01*
X181633408Y-93104856D02*
X181538170Y-93152475D01*
X181538170Y-93152475D02*
X181347694Y-93152475D01*
X181347694Y-93152475D02*
X181252456Y-93104856D01*
X181252456Y-93104856D02*
X181204837Y-93009617D01*
X181204837Y-93009617D02*
X181204837Y-92628665D01*
X181204837Y-92628665D02*
X181252456Y-92533427D01*
X181252456Y-92533427D02*
X181347694Y-92485808D01*
X181347694Y-92485808D02*
X181538170Y-92485808D01*
X181538170Y-92485808D02*
X181633408Y-92533427D01*
X181633408Y-92533427D02*
X181681027Y-92628665D01*
X181681027Y-92628665D02*
X181681027Y-92723903D01*
X181681027Y-92723903D02*
X181204837Y-92819141D01*
X178823884Y-94762419D02*
X178823884Y-93762419D01*
X178823884Y-93762419D02*
X179204836Y-93762419D01*
X179204836Y-93762419D02*
X179300074Y-93810038D01*
X179300074Y-93810038D02*
X179347693Y-93857657D01*
X179347693Y-93857657D02*
X179395312Y-93952895D01*
X179395312Y-93952895D02*
X179395312Y-94095752D01*
X179395312Y-94095752D02*
X179347693Y-94190990D01*
X179347693Y-94190990D02*
X179300074Y-94238609D01*
X179300074Y-94238609D02*
X179204836Y-94286228D01*
X179204836Y-94286228D02*
X178823884Y-94286228D01*
X179966741Y-94762419D02*
X179871503Y-94714800D01*
X179871503Y-94714800D02*
X179823884Y-94667180D01*
X179823884Y-94667180D02*
X179776265Y-94571942D01*
X179776265Y-94571942D02*
X179776265Y-94286228D01*
X179776265Y-94286228D02*
X179823884Y-94190990D01*
X179823884Y-94190990D02*
X179871503Y-94143371D01*
X179871503Y-94143371D02*
X179966741Y-94095752D01*
X179966741Y-94095752D02*
X180109598Y-94095752D01*
X180109598Y-94095752D02*
X180204836Y-94143371D01*
X180204836Y-94143371D02*
X180252455Y-94190990D01*
X180252455Y-94190990D02*
X180300074Y-94286228D01*
X180300074Y-94286228D02*
X180300074Y-94571942D01*
X180300074Y-94571942D02*
X180252455Y-94667180D01*
X180252455Y-94667180D02*
X180204836Y-94714800D01*
X180204836Y-94714800D02*
X180109598Y-94762419D01*
X180109598Y-94762419D02*
X179966741Y-94762419D01*
X180728646Y-94762419D02*
X180728646Y-94095752D01*
X180728646Y-93762419D02*
X180681027Y-93810038D01*
X180681027Y-93810038D02*
X180728646Y-93857657D01*
X180728646Y-93857657D02*
X180776265Y-93810038D01*
X180776265Y-93810038D02*
X180728646Y-93762419D01*
X180728646Y-93762419D02*
X180728646Y-93857657D01*
X181204836Y-94095752D02*
X181204836Y-94762419D01*
X181204836Y-94190990D02*
X181252455Y-94143371D01*
X181252455Y-94143371D02*
X181347693Y-94095752D01*
X181347693Y-94095752D02*
X181490550Y-94095752D01*
X181490550Y-94095752D02*
X181585788Y-94143371D01*
X181585788Y-94143371D02*
X181633407Y-94238609D01*
X181633407Y-94238609D02*
X181633407Y-94762419D01*
X181966741Y-94095752D02*
X182347693Y-94095752D01*
X182109598Y-93762419D02*
X182109598Y-94619561D01*
X182109598Y-94619561D02*
X182157217Y-94714800D01*
X182157217Y-94714800D02*
X182252455Y-94762419D01*
X182252455Y-94762419D02*
X182347693Y-94762419D01*
X123160400Y-112520094D02*
X123065162Y-112472475D01*
X123065162Y-112472475D02*
X122922305Y-112472475D01*
X122922305Y-112472475D02*
X122779448Y-112520094D01*
X122779448Y-112520094D02*
X122684210Y-112615332D01*
X122684210Y-112615332D02*
X122636591Y-112710570D01*
X122636591Y-112710570D02*
X122588972Y-112901046D01*
X122588972Y-112901046D02*
X122588972Y-113043903D01*
X122588972Y-113043903D02*
X122636591Y-113234379D01*
X122636591Y-113234379D02*
X122684210Y-113329617D01*
X122684210Y-113329617D02*
X122779448Y-113424856D01*
X122779448Y-113424856D02*
X122922305Y-113472475D01*
X122922305Y-113472475D02*
X123017543Y-113472475D01*
X123017543Y-113472475D02*
X123160400Y-113424856D01*
X123160400Y-113424856D02*
X123208019Y-113377236D01*
X123208019Y-113377236D02*
X123208019Y-113043903D01*
X123208019Y-113043903D02*
X123017543Y-113043903D01*
X123779448Y-113472475D02*
X123684210Y-113424856D01*
X123684210Y-113424856D02*
X123636591Y-113329617D01*
X123636591Y-113329617D02*
X123636591Y-112472475D01*
X124588972Y-112805808D02*
X124588972Y-113472475D01*
X124160401Y-112805808D02*
X124160401Y-113329617D01*
X124160401Y-113329617D02*
X124208020Y-113424856D01*
X124208020Y-113424856D02*
X124303258Y-113472475D01*
X124303258Y-113472475D02*
X124446115Y-113472475D01*
X124446115Y-113472475D02*
X124541353Y-113424856D01*
X124541353Y-113424856D02*
X124588972Y-113377236D01*
X125446115Y-113424856D02*
X125350877Y-113472475D01*
X125350877Y-113472475D02*
X125160401Y-113472475D01*
X125160401Y-113472475D02*
X125065163Y-113424856D01*
X125065163Y-113424856D02*
X125017544Y-113329617D01*
X125017544Y-113329617D02*
X125017544Y-112948665D01*
X125017544Y-112948665D02*
X125065163Y-112853427D01*
X125065163Y-112853427D02*
X125160401Y-112805808D01*
X125160401Y-112805808D02*
X125350877Y-112805808D01*
X125350877Y-112805808D02*
X125446115Y-112853427D01*
X125446115Y-112853427D02*
X125493734Y-112948665D01*
X125493734Y-112948665D02*
X125493734Y-113043903D01*
X125493734Y-113043903D02*
X125017544Y-113139141D01*
X122065163Y-115082419D02*
X122065163Y-114082419D01*
X122065163Y-114082419D02*
X122446115Y-114082419D01*
X122446115Y-114082419D02*
X122541353Y-114130038D01*
X122541353Y-114130038D02*
X122588972Y-114177657D01*
X122588972Y-114177657D02*
X122636591Y-114272895D01*
X122636591Y-114272895D02*
X122636591Y-114415752D01*
X122636591Y-114415752D02*
X122588972Y-114510990D01*
X122588972Y-114510990D02*
X122541353Y-114558609D01*
X122541353Y-114558609D02*
X122446115Y-114606228D01*
X122446115Y-114606228D02*
X122065163Y-114606228D01*
X123208020Y-115082419D02*
X123112782Y-115034800D01*
X123112782Y-115034800D02*
X123065163Y-114987180D01*
X123065163Y-114987180D02*
X123017544Y-114891942D01*
X123017544Y-114891942D02*
X123017544Y-114606228D01*
X123017544Y-114606228D02*
X123065163Y-114510990D01*
X123065163Y-114510990D02*
X123112782Y-114463371D01*
X123112782Y-114463371D02*
X123208020Y-114415752D01*
X123208020Y-114415752D02*
X123350877Y-114415752D01*
X123350877Y-114415752D02*
X123446115Y-114463371D01*
X123446115Y-114463371D02*
X123493734Y-114510990D01*
X123493734Y-114510990D02*
X123541353Y-114606228D01*
X123541353Y-114606228D02*
X123541353Y-114891942D01*
X123541353Y-114891942D02*
X123493734Y-114987180D01*
X123493734Y-114987180D02*
X123446115Y-115034800D01*
X123446115Y-115034800D02*
X123350877Y-115082419D01*
X123350877Y-115082419D02*
X123208020Y-115082419D01*
X123969925Y-115082419D02*
X123969925Y-114415752D01*
X123969925Y-114082419D02*
X123922306Y-114130038D01*
X123922306Y-114130038D02*
X123969925Y-114177657D01*
X123969925Y-114177657D02*
X124017544Y-114130038D01*
X124017544Y-114130038D02*
X123969925Y-114082419D01*
X123969925Y-114082419D02*
X123969925Y-114177657D01*
X124446115Y-114415752D02*
X124446115Y-115082419D01*
X124446115Y-114510990D02*
X124493734Y-114463371D01*
X124493734Y-114463371D02*
X124588972Y-114415752D01*
X124588972Y-114415752D02*
X124731829Y-114415752D01*
X124731829Y-114415752D02*
X124827067Y-114463371D01*
X124827067Y-114463371D02*
X124874686Y-114558609D01*
X124874686Y-114558609D02*
X124874686Y-115082419D01*
X125208020Y-114415752D02*
X125588972Y-114415752D01*
X125350877Y-114082419D02*
X125350877Y-114939561D01*
X125350877Y-114939561D02*
X125398496Y-115034800D01*
X125398496Y-115034800D02*
X125493734Y-115082419D01*
X125493734Y-115082419D02*
X125588972Y-115082419D01*
X123180424Y-71671458D02*
X123085186Y-71623839D01*
X123085186Y-71623839D02*
X122942329Y-71623839D01*
X122942329Y-71623839D02*
X122799472Y-71671458D01*
X122799472Y-71671458D02*
X122704234Y-71766696D01*
X122704234Y-71766696D02*
X122656615Y-71861934D01*
X122656615Y-71861934D02*
X122608996Y-72052410D01*
X122608996Y-72052410D02*
X122608996Y-72195267D01*
X122608996Y-72195267D02*
X122656615Y-72385743D01*
X122656615Y-72385743D02*
X122704234Y-72480981D01*
X122704234Y-72480981D02*
X122799472Y-72576220D01*
X122799472Y-72576220D02*
X122942329Y-72623839D01*
X122942329Y-72623839D02*
X123037567Y-72623839D01*
X123037567Y-72623839D02*
X123180424Y-72576220D01*
X123180424Y-72576220D02*
X123228043Y-72528600D01*
X123228043Y-72528600D02*
X123228043Y-72195267D01*
X123228043Y-72195267D02*
X123037567Y-72195267D01*
X123799472Y-72623839D02*
X123704234Y-72576220D01*
X123704234Y-72576220D02*
X123656615Y-72480981D01*
X123656615Y-72480981D02*
X123656615Y-71623839D01*
X124608996Y-71957172D02*
X124608996Y-72623839D01*
X124180425Y-71957172D02*
X124180425Y-72480981D01*
X124180425Y-72480981D02*
X124228044Y-72576220D01*
X124228044Y-72576220D02*
X124323282Y-72623839D01*
X124323282Y-72623839D02*
X124466139Y-72623839D01*
X124466139Y-72623839D02*
X124561377Y-72576220D01*
X124561377Y-72576220D02*
X124608996Y-72528600D01*
X125466139Y-72576220D02*
X125370901Y-72623839D01*
X125370901Y-72623839D02*
X125180425Y-72623839D01*
X125180425Y-72623839D02*
X125085187Y-72576220D01*
X125085187Y-72576220D02*
X125037568Y-72480981D01*
X125037568Y-72480981D02*
X125037568Y-72100029D01*
X125037568Y-72100029D02*
X125085187Y-72004791D01*
X125085187Y-72004791D02*
X125180425Y-71957172D01*
X125180425Y-71957172D02*
X125370901Y-71957172D01*
X125370901Y-71957172D02*
X125466139Y-72004791D01*
X125466139Y-72004791D02*
X125513758Y-72100029D01*
X125513758Y-72100029D02*
X125513758Y-72195267D01*
X125513758Y-72195267D02*
X125037568Y-72290505D01*
X122085187Y-74233783D02*
X122085187Y-73233783D01*
X122085187Y-73233783D02*
X122466139Y-73233783D01*
X122466139Y-73233783D02*
X122561377Y-73281402D01*
X122561377Y-73281402D02*
X122608996Y-73329021D01*
X122608996Y-73329021D02*
X122656615Y-73424259D01*
X122656615Y-73424259D02*
X122656615Y-73567116D01*
X122656615Y-73567116D02*
X122608996Y-73662354D01*
X122608996Y-73662354D02*
X122561377Y-73709973D01*
X122561377Y-73709973D02*
X122466139Y-73757592D01*
X122466139Y-73757592D02*
X122085187Y-73757592D01*
X123228044Y-74233783D02*
X123132806Y-74186164D01*
X123132806Y-74186164D02*
X123085187Y-74138544D01*
X123085187Y-74138544D02*
X123037568Y-74043306D01*
X123037568Y-74043306D02*
X123037568Y-73757592D01*
X123037568Y-73757592D02*
X123085187Y-73662354D01*
X123085187Y-73662354D02*
X123132806Y-73614735D01*
X123132806Y-73614735D02*
X123228044Y-73567116D01*
X123228044Y-73567116D02*
X123370901Y-73567116D01*
X123370901Y-73567116D02*
X123466139Y-73614735D01*
X123466139Y-73614735D02*
X123513758Y-73662354D01*
X123513758Y-73662354D02*
X123561377Y-73757592D01*
X123561377Y-73757592D02*
X123561377Y-74043306D01*
X123561377Y-74043306D02*
X123513758Y-74138544D01*
X123513758Y-74138544D02*
X123466139Y-74186164D01*
X123466139Y-74186164D02*
X123370901Y-74233783D01*
X123370901Y-74233783D02*
X123228044Y-74233783D01*
X123989949Y-74233783D02*
X123989949Y-73567116D01*
X123989949Y-73233783D02*
X123942330Y-73281402D01*
X123942330Y-73281402D02*
X123989949Y-73329021D01*
X123989949Y-73329021D02*
X124037568Y-73281402D01*
X124037568Y-73281402D02*
X123989949Y-73233783D01*
X123989949Y-73233783D02*
X123989949Y-73329021D01*
X124466139Y-73567116D02*
X124466139Y-74233783D01*
X124466139Y-73662354D02*
X124513758Y-73614735D01*
X124513758Y-73614735D02*
X124608996Y-73567116D01*
X124608996Y-73567116D02*
X124751853Y-73567116D01*
X124751853Y-73567116D02*
X124847091Y-73614735D01*
X124847091Y-73614735D02*
X124894710Y-73709973D01*
X124894710Y-73709973D02*
X124894710Y-74233783D01*
X125228044Y-73567116D02*
X125608996Y-73567116D01*
X125370901Y-73233783D02*
X125370901Y-74090925D01*
X125370901Y-74090925D02*
X125418520Y-74186164D01*
X125418520Y-74186164D02*
X125513758Y-74233783D01*
X125513758Y-74233783D02*
X125608996Y-74233783D01*
X151159047Y-67970094D02*
X151063809Y-67922475D01*
X151063809Y-67922475D02*
X150920952Y-67922475D01*
X150920952Y-67922475D02*
X150778095Y-67970094D01*
X150778095Y-67970094D02*
X150682857Y-68065332D01*
X150682857Y-68065332D02*
X150635238Y-68160570D01*
X150635238Y-68160570D02*
X150587619Y-68351046D01*
X150587619Y-68351046D02*
X150587619Y-68493903D01*
X150587619Y-68493903D02*
X150635238Y-68684379D01*
X150635238Y-68684379D02*
X150682857Y-68779617D01*
X150682857Y-68779617D02*
X150778095Y-68874856D01*
X150778095Y-68874856D02*
X150920952Y-68922475D01*
X150920952Y-68922475D02*
X151016190Y-68922475D01*
X151016190Y-68922475D02*
X151159047Y-68874856D01*
X151159047Y-68874856D02*
X151206666Y-68827236D01*
X151206666Y-68827236D02*
X151206666Y-68493903D01*
X151206666Y-68493903D02*
X151016190Y-68493903D01*
X151778095Y-68922475D02*
X151682857Y-68874856D01*
X151682857Y-68874856D02*
X151635238Y-68779617D01*
X151635238Y-68779617D02*
X151635238Y-67922475D01*
X152587619Y-68255808D02*
X152587619Y-68922475D01*
X152159048Y-68255808D02*
X152159048Y-68779617D01*
X152159048Y-68779617D02*
X152206667Y-68874856D01*
X152206667Y-68874856D02*
X152301905Y-68922475D01*
X152301905Y-68922475D02*
X152444762Y-68922475D01*
X152444762Y-68922475D02*
X152540000Y-68874856D01*
X152540000Y-68874856D02*
X152587619Y-68827236D01*
X153444762Y-68874856D02*
X153349524Y-68922475D01*
X153349524Y-68922475D02*
X153159048Y-68922475D01*
X153159048Y-68922475D02*
X153063810Y-68874856D01*
X153063810Y-68874856D02*
X153016191Y-68779617D01*
X153016191Y-68779617D02*
X153016191Y-68398665D01*
X153016191Y-68398665D02*
X153063810Y-68303427D01*
X153063810Y-68303427D02*
X153159048Y-68255808D01*
X153159048Y-68255808D02*
X153349524Y-68255808D01*
X153349524Y-68255808D02*
X153444762Y-68303427D01*
X153444762Y-68303427D02*
X153492381Y-68398665D01*
X153492381Y-68398665D02*
X153492381Y-68493903D01*
X153492381Y-68493903D02*
X153016191Y-68589141D01*
X150349524Y-70532419D02*
X150349524Y-69532419D01*
X150349524Y-69532419D02*
X150730476Y-69532419D01*
X150730476Y-69532419D02*
X150825714Y-69580038D01*
X150825714Y-69580038D02*
X150873333Y-69627657D01*
X150873333Y-69627657D02*
X150920952Y-69722895D01*
X150920952Y-69722895D02*
X150920952Y-69865752D01*
X150920952Y-69865752D02*
X150873333Y-69960990D01*
X150873333Y-69960990D02*
X150825714Y-70008609D01*
X150825714Y-70008609D02*
X150730476Y-70056228D01*
X150730476Y-70056228D02*
X150349524Y-70056228D01*
X151492381Y-70532419D02*
X151397143Y-70484800D01*
X151397143Y-70484800D02*
X151349524Y-70437180D01*
X151349524Y-70437180D02*
X151301905Y-70341942D01*
X151301905Y-70341942D02*
X151301905Y-70056228D01*
X151301905Y-70056228D02*
X151349524Y-69960990D01*
X151349524Y-69960990D02*
X151397143Y-69913371D01*
X151397143Y-69913371D02*
X151492381Y-69865752D01*
X151492381Y-69865752D02*
X151635238Y-69865752D01*
X151635238Y-69865752D02*
X151730476Y-69913371D01*
X151730476Y-69913371D02*
X151778095Y-69960990D01*
X151778095Y-69960990D02*
X151825714Y-70056228D01*
X151825714Y-70056228D02*
X151825714Y-70341942D01*
X151825714Y-70341942D02*
X151778095Y-70437180D01*
X151778095Y-70437180D02*
X151730476Y-70484800D01*
X151730476Y-70484800D02*
X151635238Y-70532419D01*
X151635238Y-70532419D02*
X151492381Y-70532419D01*
X152254286Y-70532419D02*
X152254286Y-69865752D01*
X152254286Y-69532419D02*
X152206667Y-69580038D01*
X152206667Y-69580038D02*
X152254286Y-69627657D01*
X152254286Y-69627657D02*
X152301905Y-69580038D01*
X152301905Y-69580038D02*
X152254286Y-69532419D01*
X152254286Y-69532419D02*
X152254286Y-69627657D01*
X152730476Y-69865752D02*
X152730476Y-70532419D01*
X152730476Y-69960990D02*
X152778095Y-69913371D01*
X152778095Y-69913371D02*
X152873333Y-69865752D01*
X152873333Y-69865752D02*
X153016190Y-69865752D01*
X153016190Y-69865752D02*
X153111428Y-69913371D01*
X153111428Y-69913371D02*
X153159047Y-70008609D01*
X153159047Y-70008609D02*
X153159047Y-70532419D01*
X153492381Y-69865752D02*
X153873333Y-69865752D01*
X153635238Y-69532419D02*
X153635238Y-70389561D01*
X153635238Y-70389561D02*
X153682857Y-70484800D01*
X153682857Y-70484800D02*
X153778095Y-70532419D01*
X153778095Y-70532419D02*
X153873333Y-70532419D01*
X179327693Y-71800094D02*
X179232455Y-71752475D01*
X179232455Y-71752475D02*
X179089598Y-71752475D01*
X179089598Y-71752475D02*
X178946741Y-71800094D01*
X178946741Y-71800094D02*
X178851503Y-71895332D01*
X178851503Y-71895332D02*
X178803884Y-71990570D01*
X178803884Y-71990570D02*
X178756265Y-72181046D01*
X178756265Y-72181046D02*
X178756265Y-72323903D01*
X178756265Y-72323903D02*
X178803884Y-72514379D01*
X178803884Y-72514379D02*
X178851503Y-72609617D01*
X178851503Y-72609617D02*
X178946741Y-72704856D01*
X178946741Y-72704856D02*
X179089598Y-72752475D01*
X179089598Y-72752475D02*
X179184836Y-72752475D01*
X179184836Y-72752475D02*
X179327693Y-72704856D01*
X179327693Y-72704856D02*
X179375312Y-72657236D01*
X179375312Y-72657236D02*
X179375312Y-72323903D01*
X179375312Y-72323903D02*
X179184836Y-72323903D01*
X179946741Y-72752475D02*
X179851503Y-72704856D01*
X179851503Y-72704856D02*
X179803884Y-72609617D01*
X179803884Y-72609617D02*
X179803884Y-71752475D01*
X180756265Y-72085808D02*
X180756265Y-72752475D01*
X180327694Y-72085808D02*
X180327694Y-72609617D01*
X180327694Y-72609617D02*
X180375313Y-72704856D01*
X180375313Y-72704856D02*
X180470551Y-72752475D01*
X180470551Y-72752475D02*
X180613408Y-72752475D01*
X180613408Y-72752475D02*
X180708646Y-72704856D01*
X180708646Y-72704856D02*
X180756265Y-72657236D01*
X181613408Y-72704856D02*
X181518170Y-72752475D01*
X181518170Y-72752475D02*
X181327694Y-72752475D01*
X181327694Y-72752475D02*
X181232456Y-72704856D01*
X181232456Y-72704856D02*
X181184837Y-72609617D01*
X181184837Y-72609617D02*
X181184837Y-72228665D01*
X181184837Y-72228665D02*
X181232456Y-72133427D01*
X181232456Y-72133427D02*
X181327694Y-72085808D01*
X181327694Y-72085808D02*
X181518170Y-72085808D01*
X181518170Y-72085808D02*
X181613408Y-72133427D01*
X181613408Y-72133427D02*
X181661027Y-72228665D01*
X181661027Y-72228665D02*
X181661027Y-72323903D01*
X181661027Y-72323903D02*
X181184837Y-72419141D01*
X178803884Y-74362419D02*
X178803884Y-73362419D01*
X178803884Y-73362419D02*
X179184836Y-73362419D01*
X179184836Y-73362419D02*
X179280074Y-73410038D01*
X179280074Y-73410038D02*
X179327693Y-73457657D01*
X179327693Y-73457657D02*
X179375312Y-73552895D01*
X179375312Y-73552895D02*
X179375312Y-73695752D01*
X179375312Y-73695752D02*
X179327693Y-73790990D01*
X179327693Y-73790990D02*
X179280074Y-73838609D01*
X179280074Y-73838609D02*
X179184836Y-73886228D01*
X179184836Y-73886228D02*
X178803884Y-73886228D01*
X179946741Y-74362419D02*
X179851503Y-74314800D01*
X179851503Y-74314800D02*
X179803884Y-74267180D01*
X179803884Y-74267180D02*
X179756265Y-74171942D01*
X179756265Y-74171942D02*
X179756265Y-73886228D01*
X179756265Y-73886228D02*
X179803884Y-73790990D01*
X179803884Y-73790990D02*
X179851503Y-73743371D01*
X179851503Y-73743371D02*
X179946741Y-73695752D01*
X179946741Y-73695752D02*
X180089598Y-73695752D01*
X180089598Y-73695752D02*
X180184836Y-73743371D01*
X180184836Y-73743371D02*
X180232455Y-73790990D01*
X180232455Y-73790990D02*
X180280074Y-73886228D01*
X180280074Y-73886228D02*
X180280074Y-74171942D01*
X180280074Y-74171942D02*
X180232455Y-74267180D01*
X180232455Y-74267180D02*
X180184836Y-74314800D01*
X180184836Y-74314800D02*
X180089598Y-74362419D01*
X180089598Y-74362419D02*
X179946741Y-74362419D01*
X180708646Y-74362419D02*
X180708646Y-73695752D01*
X180708646Y-73362419D02*
X180661027Y-73410038D01*
X180661027Y-73410038D02*
X180708646Y-73457657D01*
X180708646Y-73457657D02*
X180756265Y-73410038D01*
X180756265Y-73410038D02*
X180708646Y-73362419D01*
X180708646Y-73362419D02*
X180708646Y-73457657D01*
X181184836Y-73695752D02*
X181184836Y-74362419D01*
X181184836Y-73790990D02*
X181232455Y-73743371D01*
X181232455Y-73743371D02*
X181327693Y-73695752D01*
X181327693Y-73695752D02*
X181470550Y-73695752D01*
X181470550Y-73695752D02*
X181565788Y-73743371D01*
X181565788Y-73743371D02*
X181613407Y-73838609D01*
X181613407Y-73838609D02*
X181613407Y-74362419D01*
X181946741Y-73695752D02*
X182327693Y-73695752D01*
X182089598Y-73362419D02*
X182089598Y-74219561D01*
X182089598Y-74219561D02*
X182137217Y-74314800D01*
X182137217Y-74314800D02*
X182232455Y-74362419D01*
X182232455Y-74362419D02*
X182327693Y-74362419D01*
D11*
X149796666Y-116244819D02*
X149796666Y-116959104D01*
X149796666Y-116959104D02*
X149749047Y-117101961D01*
X149749047Y-117101961D02*
X149653809Y-117197200D01*
X149653809Y-117197200D02*
X149510952Y-117244819D01*
X149510952Y-117244819D02*
X149415714Y-117244819D01*
X150225238Y-117197200D02*
X150368095Y-117244819D01*
X150368095Y-117244819D02*
X150606190Y-117244819D01*
X150606190Y-117244819D02*
X150701428Y-117197200D01*
X150701428Y-117197200D02*
X150749047Y-117149580D01*
X150749047Y-117149580D02*
X150796666Y-117054342D01*
X150796666Y-117054342D02*
X150796666Y-116959104D01*
X150796666Y-116959104D02*
X150749047Y-116863866D01*
X150749047Y-116863866D02*
X150701428Y-116816247D01*
X150701428Y-116816247D02*
X150606190Y-116768628D01*
X150606190Y-116768628D02*
X150415714Y-116721009D01*
X150415714Y-116721009D02*
X150320476Y-116673390D01*
X150320476Y-116673390D02*
X150272857Y-116625771D01*
X150272857Y-116625771D02*
X150225238Y-116530533D01*
X150225238Y-116530533D02*
X150225238Y-116435295D01*
X150225238Y-116435295D02*
X150272857Y-116340057D01*
X150272857Y-116340057D02*
X150320476Y-116292438D01*
X150320476Y-116292438D02*
X150415714Y-116244819D01*
X150415714Y-116244819D02*
X150653809Y-116244819D01*
X150653809Y-116244819D02*
X150796666Y-116292438D01*
X151082381Y-116244819D02*
X151653809Y-116244819D01*
X151368095Y-117244819D02*
X151368095Y-116244819D01*
X151987143Y-116863866D02*
X152749048Y-116863866D01*
X153130000Y-116244819D02*
X153796666Y-117244819D01*
X153796666Y-116244819D02*
X153130000Y-117244819D01*
X154177619Y-117244819D02*
X154177619Y-116244819D01*
X154177619Y-116721009D02*
X154749047Y-116721009D01*
X154749047Y-117244819D02*
X154749047Y-116244819D01*
X149736666Y-86314819D02*
X149736666Y-87029104D01*
X149736666Y-87029104D02*
X149689047Y-87171961D01*
X149689047Y-87171961D02*
X149593809Y-87267200D01*
X149593809Y-87267200D02*
X149450952Y-87314819D01*
X149450952Y-87314819D02*
X149355714Y-87314819D01*
X150165238Y-87267200D02*
X150308095Y-87314819D01*
X150308095Y-87314819D02*
X150546190Y-87314819D01*
X150546190Y-87314819D02*
X150641428Y-87267200D01*
X150641428Y-87267200D02*
X150689047Y-87219580D01*
X150689047Y-87219580D02*
X150736666Y-87124342D01*
X150736666Y-87124342D02*
X150736666Y-87029104D01*
X150736666Y-87029104D02*
X150689047Y-86933866D01*
X150689047Y-86933866D02*
X150641428Y-86886247D01*
X150641428Y-86886247D02*
X150546190Y-86838628D01*
X150546190Y-86838628D02*
X150355714Y-86791009D01*
X150355714Y-86791009D02*
X150260476Y-86743390D01*
X150260476Y-86743390D02*
X150212857Y-86695771D01*
X150212857Y-86695771D02*
X150165238Y-86600533D01*
X150165238Y-86600533D02*
X150165238Y-86505295D01*
X150165238Y-86505295D02*
X150212857Y-86410057D01*
X150212857Y-86410057D02*
X150260476Y-86362438D01*
X150260476Y-86362438D02*
X150355714Y-86314819D01*
X150355714Y-86314819D02*
X150593809Y-86314819D01*
X150593809Y-86314819D02*
X150736666Y-86362438D01*
X151022381Y-86314819D02*
X151593809Y-86314819D01*
X151308095Y-87314819D02*
X151308095Y-86314819D01*
X151927143Y-86933866D02*
X152689048Y-86933866D01*
X153070000Y-86314819D02*
X153736666Y-87314819D01*
X153736666Y-86314819D02*
X153070000Y-87314819D01*
X154117619Y-87314819D02*
X154117619Y-86314819D01*
X154117619Y-86791009D02*
X154689047Y-86791009D01*
X154689047Y-87314819D02*
X154689047Y-86314819D01*
D10*
X145101429Y-105117419D02*
X145101429Y-104117419D01*
X145101429Y-104117419D02*
X145434762Y-104831704D01*
X145434762Y-104831704D02*
X145768095Y-104117419D01*
X145768095Y-104117419D02*
X145768095Y-105117419D01*
X146244286Y-105117419D02*
X146244286Y-104117419D01*
X146672857Y-105069800D02*
X146815714Y-105117419D01*
X146815714Y-105117419D02*
X147053809Y-105117419D01*
X147053809Y-105117419D02*
X147149047Y-105069800D01*
X147149047Y-105069800D02*
X147196666Y-105022180D01*
X147196666Y-105022180D02*
X147244285Y-104926942D01*
X147244285Y-104926942D02*
X147244285Y-104831704D01*
X147244285Y-104831704D02*
X147196666Y-104736466D01*
X147196666Y-104736466D02*
X147149047Y-104688847D01*
X147149047Y-104688847D02*
X147053809Y-104641228D01*
X147053809Y-104641228D02*
X146863333Y-104593609D01*
X146863333Y-104593609D02*
X146768095Y-104545990D01*
X146768095Y-104545990D02*
X146720476Y-104498371D01*
X146720476Y-104498371D02*
X146672857Y-104403133D01*
X146672857Y-104403133D02*
X146672857Y-104307895D01*
X146672857Y-104307895D02*
X146720476Y-104212657D01*
X146720476Y-104212657D02*
X146768095Y-104165038D01*
X146768095Y-104165038D02*
X146863333Y-104117419D01*
X146863333Y-104117419D02*
X147101428Y-104117419D01*
X147101428Y-104117419D02*
X147244285Y-104165038D01*
X147530000Y-104117419D02*
X148101428Y-104117419D01*
X147815714Y-105117419D02*
X147815714Y-104117419D01*
X148387143Y-104831704D02*
X148863333Y-104831704D01*
X148291905Y-105117419D02*
X148625238Y-104117419D01*
X148625238Y-104117419D02*
X148958571Y-105117419D01*
X150053810Y-105117419D02*
X150053810Y-104117419D01*
X150053810Y-104117419D02*
X150387143Y-104831704D01*
X150387143Y-104831704D02*
X150720476Y-104117419D01*
X150720476Y-104117419D02*
X150720476Y-105117419D01*
X151149048Y-105069800D02*
X151291905Y-105117419D01*
X151291905Y-105117419D02*
X151530000Y-105117419D01*
X151530000Y-105117419D02*
X151625238Y-105069800D01*
X151625238Y-105069800D02*
X151672857Y-105022180D01*
X151672857Y-105022180D02*
X151720476Y-104926942D01*
X151720476Y-104926942D02*
X151720476Y-104831704D01*
X151720476Y-104831704D02*
X151672857Y-104736466D01*
X151672857Y-104736466D02*
X151625238Y-104688847D01*
X151625238Y-104688847D02*
X151530000Y-104641228D01*
X151530000Y-104641228D02*
X151339524Y-104593609D01*
X151339524Y-104593609D02*
X151244286Y-104545990D01*
X151244286Y-104545990D02*
X151196667Y-104498371D01*
X151196667Y-104498371D02*
X151149048Y-104403133D01*
X151149048Y-104403133D02*
X151149048Y-104307895D01*
X151149048Y-104307895D02*
X151196667Y-104212657D01*
X151196667Y-104212657D02*
X151244286Y-104165038D01*
X151244286Y-104165038D02*
X151339524Y-104117419D01*
X151339524Y-104117419D02*
X151577619Y-104117419D01*
X151577619Y-104117419D02*
X151720476Y-104165038D01*
X152149048Y-105117419D02*
X152149048Y-104117419D01*
X152149048Y-104117419D02*
X152387143Y-104117419D01*
X152387143Y-104117419D02*
X152530000Y-104165038D01*
X152530000Y-104165038D02*
X152625238Y-104260276D01*
X152625238Y-104260276D02*
X152672857Y-104355514D01*
X152672857Y-104355514D02*
X152720476Y-104545990D01*
X152720476Y-104545990D02*
X152720476Y-104688847D01*
X152720476Y-104688847D02*
X152672857Y-104879323D01*
X152672857Y-104879323D02*
X152625238Y-104974561D01*
X152625238Y-104974561D02*
X152530000Y-105069800D01*
X152530000Y-105069800D02*
X152387143Y-105117419D01*
X152387143Y-105117419D02*
X152149048Y-105117419D01*
X153149048Y-104736466D02*
X153910953Y-104736466D01*
X154387143Y-105117419D02*
X154387143Y-104117419D01*
X154387143Y-104117419D02*
X154625238Y-104117419D01*
X154625238Y-104117419D02*
X154768095Y-104165038D01*
X154768095Y-104165038D02*
X154863333Y-104260276D01*
X154863333Y-104260276D02*
X154910952Y-104355514D01*
X154910952Y-104355514D02*
X154958571Y-104545990D01*
X154958571Y-104545990D02*
X154958571Y-104688847D01*
X154958571Y-104688847D02*
X154910952Y-104879323D01*
X154910952Y-104879323D02*
X154863333Y-104974561D01*
X154863333Y-104974561D02*
X154768095Y-105069800D01*
X154768095Y-105069800D02*
X154625238Y-105117419D01*
X154625238Y-105117419D02*
X154387143Y-105117419D01*
X155720476Y-104593609D02*
X155863333Y-104641228D01*
X155863333Y-104641228D02*
X155910952Y-104688847D01*
X155910952Y-104688847D02*
X155958571Y-104784085D01*
X155958571Y-104784085D02*
X155958571Y-104926942D01*
X155958571Y-104926942D02*
X155910952Y-105022180D01*
X155910952Y-105022180D02*
X155863333Y-105069800D01*
X155863333Y-105069800D02*
X155768095Y-105117419D01*
X155768095Y-105117419D02*
X155387143Y-105117419D01*
X155387143Y-105117419D02*
X155387143Y-104117419D01*
X155387143Y-104117419D02*
X155720476Y-104117419D01*
X155720476Y-104117419D02*
X155815714Y-104165038D01*
X155815714Y-104165038D02*
X155863333Y-104212657D01*
X155863333Y-104212657D02*
X155910952Y-104307895D01*
X155910952Y-104307895D02*
X155910952Y-104403133D01*
X155910952Y-104403133D02*
X155863333Y-104498371D01*
X155863333Y-104498371D02*
X155815714Y-104545990D01*
X155815714Y-104545990D02*
X155720476Y-104593609D01*
X155720476Y-104593609D02*
X155387143Y-104593609D01*
X156577619Y-104117419D02*
X156672857Y-104117419D01*
X156672857Y-104117419D02*
X156768095Y-104165038D01*
X156768095Y-104165038D02*
X156815714Y-104212657D01*
X156815714Y-104212657D02*
X156863333Y-104307895D01*
X156863333Y-104307895D02*
X156910952Y-104498371D01*
X156910952Y-104498371D02*
X156910952Y-104736466D01*
X156910952Y-104736466D02*
X156863333Y-104926942D01*
X156863333Y-104926942D02*
X156815714Y-105022180D01*
X156815714Y-105022180D02*
X156768095Y-105069800D01*
X156768095Y-105069800D02*
X156672857Y-105117419D01*
X156672857Y-105117419D02*
X156577619Y-105117419D01*
X156577619Y-105117419D02*
X156482381Y-105069800D01*
X156482381Y-105069800D02*
X156434762Y-105022180D01*
X156434762Y-105022180D02*
X156387143Y-104926942D01*
X156387143Y-104926942D02*
X156339524Y-104736466D01*
X156339524Y-104736466D02*
X156339524Y-104498371D01*
X156339524Y-104498371D02*
X156387143Y-104307895D01*
X156387143Y-104307895D02*
X156434762Y-104212657D01*
X156434762Y-104212657D02*
X156482381Y-104165038D01*
X156482381Y-104165038D02*
X156577619Y-104117419D01*
X157863333Y-105117419D02*
X157291905Y-105117419D01*
X157577619Y-105117419D02*
X157577619Y-104117419D01*
X157577619Y-104117419D02*
X157482381Y-104260276D01*
X157482381Y-104260276D02*
X157387143Y-104355514D01*
X157387143Y-104355514D02*
X157291905Y-104403133D01*
X158291905Y-105117419D02*
X158291905Y-104117419D01*
X158291905Y-104117419D02*
X158625238Y-104831704D01*
X158625238Y-104831704D02*
X158958571Y-104117419D01*
X158958571Y-104117419D02*
X158958571Y-105117419D01*
D12*
%TO.C,JST-XH*%
X134240000Y-112090000D02*
X134240000Y-113340000D01*
X134530000Y-112380000D02*
X134530000Y-118350000D01*
X134530000Y-118350000D02*
X169650000Y-118350000D01*
X134540000Y-112390000D02*
X134540000Y-113140000D01*
X134540000Y-113140000D02*
X136340000Y-113140000D01*
X134540000Y-114640000D02*
X135290000Y-114640000D01*
X135290000Y-114640000D02*
X135290000Y-117590000D01*
X135290000Y-117590000D02*
X152090000Y-117590000D01*
X135490000Y-112090000D02*
X134240000Y-112090000D01*
X136340000Y-112390000D02*
X134540000Y-112390000D01*
X136340000Y-113140000D02*
X136340000Y-112390000D01*
X137840000Y-112390000D02*
X137840000Y-113140000D01*
X137840000Y-113140000D02*
X166340000Y-113140000D01*
X166340000Y-112390000D02*
X137840000Y-112390000D01*
X166340000Y-113140000D02*
X166340000Y-112390000D01*
X167840000Y-112390000D02*
X167840000Y-113140000D01*
X167840000Y-113140000D02*
X169640000Y-113140000D01*
X168890000Y-114640000D02*
X168890000Y-117590000D01*
X168890000Y-117590000D02*
X152090000Y-117590000D01*
X169640000Y-112390000D02*
X167840000Y-112390000D01*
X169640000Y-113140000D02*
X169640000Y-112390000D01*
X169640000Y-114640000D02*
X168890000Y-114640000D01*
X169650000Y-112380000D02*
X134530000Y-112380000D01*
X169650000Y-118350000D02*
X169650000Y-112380000D01*
X134510000Y-85300000D02*
X134510000Y-91270000D01*
X134510000Y-91270000D02*
X169630000Y-91270000D01*
X134520000Y-89010000D02*
X135270000Y-89010000D01*
X134520000Y-90510000D02*
X134520000Y-91260000D01*
X134520000Y-91260000D02*
X136320000Y-91260000D01*
X135270000Y-86060000D02*
X152070000Y-86060000D01*
X135270000Y-89010000D02*
X135270000Y-86060000D01*
X136320000Y-90510000D02*
X134520000Y-90510000D01*
X136320000Y-91260000D02*
X136320000Y-90510000D01*
X137820000Y-90510000D02*
X137820000Y-91260000D01*
X137820000Y-91260000D02*
X166320000Y-91260000D01*
X166320000Y-90510000D02*
X137820000Y-90510000D01*
X166320000Y-91260000D02*
X166320000Y-90510000D01*
X167820000Y-90510000D02*
X167820000Y-91260000D01*
X167820000Y-91260000D02*
X169620000Y-91260000D01*
X168670000Y-91560000D02*
X169920000Y-91560000D01*
X168870000Y-86060000D02*
X152070000Y-86060000D01*
X168870000Y-89010000D02*
X168870000Y-86060000D01*
X169620000Y-89010000D02*
X168870000Y-89010000D01*
X169620000Y-90510000D02*
X167820000Y-90510000D01*
X169620000Y-91260000D02*
X169620000Y-90510000D01*
X169630000Y-85300000D02*
X134510000Y-85300000D01*
X169630000Y-91270000D02*
X169630000Y-85300000D01*
X169920000Y-91560000D02*
X169920000Y-90310000D01*
D10*
%TO.C,MISTA MSD-DB01M*%
X134170000Y-104320000D02*
X134170000Y-99320000D01*
X135970000Y-97520000D02*
X168170000Y-97520000D01*
X168170000Y-106120000D02*
X135970000Y-106120000D01*
X169970000Y-99320000D02*
X169970000Y-104320000D01*
X134170000Y-99320000D02*
G75*
G02*
X135970000Y-97520000I1800001J-1D01*
G01*
X135970000Y-106120000D02*
G75*
G02*
X134170000Y-104320000I1J1800001D01*
G01*
X168170000Y-97520000D02*
G75*
G02*
X169970000Y-99320000I0J-1800000D01*
G01*
X169970000Y-104320000D02*
G75*
G02*
X168170000Y-106120000I-1800000J0D01*
G01*
%TD*%
M02*
