%TF.GenerationSoftware,KiCad,Pcbnew,9.0.2*%
%TF.CreationDate,2026-09-24T19:48:09-04:00*%
%TF.ProjectId,BatteryChargingStationBoard_12sNp_12PinMistaConn_4Layer,42617474-6572-4794-9368-617267696e67,rev?*%
%TF.SameCoordinates,Original*%
%TF.FileFunction,Legend,Bot*%
%TF.FilePolarity,Positive*%
%FSLAX46Y46*%
G04 Gerber Fmt 4.6, Leading zero omitted, Abs format (unit mm)*
G04 Created by KiCad (PCBNEW 9.0.2) date 2026-09-24 19:48:09*
%MOMM*%
%LPD*%
G01*
G04 APERTURE LIST*
%ADD10C,0.375000*%
%ADD11C,0.100000*%
G04 APERTURE END LIST*
D10*
X170229004Y-94974071D02*
X170300432Y-95045500D01*
X170300432Y-95045500D02*
X170514718Y-95116928D01*
X170514718Y-95116928D02*
X170657575Y-95116928D01*
X170657575Y-95116928D02*
X170871861Y-95045500D01*
X170871861Y-95045500D02*
X171014718Y-94902642D01*
X171014718Y-94902642D02*
X171086147Y-94759785D01*
X171086147Y-94759785D02*
X171157575Y-94474071D01*
X171157575Y-94474071D02*
X171157575Y-94259785D01*
X171157575Y-94259785D02*
X171086147Y-93974071D01*
X171086147Y-93974071D02*
X171014718Y-93831214D01*
X171014718Y-93831214D02*
X170871861Y-93688357D01*
X170871861Y-93688357D02*
X170657575Y-93616928D01*
X170657575Y-93616928D02*
X170514718Y-93616928D01*
X170514718Y-93616928D02*
X170300432Y-93688357D01*
X170300432Y-93688357D02*
X170229004Y-93759785D01*
X169586147Y-95116928D02*
X169586147Y-93616928D01*
X168943290Y-95116928D02*
X168943290Y-94331214D01*
X168943290Y-94331214D02*
X169014718Y-94188357D01*
X169014718Y-94188357D02*
X169157575Y-94116928D01*
X169157575Y-94116928D02*
X169371861Y-94116928D01*
X169371861Y-94116928D02*
X169514718Y-94188357D01*
X169514718Y-94188357D02*
X169586147Y-94259785D01*
X167586147Y-95116928D02*
X167586147Y-94331214D01*
X167586147Y-94331214D02*
X167657575Y-94188357D01*
X167657575Y-94188357D02*
X167800432Y-94116928D01*
X167800432Y-94116928D02*
X168086147Y-94116928D01*
X168086147Y-94116928D02*
X168229004Y-94188357D01*
X167586147Y-95045500D02*
X167729004Y-95116928D01*
X167729004Y-95116928D02*
X168086147Y-95116928D01*
X168086147Y-95116928D02*
X168229004Y-95045500D01*
X168229004Y-95045500D02*
X168300432Y-94902642D01*
X168300432Y-94902642D02*
X168300432Y-94759785D01*
X168300432Y-94759785D02*
X168229004Y-94616928D01*
X168229004Y-94616928D02*
X168086147Y-94545500D01*
X168086147Y-94545500D02*
X167729004Y-94545500D01*
X167729004Y-94545500D02*
X167586147Y-94474071D01*
X166871861Y-95116928D02*
X166871861Y-94116928D01*
X166871861Y-94402642D02*
X166800432Y-94259785D01*
X166800432Y-94259785D02*
X166729004Y-94188357D01*
X166729004Y-94188357D02*
X166586146Y-94116928D01*
X166586146Y-94116928D02*
X166443289Y-94116928D01*
X165300433Y-94116928D02*
X165300433Y-95331214D01*
X165300433Y-95331214D02*
X165371861Y-95474071D01*
X165371861Y-95474071D02*
X165443290Y-95545500D01*
X165443290Y-95545500D02*
X165586147Y-95616928D01*
X165586147Y-95616928D02*
X165800433Y-95616928D01*
X165800433Y-95616928D02*
X165943290Y-95545500D01*
X165300433Y-95045500D02*
X165443290Y-95116928D01*
X165443290Y-95116928D02*
X165729004Y-95116928D01*
X165729004Y-95116928D02*
X165871861Y-95045500D01*
X165871861Y-95045500D02*
X165943290Y-94974071D01*
X165943290Y-94974071D02*
X166014718Y-94831214D01*
X166014718Y-94831214D02*
X166014718Y-94402642D01*
X166014718Y-94402642D02*
X165943290Y-94259785D01*
X165943290Y-94259785D02*
X165871861Y-94188357D01*
X165871861Y-94188357D02*
X165729004Y-94116928D01*
X165729004Y-94116928D02*
X165443290Y-94116928D01*
X165443290Y-94116928D02*
X165300433Y-94188357D01*
X164586147Y-95116928D02*
X164586147Y-94116928D01*
X164586147Y-93616928D02*
X164657575Y-93688357D01*
X164657575Y-93688357D02*
X164586147Y-93759785D01*
X164586147Y-93759785D02*
X164514718Y-93688357D01*
X164514718Y-93688357D02*
X164586147Y-93616928D01*
X164586147Y-93616928D02*
X164586147Y-93759785D01*
X163871861Y-94116928D02*
X163871861Y-95116928D01*
X163871861Y-94259785D02*
X163800432Y-94188357D01*
X163800432Y-94188357D02*
X163657575Y-94116928D01*
X163657575Y-94116928D02*
X163443289Y-94116928D01*
X163443289Y-94116928D02*
X163300432Y-94188357D01*
X163300432Y-94188357D02*
X163229004Y-94331214D01*
X163229004Y-94331214D02*
X163229004Y-95116928D01*
X161871861Y-94116928D02*
X161871861Y-95331214D01*
X161871861Y-95331214D02*
X161943289Y-95474071D01*
X161943289Y-95474071D02*
X162014718Y-95545500D01*
X162014718Y-95545500D02*
X162157575Y-95616928D01*
X162157575Y-95616928D02*
X162371861Y-95616928D01*
X162371861Y-95616928D02*
X162514718Y-95545500D01*
X161871861Y-95045500D02*
X162014718Y-95116928D01*
X162014718Y-95116928D02*
X162300432Y-95116928D01*
X162300432Y-95116928D02*
X162443289Y-95045500D01*
X162443289Y-95045500D02*
X162514718Y-94974071D01*
X162514718Y-94974071D02*
X162586146Y-94831214D01*
X162586146Y-94831214D02*
X162586146Y-94402642D01*
X162586146Y-94402642D02*
X162514718Y-94259785D01*
X162514718Y-94259785D02*
X162443289Y-94188357D01*
X162443289Y-94188357D02*
X162300432Y-94116928D01*
X162300432Y-94116928D02*
X162014718Y-94116928D01*
X162014718Y-94116928D02*
X161871861Y-94188357D01*
X160086146Y-95045500D02*
X159871861Y-95116928D01*
X159871861Y-95116928D02*
X159514718Y-95116928D01*
X159514718Y-95116928D02*
X159371861Y-95045500D01*
X159371861Y-95045500D02*
X159300432Y-94974071D01*
X159300432Y-94974071D02*
X159229003Y-94831214D01*
X159229003Y-94831214D02*
X159229003Y-94688357D01*
X159229003Y-94688357D02*
X159300432Y-94545500D01*
X159300432Y-94545500D02*
X159371861Y-94474071D01*
X159371861Y-94474071D02*
X159514718Y-94402642D01*
X159514718Y-94402642D02*
X159800432Y-94331214D01*
X159800432Y-94331214D02*
X159943289Y-94259785D01*
X159943289Y-94259785D02*
X160014718Y-94188357D01*
X160014718Y-94188357D02*
X160086146Y-94045500D01*
X160086146Y-94045500D02*
X160086146Y-93902642D01*
X160086146Y-93902642D02*
X160014718Y-93759785D01*
X160014718Y-93759785D02*
X159943289Y-93688357D01*
X159943289Y-93688357D02*
X159800432Y-93616928D01*
X159800432Y-93616928D02*
X159443289Y-93616928D01*
X159443289Y-93616928D02*
X159229003Y-93688357D01*
X158800432Y-94116928D02*
X158229004Y-94116928D01*
X158586147Y-93616928D02*
X158586147Y-94902642D01*
X158586147Y-94902642D02*
X158514718Y-95045500D01*
X158514718Y-95045500D02*
X158371861Y-95116928D01*
X158371861Y-95116928D02*
X158229004Y-95116928D01*
X157086147Y-95116928D02*
X157086147Y-94331214D01*
X157086147Y-94331214D02*
X157157575Y-94188357D01*
X157157575Y-94188357D02*
X157300432Y-94116928D01*
X157300432Y-94116928D02*
X157586147Y-94116928D01*
X157586147Y-94116928D02*
X157729004Y-94188357D01*
X157086147Y-95045500D02*
X157229004Y-95116928D01*
X157229004Y-95116928D02*
X157586147Y-95116928D01*
X157586147Y-95116928D02*
X157729004Y-95045500D01*
X157729004Y-95045500D02*
X157800432Y-94902642D01*
X157800432Y-94902642D02*
X157800432Y-94759785D01*
X157800432Y-94759785D02*
X157729004Y-94616928D01*
X157729004Y-94616928D02*
X157586147Y-94545500D01*
X157586147Y-94545500D02*
X157229004Y-94545500D01*
X157229004Y-94545500D02*
X157086147Y-94474071D01*
X156586146Y-94116928D02*
X156014718Y-94116928D01*
X156371861Y-93616928D02*
X156371861Y-94902642D01*
X156371861Y-94902642D02*
X156300432Y-95045500D01*
X156300432Y-95045500D02*
X156157575Y-95116928D01*
X156157575Y-95116928D02*
X156014718Y-95116928D01*
X155514718Y-95116928D02*
X155514718Y-94116928D01*
X155514718Y-93616928D02*
X155586146Y-93688357D01*
X155586146Y-93688357D02*
X155514718Y-93759785D01*
X155514718Y-93759785D02*
X155443289Y-93688357D01*
X155443289Y-93688357D02*
X155514718Y-93616928D01*
X155514718Y-93616928D02*
X155514718Y-93759785D01*
X154586146Y-95116928D02*
X154729003Y-95045500D01*
X154729003Y-95045500D02*
X154800432Y-94974071D01*
X154800432Y-94974071D02*
X154871860Y-94831214D01*
X154871860Y-94831214D02*
X154871860Y-94402642D01*
X154871860Y-94402642D02*
X154800432Y-94259785D01*
X154800432Y-94259785D02*
X154729003Y-94188357D01*
X154729003Y-94188357D02*
X154586146Y-94116928D01*
X154586146Y-94116928D02*
X154371860Y-94116928D01*
X154371860Y-94116928D02*
X154229003Y-94188357D01*
X154229003Y-94188357D02*
X154157575Y-94259785D01*
X154157575Y-94259785D02*
X154086146Y-94402642D01*
X154086146Y-94402642D02*
X154086146Y-94831214D01*
X154086146Y-94831214D02*
X154157575Y-94974071D01*
X154157575Y-94974071D02*
X154229003Y-95045500D01*
X154229003Y-95045500D02*
X154371860Y-95116928D01*
X154371860Y-95116928D02*
X154586146Y-95116928D01*
X153443289Y-94116928D02*
X153443289Y-95116928D01*
X153443289Y-94259785D02*
X153371860Y-94188357D01*
X153371860Y-94188357D02*
X153229003Y-94116928D01*
X153229003Y-94116928D02*
X153014717Y-94116928D01*
X153014717Y-94116928D02*
X152871860Y-94188357D01*
X152871860Y-94188357D02*
X152800432Y-94331214D01*
X152800432Y-94331214D02*
X152800432Y-95116928D01*
X150443289Y-94331214D02*
X150229003Y-94402642D01*
X150229003Y-94402642D02*
X150157574Y-94474071D01*
X150157574Y-94474071D02*
X150086146Y-94616928D01*
X150086146Y-94616928D02*
X150086146Y-94831214D01*
X150086146Y-94831214D02*
X150157574Y-94974071D01*
X150157574Y-94974071D02*
X150229003Y-95045500D01*
X150229003Y-95045500D02*
X150371860Y-95116928D01*
X150371860Y-95116928D02*
X150943289Y-95116928D01*
X150943289Y-95116928D02*
X150943289Y-93616928D01*
X150943289Y-93616928D02*
X150443289Y-93616928D01*
X150443289Y-93616928D02*
X150300432Y-93688357D01*
X150300432Y-93688357D02*
X150229003Y-93759785D01*
X150229003Y-93759785D02*
X150157574Y-93902642D01*
X150157574Y-93902642D02*
X150157574Y-94045500D01*
X150157574Y-94045500D02*
X150229003Y-94188357D01*
X150229003Y-94188357D02*
X150300432Y-94259785D01*
X150300432Y-94259785D02*
X150443289Y-94331214D01*
X150443289Y-94331214D02*
X150943289Y-94331214D01*
X149229003Y-95116928D02*
X149371860Y-95045500D01*
X149371860Y-95045500D02*
X149443289Y-94974071D01*
X149443289Y-94974071D02*
X149514717Y-94831214D01*
X149514717Y-94831214D02*
X149514717Y-94402642D01*
X149514717Y-94402642D02*
X149443289Y-94259785D01*
X149443289Y-94259785D02*
X149371860Y-94188357D01*
X149371860Y-94188357D02*
X149229003Y-94116928D01*
X149229003Y-94116928D02*
X149014717Y-94116928D01*
X149014717Y-94116928D02*
X148871860Y-94188357D01*
X148871860Y-94188357D02*
X148800432Y-94259785D01*
X148800432Y-94259785D02*
X148729003Y-94402642D01*
X148729003Y-94402642D02*
X148729003Y-94831214D01*
X148729003Y-94831214D02*
X148800432Y-94974071D01*
X148800432Y-94974071D02*
X148871860Y-95045500D01*
X148871860Y-95045500D02*
X149014717Y-95116928D01*
X149014717Y-95116928D02*
X149229003Y-95116928D01*
X147443289Y-95116928D02*
X147443289Y-94331214D01*
X147443289Y-94331214D02*
X147514717Y-94188357D01*
X147514717Y-94188357D02*
X147657574Y-94116928D01*
X147657574Y-94116928D02*
X147943289Y-94116928D01*
X147943289Y-94116928D02*
X148086146Y-94188357D01*
X147443289Y-95045500D02*
X147586146Y-95116928D01*
X147586146Y-95116928D02*
X147943289Y-95116928D01*
X147943289Y-95116928D02*
X148086146Y-95045500D01*
X148086146Y-95045500D02*
X148157574Y-94902642D01*
X148157574Y-94902642D02*
X148157574Y-94759785D01*
X148157574Y-94759785D02*
X148086146Y-94616928D01*
X148086146Y-94616928D02*
X147943289Y-94545500D01*
X147943289Y-94545500D02*
X147586146Y-94545500D01*
X147586146Y-94545500D02*
X147443289Y-94474071D01*
X146729003Y-95116928D02*
X146729003Y-94116928D01*
X146729003Y-94402642D02*
X146657574Y-94259785D01*
X146657574Y-94259785D02*
X146586146Y-94188357D01*
X146586146Y-94188357D02*
X146443288Y-94116928D01*
X146443288Y-94116928D02*
X146300431Y-94116928D01*
X145157575Y-95116928D02*
X145157575Y-93616928D01*
X145157575Y-95045500D02*
X145300432Y-95116928D01*
X145300432Y-95116928D02*
X145586146Y-95116928D01*
X145586146Y-95116928D02*
X145729003Y-95045500D01*
X145729003Y-95045500D02*
X145800432Y-94974071D01*
X145800432Y-94974071D02*
X145871860Y-94831214D01*
X145871860Y-94831214D02*
X145871860Y-94402642D01*
X145871860Y-94402642D02*
X145800432Y-94259785D01*
X145800432Y-94259785D02*
X145729003Y-94188357D01*
X145729003Y-94188357D02*
X145586146Y-94116928D01*
X145586146Y-94116928D02*
X145300432Y-94116928D01*
X145300432Y-94116928D02*
X145157575Y-94188357D01*
X142514717Y-95116928D02*
X143371860Y-95116928D01*
X142943289Y-95116928D02*
X142943289Y-93616928D01*
X142943289Y-93616928D02*
X143086146Y-93831214D01*
X143086146Y-93831214D02*
X143229003Y-93974071D01*
X143229003Y-93974071D02*
X143371860Y-94045500D01*
X141943289Y-93759785D02*
X141871861Y-93688357D01*
X141871861Y-93688357D02*
X141729004Y-93616928D01*
X141729004Y-93616928D02*
X141371861Y-93616928D01*
X141371861Y-93616928D02*
X141229004Y-93688357D01*
X141229004Y-93688357D02*
X141157575Y-93759785D01*
X141157575Y-93759785D02*
X141086146Y-93902642D01*
X141086146Y-93902642D02*
X141086146Y-94045500D01*
X141086146Y-94045500D02*
X141157575Y-94259785D01*
X141157575Y-94259785D02*
X142014718Y-95116928D01*
X142014718Y-95116928D02*
X141086146Y-95116928D01*
X140514718Y-95045500D02*
X140371861Y-95116928D01*
X140371861Y-95116928D02*
X140086147Y-95116928D01*
X140086147Y-95116928D02*
X139943290Y-95045500D01*
X139943290Y-95045500D02*
X139871861Y-94902642D01*
X139871861Y-94902642D02*
X139871861Y-94831214D01*
X139871861Y-94831214D02*
X139943290Y-94688357D01*
X139943290Y-94688357D02*
X140086147Y-94616928D01*
X140086147Y-94616928D02*
X140300433Y-94616928D01*
X140300433Y-94616928D02*
X140443290Y-94545500D01*
X140443290Y-94545500D02*
X140514718Y-94402642D01*
X140514718Y-94402642D02*
X140514718Y-94331214D01*
X140514718Y-94331214D02*
X140443290Y-94188357D01*
X140443290Y-94188357D02*
X140300433Y-94116928D01*
X140300433Y-94116928D02*
X140086147Y-94116928D01*
X140086147Y-94116928D02*
X139943290Y-94188357D01*
X139229004Y-95116928D02*
X139229004Y-93616928D01*
X139229004Y-93616928D02*
X138371861Y-95116928D01*
X138371861Y-95116928D02*
X138371861Y-93616928D01*
X137657575Y-94116928D02*
X137657575Y-95616928D01*
X137657575Y-94188357D02*
X137514718Y-94116928D01*
X137514718Y-94116928D02*
X137229003Y-94116928D01*
X137229003Y-94116928D02*
X137086146Y-94188357D01*
X137086146Y-94188357D02*
X137014718Y-94259785D01*
X137014718Y-94259785D02*
X136943289Y-94402642D01*
X136943289Y-94402642D02*
X136943289Y-94831214D01*
X136943289Y-94831214D02*
X137014718Y-94974071D01*
X137014718Y-94974071D02*
X137086146Y-95045500D01*
X137086146Y-95045500D02*
X137229003Y-95116928D01*
X137229003Y-95116928D02*
X137514718Y-95116928D01*
X137514718Y-95116928D02*
X137657575Y-95045500D01*
X135371860Y-93616928D02*
X134871860Y-95116928D01*
X134871860Y-95116928D02*
X134371860Y-93616928D01*
X133086146Y-95116928D02*
X133943289Y-95116928D01*
X133514718Y-95116928D02*
X133514718Y-93616928D01*
X133514718Y-93616928D02*
X133657575Y-93831214D01*
X133657575Y-93831214D02*
X133800432Y-93974071D01*
X133800432Y-93974071D02*
X133943289Y-94045500D01*
D11*
X132330000Y-92780000D02*
X171950000Y-92780000D01*
X171950000Y-95980000D01*
X132330000Y-95980000D01*
X132330000Y-92780000D01*
X169357068Y-68095514D02*
X169142782Y-68166942D01*
X169142782Y-68166942D02*
X169071353Y-68238371D01*
X169071353Y-68238371D02*
X168999925Y-68381228D01*
X168999925Y-68381228D02*
X168999925Y-68595514D01*
X168999925Y-68595514D02*
X169071353Y-68738371D01*
X169071353Y-68738371D02*
X169142782Y-68809800D01*
X169142782Y-68809800D02*
X169285639Y-68881228D01*
X169285639Y-68881228D02*
X169857068Y-68881228D01*
X169857068Y-68881228D02*
X169857068Y-67381228D01*
X169857068Y-67381228D02*
X169357068Y-67381228D01*
X169357068Y-67381228D02*
X169214211Y-67452657D01*
X169214211Y-67452657D02*
X169142782Y-67524085D01*
X169142782Y-67524085D02*
X169071353Y-67666942D01*
X169071353Y-67666942D02*
X169071353Y-67809800D01*
X169071353Y-67809800D02*
X169142782Y-67952657D01*
X169142782Y-67952657D02*
X169214211Y-68024085D01*
X169214211Y-68024085D02*
X169357068Y-68095514D01*
X169357068Y-68095514D02*
X169857068Y-68095514D01*
X167714211Y-68881228D02*
X167714211Y-68095514D01*
X167714211Y-68095514D02*
X167785639Y-67952657D01*
X167785639Y-67952657D02*
X167928496Y-67881228D01*
X167928496Y-67881228D02*
X168214211Y-67881228D01*
X168214211Y-67881228D02*
X168357068Y-67952657D01*
X167714211Y-68809800D02*
X167857068Y-68881228D01*
X167857068Y-68881228D02*
X168214211Y-68881228D01*
X168214211Y-68881228D02*
X168357068Y-68809800D01*
X168357068Y-68809800D02*
X168428496Y-68666942D01*
X168428496Y-68666942D02*
X168428496Y-68524085D01*
X168428496Y-68524085D02*
X168357068Y-68381228D01*
X168357068Y-68381228D02*
X168214211Y-68309800D01*
X168214211Y-68309800D02*
X167857068Y-68309800D01*
X167857068Y-68309800D02*
X167714211Y-68238371D01*
X166785639Y-68881228D02*
X166928496Y-68809800D01*
X166928496Y-68809800D02*
X166999925Y-68666942D01*
X166999925Y-68666942D02*
X166999925Y-67381228D01*
X165571354Y-68881228D02*
X165571354Y-68095514D01*
X165571354Y-68095514D02*
X165642782Y-67952657D01*
X165642782Y-67952657D02*
X165785639Y-67881228D01*
X165785639Y-67881228D02*
X166071354Y-67881228D01*
X166071354Y-67881228D02*
X166214211Y-67952657D01*
X165571354Y-68809800D02*
X165714211Y-68881228D01*
X165714211Y-68881228D02*
X166071354Y-68881228D01*
X166071354Y-68881228D02*
X166214211Y-68809800D01*
X166214211Y-68809800D02*
X166285639Y-68666942D01*
X166285639Y-68666942D02*
X166285639Y-68524085D01*
X166285639Y-68524085D02*
X166214211Y-68381228D01*
X166214211Y-68381228D02*
X166071354Y-68309800D01*
X166071354Y-68309800D02*
X165714211Y-68309800D01*
X165714211Y-68309800D02*
X165571354Y-68238371D01*
X164857068Y-67881228D02*
X164857068Y-68881228D01*
X164857068Y-68024085D02*
X164785639Y-67952657D01*
X164785639Y-67952657D02*
X164642782Y-67881228D01*
X164642782Y-67881228D02*
X164428496Y-67881228D01*
X164428496Y-67881228D02*
X164285639Y-67952657D01*
X164285639Y-67952657D02*
X164214211Y-68095514D01*
X164214211Y-68095514D02*
X164214211Y-68881228D01*
X162857068Y-68809800D02*
X162999925Y-68881228D01*
X162999925Y-68881228D02*
X163285639Y-68881228D01*
X163285639Y-68881228D02*
X163428496Y-68809800D01*
X163428496Y-68809800D02*
X163499925Y-68738371D01*
X163499925Y-68738371D02*
X163571353Y-68595514D01*
X163571353Y-68595514D02*
X163571353Y-68166942D01*
X163571353Y-68166942D02*
X163499925Y-68024085D01*
X163499925Y-68024085D02*
X163428496Y-67952657D01*
X163428496Y-67952657D02*
X163285639Y-67881228D01*
X163285639Y-67881228D02*
X162999925Y-67881228D01*
X162999925Y-67881228D02*
X162857068Y-67952657D01*
X161642782Y-68809800D02*
X161785639Y-68881228D01*
X161785639Y-68881228D02*
X162071354Y-68881228D01*
X162071354Y-68881228D02*
X162214211Y-68809800D01*
X162214211Y-68809800D02*
X162285639Y-68666942D01*
X162285639Y-68666942D02*
X162285639Y-68095514D01*
X162285639Y-68095514D02*
X162214211Y-67952657D01*
X162214211Y-67952657D02*
X162071354Y-67881228D01*
X162071354Y-67881228D02*
X161785639Y-67881228D01*
X161785639Y-67881228D02*
X161642782Y-67952657D01*
X161642782Y-67952657D02*
X161571354Y-68095514D01*
X161571354Y-68095514D02*
X161571354Y-68238371D01*
X161571354Y-68238371D02*
X162285639Y-68381228D01*
X159928497Y-67381228D02*
X159571354Y-68881228D01*
X159571354Y-68881228D02*
X159285640Y-67809800D01*
X159285640Y-67809800D02*
X158999925Y-68881228D01*
X158999925Y-68881228D02*
X158642783Y-67381228D01*
X158071354Y-68881228D02*
X158071354Y-67881228D01*
X158071354Y-67381228D02*
X158142782Y-67452657D01*
X158142782Y-67452657D02*
X158071354Y-67524085D01*
X158071354Y-67524085D02*
X157999925Y-67452657D01*
X157999925Y-67452657D02*
X158071354Y-67381228D01*
X158071354Y-67381228D02*
X158071354Y-67524085D01*
X157357068Y-68881228D02*
X157357068Y-67881228D01*
X157357068Y-68166942D02*
X157285639Y-68024085D01*
X157285639Y-68024085D02*
X157214211Y-67952657D01*
X157214211Y-67952657D02*
X157071353Y-67881228D01*
X157071353Y-67881228D02*
X156928496Y-67881228D01*
X155857068Y-68809800D02*
X155999925Y-68881228D01*
X155999925Y-68881228D02*
X156285640Y-68881228D01*
X156285640Y-68881228D02*
X156428497Y-68809800D01*
X156428497Y-68809800D02*
X156499925Y-68666942D01*
X156499925Y-68666942D02*
X156499925Y-68095514D01*
X156499925Y-68095514D02*
X156428497Y-67952657D01*
X156428497Y-67952657D02*
X156285640Y-67881228D01*
X156285640Y-67881228D02*
X155999925Y-67881228D01*
X155999925Y-67881228D02*
X155857068Y-67952657D01*
X155857068Y-67952657D02*
X155785640Y-68095514D01*
X155785640Y-68095514D02*
X155785640Y-68238371D01*
X155785640Y-68238371D02*
X156499925Y-68381228D01*
X155214211Y-68809800D02*
X155071354Y-68881228D01*
X155071354Y-68881228D02*
X154785640Y-68881228D01*
X154785640Y-68881228D02*
X154642783Y-68809800D01*
X154642783Y-68809800D02*
X154571354Y-68666942D01*
X154571354Y-68666942D02*
X154571354Y-68595514D01*
X154571354Y-68595514D02*
X154642783Y-68452657D01*
X154642783Y-68452657D02*
X154785640Y-68381228D01*
X154785640Y-68381228D02*
X154999926Y-68381228D01*
X154999926Y-68381228D02*
X155142783Y-68309800D01*
X155142783Y-68309800D02*
X155214211Y-68166942D01*
X155214211Y-68166942D02*
X155214211Y-68095514D01*
X155214211Y-68095514D02*
X155142783Y-67952657D01*
X155142783Y-67952657D02*
X154999926Y-67881228D01*
X154999926Y-67881228D02*
X154785640Y-67881228D01*
X154785640Y-67881228D02*
X154642783Y-67952657D01*
X148232306Y-65790038D02*
X148327544Y-65742419D01*
X148327544Y-65742419D02*
X148470401Y-65742419D01*
X148470401Y-65742419D02*
X148613258Y-65790038D01*
X148613258Y-65790038D02*
X148708496Y-65885276D01*
X148708496Y-65885276D02*
X148756115Y-65980514D01*
X148756115Y-65980514D02*
X148803734Y-66170990D01*
X148803734Y-66170990D02*
X148803734Y-66313847D01*
X148803734Y-66313847D02*
X148756115Y-66504323D01*
X148756115Y-66504323D02*
X148708496Y-66599561D01*
X148708496Y-66599561D02*
X148613258Y-66694800D01*
X148613258Y-66694800D02*
X148470401Y-66742419D01*
X148470401Y-66742419D02*
X148375163Y-66742419D01*
X148375163Y-66742419D02*
X148232306Y-66694800D01*
X148232306Y-66694800D02*
X148184687Y-66647180D01*
X148184687Y-66647180D02*
X148184687Y-66313847D01*
X148184687Y-66313847D02*
X148375163Y-66313847D01*
X147756115Y-66742419D02*
X147756115Y-65742419D01*
X147756115Y-65742419D02*
X147184687Y-66742419D01*
X147184687Y-66742419D02*
X147184687Y-65742419D01*
X146708496Y-66742419D02*
X146708496Y-65742419D01*
X146708496Y-65742419D02*
X146470401Y-65742419D01*
X146470401Y-65742419D02*
X146327544Y-65790038D01*
X146327544Y-65790038D02*
X146232306Y-65885276D01*
X146232306Y-65885276D02*
X146184687Y-65980514D01*
X146184687Y-65980514D02*
X146137068Y-66170990D01*
X146137068Y-66170990D02*
X146137068Y-66313847D01*
X146137068Y-66313847D02*
X146184687Y-66504323D01*
X146184687Y-66504323D02*
X146232306Y-66599561D01*
X146232306Y-66599561D02*
X146327544Y-66694800D01*
X146327544Y-66694800D02*
X146470401Y-66742419D01*
X146470401Y-66742419D02*
X146708496Y-66742419D01*
X141498972Y-71522419D02*
X141165639Y-72522419D01*
X141165639Y-72522419D02*
X140832306Y-71522419D01*
X140498972Y-72522419D02*
X140498972Y-71522419D01*
X140498972Y-71903371D02*
X140403734Y-71855752D01*
X140403734Y-71855752D02*
X140213258Y-71855752D01*
X140213258Y-71855752D02*
X140118020Y-71903371D01*
X140118020Y-71903371D02*
X140070401Y-71950990D01*
X140070401Y-71950990D02*
X140022782Y-72046228D01*
X140022782Y-72046228D02*
X140022782Y-72331942D01*
X140022782Y-72331942D02*
X140070401Y-72427180D01*
X140070401Y-72427180D02*
X140118020Y-72474800D01*
X140118020Y-72474800D02*
X140213258Y-72522419D01*
X140213258Y-72522419D02*
X140403734Y-72522419D01*
X140403734Y-72522419D02*
X140498972Y-72474800D01*
X139165639Y-72522419D02*
X139165639Y-71998609D01*
X139165639Y-71998609D02*
X139213258Y-71903371D01*
X139213258Y-71903371D02*
X139308496Y-71855752D01*
X139308496Y-71855752D02*
X139498972Y-71855752D01*
X139498972Y-71855752D02*
X139594210Y-71903371D01*
X139165639Y-72474800D02*
X139260877Y-72522419D01*
X139260877Y-72522419D02*
X139498972Y-72522419D01*
X139498972Y-72522419D02*
X139594210Y-72474800D01*
X139594210Y-72474800D02*
X139641829Y-72379561D01*
X139641829Y-72379561D02*
X139641829Y-72284323D01*
X139641829Y-72284323D02*
X139594210Y-72189085D01*
X139594210Y-72189085D02*
X139498972Y-72141466D01*
X139498972Y-72141466D02*
X139260877Y-72141466D01*
X139260877Y-72141466D02*
X139165639Y-72093847D01*
X138832305Y-71855752D02*
X138451353Y-71855752D01*
X138689448Y-71522419D02*
X138689448Y-72379561D01*
X138689448Y-72379561D02*
X138641829Y-72474800D01*
X138641829Y-72474800D02*
X138546591Y-72522419D01*
X138546591Y-72522419D02*
X138451353Y-72522419D01*
X138260876Y-71855752D02*
X137879924Y-71855752D01*
X138118019Y-71522419D02*
X138118019Y-72379561D01*
X138118019Y-72379561D02*
X138070400Y-72474800D01*
X138070400Y-72474800D02*
X137975162Y-72522419D01*
X137975162Y-72522419D02*
X137879924Y-72522419D01*
X130682306Y-71390038D02*
X130777544Y-71342419D01*
X130777544Y-71342419D02*
X130920401Y-71342419D01*
X130920401Y-71342419D02*
X131063258Y-71390038D01*
X131063258Y-71390038D02*
X131158496Y-71485276D01*
X131158496Y-71485276D02*
X131206115Y-71580514D01*
X131206115Y-71580514D02*
X131253734Y-71770990D01*
X131253734Y-71770990D02*
X131253734Y-71913847D01*
X131253734Y-71913847D02*
X131206115Y-72104323D01*
X131206115Y-72104323D02*
X131158496Y-72199561D01*
X131158496Y-72199561D02*
X131063258Y-72294800D01*
X131063258Y-72294800D02*
X130920401Y-72342419D01*
X130920401Y-72342419D02*
X130825163Y-72342419D01*
X130825163Y-72342419D02*
X130682306Y-72294800D01*
X130682306Y-72294800D02*
X130634687Y-72247180D01*
X130634687Y-72247180D02*
X130634687Y-71913847D01*
X130634687Y-71913847D02*
X130825163Y-71913847D01*
X130206115Y-72342419D02*
X130206115Y-71342419D01*
X130206115Y-71342419D02*
X129634687Y-72342419D01*
X129634687Y-72342419D02*
X129634687Y-71342419D01*
X129158496Y-72342419D02*
X129158496Y-71342419D01*
X129158496Y-71342419D02*
X128920401Y-71342419D01*
X128920401Y-71342419D02*
X128777544Y-71390038D01*
X128777544Y-71390038D02*
X128682306Y-71485276D01*
X128682306Y-71485276D02*
X128634687Y-71580514D01*
X128634687Y-71580514D02*
X128587068Y-71770990D01*
X128587068Y-71770990D02*
X128587068Y-71913847D01*
X128587068Y-71913847D02*
X128634687Y-72104323D01*
X128634687Y-72104323D02*
X128682306Y-72199561D01*
X128682306Y-72199561D02*
X128777544Y-72294800D01*
X128777544Y-72294800D02*
X128920401Y-72342419D01*
X128920401Y-72342419D02*
X129158496Y-72342419D01*
X179548972Y-65582419D02*
X179215639Y-66582419D01*
X179215639Y-66582419D02*
X178882306Y-65582419D01*
X178548972Y-66582419D02*
X178548972Y-65582419D01*
X178548972Y-65963371D02*
X178453734Y-65915752D01*
X178453734Y-65915752D02*
X178263258Y-65915752D01*
X178263258Y-65915752D02*
X178168020Y-65963371D01*
X178168020Y-65963371D02*
X178120401Y-66010990D01*
X178120401Y-66010990D02*
X178072782Y-66106228D01*
X178072782Y-66106228D02*
X178072782Y-66391942D01*
X178072782Y-66391942D02*
X178120401Y-66487180D01*
X178120401Y-66487180D02*
X178168020Y-66534800D01*
X178168020Y-66534800D02*
X178263258Y-66582419D01*
X178263258Y-66582419D02*
X178453734Y-66582419D01*
X178453734Y-66582419D02*
X178548972Y-66534800D01*
X177215639Y-66582419D02*
X177215639Y-66058609D01*
X177215639Y-66058609D02*
X177263258Y-65963371D01*
X177263258Y-65963371D02*
X177358496Y-65915752D01*
X177358496Y-65915752D02*
X177548972Y-65915752D01*
X177548972Y-65915752D02*
X177644210Y-65963371D01*
X177215639Y-66534800D02*
X177310877Y-66582419D01*
X177310877Y-66582419D02*
X177548972Y-66582419D01*
X177548972Y-66582419D02*
X177644210Y-66534800D01*
X177644210Y-66534800D02*
X177691829Y-66439561D01*
X177691829Y-66439561D02*
X177691829Y-66344323D01*
X177691829Y-66344323D02*
X177644210Y-66249085D01*
X177644210Y-66249085D02*
X177548972Y-66201466D01*
X177548972Y-66201466D02*
X177310877Y-66201466D01*
X177310877Y-66201466D02*
X177215639Y-66153847D01*
X176882305Y-65915752D02*
X176501353Y-65915752D01*
X176739448Y-65582419D02*
X176739448Y-66439561D01*
X176739448Y-66439561D02*
X176691829Y-66534800D01*
X176691829Y-66534800D02*
X176596591Y-66582419D01*
X176596591Y-66582419D02*
X176501353Y-66582419D01*
X176310876Y-65915752D02*
X175929924Y-65915752D01*
X176168019Y-65582419D02*
X176168019Y-66439561D01*
X176168019Y-66439561D02*
X176120400Y-66534800D01*
X176120400Y-66534800D02*
X176025162Y-66582419D01*
X176025162Y-66582419D02*
X175929924Y-66582419D01*
X141317068Y-75251228D02*
X141317068Y-73751228D01*
X141317068Y-73751228D02*
X140745639Y-73751228D01*
X140745639Y-73751228D02*
X140602782Y-73822657D01*
X140602782Y-73822657D02*
X140531353Y-73894085D01*
X140531353Y-73894085D02*
X140459925Y-74036942D01*
X140459925Y-74036942D02*
X140459925Y-74251228D01*
X140459925Y-74251228D02*
X140531353Y-74394085D01*
X140531353Y-74394085D02*
X140602782Y-74465514D01*
X140602782Y-74465514D02*
X140745639Y-74536942D01*
X140745639Y-74536942D02*
X141317068Y-74536942D01*
X139602782Y-75251228D02*
X139745639Y-75179800D01*
X139745639Y-75179800D02*
X139817068Y-75108371D01*
X139817068Y-75108371D02*
X139888496Y-74965514D01*
X139888496Y-74965514D02*
X139888496Y-74536942D01*
X139888496Y-74536942D02*
X139817068Y-74394085D01*
X139817068Y-74394085D02*
X139745639Y-74322657D01*
X139745639Y-74322657D02*
X139602782Y-74251228D01*
X139602782Y-74251228D02*
X139388496Y-74251228D01*
X139388496Y-74251228D02*
X139245639Y-74322657D01*
X139245639Y-74322657D02*
X139174211Y-74394085D01*
X139174211Y-74394085D02*
X139102782Y-74536942D01*
X139102782Y-74536942D02*
X139102782Y-74965514D01*
X139102782Y-74965514D02*
X139174211Y-75108371D01*
X139174211Y-75108371D02*
X139245639Y-75179800D01*
X139245639Y-75179800D02*
X139388496Y-75251228D01*
X139388496Y-75251228D02*
X139602782Y-75251228D01*
X138602782Y-74251228D02*
X138317068Y-75251228D01*
X138317068Y-75251228D02*
X138031353Y-74536942D01*
X138031353Y-74536942D02*
X137745639Y-75251228D01*
X137745639Y-75251228D02*
X137459925Y-74251228D01*
X136317067Y-75179800D02*
X136459924Y-75251228D01*
X136459924Y-75251228D02*
X136745639Y-75251228D01*
X136745639Y-75251228D02*
X136888496Y-75179800D01*
X136888496Y-75179800D02*
X136959924Y-75036942D01*
X136959924Y-75036942D02*
X136959924Y-74465514D01*
X136959924Y-74465514D02*
X136888496Y-74322657D01*
X136888496Y-74322657D02*
X136745639Y-74251228D01*
X136745639Y-74251228D02*
X136459924Y-74251228D01*
X136459924Y-74251228D02*
X136317067Y-74322657D01*
X136317067Y-74322657D02*
X136245639Y-74465514D01*
X136245639Y-74465514D02*
X136245639Y-74608371D01*
X136245639Y-74608371D02*
X136959924Y-74751228D01*
X135602782Y-75251228D02*
X135602782Y-74251228D01*
X135602782Y-74536942D02*
X135531353Y-74394085D01*
X135531353Y-74394085D02*
X135459925Y-74322657D01*
X135459925Y-74322657D02*
X135317067Y-74251228D01*
X135317067Y-74251228D02*
X135174210Y-74251228D01*
X133674211Y-73751228D02*
X133317068Y-75251228D01*
X133317068Y-75251228D02*
X133031354Y-74179800D01*
X133031354Y-74179800D02*
X132745639Y-75251228D01*
X132745639Y-75251228D02*
X132388497Y-73751228D01*
X131817068Y-75251228D02*
X131817068Y-74251228D01*
X131817068Y-73751228D02*
X131888496Y-73822657D01*
X131888496Y-73822657D02*
X131817068Y-73894085D01*
X131817068Y-73894085D02*
X131745639Y-73822657D01*
X131745639Y-73822657D02*
X131817068Y-73751228D01*
X131817068Y-73751228D02*
X131817068Y-73894085D01*
X131102782Y-75251228D02*
X131102782Y-74251228D01*
X131102782Y-74536942D02*
X131031353Y-74394085D01*
X131031353Y-74394085D02*
X130959925Y-74322657D01*
X130959925Y-74322657D02*
X130817067Y-74251228D01*
X130817067Y-74251228D02*
X130674210Y-74251228D01*
X129602782Y-75179800D02*
X129745639Y-75251228D01*
X129745639Y-75251228D02*
X130031354Y-75251228D01*
X130031354Y-75251228D02*
X130174211Y-75179800D01*
X130174211Y-75179800D02*
X130245639Y-75036942D01*
X130245639Y-75036942D02*
X130245639Y-74465514D01*
X130245639Y-74465514D02*
X130174211Y-74322657D01*
X130174211Y-74322657D02*
X130031354Y-74251228D01*
X130031354Y-74251228D02*
X129745639Y-74251228D01*
X129745639Y-74251228D02*
X129602782Y-74322657D01*
X129602782Y-74322657D02*
X129531354Y-74465514D01*
X129531354Y-74465514D02*
X129531354Y-74608371D01*
X129531354Y-74608371D02*
X130245639Y-74751228D01*
X128959925Y-75179800D02*
X128817068Y-75251228D01*
X128817068Y-75251228D02*
X128531354Y-75251228D01*
X128531354Y-75251228D02*
X128388497Y-75179800D01*
X128388497Y-75179800D02*
X128317068Y-75036942D01*
X128317068Y-75036942D02*
X128317068Y-74965514D01*
X128317068Y-74965514D02*
X128388497Y-74822657D01*
X128388497Y-74822657D02*
X128531354Y-74751228D01*
X128531354Y-74751228D02*
X128745640Y-74751228D01*
X128745640Y-74751228D02*
X128888497Y-74679800D01*
X128888497Y-74679800D02*
X128959925Y-74536942D01*
X128959925Y-74536942D02*
X128959925Y-74465514D01*
X128959925Y-74465514D02*
X128888497Y-74322657D01*
X128888497Y-74322657D02*
X128745640Y-74251228D01*
X128745640Y-74251228D02*
X128531354Y-74251228D01*
X128531354Y-74251228D02*
X128388497Y-74322657D01*
M02*
