M48
; DRILL file {KiCad 9.0.2} date 2026-09-24T20:30:51-0400
; FORMAT={-:-/ absolute / metric / decimal}
; #@! TF.CreationDate,2026-09-24T20:30:51-04:00
; #@! TF.GenerationSoftware,Kicad,Pcbnew,9.0.2
; #@! TF.FileFunction,Plated,1,6,PTH
FMAT,2
METRIC
; #@! TA.AperFunction,Plated,PTH,ViaDrill
T1C0.300
; #@! TA.AperFunction,Plated,PTH,ComponentDrill
T2C1.000
; #@! TA.AperFunction,Plated,PTH,ComponentDrill
T3C3.200
%
G90
G05
T1
X86.67Y-93.63
X86.67Y-96.13
X89.17Y-91.09
X89.17Y-93.59
X89.17Y-96.09
X91.67Y-91.09
X91.67Y-93.59
X91.67Y-96.09
X93.8Y-103.43
X93.8Y-105.93
X94.17Y-91.09
X94.17Y-93.59
X94.17Y-96.09
X96.2Y-103.41
X96.2Y-105.91
X96.2Y-108.41
X96.67Y-91.09
X96.67Y-93.59
X96.67Y-96.09
X98.7Y-103.41
X98.7Y-105.91
X98.7Y-108.41
X99.17Y-91.09
X99.17Y-93.59
X99.17Y-96.09
X101.2Y-103.41
X101.2Y-105.91
X101.2Y-108.41
X101.67Y-91.09
X101.67Y-93.59
X101.67Y-96.09
X103.7Y-103.41
X103.7Y-105.91
X103.7Y-108.41
X104.17Y-91.09
X104.17Y-93.59
X104.17Y-96.09
X106.2Y-103.41
X106.2Y-105.91
X106.2Y-108.41
X106.67Y-91.09
X106.67Y-93.59
X106.67Y-96.09
X108.7Y-103.41
X108.7Y-105.91
X108.7Y-108.41
X109.17Y-91.09
X109.17Y-93.59
X109.17Y-96.09
X111.2Y-103.41
X111.2Y-105.91
X111.2Y-108.41
X111.67Y-91.09
X111.67Y-93.59
X111.67Y-96.09
X113.7Y-103.41
X113.7Y-105.91
X113.7Y-108.41
X114.17Y-91.09
X114.17Y-93.59
X114.17Y-96.09
X116.2Y-103.41
X116.2Y-105.91
X116.2Y-108.41
X116.67Y-91.09
X116.67Y-93.59
X116.67Y-96.09
X118.75Y-102.0
X118.75Y-103.5
X118.75Y-105.0
X118.75Y-106.5
X118.75Y-108.0
X118.79Y-92.03
X118.79Y-93.53
X118.79Y-95.03
X118.79Y-96.53
X118.79Y-98.03
X120.25Y-102.0
X120.25Y-103.5
X120.25Y-105.0
X120.25Y-106.5
X120.25Y-108.0
X120.29Y-92.03
X120.29Y-93.53
X120.29Y-95.03
X120.29Y-96.53
X120.29Y-98.03
X121.75Y-102.0
X121.75Y-103.5
X121.75Y-105.0
X121.75Y-106.5
X121.75Y-108.0
X121.79Y-92.03
X121.79Y-93.53
X121.79Y-95.03
X121.79Y-96.53
X121.79Y-98.03
X123.25Y-102.0
X123.25Y-103.5
X123.25Y-105.0
X123.25Y-106.5
X123.25Y-108.0
X123.29Y-92.03
X123.29Y-93.53
X123.29Y-95.03
X123.29Y-96.53
X123.29Y-98.03
X124.75Y-102.0
X124.75Y-103.5
X124.75Y-105.0
X124.75Y-106.5
X124.75Y-108.0
X124.79Y-92.03
X124.79Y-93.53
X124.79Y-95.03
X124.79Y-96.53
X124.79Y-98.03
T3
X80.0Y-80.0
X80.0Y-120.0
X120.0Y-80.0
X120.0Y-120.0
T2
G00X85.15Y-100.7
M15
G01X85.15Y-99.3
M16
G05
G00X87.85Y-100.7
M15
G01X87.85Y-99.3
M16
G05
G00X90.55Y-100.7
M15
G01X90.55Y-99.3
M16
G05
G00X93.25Y-100.7
M15
G01X93.25Y-99.3
M16
G05
G00X95.95Y-100.7
M15
G01X95.95Y-99.3
M16
G05
G00X98.65Y-100.7
M15
G01X98.65Y-99.3
M16
G05
G00X101.35Y-100.7
M15
G01X101.35Y-99.3
M16
G05
G00X104.05Y-100.7
M15
G01X104.05Y-99.3
M16
G05
G00X106.75Y-100.7
M15
G01X106.75Y-99.3
M16
G05
G00X109.45Y-100.7
M15
G01X109.45Y-99.3
M16
G05
G00X112.15Y-100.7
M15
G01X112.15Y-99.3
M16
G05
G00X114.85Y-100.7
M15
G01X114.85Y-99.3
M16
G05
M30
