%TF.GenerationSoftware,KiCad,Pcbnew,9.0.2*%
%TF.CreationDate,2026-09-24T20:30:55-04:00*%
%TF.ProjectId,VehicleAdapterBoard_V1,56656869-636c-4654-9164-617074657242,rev?*%
%TF.SameCoordinates,Original*%
%TF.FileFunction,Copper,L3,Inr*%
%TF.FilePolarity,Positive*%
%FSLAX46Y46*%
G04 Gerber Fmt 4.6, Leading zero omitted, Abs format (unit mm)*
G04 Created by KiCad (PCBNEW 9.0.2) date 2026-09-24 20:30:55*
%MOMM*%
%LPD*%
G01*
G04 APERTURE LIST*
G04 Aperture macros list*
%AMRoundRect*
0 Rectangle with rounded corners*
0 $1 Rounding radius*
0 $2 $3 $4 $5 $6 $7 $8 $9 X,Y pos of 4 corners*
0 Add a 4 corners polygon primitive as box body*
4,1,4,$2,$3,$4,$5,$6,$7,$8,$9,$2,$3,0*
0 Add four circle primitives for the rounded corners*
1,1,$1+$1,$2,$3*
1,1,$1+$1,$4,$5*
1,1,$1+$1,$6,$7*
1,1,$1+$1,$8,$9*
0 Add four rect primitives between the rounded corners*
20,1,$1+$1,$2,$3,$4,$5,0*
20,1,$1+$1,$4,$5,$6,$7,0*
20,1,$1+$1,$6,$7,$8,$9,0*
20,1,$1+$1,$8,$9,$2,$3,0*%
G04 Aperture macros list end*
%TA.AperFunction,ComponentPad*%
%ADD10C,3.600000*%
%TD*%
%TA.AperFunction,ComponentPad*%
%ADD11RoundRect,0.240000X0.560000X1.260000X-0.560000X1.260000X-0.560000X-1.260000X0.560000X-1.260000X0*%
%TD*%
%TA.AperFunction,ViaPad*%
%ADD12C,0.600000*%
%TD*%
G04 APERTURE END LIST*
D10*
%TO.N,N/C*%
%TO.C,REF\u002A\u002A*%
X120000000Y-80000000D03*
%TD*%
%TO.N,N/C*%
%TO.C,REF\u002A\u002A*%
X120000000Y-120000000D03*
%TD*%
%TO.N,N/C*%
%TO.C,REF\u002A\u002A*%
X80000000Y-120000000D03*
%TD*%
D11*
%TO.N,Vbatt-*%
%TO.C,J1*%
X85150000Y-100000000D03*
X87850000Y-100000000D03*
X90550000Y-100000000D03*
%TO.N,Vbatt+*%
X93250000Y-100000000D03*
X95950000Y-100000000D03*
X98650000Y-100000000D03*
X101350000Y-100000000D03*
X104050000Y-100000000D03*
X106750000Y-100000000D03*
%TO.N,Vbatt-*%
X109450000Y-100000000D03*
X112150000Y-100000000D03*
X114850000Y-100000000D03*
%TD*%
D10*
%TO.N,N/C*%
%TO.C,REF\u002A\u002A*%
X80000000Y-80000000D03*
%TD*%
D12*
%TO.N,Vbatt-*%
X94170000Y-91090000D03*
X116670000Y-91090000D03*
X111670000Y-96090000D03*
X123290000Y-92030000D03*
X124790000Y-93530000D03*
X120290000Y-95030000D03*
X121790000Y-96530000D03*
X121790000Y-92030000D03*
X124790000Y-98030000D03*
X86670000Y-96130000D03*
X104170000Y-93590000D03*
X123290000Y-96530000D03*
X123290000Y-93530000D03*
X94170000Y-96090000D03*
X120290000Y-96530000D03*
X89170000Y-91090000D03*
X118790000Y-95030000D03*
X116670000Y-96090000D03*
X118790000Y-93530000D03*
X89170000Y-96090000D03*
X120290000Y-92030000D03*
X96670000Y-91090000D03*
X106670000Y-91090000D03*
X99170000Y-93590000D03*
X101670000Y-96090000D03*
X118790000Y-96530000D03*
X96670000Y-93590000D03*
X121790000Y-93530000D03*
X96670000Y-96090000D03*
X120290000Y-98030000D03*
X109170000Y-91090000D03*
X109170000Y-93590000D03*
X120290000Y-93530000D03*
X91670000Y-96090000D03*
X114170000Y-93590000D03*
X99170000Y-96090000D03*
X114170000Y-91090000D03*
X94170000Y-93590000D03*
X116670000Y-93590000D03*
X124790000Y-95030000D03*
X101670000Y-93590000D03*
X123290000Y-98030000D03*
X89170000Y-93590000D03*
X106670000Y-93590000D03*
X86670000Y-93630000D03*
X104170000Y-91090000D03*
X118790000Y-98030000D03*
X91670000Y-91090000D03*
X109170000Y-96090000D03*
X124790000Y-92030000D03*
X99170000Y-91090000D03*
X91670000Y-93590000D03*
X118790000Y-92030000D03*
X106670000Y-96090000D03*
X101670000Y-91090000D03*
X121790000Y-95030000D03*
X114170000Y-96090000D03*
X124790000Y-96530000D03*
X123290000Y-95030000D03*
X121790000Y-98030000D03*
X111670000Y-91090000D03*
X104170000Y-96090000D03*
X111670000Y-93590000D03*
%TO.N,Vbatt+*%
X124750000Y-108000000D03*
X113700000Y-103410000D03*
X111200000Y-108410000D03*
X111200000Y-105910000D03*
X116200000Y-103410000D03*
X123250000Y-108000000D03*
X93800000Y-103430000D03*
X116200000Y-108410000D03*
X121750000Y-102000000D03*
X113700000Y-105910000D03*
X121750000Y-108000000D03*
X123250000Y-102000000D03*
X103700000Y-108410000D03*
X118750000Y-102000000D03*
X118750000Y-105000000D03*
X120250000Y-103500000D03*
X123250000Y-106500000D03*
X101200000Y-108410000D03*
X111200000Y-103410000D03*
X120250000Y-106500000D03*
X101200000Y-105910000D03*
X118750000Y-108000000D03*
X118750000Y-106500000D03*
X120250000Y-108000000D03*
X120250000Y-105000000D03*
X124750000Y-105000000D03*
X96200000Y-103410000D03*
X121750000Y-103500000D03*
X101200000Y-103410000D03*
X121750000Y-105000000D03*
X118750000Y-103500000D03*
X120250000Y-102000000D03*
X123250000Y-103500000D03*
X98700000Y-105910000D03*
X96200000Y-108410000D03*
X98700000Y-108410000D03*
X103700000Y-103410000D03*
X116200000Y-105910000D03*
X98700000Y-103410000D03*
X106200000Y-105910000D03*
X108700000Y-105910000D03*
X103700000Y-105910000D03*
X106200000Y-103410000D03*
X124750000Y-103500000D03*
X124750000Y-106500000D03*
X108700000Y-108410000D03*
X108700000Y-103410000D03*
X96200000Y-105910000D03*
X93800000Y-105930000D03*
X121750000Y-106500000D03*
X113700000Y-108410000D03*
X124750000Y-102000000D03*
X106200000Y-108410000D03*
X123250000Y-105000000D03*
%TD*%
%TA.AperFunction,Conductor*%
%TO.N,Vbatt+*%
G36*
X107436461Y-98499836D02*
G01*
X107503474Y-98519609D01*
X107549158Y-98572474D01*
X107560296Y-98623538D01*
X107570000Y-102659999D01*
X107570000Y-102660000D01*
X116410000Y-102640000D01*
X117663238Y-101134171D01*
X117721252Y-101095235D01*
X117757465Y-101089499D01*
X125374421Y-101023099D01*
X125441628Y-101042198D01*
X125487841Y-101094601D01*
X125499500Y-101147094D01*
X125499500Y-109077212D01*
X125479815Y-109144251D01*
X125438135Y-109184230D01*
X123218883Y-110483095D01*
X123156535Y-110500077D01*
X97298261Y-110559888D01*
X97231176Y-110540358D01*
X97214360Y-110527456D01*
X92569894Y-106286428D01*
X92533662Y-106226687D01*
X92529513Y-106195977D01*
X92461128Y-98605279D01*
X92480208Y-98538068D01*
X92532597Y-98491839D01*
X92585282Y-98480165D01*
X107436461Y-98499836D01*
G37*
%TD.AperFunction*%
%TD*%
%TA.AperFunction,Conductor*%
%TO.N,Vbatt-*%
G36*
X123743844Y-89024741D02*
G01*
X123766459Y-89043349D01*
X125465043Y-90816486D01*
X125497204Y-90878514D01*
X125499500Y-90902265D01*
X125499500Y-98888162D01*
X125479815Y-98955201D01*
X125427011Y-99000956D01*
X125376237Y-99012160D01*
X115640000Y-99070000D01*
X115668454Y-101384297D01*
X115649595Y-101451573D01*
X115597357Y-101497974D01*
X115544287Y-101509821D01*
X108763509Y-101500175D01*
X108696497Y-101480395D01*
X108650817Y-101427526D01*
X108639685Y-101376494D01*
X108630000Y-97570000D01*
X108629999Y-97570000D01*
X91360896Y-97609815D01*
X91369730Y-101355835D01*
X91350203Y-101422920D01*
X91297507Y-101468800D01*
X91246087Y-101480126D01*
X84474743Y-101499640D01*
X84407647Y-101480149D01*
X84361741Y-101427477D01*
X84350387Y-101375256D01*
X84350448Y-101355835D01*
X84369843Y-95110532D01*
X84389735Y-95043555D01*
X84405428Y-95023975D01*
X90253261Y-89077747D01*
X90314301Y-89043754D01*
X90341531Y-89040696D01*
X123676785Y-89005128D01*
X123743844Y-89024741D01*
G37*
%TD.AperFunction*%
%TD*%
M02*
