%TF.GenerationSoftware,KiCad,Pcbnew,9.0.2*%
%TF.CreationDate,2026-09-24T20:30:55-04:00*%
%TF.ProjectId,VehicleAdapterBoard_V1,56656869-636c-4654-9164-617074657242,rev?*%
%TF.SameCoordinates,Original*%
%TF.FileFunction,Legend,Bot*%
%TF.FilePolarity,Positive*%
%FSLAX46Y46*%
G04 Gerber Fmt 4.6, Leading zero omitted, Abs format (unit mm)*
G04 Created by KiCad (PCBNEW 9.0.2) date 2026-09-24 20:30:55*
%MOMM*%
%LPD*%
G01*
G04 APERTURE LIST*
%ADD10C,0.100000*%
%ADD11C,0.300000*%
%ADD12C,0.150000*%
G04 APERTURE END LIST*
D10*
X85240000Y-102580000D02*
X115080000Y-102580000D01*
X115080000Y-110400000D01*
X85240000Y-110400000D01*
X85240000Y-102580000D01*
X124288972Y-109452419D02*
X123955639Y-110452419D01*
X123955639Y-110452419D02*
X123622306Y-109452419D01*
X123288972Y-110452419D02*
X123288972Y-109452419D01*
X123288972Y-109833371D02*
X123193734Y-109785752D01*
X123193734Y-109785752D02*
X123003258Y-109785752D01*
X123003258Y-109785752D02*
X122908020Y-109833371D01*
X122908020Y-109833371D02*
X122860401Y-109880990D01*
X122860401Y-109880990D02*
X122812782Y-109976228D01*
X122812782Y-109976228D02*
X122812782Y-110261942D01*
X122812782Y-110261942D02*
X122860401Y-110357180D01*
X122860401Y-110357180D02*
X122908020Y-110404800D01*
X122908020Y-110404800D02*
X123003258Y-110452419D01*
X123003258Y-110452419D02*
X123193734Y-110452419D01*
X123193734Y-110452419D02*
X123288972Y-110404800D01*
X121955639Y-110452419D02*
X121955639Y-109928609D01*
X121955639Y-109928609D02*
X122003258Y-109833371D01*
X122003258Y-109833371D02*
X122098496Y-109785752D01*
X122098496Y-109785752D02*
X122288972Y-109785752D01*
X122288972Y-109785752D02*
X122384210Y-109833371D01*
X121955639Y-110404800D02*
X122050877Y-110452419D01*
X122050877Y-110452419D02*
X122288972Y-110452419D01*
X122288972Y-110452419D02*
X122384210Y-110404800D01*
X122384210Y-110404800D02*
X122431829Y-110309561D01*
X122431829Y-110309561D02*
X122431829Y-110214323D01*
X122431829Y-110214323D02*
X122384210Y-110119085D01*
X122384210Y-110119085D02*
X122288972Y-110071466D01*
X122288972Y-110071466D02*
X122050877Y-110071466D01*
X122050877Y-110071466D02*
X121955639Y-110023847D01*
X121622305Y-109785752D02*
X121241353Y-109785752D01*
X121479448Y-109452419D02*
X121479448Y-110309561D01*
X121479448Y-110309561D02*
X121431829Y-110404800D01*
X121431829Y-110404800D02*
X121336591Y-110452419D01*
X121336591Y-110452419D02*
X121241353Y-110452419D01*
X121050876Y-109785752D02*
X120669924Y-109785752D01*
X120908019Y-109452419D02*
X120908019Y-110309561D01*
X120908019Y-110309561D02*
X120860400Y-110404800D01*
X120860400Y-110404800D02*
X120765162Y-110452419D01*
X120765162Y-110452419D02*
X120669924Y-110452419D01*
X120336590Y-110071466D02*
X119574686Y-110071466D01*
X119955638Y-110452419D02*
X119955638Y-109690514D01*
X124018972Y-89592419D02*
X123685639Y-90592419D01*
X123685639Y-90592419D02*
X123352306Y-89592419D01*
X123018972Y-90592419D02*
X123018972Y-89592419D01*
X123018972Y-89973371D02*
X122923734Y-89925752D01*
X122923734Y-89925752D02*
X122733258Y-89925752D01*
X122733258Y-89925752D02*
X122638020Y-89973371D01*
X122638020Y-89973371D02*
X122590401Y-90020990D01*
X122590401Y-90020990D02*
X122542782Y-90116228D01*
X122542782Y-90116228D02*
X122542782Y-90401942D01*
X122542782Y-90401942D02*
X122590401Y-90497180D01*
X122590401Y-90497180D02*
X122638020Y-90544800D01*
X122638020Y-90544800D02*
X122733258Y-90592419D01*
X122733258Y-90592419D02*
X122923734Y-90592419D01*
X122923734Y-90592419D02*
X123018972Y-90544800D01*
X121685639Y-90592419D02*
X121685639Y-90068609D01*
X121685639Y-90068609D02*
X121733258Y-89973371D01*
X121733258Y-89973371D02*
X121828496Y-89925752D01*
X121828496Y-89925752D02*
X122018972Y-89925752D01*
X122018972Y-89925752D02*
X122114210Y-89973371D01*
X121685639Y-90544800D02*
X121780877Y-90592419D01*
X121780877Y-90592419D02*
X122018972Y-90592419D01*
X122018972Y-90592419D02*
X122114210Y-90544800D01*
X122114210Y-90544800D02*
X122161829Y-90449561D01*
X122161829Y-90449561D02*
X122161829Y-90354323D01*
X122161829Y-90354323D02*
X122114210Y-90259085D01*
X122114210Y-90259085D02*
X122018972Y-90211466D01*
X122018972Y-90211466D02*
X121780877Y-90211466D01*
X121780877Y-90211466D02*
X121685639Y-90163847D01*
X121352305Y-89925752D02*
X120971353Y-89925752D01*
X121209448Y-89592419D02*
X121209448Y-90449561D01*
X121209448Y-90449561D02*
X121161829Y-90544800D01*
X121161829Y-90544800D02*
X121066591Y-90592419D01*
X121066591Y-90592419D02*
X120971353Y-90592419D01*
X120780876Y-89925752D02*
X120399924Y-89925752D01*
X120638019Y-89592419D02*
X120638019Y-90449561D01*
X120638019Y-90449561D02*
X120590400Y-90544800D01*
X120590400Y-90544800D02*
X120495162Y-90592419D01*
X120495162Y-90592419D02*
X120399924Y-90592419D01*
X120066590Y-90211466D02*
X119304686Y-90211466D01*
D11*
X114557855Y-103590828D02*
X114057855Y-105090828D01*
X114057855Y-105090828D02*
X113557855Y-103590828D01*
X112486427Y-105019400D02*
X112629284Y-105090828D01*
X112629284Y-105090828D02*
X112914999Y-105090828D01*
X112914999Y-105090828D02*
X113057856Y-105019400D01*
X113057856Y-105019400D02*
X113129284Y-104876542D01*
X113129284Y-104876542D02*
X113129284Y-104305114D01*
X113129284Y-104305114D02*
X113057856Y-104162257D01*
X113057856Y-104162257D02*
X112914999Y-104090828D01*
X112914999Y-104090828D02*
X112629284Y-104090828D01*
X112629284Y-104090828D02*
X112486427Y-104162257D01*
X112486427Y-104162257D02*
X112414999Y-104305114D01*
X112414999Y-104305114D02*
X112414999Y-104447971D01*
X112414999Y-104447971D02*
X113129284Y-104590828D01*
X111772142Y-105090828D02*
X111772142Y-103590828D01*
X111129285Y-105090828D02*
X111129285Y-104305114D01*
X111129285Y-104305114D02*
X111200713Y-104162257D01*
X111200713Y-104162257D02*
X111343570Y-104090828D01*
X111343570Y-104090828D02*
X111557856Y-104090828D01*
X111557856Y-104090828D02*
X111700713Y-104162257D01*
X111700713Y-104162257D02*
X111772142Y-104233685D01*
X110414999Y-105090828D02*
X110414999Y-104090828D01*
X110414999Y-103590828D02*
X110486427Y-103662257D01*
X110486427Y-103662257D02*
X110414999Y-103733685D01*
X110414999Y-103733685D02*
X110343570Y-103662257D01*
X110343570Y-103662257D02*
X110414999Y-103590828D01*
X110414999Y-103590828D02*
X110414999Y-103733685D01*
X109057856Y-105019400D02*
X109200713Y-105090828D01*
X109200713Y-105090828D02*
X109486427Y-105090828D01*
X109486427Y-105090828D02*
X109629284Y-105019400D01*
X109629284Y-105019400D02*
X109700713Y-104947971D01*
X109700713Y-104947971D02*
X109772141Y-104805114D01*
X109772141Y-104805114D02*
X109772141Y-104376542D01*
X109772141Y-104376542D02*
X109700713Y-104233685D01*
X109700713Y-104233685D02*
X109629284Y-104162257D01*
X109629284Y-104162257D02*
X109486427Y-104090828D01*
X109486427Y-104090828D02*
X109200713Y-104090828D01*
X109200713Y-104090828D02*
X109057856Y-104162257D01*
X108200713Y-105090828D02*
X108343570Y-105019400D01*
X108343570Y-105019400D02*
X108414999Y-104876542D01*
X108414999Y-104876542D02*
X108414999Y-103590828D01*
X107057856Y-105019400D02*
X107200713Y-105090828D01*
X107200713Y-105090828D02*
X107486428Y-105090828D01*
X107486428Y-105090828D02*
X107629285Y-105019400D01*
X107629285Y-105019400D02*
X107700713Y-104876542D01*
X107700713Y-104876542D02*
X107700713Y-104305114D01*
X107700713Y-104305114D02*
X107629285Y-104162257D01*
X107629285Y-104162257D02*
X107486428Y-104090828D01*
X107486428Y-104090828D02*
X107200713Y-104090828D01*
X107200713Y-104090828D02*
X107057856Y-104162257D01*
X107057856Y-104162257D02*
X106986428Y-104305114D01*
X106986428Y-104305114D02*
X106986428Y-104447971D01*
X106986428Y-104447971D02*
X107700713Y-104590828D01*
X105272142Y-104662257D02*
X104557857Y-104662257D01*
X105414999Y-105090828D02*
X104914999Y-103590828D01*
X104914999Y-103590828D02*
X104414999Y-105090828D01*
X103272143Y-105090828D02*
X103272143Y-103590828D01*
X103272143Y-105019400D02*
X103415000Y-105090828D01*
X103415000Y-105090828D02*
X103700714Y-105090828D01*
X103700714Y-105090828D02*
X103843571Y-105019400D01*
X103843571Y-105019400D02*
X103915000Y-104947971D01*
X103915000Y-104947971D02*
X103986428Y-104805114D01*
X103986428Y-104805114D02*
X103986428Y-104376542D01*
X103986428Y-104376542D02*
X103915000Y-104233685D01*
X103915000Y-104233685D02*
X103843571Y-104162257D01*
X103843571Y-104162257D02*
X103700714Y-104090828D01*
X103700714Y-104090828D02*
X103415000Y-104090828D01*
X103415000Y-104090828D02*
X103272143Y-104162257D01*
X101915000Y-105090828D02*
X101915000Y-104305114D01*
X101915000Y-104305114D02*
X101986428Y-104162257D01*
X101986428Y-104162257D02*
X102129285Y-104090828D01*
X102129285Y-104090828D02*
X102415000Y-104090828D01*
X102415000Y-104090828D02*
X102557857Y-104162257D01*
X101915000Y-105019400D02*
X102057857Y-105090828D01*
X102057857Y-105090828D02*
X102415000Y-105090828D01*
X102415000Y-105090828D02*
X102557857Y-105019400D01*
X102557857Y-105019400D02*
X102629285Y-104876542D01*
X102629285Y-104876542D02*
X102629285Y-104733685D01*
X102629285Y-104733685D02*
X102557857Y-104590828D01*
X102557857Y-104590828D02*
X102415000Y-104519400D01*
X102415000Y-104519400D02*
X102057857Y-104519400D01*
X102057857Y-104519400D02*
X101915000Y-104447971D01*
X101200714Y-104090828D02*
X101200714Y-105590828D01*
X101200714Y-104162257D02*
X101057857Y-104090828D01*
X101057857Y-104090828D02*
X100772142Y-104090828D01*
X100772142Y-104090828D02*
X100629285Y-104162257D01*
X100629285Y-104162257D02*
X100557857Y-104233685D01*
X100557857Y-104233685D02*
X100486428Y-104376542D01*
X100486428Y-104376542D02*
X100486428Y-104805114D01*
X100486428Y-104805114D02*
X100557857Y-104947971D01*
X100557857Y-104947971D02*
X100629285Y-105019400D01*
X100629285Y-105019400D02*
X100772142Y-105090828D01*
X100772142Y-105090828D02*
X101057857Y-105090828D01*
X101057857Y-105090828D02*
X101200714Y-105019400D01*
X100057856Y-104090828D02*
X99486428Y-104090828D01*
X99843571Y-103590828D02*
X99843571Y-104876542D01*
X99843571Y-104876542D02*
X99772142Y-105019400D01*
X99772142Y-105019400D02*
X99629285Y-105090828D01*
X99629285Y-105090828D02*
X99486428Y-105090828D01*
X98414999Y-105019400D02*
X98557856Y-105090828D01*
X98557856Y-105090828D02*
X98843571Y-105090828D01*
X98843571Y-105090828D02*
X98986428Y-105019400D01*
X98986428Y-105019400D02*
X99057856Y-104876542D01*
X99057856Y-104876542D02*
X99057856Y-104305114D01*
X99057856Y-104305114D02*
X98986428Y-104162257D01*
X98986428Y-104162257D02*
X98843571Y-104090828D01*
X98843571Y-104090828D02*
X98557856Y-104090828D01*
X98557856Y-104090828D02*
X98414999Y-104162257D01*
X98414999Y-104162257D02*
X98343571Y-104305114D01*
X98343571Y-104305114D02*
X98343571Y-104447971D01*
X98343571Y-104447971D02*
X99057856Y-104590828D01*
X97700714Y-105090828D02*
X97700714Y-104090828D01*
X97700714Y-104376542D02*
X97629285Y-104233685D01*
X97629285Y-104233685D02*
X97557857Y-104162257D01*
X97557857Y-104162257D02*
X97414999Y-104090828D01*
X97414999Y-104090828D02*
X97272142Y-104090828D01*
X95129286Y-104305114D02*
X94915000Y-104376542D01*
X94915000Y-104376542D02*
X94843571Y-104447971D01*
X94843571Y-104447971D02*
X94772143Y-104590828D01*
X94772143Y-104590828D02*
X94772143Y-104805114D01*
X94772143Y-104805114D02*
X94843571Y-104947971D01*
X94843571Y-104947971D02*
X94915000Y-105019400D01*
X94915000Y-105019400D02*
X95057857Y-105090828D01*
X95057857Y-105090828D02*
X95629286Y-105090828D01*
X95629286Y-105090828D02*
X95629286Y-103590828D01*
X95629286Y-103590828D02*
X95129286Y-103590828D01*
X95129286Y-103590828D02*
X94986429Y-103662257D01*
X94986429Y-103662257D02*
X94915000Y-103733685D01*
X94915000Y-103733685D02*
X94843571Y-103876542D01*
X94843571Y-103876542D02*
X94843571Y-104019400D01*
X94843571Y-104019400D02*
X94915000Y-104162257D01*
X94915000Y-104162257D02*
X94986429Y-104233685D01*
X94986429Y-104233685D02*
X95129286Y-104305114D01*
X95129286Y-104305114D02*
X95629286Y-104305114D01*
X93915000Y-105090828D02*
X94057857Y-105019400D01*
X94057857Y-105019400D02*
X94129286Y-104947971D01*
X94129286Y-104947971D02*
X94200714Y-104805114D01*
X94200714Y-104805114D02*
X94200714Y-104376542D01*
X94200714Y-104376542D02*
X94129286Y-104233685D01*
X94129286Y-104233685D02*
X94057857Y-104162257D01*
X94057857Y-104162257D02*
X93915000Y-104090828D01*
X93915000Y-104090828D02*
X93700714Y-104090828D01*
X93700714Y-104090828D02*
X93557857Y-104162257D01*
X93557857Y-104162257D02*
X93486429Y-104233685D01*
X93486429Y-104233685D02*
X93415000Y-104376542D01*
X93415000Y-104376542D02*
X93415000Y-104805114D01*
X93415000Y-104805114D02*
X93486429Y-104947971D01*
X93486429Y-104947971D02*
X93557857Y-105019400D01*
X93557857Y-105019400D02*
X93700714Y-105090828D01*
X93700714Y-105090828D02*
X93915000Y-105090828D01*
X92129286Y-105090828D02*
X92129286Y-104305114D01*
X92129286Y-104305114D02*
X92200714Y-104162257D01*
X92200714Y-104162257D02*
X92343571Y-104090828D01*
X92343571Y-104090828D02*
X92629286Y-104090828D01*
X92629286Y-104090828D02*
X92772143Y-104162257D01*
X92129286Y-105019400D02*
X92272143Y-105090828D01*
X92272143Y-105090828D02*
X92629286Y-105090828D01*
X92629286Y-105090828D02*
X92772143Y-105019400D01*
X92772143Y-105019400D02*
X92843571Y-104876542D01*
X92843571Y-104876542D02*
X92843571Y-104733685D01*
X92843571Y-104733685D02*
X92772143Y-104590828D01*
X92772143Y-104590828D02*
X92629286Y-104519400D01*
X92629286Y-104519400D02*
X92272143Y-104519400D01*
X92272143Y-104519400D02*
X92129286Y-104447971D01*
X91415000Y-105090828D02*
X91415000Y-104090828D01*
X91415000Y-104376542D02*
X91343571Y-104233685D01*
X91343571Y-104233685D02*
X91272143Y-104162257D01*
X91272143Y-104162257D02*
X91129285Y-104090828D01*
X91129285Y-104090828D02*
X90986428Y-104090828D01*
X89843572Y-105090828D02*
X89843572Y-103590828D01*
X89843572Y-105019400D02*
X89986429Y-105090828D01*
X89986429Y-105090828D02*
X90272143Y-105090828D01*
X90272143Y-105090828D02*
X90415000Y-105019400D01*
X90415000Y-105019400D02*
X90486429Y-104947971D01*
X90486429Y-104947971D02*
X90557857Y-104805114D01*
X90557857Y-104805114D02*
X90557857Y-104376542D01*
X90557857Y-104376542D02*
X90486429Y-104233685D01*
X90486429Y-104233685D02*
X90415000Y-104162257D01*
X90415000Y-104162257D02*
X90272143Y-104090828D01*
X90272143Y-104090828D02*
X89986429Y-104090828D01*
X89986429Y-104090828D02*
X89843572Y-104162257D01*
X88200714Y-103590828D02*
X87700714Y-105090828D01*
X87700714Y-105090828D02*
X87200714Y-103590828D01*
X85915000Y-105090828D02*
X86772143Y-105090828D01*
X86343572Y-105090828D02*
X86343572Y-103590828D01*
X86343572Y-103590828D02*
X86486429Y-103805114D01*
X86486429Y-103805114D02*
X86629286Y-103947971D01*
X86629286Y-103947971D02*
X86772143Y-104019400D01*
D12*
X112441426Y-106887644D02*
X112824759Y-106887644D01*
X112824759Y-107490025D02*
X112824759Y-106340025D01*
X112824759Y-106340025D02*
X112277140Y-106340025D01*
X111674759Y-107490025D02*
X111784283Y-107435264D01*
X111784283Y-107435264D02*
X111839045Y-107380502D01*
X111839045Y-107380502D02*
X111893807Y-107270978D01*
X111893807Y-107270978D02*
X111893807Y-106942406D01*
X111893807Y-106942406D02*
X111839045Y-106832883D01*
X111839045Y-106832883D02*
X111784283Y-106778121D01*
X111784283Y-106778121D02*
X111674759Y-106723359D01*
X111674759Y-106723359D02*
X111510474Y-106723359D01*
X111510474Y-106723359D02*
X111400950Y-106778121D01*
X111400950Y-106778121D02*
X111346188Y-106832883D01*
X111346188Y-106832883D02*
X111291426Y-106942406D01*
X111291426Y-106942406D02*
X111291426Y-107270978D01*
X111291426Y-107270978D02*
X111346188Y-107380502D01*
X111346188Y-107380502D02*
X111400950Y-107435264D01*
X111400950Y-107435264D02*
X111510474Y-107490025D01*
X111510474Y-107490025D02*
X111674759Y-107490025D01*
X110798569Y-107490025D02*
X110798569Y-106723359D01*
X110798569Y-106942406D02*
X110743807Y-106832883D01*
X110743807Y-106832883D02*
X110689045Y-106778121D01*
X110689045Y-106778121D02*
X110579521Y-106723359D01*
X110579521Y-106723359D02*
X110469998Y-106723359D01*
X109374760Y-106723359D02*
X108936664Y-106723359D01*
X109210474Y-106340025D02*
X109210474Y-107325740D01*
X109210474Y-107325740D02*
X109155712Y-107435264D01*
X109155712Y-107435264D02*
X109046188Y-107490025D01*
X109046188Y-107490025D02*
X108936664Y-107490025D01*
X108115236Y-107435264D02*
X108224760Y-107490025D01*
X108224760Y-107490025D02*
X108443807Y-107490025D01*
X108443807Y-107490025D02*
X108553331Y-107435264D01*
X108553331Y-107435264D02*
X108608093Y-107325740D01*
X108608093Y-107325740D02*
X108608093Y-106887644D01*
X108608093Y-106887644D02*
X108553331Y-106778121D01*
X108553331Y-106778121D02*
X108443807Y-106723359D01*
X108443807Y-106723359D02*
X108224760Y-106723359D01*
X108224760Y-106723359D02*
X108115236Y-106778121D01*
X108115236Y-106778121D02*
X108060474Y-106887644D01*
X108060474Y-106887644D02*
X108060474Y-106997168D01*
X108060474Y-106997168D02*
X108608093Y-107106692D01*
X107567617Y-107490025D02*
X107567617Y-106723359D01*
X107567617Y-106832883D02*
X107512855Y-106778121D01*
X107512855Y-106778121D02*
X107403331Y-106723359D01*
X107403331Y-106723359D02*
X107239046Y-106723359D01*
X107239046Y-106723359D02*
X107129522Y-106778121D01*
X107129522Y-106778121D02*
X107074760Y-106887644D01*
X107074760Y-106887644D02*
X107074760Y-107490025D01*
X107074760Y-106887644D02*
X107019998Y-106778121D01*
X107019998Y-106778121D02*
X106910474Y-106723359D01*
X106910474Y-106723359D02*
X106746188Y-106723359D01*
X106746188Y-106723359D02*
X106636665Y-106778121D01*
X106636665Y-106778121D02*
X106581903Y-106887644D01*
X106581903Y-106887644D02*
X106581903Y-107490025D01*
X106034284Y-106723359D02*
X106034284Y-107873359D01*
X106034284Y-106778121D02*
X105924760Y-106723359D01*
X105924760Y-106723359D02*
X105705713Y-106723359D01*
X105705713Y-106723359D02*
X105596189Y-106778121D01*
X105596189Y-106778121D02*
X105541427Y-106832883D01*
X105541427Y-106832883D02*
X105486665Y-106942406D01*
X105486665Y-106942406D02*
X105486665Y-107270978D01*
X105486665Y-107270978D02*
X105541427Y-107380502D01*
X105541427Y-107380502D02*
X105596189Y-107435264D01*
X105596189Y-107435264D02*
X105705713Y-107490025D01*
X105705713Y-107490025D02*
X105924760Y-107490025D01*
X105924760Y-107490025D02*
X106034284Y-107435264D01*
X104555713Y-107435264D02*
X104665237Y-107490025D01*
X104665237Y-107490025D02*
X104884284Y-107490025D01*
X104884284Y-107490025D02*
X104993808Y-107435264D01*
X104993808Y-107435264D02*
X105048570Y-107325740D01*
X105048570Y-107325740D02*
X105048570Y-106887644D01*
X105048570Y-106887644D02*
X104993808Y-106778121D01*
X104993808Y-106778121D02*
X104884284Y-106723359D01*
X104884284Y-106723359D02*
X104665237Y-106723359D01*
X104665237Y-106723359D02*
X104555713Y-106778121D01*
X104555713Y-106778121D02*
X104500951Y-106887644D01*
X104500951Y-106887644D02*
X104500951Y-106997168D01*
X104500951Y-106997168D02*
X105048570Y-107106692D01*
X104008094Y-107490025D02*
X104008094Y-106723359D01*
X104008094Y-106942406D02*
X103953332Y-106832883D01*
X103953332Y-106832883D02*
X103898570Y-106778121D01*
X103898570Y-106778121D02*
X103789046Y-106723359D01*
X103789046Y-106723359D02*
X103679523Y-106723359D01*
X102803332Y-107490025D02*
X102803332Y-106887644D01*
X102803332Y-106887644D02*
X102858094Y-106778121D01*
X102858094Y-106778121D02*
X102967618Y-106723359D01*
X102967618Y-106723359D02*
X103186665Y-106723359D01*
X103186665Y-106723359D02*
X103296189Y-106778121D01*
X102803332Y-107435264D02*
X102912856Y-107490025D01*
X102912856Y-107490025D02*
X103186665Y-107490025D01*
X103186665Y-107490025D02*
X103296189Y-107435264D01*
X103296189Y-107435264D02*
X103350951Y-107325740D01*
X103350951Y-107325740D02*
X103350951Y-107216216D01*
X103350951Y-107216216D02*
X103296189Y-107106692D01*
X103296189Y-107106692D02*
X103186665Y-107051930D01*
X103186665Y-107051930D02*
X102912856Y-107051930D01*
X102912856Y-107051930D02*
X102803332Y-106997168D01*
X102419999Y-106723359D02*
X101981903Y-106723359D01*
X102255713Y-106340025D02*
X102255713Y-107325740D01*
X102255713Y-107325740D02*
X102200951Y-107435264D01*
X102200951Y-107435264D02*
X102091427Y-107490025D01*
X102091427Y-107490025D02*
X101981903Y-107490025D01*
X101105713Y-106723359D02*
X101105713Y-107490025D01*
X101598570Y-106723359D02*
X101598570Y-107325740D01*
X101598570Y-107325740D02*
X101543808Y-107435264D01*
X101543808Y-107435264D02*
X101434284Y-107490025D01*
X101434284Y-107490025D02*
X101269999Y-107490025D01*
X101269999Y-107490025D02*
X101160475Y-107435264D01*
X101160475Y-107435264D02*
X101105713Y-107380502D01*
X100558094Y-107490025D02*
X100558094Y-106723359D01*
X100558094Y-106942406D02*
X100503332Y-106832883D01*
X100503332Y-106832883D02*
X100448570Y-106778121D01*
X100448570Y-106778121D02*
X100339046Y-106723359D01*
X100339046Y-106723359D02*
X100229523Y-106723359D01*
X99408094Y-107435264D02*
X99517618Y-107490025D01*
X99517618Y-107490025D02*
X99736665Y-107490025D01*
X99736665Y-107490025D02*
X99846189Y-107435264D01*
X99846189Y-107435264D02*
X99900951Y-107325740D01*
X99900951Y-107325740D02*
X99900951Y-106887644D01*
X99900951Y-106887644D02*
X99846189Y-106778121D01*
X99846189Y-106778121D02*
X99736665Y-106723359D01*
X99736665Y-106723359D02*
X99517618Y-106723359D01*
X99517618Y-106723359D02*
X99408094Y-106778121D01*
X99408094Y-106778121D02*
X99353332Y-106887644D01*
X99353332Y-106887644D02*
X99353332Y-106997168D01*
X99353332Y-106997168D02*
X99900951Y-107106692D01*
X97984285Y-107490025D02*
X97984285Y-106723359D01*
X97984285Y-106942406D02*
X97929523Y-106832883D01*
X97929523Y-106832883D02*
X97874761Y-106778121D01*
X97874761Y-106778121D02*
X97765237Y-106723359D01*
X97765237Y-106723359D02*
X97655714Y-106723359D01*
X97272380Y-107490025D02*
X97272380Y-106723359D01*
X97272380Y-106340025D02*
X97327142Y-106394787D01*
X97327142Y-106394787D02*
X97272380Y-106449549D01*
X97272380Y-106449549D02*
X97217618Y-106394787D01*
X97217618Y-106394787D02*
X97272380Y-106340025D01*
X97272380Y-106340025D02*
X97272380Y-106449549D01*
X96779523Y-107435264D02*
X96669999Y-107490025D01*
X96669999Y-107490025D02*
X96450951Y-107490025D01*
X96450951Y-107490025D02*
X96341428Y-107435264D01*
X96341428Y-107435264D02*
X96286666Y-107325740D01*
X96286666Y-107325740D02*
X96286666Y-107270978D01*
X96286666Y-107270978D02*
X96341428Y-107161454D01*
X96341428Y-107161454D02*
X96450951Y-107106692D01*
X96450951Y-107106692D02*
X96615237Y-107106692D01*
X96615237Y-107106692D02*
X96724761Y-107051930D01*
X96724761Y-107051930D02*
X96779523Y-106942406D01*
X96779523Y-106942406D02*
X96779523Y-106887644D01*
X96779523Y-106887644D02*
X96724761Y-106778121D01*
X96724761Y-106778121D02*
X96615237Y-106723359D01*
X96615237Y-106723359D02*
X96450951Y-106723359D01*
X96450951Y-106723359D02*
X96341428Y-106778121D01*
X95355714Y-107435264D02*
X95465238Y-107490025D01*
X95465238Y-107490025D02*
X95684285Y-107490025D01*
X95684285Y-107490025D02*
X95793809Y-107435264D01*
X95793809Y-107435264D02*
X95848571Y-107325740D01*
X95848571Y-107325740D02*
X95848571Y-106887644D01*
X95848571Y-106887644D02*
X95793809Y-106778121D01*
X95793809Y-106778121D02*
X95684285Y-106723359D01*
X95684285Y-106723359D02*
X95465238Y-106723359D01*
X95465238Y-106723359D02*
X95355714Y-106778121D01*
X95355714Y-106778121D02*
X95300952Y-106887644D01*
X95300952Y-106887644D02*
X95300952Y-106997168D01*
X95300952Y-106997168D02*
X95848571Y-107106692D01*
X93055715Y-107435264D02*
X93931905Y-107435264D01*
X93055715Y-107216216D02*
X93931905Y-106887644D01*
X93931905Y-106887644D02*
X93055715Y-106559073D01*
X91686667Y-106449549D02*
X91631905Y-106394787D01*
X91631905Y-106394787D02*
X91522381Y-106340025D01*
X91522381Y-106340025D02*
X91248572Y-106340025D01*
X91248572Y-106340025D02*
X91139048Y-106394787D01*
X91139048Y-106394787D02*
X91084286Y-106449549D01*
X91084286Y-106449549D02*
X91029524Y-106559073D01*
X91029524Y-106559073D02*
X91029524Y-106668597D01*
X91029524Y-106668597D02*
X91084286Y-106832883D01*
X91084286Y-106832883D02*
X91741429Y-107490025D01*
X91741429Y-107490025D02*
X91029524Y-107490025D01*
X90317619Y-106340025D02*
X90208096Y-106340025D01*
X90208096Y-106340025D02*
X90098572Y-106394787D01*
X90098572Y-106394787D02*
X90043810Y-106449549D01*
X90043810Y-106449549D02*
X89989048Y-106559073D01*
X89989048Y-106559073D02*
X89934286Y-106778121D01*
X89934286Y-106778121D02*
X89934286Y-107051930D01*
X89934286Y-107051930D02*
X89989048Y-107270978D01*
X89989048Y-107270978D02*
X90043810Y-107380502D01*
X90043810Y-107380502D02*
X90098572Y-107435264D01*
X90098572Y-107435264D02*
X90208096Y-107490025D01*
X90208096Y-107490025D02*
X90317619Y-107490025D01*
X90317619Y-107490025D02*
X90427143Y-107435264D01*
X90427143Y-107435264D02*
X90481905Y-107380502D01*
X90481905Y-107380502D02*
X90536667Y-107270978D01*
X90536667Y-107270978D02*
X90591429Y-107051930D01*
X90591429Y-107051930D02*
X90591429Y-106778121D01*
X90591429Y-106778121D02*
X90536667Y-106559073D01*
X90536667Y-106559073D02*
X90481905Y-106449549D01*
X90481905Y-106449549D02*
X90427143Y-106394787D01*
X90427143Y-106394787D02*
X90317619Y-106340025D01*
X89277143Y-106340025D02*
X89386667Y-106394787D01*
X89386667Y-106394787D02*
X89441429Y-106504311D01*
X89441429Y-106504311D02*
X89386667Y-106613835D01*
X89386667Y-106613835D02*
X89277143Y-106668597D01*
X89277143Y-106668597D02*
X89167619Y-106613835D01*
X89167619Y-106613835D02*
X89112858Y-106504311D01*
X89112858Y-106504311D02*
X89167619Y-106394787D01*
X89167619Y-106394787D02*
X89277143Y-106340025D01*
X87908096Y-107380502D02*
X87962858Y-107435264D01*
X87962858Y-107435264D02*
X88127144Y-107490025D01*
X88127144Y-107490025D02*
X88236668Y-107490025D01*
X88236668Y-107490025D02*
X88400953Y-107435264D01*
X88400953Y-107435264D02*
X88510477Y-107325740D01*
X88510477Y-107325740D02*
X88565239Y-107216216D01*
X88565239Y-107216216D02*
X88620001Y-106997168D01*
X88620001Y-106997168D02*
X88620001Y-106832883D01*
X88620001Y-106832883D02*
X88565239Y-106613835D01*
X88565239Y-106613835D02*
X88510477Y-106504311D01*
X88510477Y-106504311D02*
X88400953Y-106394787D01*
X88400953Y-106394787D02*
X88236668Y-106340025D01*
X88236668Y-106340025D02*
X88127144Y-106340025D01*
X88127144Y-106340025D02*
X87962858Y-106394787D01*
X87962858Y-106394787D02*
X87908096Y-106449549D01*
X87360477Y-107435264D02*
X87360477Y-107490025D01*
X87360477Y-107490025D02*
X87415239Y-107599549D01*
X87415239Y-107599549D02*
X87470001Y-107654311D01*
X113618806Y-109341461D02*
X113618806Y-108191461D01*
X113509282Y-108903366D02*
X113180711Y-109341461D01*
X113180711Y-108574795D02*
X113618806Y-109012890D01*
X112249759Y-109286700D02*
X112359283Y-109341461D01*
X112359283Y-109341461D02*
X112578330Y-109341461D01*
X112578330Y-109341461D02*
X112687854Y-109286700D01*
X112687854Y-109286700D02*
X112742616Y-109177176D01*
X112742616Y-109177176D02*
X112742616Y-108739080D01*
X112742616Y-108739080D02*
X112687854Y-108629557D01*
X112687854Y-108629557D02*
X112578330Y-108574795D01*
X112578330Y-108574795D02*
X112359283Y-108574795D01*
X112359283Y-108574795D02*
X112249759Y-108629557D01*
X112249759Y-108629557D02*
X112194997Y-108739080D01*
X112194997Y-108739080D02*
X112194997Y-108848604D01*
X112194997Y-108848604D02*
X112742616Y-108958128D01*
X111264045Y-109286700D02*
X111373569Y-109341461D01*
X111373569Y-109341461D02*
X111592616Y-109341461D01*
X111592616Y-109341461D02*
X111702140Y-109286700D01*
X111702140Y-109286700D02*
X111756902Y-109177176D01*
X111756902Y-109177176D02*
X111756902Y-108739080D01*
X111756902Y-108739080D02*
X111702140Y-108629557D01*
X111702140Y-108629557D02*
X111592616Y-108574795D01*
X111592616Y-108574795D02*
X111373569Y-108574795D01*
X111373569Y-108574795D02*
X111264045Y-108629557D01*
X111264045Y-108629557D02*
X111209283Y-108739080D01*
X111209283Y-108739080D02*
X111209283Y-108848604D01*
X111209283Y-108848604D02*
X111756902Y-108958128D01*
X110716426Y-108574795D02*
X110716426Y-109724795D01*
X110716426Y-108629557D02*
X110606902Y-108574795D01*
X110606902Y-108574795D02*
X110387855Y-108574795D01*
X110387855Y-108574795D02*
X110278331Y-108629557D01*
X110278331Y-108629557D02*
X110223569Y-108684319D01*
X110223569Y-108684319D02*
X110168807Y-108793842D01*
X110168807Y-108793842D02*
X110168807Y-109122414D01*
X110168807Y-109122414D02*
X110223569Y-109231938D01*
X110223569Y-109231938D02*
X110278331Y-109286700D01*
X110278331Y-109286700D02*
X110387855Y-109341461D01*
X110387855Y-109341461D02*
X110606902Y-109341461D01*
X110606902Y-109341461D02*
X110716426Y-109286700D01*
X108306903Y-109286700D02*
X108416427Y-109341461D01*
X108416427Y-109341461D02*
X108635474Y-109341461D01*
X108635474Y-109341461D02*
X108744998Y-109286700D01*
X108744998Y-109286700D02*
X108799760Y-109231938D01*
X108799760Y-109231938D02*
X108854522Y-109122414D01*
X108854522Y-109122414D02*
X108854522Y-108793842D01*
X108854522Y-108793842D02*
X108799760Y-108684319D01*
X108799760Y-108684319D02*
X108744998Y-108629557D01*
X108744998Y-108629557D02*
X108635474Y-108574795D01*
X108635474Y-108574795D02*
X108416427Y-108574795D01*
X108416427Y-108574795D02*
X108306903Y-108629557D01*
X107649760Y-109341461D02*
X107759284Y-109286700D01*
X107759284Y-109286700D02*
X107814046Y-109231938D01*
X107814046Y-109231938D02*
X107868808Y-109122414D01*
X107868808Y-109122414D02*
X107868808Y-108793842D01*
X107868808Y-108793842D02*
X107814046Y-108684319D01*
X107814046Y-108684319D02*
X107759284Y-108629557D01*
X107759284Y-108629557D02*
X107649760Y-108574795D01*
X107649760Y-108574795D02*
X107485475Y-108574795D01*
X107485475Y-108574795D02*
X107375951Y-108629557D01*
X107375951Y-108629557D02*
X107321189Y-108684319D01*
X107321189Y-108684319D02*
X107266427Y-108793842D01*
X107266427Y-108793842D02*
X107266427Y-109122414D01*
X107266427Y-109122414D02*
X107321189Y-109231938D01*
X107321189Y-109231938D02*
X107375951Y-109286700D01*
X107375951Y-109286700D02*
X107485475Y-109341461D01*
X107485475Y-109341461D02*
X107649760Y-109341461D01*
X106773570Y-108574795D02*
X106773570Y-109341461D01*
X106773570Y-108684319D02*
X106718808Y-108629557D01*
X106718808Y-108629557D02*
X106609284Y-108574795D01*
X106609284Y-108574795D02*
X106444999Y-108574795D01*
X106444999Y-108574795D02*
X106335475Y-108629557D01*
X106335475Y-108629557D02*
X106280713Y-108739080D01*
X106280713Y-108739080D02*
X106280713Y-109341461D01*
X105897380Y-108574795D02*
X105459284Y-108574795D01*
X105733094Y-108191461D02*
X105733094Y-109177176D01*
X105733094Y-109177176D02*
X105678332Y-109286700D01*
X105678332Y-109286700D02*
X105568808Y-109341461D01*
X105568808Y-109341461D02*
X105459284Y-109341461D01*
X105075951Y-109341461D02*
X105075951Y-108574795D01*
X105075951Y-108191461D02*
X105130713Y-108246223D01*
X105130713Y-108246223D02*
X105075951Y-108300985D01*
X105075951Y-108300985D02*
X105021189Y-108246223D01*
X105021189Y-108246223D02*
X105075951Y-108191461D01*
X105075951Y-108191461D02*
X105075951Y-108300985D01*
X104528332Y-108574795D02*
X104528332Y-109341461D01*
X104528332Y-108684319D02*
X104473570Y-108629557D01*
X104473570Y-108629557D02*
X104364046Y-108574795D01*
X104364046Y-108574795D02*
X104199761Y-108574795D01*
X104199761Y-108574795D02*
X104090237Y-108629557D01*
X104090237Y-108629557D02*
X104035475Y-108739080D01*
X104035475Y-108739080D02*
X104035475Y-109341461D01*
X102994999Y-108574795D02*
X102994999Y-109341461D01*
X103487856Y-108574795D02*
X103487856Y-109177176D01*
X103487856Y-109177176D02*
X103433094Y-109286700D01*
X103433094Y-109286700D02*
X103323570Y-109341461D01*
X103323570Y-109341461D02*
X103159285Y-109341461D01*
X103159285Y-109341461D02*
X103049761Y-109286700D01*
X103049761Y-109286700D02*
X102994999Y-109231938D01*
X102283094Y-109341461D02*
X102392618Y-109286700D01*
X102392618Y-109286700D02*
X102447380Y-109231938D01*
X102447380Y-109231938D02*
X102502142Y-109122414D01*
X102502142Y-109122414D02*
X102502142Y-108793842D01*
X102502142Y-108793842D02*
X102447380Y-108684319D01*
X102447380Y-108684319D02*
X102392618Y-108629557D01*
X102392618Y-108629557D02*
X102283094Y-108574795D01*
X102283094Y-108574795D02*
X102118809Y-108574795D01*
X102118809Y-108574795D02*
X102009285Y-108629557D01*
X102009285Y-108629557D02*
X101954523Y-108684319D01*
X101954523Y-108684319D02*
X101899761Y-108793842D01*
X101899761Y-108793842D02*
X101899761Y-109122414D01*
X101899761Y-109122414D02*
X101954523Y-109231938D01*
X101954523Y-109231938D02*
X102009285Y-109286700D01*
X102009285Y-109286700D02*
X102118809Y-109341461D01*
X102118809Y-109341461D02*
X102283094Y-109341461D01*
X100914047Y-108574795D02*
X100914047Y-109341461D01*
X101406904Y-108574795D02*
X101406904Y-109177176D01*
X101406904Y-109177176D02*
X101352142Y-109286700D01*
X101352142Y-109286700D02*
X101242618Y-109341461D01*
X101242618Y-109341461D02*
X101078333Y-109341461D01*
X101078333Y-109341461D02*
X100968809Y-109286700D01*
X100968809Y-109286700D02*
X100914047Y-109231938D01*
X100421190Y-109286700D02*
X100311666Y-109341461D01*
X100311666Y-109341461D02*
X100092618Y-109341461D01*
X100092618Y-109341461D02*
X99983095Y-109286700D01*
X99983095Y-109286700D02*
X99928333Y-109177176D01*
X99928333Y-109177176D02*
X99928333Y-109122414D01*
X99928333Y-109122414D02*
X99983095Y-109012890D01*
X99983095Y-109012890D02*
X100092618Y-108958128D01*
X100092618Y-108958128D02*
X100256904Y-108958128D01*
X100256904Y-108958128D02*
X100366428Y-108903366D01*
X100366428Y-108903366D02*
X100421190Y-108793842D01*
X100421190Y-108793842D02*
X100421190Y-108739080D01*
X100421190Y-108739080D02*
X100366428Y-108629557D01*
X100366428Y-108629557D02*
X100256904Y-108574795D01*
X100256904Y-108574795D02*
X100092618Y-108574795D01*
X100092618Y-108574795D02*
X99983095Y-108629557D01*
X98066429Y-109286700D02*
X98175953Y-109341461D01*
X98175953Y-109341461D02*
X98395000Y-109341461D01*
X98395000Y-109341461D02*
X98504524Y-109286700D01*
X98504524Y-109286700D02*
X98559286Y-109231938D01*
X98559286Y-109231938D02*
X98614048Y-109122414D01*
X98614048Y-109122414D02*
X98614048Y-108793842D01*
X98614048Y-108793842D02*
X98559286Y-108684319D01*
X98559286Y-108684319D02*
X98504524Y-108629557D01*
X98504524Y-108629557D02*
X98395000Y-108574795D01*
X98395000Y-108574795D02*
X98175953Y-108574795D01*
X98175953Y-108574795D02*
X98066429Y-108629557D01*
X97080715Y-108574795D02*
X97080715Y-109341461D01*
X97573572Y-108574795D02*
X97573572Y-109177176D01*
X97573572Y-109177176D02*
X97518810Y-109286700D01*
X97518810Y-109286700D02*
X97409286Y-109341461D01*
X97409286Y-109341461D02*
X97245001Y-109341461D01*
X97245001Y-109341461D02*
X97135477Y-109286700D01*
X97135477Y-109286700D02*
X97080715Y-109231938D01*
X96533096Y-109341461D02*
X96533096Y-108574795D01*
X96533096Y-108793842D02*
X96478334Y-108684319D01*
X96478334Y-108684319D02*
X96423572Y-108629557D01*
X96423572Y-108629557D02*
X96314048Y-108574795D01*
X96314048Y-108574795D02*
X96204525Y-108574795D01*
X95821191Y-109341461D02*
X95821191Y-108574795D01*
X95821191Y-108793842D02*
X95766429Y-108684319D01*
X95766429Y-108684319D02*
X95711667Y-108629557D01*
X95711667Y-108629557D02*
X95602143Y-108574795D01*
X95602143Y-108574795D02*
X95492620Y-108574795D01*
X94671191Y-109286700D02*
X94780715Y-109341461D01*
X94780715Y-109341461D02*
X94999762Y-109341461D01*
X94999762Y-109341461D02*
X95109286Y-109286700D01*
X95109286Y-109286700D02*
X95164048Y-109177176D01*
X95164048Y-109177176D02*
X95164048Y-108739080D01*
X95164048Y-108739080D02*
X95109286Y-108629557D01*
X95109286Y-108629557D02*
X94999762Y-108574795D01*
X94999762Y-108574795D02*
X94780715Y-108574795D01*
X94780715Y-108574795D02*
X94671191Y-108629557D01*
X94671191Y-108629557D02*
X94616429Y-108739080D01*
X94616429Y-108739080D02*
X94616429Y-108848604D01*
X94616429Y-108848604D02*
X95164048Y-108958128D01*
X94123572Y-108574795D02*
X94123572Y-109341461D01*
X94123572Y-108684319D02*
X94068810Y-108629557D01*
X94068810Y-108629557D02*
X93959286Y-108574795D01*
X93959286Y-108574795D02*
X93795001Y-108574795D01*
X93795001Y-108574795D02*
X93685477Y-108629557D01*
X93685477Y-108629557D02*
X93630715Y-108739080D01*
X93630715Y-108739080D02*
X93630715Y-109341461D01*
X93247382Y-108574795D02*
X92809286Y-108574795D01*
X93083096Y-108191461D02*
X93083096Y-109177176D01*
X93083096Y-109177176D02*
X93028334Y-109286700D01*
X93028334Y-109286700D02*
X92918810Y-109341461D01*
X92918810Y-109341461D02*
X92809286Y-109341461D01*
X90673573Y-109286700D02*
X91549763Y-109286700D01*
X90673573Y-109067652D02*
X91549763Y-108739080D01*
X91549763Y-108739080D02*
X90673573Y-108410509D01*
X88756906Y-108191461D02*
X88975953Y-108191461D01*
X88975953Y-108191461D02*
X89085477Y-108246223D01*
X89085477Y-108246223D02*
X89140239Y-108300985D01*
X89140239Y-108300985D02*
X89249763Y-108465271D01*
X89249763Y-108465271D02*
X89304525Y-108684319D01*
X89304525Y-108684319D02*
X89304525Y-109122414D01*
X89304525Y-109122414D02*
X89249763Y-109231938D01*
X89249763Y-109231938D02*
X89195001Y-109286700D01*
X89195001Y-109286700D02*
X89085477Y-109341461D01*
X89085477Y-109341461D02*
X88866430Y-109341461D01*
X88866430Y-109341461D02*
X88756906Y-109286700D01*
X88756906Y-109286700D02*
X88702144Y-109231938D01*
X88702144Y-109231938D02*
X88647382Y-109122414D01*
X88647382Y-109122414D02*
X88647382Y-108848604D01*
X88647382Y-108848604D02*
X88702144Y-108739080D01*
X88702144Y-108739080D02*
X88756906Y-108684319D01*
X88756906Y-108684319D02*
X88866430Y-108629557D01*
X88866430Y-108629557D02*
X89085477Y-108629557D01*
X89085477Y-108629557D02*
X89195001Y-108684319D01*
X89195001Y-108684319D02*
X89249763Y-108739080D01*
X89249763Y-108739080D02*
X89304525Y-108848604D01*
X87935477Y-108191461D02*
X87825954Y-108191461D01*
X87825954Y-108191461D02*
X87716430Y-108246223D01*
X87716430Y-108246223D02*
X87661668Y-108300985D01*
X87661668Y-108300985D02*
X87606906Y-108410509D01*
X87606906Y-108410509D02*
X87552144Y-108629557D01*
X87552144Y-108629557D02*
X87552144Y-108903366D01*
X87552144Y-108903366D02*
X87606906Y-109122414D01*
X87606906Y-109122414D02*
X87661668Y-109231938D01*
X87661668Y-109231938D02*
X87716430Y-109286700D01*
X87716430Y-109286700D02*
X87825954Y-109341461D01*
X87825954Y-109341461D02*
X87935477Y-109341461D01*
X87935477Y-109341461D02*
X88045001Y-109286700D01*
X88045001Y-109286700D02*
X88099763Y-109231938D01*
X88099763Y-109231938D02*
X88154525Y-109122414D01*
X88154525Y-109122414D02*
X88209287Y-108903366D01*
X88209287Y-108903366D02*
X88209287Y-108629557D01*
X88209287Y-108629557D02*
X88154525Y-108410509D01*
X88154525Y-108410509D02*
X88099763Y-108300985D01*
X88099763Y-108300985D02*
X88045001Y-108246223D01*
X88045001Y-108246223D02*
X87935477Y-108191461D01*
X87114049Y-109012890D02*
X86566430Y-109012890D01*
X87223573Y-109341461D02*
X86840239Y-108191461D01*
X86840239Y-108191461D02*
X86456906Y-109341461D01*
M02*
