%TF.GenerationSoftware,KiCad,Pcbnew,9.0.2*%
%TF.CreationDate,2026-09-24T17:43:48-04:00*%
%TF.ProjectId,BatteryBoard_8sNp_V1,42617474-6572-4794-926f-6172645f3873,rev?*%
%TF.SameCoordinates,Original*%
%TF.FileFunction,Profile,NP*%
%FSLAX46Y46*%
G04 Gerber Fmt 4.6, Leading zero omitted, Abs format (unit mm)*
G04 Created by KiCad (PCBNEW 9.0.2) date 2026-09-24 17:43:48*
%MOMM*%
%LPD*%
G01*
G04 APERTURE LIST*
%TA.AperFunction,Profile*%
%ADD10C,0.050000*%
%TD*%
G04 APERTURE END LIST*
D10*
X87505000Y-81750000D02*
G75*
G02*
X89005000Y-83250000I0J-1500000D01*
G01*
X111005000Y-83250000D02*
G75*
G02*
X112505000Y-81750000I1500000J0D01*
G01*
X111005000Y-86745000D02*
G75*
G02*
X109505000Y-88245000I-1500000J0D01*
G01*
X90505000Y-88245000D02*
G75*
G02*
X89005000Y-86745000I0J1500000D01*
G01*
X73500000Y-83250000D02*
G75*
G02*
X75000000Y-81750000I1500000J0D01*
G01*
X75000000Y-118230000D02*
G75*
G02*
X73500000Y-116730000I0J1500000D01*
G01*
X126500000Y-83250000D02*
X126500000Y-116730000D01*
X112505000Y-81750000D02*
X125000000Y-81750000D01*
X125000000Y-118230000D02*
X75000000Y-118230000D01*
X125000000Y-81750000D02*
G75*
G02*
X126500000Y-83250000I0J-1500000D01*
G01*
X126500000Y-116730000D02*
G75*
G02*
X125000000Y-118230000I-1500000J0D01*
G01*
X75000000Y-81750000D02*
X87505000Y-81750000D01*
X73500000Y-83250000D02*
X73500000Y-116730000D01*
X111005000Y-83250000D02*
X111005000Y-86745000D01*
X90505000Y-88245000D02*
X109505000Y-88245000D01*
X89005000Y-83250000D02*
X89005000Y-86745000D01*
%TO.C,J1*%
X83450000Y-100000000D02*
G75*
G02*
X82450000Y-100000000I-500000J0D01*
G01*
X82450000Y-100000000D02*
G75*
G02*
X83450000Y-100000000I500000J0D01*
G01*
X117550000Y-100000000D02*
G75*
G02*
X116550000Y-100000000I-500000J0D01*
G01*
X116550000Y-100000000D02*
G75*
G02*
X117550000Y-100000000I500000J0D01*
G01*
%TD*%
M02*
