%TF.GenerationSoftware,KiCad,Pcbnew,9.0.2*%
%TF.CreationDate,2026-09-24T17:43:48-04:00*%
%TF.ProjectId,BatteryBoard_8sNp_V1,42617474-6572-4794-926f-6172645f3873,rev?*%
%TF.SameCoordinates,Original*%
%TF.FileFunction,Copper,L3,Inr*%
%TF.FilePolarity,Positive*%
%FSLAX46Y46*%
G04 Gerber Fmt 4.6, Leading zero omitted, Abs format (unit mm)*
G04 Created by KiCad (PCBNEW 9.0.2) date 2026-09-24 17:43:48*
%MOMM*%
%LPD*%
G01*
G04 APERTURE LIST*
G04 Aperture macros list*
%AMRoundRect*
0 Rectangle with rounded corners*
0 $1 Rounding radius*
0 $2 $3 $4 $5 $6 $7 $8 $9 X,Y pos of 4 corners*
0 Add a 4 corners polygon primitive as box body*
4,1,4,$2,$3,$4,$5,$6,$7,$8,$9,$2,$3,0*
0 Add four circle primitives for the rounded corners*
1,1,$1+$1,$2,$3*
1,1,$1+$1,$4,$5*
1,1,$1+$1,$6,$7*
1,1,$1+$1,$8,$9*
0 Add four rect primitives between the rounded corners*
20,1,$1+$1,$2,$3,$4,$5,0*
20,1,$1+$1,$4,$5,$6,$7,0*
20,1,$1+$1,$6,$7,$8,$9,0*
20,1,$1+$1,$8,$9,$2,$3,0*%
G04 Aperture macros list end*
%TA.AperFunction,ComponentPad*%
%ADD10C,3.600000*%
%TD*%
%TA.AperFunction,ComponentPad*%
%ADD11RoundRect,0.240000X-0.560000X-1.260000X0.560000X-1.260000X0.560000X1.260000X-0.560000X1.260000X0*%
%TD*%
%TA.AperFunction,ViaPad*%
%ADD12C,0.600000*%
%TD*%
G04 APERTURE END LIST*
D10*
%TO.N,N/C*%
%TO.C,REF\u002A\u002A*%
X122000000Y-113750000D03*
%TD*%
%TO.N,N/C*%
%TO.C,REF\u002A\u002A*%
X78000000Y-86250000D03*
%TD*%
%TO.N,N/C*%
%TO.C,REF\u002A\u002A*%
X78000000Y-113750000D03*
%TD*%
%TO.N,N/C*%
%TO.C,REF\u002A\u002A*%
X122000000Y-86250000D03*
%TD*%
D11*
%TO.N,-Vbatt*%
%TO.C,J1*%
X114850000Y-100000000D03*
X112150000Y-100000000D03*
X109450000Y-100000000D03*
%TO.N,+Vbatt*%
X106750000Y-100000000D03*
X104050000Y-100000000D03*
X101350000Y-100000000D03*
X98650000Y-100000000D03*
X95950000Y-100000000D03*
X93250000Y-100000000D03*
%TO.N,-Vbatt*%
X90550000Y-100000000D03*
X87850000Y-100000000D03*
X85150000Y-100000000D03*
%TD*%
D12*
%TO.N,+Vbatt*%
X95070000Y-103290000D03*
X110980000Y-103540000D03*
X122360000Y-97950000D03*
X120110000Y-100260000D03*
X115380000Y-106020000D03*
X96220000Y-106350000D03*
X122390000Y-102560000D03*
X110560000Y-108860000D03*
X123070000Y-105880000D03*
X100680000Y-105680000D03*
X124550000Y-95860000D03*
X124600000Y-100270000D03*
X122330000Y-95870000D03*
X120190000Y-105930000D03*
X120060000Y-95850000D03*
X105910000Y-103120000D03*
X106640000Y-105640000D03*
X122380000Y-100280000D03*
X115030000Y-108570000D03*
X117130000Y-103510000D03*
X110770000Y-106020000D03*
X124610000Y-102550000D03*
X118730000Y-108620000D03*
X121980000Y-108190000D03*
X102350000Y-103400000D03*
X124580000Y-97940000D03*
X104780000Y-108730000D03*
X120090000Y-97930000D03*
X98810000Y-103170000D03*
X120120000Y-102540000D03*
X99400000Y-108390000D03*
%TO.N,-Vbatt*%
X75420000Y-98610000D03*
X75420000Y-96230000D03*
X77780000Y-98620000D03*
X110260000Y-97090000D03*
X80060000Y-98630000D03*
X86660000Y-91600000D03*
X96910000Y-96210000D03*
X80060000Y-96250000D03*
X115410000Y-97060000D03*
X83310000Y-90020000D03*
X115440000Y-91520000D03*
X104170000Y-93820000D03*
X80080000Y-101210000D03*
X103320000Y-96210000D03*
X90640000Y-89930000D03*
X90500000Y-96270000D03*
X80120000Y-103730000D03*
X75440000Y-101190000D03*
X86850000Y-97330000D03*
X87840000Y-103170000D03*
X77780000Y-96240000D03*
X97480000Y-89970000D03*
X94180000Y-94370000D03*
X86930000Y-94800000D03*
X111430000Y-92120000D03*
X113570000Y-94140000D03*
X101160000Y-91480000D03*
X83440000Y-93170000D03*
X111431764Y-90060000D03*
X94900000Y-91550000D03*
X77890000Y-94040000D03*
X77840000Y-103720000D03*
X75480000Y-103710000D03*
X83600000Y-96260000D03*
X82700000Y-103070000D03*
X104190000Y-89970000D03*
X85630000Y-103120000D03*
X112680000Y-97090000D03*
X98810000Y-93830000D03*
X77800000Y-101200000D03*
X107450000Y-91440000D03*
X108450000Y-94410000D03*
X90190000Y-92990000D03*
X80590000Y-92330000D03*
%TD*%
%TA.AperFunction,Conductor*%
%TO.N,+Vbatt*%
G36*
X125452753Y-94779685D02*
G01*
X125498508Y-94832489D01*
X125509714Y-94884285D01*
X125480185Y-107729259D01*
X125460346Y-107796253D01*
X125407437Y-107841886D01*
X125406084Y-107842491D01*
X118883644Y-110709606D01*
X118834170Y-110720088D01*
X98453849Y-110789884D01*
X98390789Y-110772903D01*
X94797917Y-108670052D01*
X92501444Y-107325962D01*
X92453529Y-107275110D01*
X92440080Y-107218806D01*
X92449859Y-98614021D01*
X92469620Y-98547005D01*
X92522476Y-98501310D01*
X92574018Y-98490163D01*
X107456483Y-98509836D01*
X107523494Y-98529609D01*
X107569179Y-98582474D01*
X107580317Y-98633517D01*
X107590000Y-102400000D01*
X116619999Y-102400000D01*
X116620000Y-102400000D01*
X118570000Y-100810000D01*
X118549846Y-96738883D01*
X118562376Y-96683947D01*
X119466043Y-94829677D01*
X119513108Y-94778037D01*
X119577511Y-94760000D01*
X125385714Y-94760000D01*
X125452753Y-94779685D01*
G37*
%TD.AperFunction*%
%TD*%
%TA.AperFunction,Conductor*%
%TO.N,-Vbatt*%
G36*
X117206263Y-88949587D02*
G01*
X117273236Y-88969495D01*
X117318815Y-89022451D01*
X117329849Y-89073737D01*
X117320044Y-97133091D01*
X117300278Y-97200106D01*
X117299778Y-97200876D01*
X115649999Y-99720001D01*
X115668593Y-101374785D01*
X115649663Y-101442041D01*
X115597377Y-101488386D01*
X115544778Y-101500178D01*
X108793016Y-101509824D01*
X108725949Y-101490235D01*
X108680118Y-101437497D01*
X108668844Y-101386992D01*
X108630000Y-97250000D01*
X108560281Y-97249717D01*
X91330000Y-97179999D01*
X91330000Y-97180000D01*
X91339899Y-101535680D01*
X91320367Y-101602764D01*
X91311986Y-101614342D01*
X88367247Y-105224337D01*
X88309618Y-105263842D01*
X88271070Y-105269957D01*
X74624505Y-105260090D01*
X74557480Y-105240357D01*
X74511763Y-105187520D01*
X74500596Y-105135496D01*
X74517515Y-101602764D01*
X74524719Y-100098543D01*
X81949499Y-100098543D01*
X81987947Y-100291829D01*
X81987950Y-100291839D01*
X82063364Y-100473907D01*
X82063371Y-100473920D01*
X82172860Y-100637781D01*
X82172863Y-100637785D01*
X82312214Y-100777136D01*
X82312218Y-100777139D01*
X82476079Y-100886628D01*
X82476092Y-100886635D01*
X82658160Y-100962049D01*
X82658165Y-100962051D01*
X82658169Y-100962051D01*
X82658170Y-100962052D01*
X82851456Y-101000500D01*
X82851459Y-101000500D01*
X83048543Y-101000500D01*
X83178582Y-100974632D01*
X83241835Y-100962051D01*
X83423914Y-100886632D01*
X83587782Y-100777139D01*
X83727139Y-100637782D01*
X83836632Y-100473914D01*
X83912051Y-100291835D01*
X83950500Y-100098541D01*
X83950500Y-99901459D01*
X83950500Y-99901456D01*
X83912052Y-99708170D01*
X83912051Y-99708169D01*
X83912051Y-99708165D01*
X83912049Y-99708160D01*
X83836635Y-99526092D01*
X83836628Y-99526079D01*
X83727139Y-99362218D01*
X83727136Y-99362214D01*
X83587785Y-99222863D01*
X83587781Y-99222860D01*
X83423920Y-99113371D01*
X83423907Y-99113364D01*
X83241839Y-99037950D01*
X83241829Y-99037947D01*
X83048543Y-98999500D01*
X83048541Y-98999500D01*
X82851459Y-98999500D01*
X82851457Y-98999500D01*
X82658170Y-99037947D01*
X82658160Y-99037950D01*
X82476092Y-99113364D01*
X82476079Y-99113371D01*
X82312218Y-99222860D01*
X82312214Y-99222863D01*
X82172863Y-99362214D01*
X82172860Y-99362218D01*
X82063371Y-99526079D01*
X82063364Y-99526092D01*
X81987950Y-99708160D01*
X81987947Y-99708170D01*
X81949500Y-99901456D01*
X81949500Y-99901459D01*
X81949500Y-100098541D01*
X81949500Y-100098543D01*
X81949499Y-100098543D01*
X74524719Y-100098543D01*
X74549715Y-94879464D01*
X74569721Y-94812521D01*
X74596548Y-94782996D01*
X82047945Y-88859448D01*
X82112671Y-88833140D01*
X82125516Y-88832516D01*
X117206263Y-88949587D01*
G37*
%TD.AperFunction*%
%TD*%
M02*
