%TF.GenerationSoftware,KiCad,Pcbnew,9.0.2*%
%TF.CreationDate,2026-09-24T19:42:06-04:00*%
%TF.ProjectId,ChargingStationBoard_8sNp_V1,43686172-6769-46e6-9753-746174696f6e,rev?*%
%TF.SameCoordinates,Original*%
%TF.FileFunction,Copper,L4,Bot*%
%TF.FilePolarity,Positive*%
%FSLAX46Y46*%
G04 Gerber Fmt 4.6, Leading zero omitted, Abs format (unit mm)*
G04 Created by KiCad (PCBNEW 9.0.2) date 2026-09-24 19:42:06*
%MOMM*%
%LPD*%
G01*
G04 APERTURE LIST*
G04 Aperture macros list*
%AMRoundRect*
0 Rectangle with rounded corners*
0 $1 Rounding radius*
0 $2 $3 $4 $5 $6 $7 $8 $9 X,Y pos of 4 corners*
0 Add a 4 corners polygon primitive as box body*
4,1,4,$2,$3,$4,$5,$6,$7,$8,$9,$2,$3,0*
0 Add four circle primitives for the rounded corners*
1,1,$1+$1,$2,$3*
1,1,$1+$1,$4,$5*
1,1,$1+$1,$6,$7*
1,1,$1+$1,$8,$9*
0 Add four rect primitives between the rounded corners*
20,1,$1+$1,$2,$3,$4,$5,0*
20,1,$1+$1,$4,$5,$6,$7,0*
20,1,$1+$1,$6,$7,$8,$9,0*
20,1,$1+$1,$8,$9,$2,$3,0*%
G04 Aperture macros list end*
%TA.AperFunction,ComponentPad*%
%ADD10C,3.600000*%
%TD*%
%TA.AperFunction,ConnectorPad*%
%ADD11C,5.600000*%
%TD*%
%TA.AperFunction,ComponentPad*%
%ADD12RoundRect,0.250000X0.600000X0.725000X-0.600000X0.725000X-0.600000X-0.725000X0.600000X-0.725000X0*%
%TD*%
%TA.AperFunction,ComponentPad*%
%ADD13O,1.700000X1.950000*%
%TD*%
%TA.AperFunction,ComponentPad*%
%ADD14RoundRect,0.240000X0.560000X1.260000X-0.560000X1.260000X-0.560000X-1.260000X0.560000X-1.260000X0*%
%TD*%
%TA.AperFunction,ComponentPad*%
%ADD15RoundRect,0.250000X-0.600000X-0.725000X0.600000X-0.725000X0.600000X0.725000X-0.600000X0.725000X0*%
%TD*%
%TA.AperFunction,SMDPad,CuDef*%
%ADD16R,1.750000X1.750000*%
%TD*%
%TA.AperFunction,SMDPad,CuDef*%
%ADD17R,8.000000X8.000000*%
%TD*%
%TA.AperFunction,ViaPad*%
%ADD18C,0.600000*%
%TD*%
%TA.AperFunction,ViaPad*%
%ADD19C,0.800000*%
%TD*%
%TA.AperFunction,Conductor*%
%ADD20C,0.800000*%
%TD*%
%TA.AperFunction,Conductor*%
%ADD21C,0.200000*%
%TD*%
G04 APERTURE END LIST*
D10*
%TO.P,REF\u002A\u002A,1*%
%TO.N,N/C*%
X182000000Y-68000000D03*
D11*
X182000000Y-68000000D03*
%TD*%
D10*
%TO.P,REF\u002A\u002A,1*%
%TO.N,N/C*%
X182000000Y-119000000D03*
D11*
X182000000Y-119000000D03*
%TD*%
D10*
%TO.P,REF\u002A\u002A,1*%
%TO.N,N/C*%
X122000000Y-119000000D03*
D11*
X122000000Y-119000000D03*
%TD*%
D12*
%TO.P,J1,1,Pin_1*%
%TO.N,Net-(J1-Pin_1)*%
X162070000Y-88810000D03*
D13*
%TO.P,J1,2,Pin_2*%
%TO.N,Net-(J1-Pin_2)*%
X159570000Y-88810000D03*
%TO.P,J1,3,Pin_3*%
%TO.N,Net-(J1-Pin_3)*%
X157070000Y-88810000D03*
%TO.P,J1,4,Pin_4*%
%TO.N,Net-(J1-Pin_4)*%
X154570000Y-88810000D03*
%TO.P,J1,5,Pin_5*%
%TO.N,Net-(J1-Pin_5)*%
X152070000Y-88810000D03*
%TO.P,J1,6,Pin_6*%
%TO.N,Net-(J1-Pin_6)*%
X149570000Y-88810000D03*
%TO.P,J1,7,Pin_7*%
%TO.N,Net-(J1-Pin_7)*%
X147070000Y-88810000D03*
%TO.P,J1,8,Pin_8*%
%TO.N,Net-(J1-Pin_8)*%
X144570000Y-88810000D03*
%TO.P,J1,9,Pin_9*%
%TO.N,Net-(J1-Pin_9)*%
X142070000Y-88810000D03*
%TD*%
D14*
%TO.P,J3,1,Pin_1*%
%TO.N,/GND*%
X137220000Y-101820000D03*
%TO.P,J3,2,Pin_2*%
X139920000Y-101820000D03*
%TO.P,J3,3,Pin_3*%
X142620000Y-101820000D03*
%TO.P,J3,4,Pin_4*%
%TO.N,/Vbatt*%
X145320000Y-101820000D03*
%TO.P,J3,5,Pin_5*%
X148020000Y-101820000D03*
%TO.P,J3,6,Pin_6*%
X150720000Y-101820000D03*
%TO.P,J3,7,Pin_7*%
X153420000Y-101820000D03*
%TO.P,J3,8,Pin_8*%
X156120000Y-101820000D03*
%TO.P,J3,9,Pin_9*%
X158820000Y-101820000D03*
%TO.P,J3,10,Pin_10*%
%TO.N,/GND*%
X161520000Y-101820000D03*
%TO.P,J3,11,Pin_11*%
X164220000Y-101820000D03*
%TO.P,J3,12,Pin_12*%
X166920000Y-101820000D03*
%TD*%
D15*
%TO.P,J2,1,Pin_1*%
%TO.N,Net-(J1-Pin_1)*%
X142080000Y-114840000D03*
D13*
%TO.P,J2,2,Pin_2*%
%TO.N,Net-(J1-Pin_2)*%
X144580000Y-114840000D03*
%TO.P,J2,3,Pin_3*%
%TO.N,Net-(J1-Pin_3)*%
X147080000Y-114840000D03*
%TO.P,J2,4,Pin_4*%
%TO.N,Net-(J1-Pin_4)*%
X149580000Y-114840000D03*
%TO.P,J2,5,Pin_5*%
%TO.N,Net-(J1-Pin_5)*%
X152080000Y-114840000D03*
%TO.P,J2,6,Pin_6*%
%TO.N,Net-(J1-Pin_6)*%
X154580000Y-114840000D03*
%TO.P,J2,7,Pin_7*%
%TO.N,Net-(J1-Pin_7)*%
X157080000Y-114840000D03*
%TO.P,J2,8,Pin_8*%
%TO.N,Net-(J1-Pin_8)*%
X159580000Y-114840000D03*
%TO.P,J2,9,Pin_9*%
%TO.N,Net-(J1-Pin_9)*%
X162080000Y-114840000D03*
%TD*%
D10*
%TO.P,REF\u002A\u002A,1*%
%TO.N,N/C*%
X122000000Y-68000000D03*
D11*
X122000000Y-68000000D03*
%TD*%
D16*
%TO.P,J4,1,Pin_1*%
%TO.N,Net-(J1-Pin_1)*%
X177770000Y-63970000D03*
X177770000Y-63970000D03*
%TO.P,J4,2,Pin_2*%
%TO.N,Net-(J1-Pin_2)*%
X175270000Y-63970000D03*
%TO.P,J4,3,Pin_3*%
%TO.N,Net-(J1-Pin_3)*%
X172770000Y-63970000D03*
%TO.P,J4,4,Pin_4*%
%TO.N,Net-(J1-Pin_4)*%
X170270000Y-63970000D03*
%TO.P,J4,5,Pin_5*%
%TO.N,Net-(J1-Pin_5)*%
X167770000Y-63970000D03*
%TO.P,J4,6,Pin_6*%
%TO.N,Net-(J1-Pin_6)*%
X165270000Y-63970000D03*
%TO.P,J4,7,Pin_7*%
%TO.N,Net-(J1-Pin_7)*%
X162770000Y-63970000D03*
%TO.P,J4,8,Pin_8*%
%TO.N,Net-(J1-Pin_8)*%
X160270000Y-63970000D03*
%TO.P,J4,9,Pin_9*%
%TO.N,Net-(J1-Pin_9)*%
X157770000Y-63970000D03*
%TD*%
D17*
%TO.P,J5,1,Pin_1*%
%TO.N,/Vbatt*%
X139840000Y-67000000D03*
%TO.P,J5,2,Pin_2*%
%TO.N,/GND*%
X129840000Y-67000000D03*
%TD*%
D18*
%TO.N,Net-(J1-Pin_5)*%
X167680000Y-69400000D03*
%TO.N,Net-(J1-Pin_6)*%
X165180000Y-69380000D03*
D19*
%TO.N,Net-(J1-Pin_9)*%
X157680000Y-69490000D03*
D18*
%TO.N,Net-(J1-Pin_8)*%
X160180000Y-69430000D03*
%TO.N,Net-(J1-Pin_7)*%
X162680000Y-69400000D03*
%TO.N,/Vbatt*%
X150820000Y-93300000D03*
X134390000Y-82530000D03*
X140850000Y-72140000D03*
X137790000Y-64710000D03*
X141860000Y-96370000D03*
X134890000Y-96020000D03*
X129190000Y-84890000D03*
X142290000Y-64710000D03*
X139290000Y-69210000D03*
X154630000Y-94280000D03*
X145300000Y-96330000D03*
X129090000Y-81550000D03*
X147980000Y-98670000D03*
X153510000Y-98600000D03*
X132070000Y-93890000D03*
X134450000Y-73920000D03*
X140790000Y-66210000D03*
X134460000Y-89460000D03*
X145300000Y-98560000D03*
X137980000Y-96260000D03*
X145920000Y-93300000D03*
X138700000Y-74520000D03*
X132390000Y-76030000D03*
X158800000Y-98460000D03*
X130170000Y-78250000D03*
X140790000Y-64710000D03*
X139290000Y-66210000D03*
X129220000Y-87640000D03*
X136110000Y-92140000D03*
X137790000Y-69210000D03*
X129670000Y-91450000D03*
X150760000Y-96230000D03*
X153480000Y-96090000D03*
X142290000Y-66210000D03*
X137790000Y-67710000D03*
X136300000Y-72060000D03*
X140790000Y-67710000D03*
X134250000Y-79380000D03*
X142290000Y-67710000D03*
X136110000Y-76830000D03*
X139290000Y-67710000D03*
X156120000Y-98530000D03*
X139290000Y-64710000D03*
X137790000Y-66210000D03*
X156020000Y-96120000D03*
X142290000Y-69210000D03*
X148010000Y-96300000D03*
X150830000Y-98560000D03*
X140790000Y-69210000D03*
X140460000Y-93200000D03*
X134220000Y-86300000D03*
%TO.N,/GND*%
X120740000Y-81130000D03*
X140110000Y-110120000D03*
X130660000Y-64630000D03*
X120850000Y-98080000D03*
X161990000Y-105960000D03*
X163060000Y-109330000D03*
X156150000Y-107510000D03*
X132330000Y-71470000D03*
X132160000Y-64630000D03*
X127660000Y-67630000D03*
X132290000Y-104880000D03*
X167010000Y-106070000D03*
X126520000Y-104670000D03*
X146630000Y-110160000D03*
X129160000Y-66130000D03*
X121630000Y-76220000D03*
X130660000Y-69130000D03*
X120830000Y-92330000D03*
X129300000Y-101690000D03*
X136880000Y-105650000D03*
X132160000Y-66130000D03*
X127660000Y-69130000D03*
X129160000Y-64630000D03*
X142340000Y-105590000D03*
X127660000Y-66130000D03*
X130660000Y-66130000D03*
X134630000Y-110240000D03*
X130660000Y-67630000D03*
X125890000Y-78040000D03*
X127660000Y-64630000D03*
X125470000Y-93360000D03*
X164500000Y-106030000D03*
X137380000Y-107940000D03*
X139760000Y-105620000D03*
X129280000Y-74350000D03*
X153260000Y-110190000D03*
X149690000Y-107580000D03*
X120730000Y-86630000D03*
X130400000Y-108010000D03*
X132160000Y-69130000D03*
X126450000Y-98350000D03*
X124960000Y-74230000D03*
X125270000Y-84810000D03*
X129160000Y-67630000D03*
X129160000Y-69130000D03*
X159100000Y-110190000D03*
X126530000Y-71160000D03*
X142600000Y-107530000D03*
X123020000Y-101310000D03*
X132160000Y-67630000D03*
%TD*%
D20*
%TO.N,Net-(J1-Pin_5)*%
X152070000Y-85010000D02*
X152070000Y-88810000D01*
X167680000Y-69400000D02*
X167680000Y-63920000D01*
X167680000Y-69400000D02*
X152070000Y-85010000D01*
%TO.N,Net-(J1-Pin_6)*%
X165180000Y-69380000D02*
X165180000Y-63920000D01*
X165180000Y-69380000D02*
X149570000Y-84990000D01*
X149570000Y-84990000D02*
X149570000Y-88810000D01*
%TO.N,Net-(J1-Pin_3)*%
X151920000Y-119680000D02*
X171620000Y-119680000D01*
X172680000Y-63920000D02*
X172680000Y-69440000D01*
X172680000Y-69440000D02*
X157070000Y-85050000D01*
X157070000Y-85050000D02*
X157070000Y-88810000D01*
X157070000Y-89890000D02*
X157070000Y-88810000D01*
X171060000Y-92530000D02*
X159710000Y-92530000D01*
X159710000Y-92530000D02*
X157070000Y-89890000D01*
X174700000Y-116600000D02*
X174700000Y-96170000D01*
X171620000Y-119680000D02*
X174700000Y-116600000D01*
X174700000Y-96170000D02*
X171060000Y-92530000D01*
X147080000Y-114840000D02*
X151920000Y-119680000D01*
%TO.N,Net-(J1-Pin_2)*%
X175990000Y-117400000D02*
X175990000Y-95200000D01*
X175180000Y-63920000D02*
X175180000Y-69470000D01*
X175180000Y-69470000D02*
X159570000Y-85080000D01*
X150920000Y-121180000D02*
X172210000Y-121180000D01*
X171740000Y-90950000D02*
X160590000Y-90950000D01*
X175990000Y-95200000D02*
X171740000Y-90950000D01*
X144580000Y-114840000D02*
X150920000Y-121180000D01*
X159570000Y-89930000D02*
X159570000Y-88810000D01*
X159570000Y-85080000D02*
X159570000Y-88810000D01*
X160590000Y-90950000D02*
X159570000Y-89930000D01*
X172210000Y-121180000D02*
X175990000Y-117400000D01*
%TO.N,Net-(J1-Pin_9)*%
X157680000Y-69490000D02*
X142070000Y-85100000D01*
X142070000Y-85100000D02*
X142070000Y-88810000D01*
X157680000Y-69490000D02*
X157680000Y-63920000D01*
%TO.N,Net-(J1-Pin_8)*%
X160180000Y-69430000D02*
X144570000Y-85040000D01*
X160180000Y-69430000D02*
X160180000Y-63920000D01*
X144570000Y-85040000D02*
X144570000Y-88810000D01*
%TO.N,Net-(J1-Pin_1)*%
X177680000Y-69450000D02*
X162070000Y-85060000D01*
X171520000Y-88810000D02*
X162070000Y-88810000D01*
X172460000Y-122920000D02*
X177520000Y-117860000D01*
X150160000Y-122920000D02*
X172460000Y-122920000D01*
X162070000Y-85060000D02*
X162070000Y-88810000D01*
X177520000Y-117860000D02*
X177520000Y-94810000D01*
X177680000Y-63920000D02*
X177680000Y-69450000D01*
X177520000Y-94810000D02*
X171520000Y-88810000D01*
X142080000Y-114840000D02*
X150160000Y-122920000D01*
%TO.N,Net-(J1-Pin_4)*%
X158730000Y-94050000D02*
X154570000Y-89890000D01*
X170180000Y-63920000D02*
X170180000Y-69330000D01*
X170890000Y-118020000D02*
X173180000Y-115730000D01*
X152760000Y-118020000D02*
X170890000Y-118020000D01*
X173180000Y-96970000D02*
X170260000Y-94050000D01*
X154570000Y-89890000D02*
X154570000Y-88810000D01*
X154570000Y-84940000D02*
X154570000Y-88810000D01*
X173180000Y-115730000D02*
X173180000Y-96970000D01*
X170180000Y-69330000D02*
X154570000Y-84940000D01*
X149580000Y-114840000D02*
X152760000Y-118020000D01*
X170260000Y-94050000D02*
X158730000Y-94050000D01*
%TO.N,Net-(J1-Pin_7)*%
X162680000Y-69400000D02*
X147070000Y-85010000D01*
X147070000Y-85010000D02*
X147070000Y-88810000D01*
X162680000Y-69400000D02*
X162680000Y-63920000D01*
D21*
%TO.N,/Vbatt*%
X153420000Y-101820000D02*
X156120000Y-101820000D01*
X156120000Y-101820000D02*
X158820000Y-101820000D01*
X145320000Y-101820000D02*
X148020000Y-101820000D01*
X150720000Y-101820000D02*
X153420000Y-101820000D01*
X148020000Y-101820000D02*
X150720000Y-101820000D01*
%TO.N,/GND*%
X137220000Y-101820000D02*
X136740000Y-101340000D01*
X161520000Y-101820000D02*
X164220000Y-101820000D01*
X164220000Y-101820000D02*
X166920000Y-101820000D01*
X137220000Y-101820000D02*
X139920000Y-101820000D01*
X139920000Y-101820000D02*
X142620000Y-101820000D01*
%TD*%
%TA.AperFunction,Conductor*%
%TO.N,/GND*%
G36*
X168983039Y-99099685D02*
G01*
X169028794Y-99152489D01*
X169040000Y-99204000D01*
X169040000Y-105684781D01*
X169023786Y-105740000D01*
X160510000Y-105740000D01*
X160510000Y-99204000D01*
X160529685Y-99136961D01*
X160582489Y-99091206D01*
X160634000Y-99080000D01*
X168916000Y-99080000D01*
X168983039Y-99099685D01*
G37*
%TD.AperFunction*%
%TD*%
%TA.AperFunction,Conductor*%
%TO.N,/Vbatt*%
G36*
X135480000Y-89733913D02*
G01*
X135480000Y-91930000D01*
X127817306Y-91930000D01*
X127803522Y-91906177D01*
X127800000Y-91876832D01*
X127800000Y-79419834D01*
X127808289Y-79391603D01*
X127812513Y-79370000D01*
X135480000Y-79370000D01*
X135480000Y-89733913D01*
G37*
%TD.AperFunction*%
%TD*%
%TA.AperFunction,Conductor*%
%TO.N,/GND*%
G36*
X162830000Y-111315129D02*
G01*
X162802375Y-111328382D01*
X162782410Y-111330000D01*
X131059968Y-111330000D01*
X131010000Y-111315327D01*
X131010000Y-105670000D01*
X162830000Y-105670000D01*
X162830000Y-111315129D01*
G37*
%TD.AperFunction*%
%TD*%
%TA.AperFunction,Conductor*%
%TO.N,/Vbatt*%
G36*
X159566732Y-97784239D02*
G01*
X159570000Y-97812520D01*
X159570000Y-104666000D01*
X159550315Y-104733039D01*
X159497511Y-104778794D01*
X159446000Y-104790000D01*
X144644000Y-104790000D01*
X144576961Y-104770315D01*
X144531206Y-104717511D01*
X144520000Y-104666000D01*
X144520000Y-98240000D01*
X144520000Y-97760000D01*
X159552992Y-97760000D01*
X159566732Y-97784239D01*
G37*
%TD.AperFunction*%
%TD*%
%TA.AperFunction,Conductor*%
%TO.N,/Vbatt*%
G36*
X134430000Y-98225442D02*
G01*
X134412537Y-98220315D01*
X134394089Y-98205822D01*
X127838513Y-91966654D01*
X127822405Y-91938815D01*
X127816659Y-91929874D01*
X134430000Y-91880000D01*
X134430000Y-98225442D01*
G37*
%TD.AperFunction*%
%TD*%
%TA.AperFunction,Conductor*%
%TO.N,/Vbatt*%
G36*
X153516828Y-91899685D02*
G01*
X153536064Y-91914935D01*
X159532277Y-97723457D01*
X159547873Y-97750971D01*
X159554465Y-97761228D01*
X153500000Y-98240000D01*
X153500000Y-91894743D01*
X153516828Y-91899685D01*
G37*
%TD.AperFunction*%
%TD*%
%TA.AperFunction,Conductor*%
%TO.N,/GND*%
G36*
X169023839Y-105739817D02*
G01*
X169020315Y-105751820D01*
X168998960Y-105776942D01*
X162865370Y-111298161D01*
X162830000Y-111315129D01*
X162830000Y-105670000D01*
X169023839Y-105739817D01*
G37*
%TD.AperFunction*%
%TD*%
%TA.AperFunction,Conductor*%
%TO.N,/GND*%
G36*
X143623039Y-99199685D02*
G01*
X143668794Y-99252489D01*
X143680000Y-99304000D01*
X143680000Y-105840000D01*
X134410000Y-105840000D01*
X134410000Y-104611240D01*
X134410000Y-99304000D01*
X134429685Y-99236961D01*
X134482489Y-99191206D01*
X134534000Y-99180000D01*
X143556000Y-99180000D01*
X143623039Y-99199685D01*
G37*
%TD.AperFunction*%
%TD*%
%TA.AperFunction,Conductor*%
%TO.N,/Vbatt*%
G36*
X137870000Y-92020000D02*
G01*
X135190000Y-92070000D01*
X135340000Y-89600000D01*
X137870000Y-92020000D01*
G37*
%TD.AperFunction*%
%TD*%
%TA.AperFunction,Conductor*%
%TO.N,/Vbatt*%
G36*
X153478321Y-91888378D02*
G01*
X153500000Y-91892734D01*
X153500000Y-98240000D01*
X134479576Y-98240000D01*
X134451550Y-98231770D01*
X134430000Y-98227637D01*
X134430000Y-91880000D01*
X137723636Y-91880000D01*
X137723637Y-91880000D01*
X153449789Y-91880000D01*
X153478321Y-91888378D01*
G37*
%TD.AperFunction*%
%TD*%
%TA.AperFunction,Conductor*%
%TO.N,/GND*%
G36*
X126570000Y-100140000D02*
G01*
X119397122Y-100140000D01*
X119383364Y-100115920D01*
X119380000Y-100087231D01*
X119380000Y-77485961D01*
X119387376Y-77460840D01*
X119390286Y-77440000D01*
X126570000Y-77440000D01*
X126570000Y-100140000D01*
G37*
%TD.AperFunction*%
%TD*%
%TA.AperFunction,Conductor*%
%TO.N,/GND*%
G36*
X133806093Y-70888134D02*
G01*
X133800315Y-70907812D01*
X133786237Y-70925822D01*
X126570000Y-78582307D01*
X126280000Y-78890000D01*
X119392711Y-77442671D01*
X119399685Y-77418922D01*
X119409952Y-77405146D01*
X125920000Y-69830000D01*
X133806093Y-70888134D01*
G37*
%TD.AperFunction*%
%TD*%
%TA.AperFunction,Conductor*%
%TO.N,/GND*%
G36*
X134745733Y-104964385D02*
G01*
X134410000Y-105536467D01*
X134409999Y-105536467D01*
X134331634Y-105670000D01*
X134331635Y-105670000D01*
X131017344Y-111317484D01*
X130992929Y-111310315D01*
X130973993Y-111295355D01*
X119418025Y-100176586D01*
X119392076Y-100131168D01*
X125738367Y-95489895D01*
X134745733Y-104964385D01*
G37*
%TD.AperFunction*%
%TD*%
%TA.AperFunction,Conductor*%
%TO.N,/Vbatt*%
G36*
X143699116Y-70979854D02*
G01*
X143684105Y-70998464D01*
X135480000Y-79369999D01*
X135480000Y-79370000D01*
X127814633Y-79370000D01*
X127819685Y-79352795D01*
X127834484Y-79334027D01*
X135820984Y-71002857D01*
X143704284Y-70962942D01*
X143699116Y-70979854D01*
G37*
%TD.AperFunction*%
%TD*%
M02*
