%TF.GenerationSoftware,KiCad,Pcbnew,9.0.2*%
%TF.CreationDate,2026-09-24T19:44:14-04:00*%
%TF.ProjectId,BatteryChargingStationBoard_10sNp_12PinMistaConn_4Layer,42617474-6572-4794-9368-617267696e67,rev?*%
%TF.SameCoordinates,Original*%
%TF.FileFunction,Soldermask,Top*%
%TF.FilePolarity,Negative*%
%FSLAX46Y46*%
G04 Gerber Fmt 4.6, Leading zero omitted, Abs format (unit mm)*
G04 Created by KiCad (PCBNEW 9.0.2) date 2026-09-24 19:44:14*
%MOMM*%
%LPD*%
G01*
G04 APERTURE LIST*
G04 Aperture macros list*
%AMRoundRect*
0 Rectangle with rounded corners*
0 $1 Rounding radius*
0 $2 $3 $4 $5 $6 $7 $8 $9 X,Y pos of 4 corners*
0 Add a 4 corners polygon primitive as box body*
4,1,4,$2,$3,$4,$5,$6,$7,$8,$9,$2,$3,0*
0 Add four circle primitives for the rounded corners*
1,1,$1+$1,$2,$3*
1,1,$1+$1,$4,$5*
1,1,$1+$1,$6,$7*
1,1,$1+$1,$8,$9*
0 Add four rect primitives between the rounded corners*
20,1,$1+$1,$2,$3,$4,$5,0*
20,1,$1+$1,$4,$5,$6,$7,0*
20,1,$1+$1,$6,$7,$8,$9,0*
20,1,$1+$1,$8,$9,$2,$3,0*%
G04 Aperture macros list end*
%ADD10C,3.600000*%
%ADD11C,5.600000*%
%ADD12RoundRect,0.250000X0.600000X0.725000X-0.600000X0.725000X-0.600000X-0.725000X0.600000X-0.725000X0*%
%ADD13O,1.700000X1.950000*%
%ADD14RoundRect,0.240000X0.560000X1.260000X-0.560000X1.260000X-0.560000X-1.260000X0.560000X-1.260000X0*%
%ADD15RoundRect,0.250000X-0.600000X-0.725000X0.600000X-0.725000X0.600000X0.725000X-0.600000X0.725000X0*%
G04 APERTURE END LIST*
D10*
%TO.C,REF\u002A\u002A*%
X182000000Y-68000000D03*
D11*
X182000000Y-68000000D03*
%TD*%
D12*
%TO.C,J2*%
X164570000Y-88810000D03*
D13*
X162070000Y-88810000D03*
X159570000Y-88810000D03*
X157070000Y-88810000D03*
X154570000Y-88810000D03*
X152070000Y-88810000D03*
X149570000Y-88810000D03*
X147070000Y-88810000D03*
X144570000Y-88810000D03*
X142070000Y-88810000D03*
X139570000Y-88810000D03*
%TD*%
D10*
%TO.C,REF\u002A\u002A*%
X182000000Y-119000000D03*
D11*
X182000000Y-119000000D03*
%TD*%
D10*
%TO.C,REF\u002A\u002A*%
X122000000Y-119000000D03*
D11*
X122000000Y-119000000D03*
%TD*%
D14*
%TO.C,J3*%
X137220000Y-101820000D03*
X139920000Y-101820000D03*
X142620000Y-101820000D03*
X145320000Y-101820000D03*
X148020000Y-101820000D03*
X150720000Y-101820000D03*
X153420000Y-101820000D03*
X156120000Y-101820000D03*
X158820000Y-101820000D03*
X161520000Y-101820000D03*
X164220000Y-101820000D03*
X166920000Y-101820000D03*
%TD*%
D15*
%TO.C,J1*%
X139590000Y-114840000D03*
D13*
X142090000Y-114840000D03*
X144590000Y-114840000D03*
X147090000Y-114840000D03*
X149590000Y-114840000D03*
X152090000Y-114840000D03*
X154590000Y-114840000D03*
X157090000Y-114840000D03*
X159590000Y-114840000D03*
X162090000Y-114840000D03*
X164590000Y-114840000D03*
%TD*%
D10*
%TO.C,REF\u002A\u002A*%
X122000000Y-68000000D03*
D11*
X122000000Y-68000000D03*
%TD*%
M02*
